<?xml version="1.0" standalone="no"?>
<!DOCTYPE svg PUBLIC "-//W3C//DTD SVG 1.1//EN" "http://www.w3.org/Graphics/SVG/1.1/DTD/svg11.dtd" >
<svg xmlns="http://www.w3.org/2000/svg">
<metadata></metadata>
<defs>
<font id="merel-thinuploaded_file" horiz-adv-x="1691" >
<font-face units-per-em="2048" ascent="1616" descent="-432" />
<missing-glyph horiz-adv-x="409" />
<glyph horiz-adv-x="0" />
<glyph unicode="&#xd;" horiz-adv-x="681" />
<glyph unicode=" "  horiz-adv-x="409" />
<glyph unicode="&#x09;" horiz-adv-x="409" />
<glyph unicode="&#xa0;" horiz-adv-x="409" />
<glyph unicode="!" horiz-adv-x="288" d="M102 12q0 16 13 29q12 12 30 12q17 0 29 -12t12 -29q0 -18 -12 -30q-13 -13 -29 -13q-17 0 -30 13t-13 30zM123 1100v231q6 6 20 6q15 0 21 -6v-231l-6 -676q-14 -14 -29 0z" />
<glyph unicode="&#x22;" horiz-adv-x="466" d="M102 928v403q6 6 21 6q14 0 20 -6l-10 -403q-15 -15 -31 0zM324 928v403q6 6 20 6q15 0 21 -6l-11 -403q-14 -14 -30 0z" />
<glyph unicode="#" horiz-adv-x="1017" d="M104 512q-6 21 13 37h194l68 233h-199q-6 21 13 37h196l148 512q6 6 20 6q15 0 21 -6l-148 -512h246l147 512q6 6 21 6q14 0 20 -6l-147 -512h198q6 -21 -10 -37h-198l-68 -233h199q6 -21 -13 -37h-196l-148 -512q-6 -6 -20 -6q-15 0 -21 6l148 512h-246l-147 -512 q-6 -6 -21 -6q-14 0 -20 6l147 512h-197zM352 549h246l68 233h-246z" />
<glyph unicode="$" horiz-adv-x="1173" d="M154 1032q0 137 110 232q112 97 297 98v190q7 7 21 7q13 0 20 -7v-190q219 -12 356 -137q7 -7 7 -25q0 -17 -7 -24q-145 149 -391 149q-171 0 -272 -86q-100 -85 -100 -207q0 -128 86 -190q87 -62 327 -140q73 -24 131 -45q51 -19 110 -51q62 -34 93 -68q32 -35 55 -92 t23 -124q0 -150 -117 -250q-118 -102 -301 -103v-190q-6 -6 -20 -6q-15 0 -21 6v190q-221 11 -389 144q-6 6 -6 24q0 19 6 25q85 -75 196 -115q115 -41 222 -41q169 0 279 89t110 227q0 80 -27 135q-27 56 -91 96q-65 41 -123 63q-71 27 -171 58q-117 36 -170 59 q-61 26 -126 68q-63 41 -90 97q-27 57 -27 134z" />
<glyph unicode="%" horiz-adv-x="1574" d="M102 1014q0 155 73 252q72 96 198 96q125 0 197 -96q73 -97 73 -252t-73 -252q-72 -96 -197 -96q-126 0 -198 96q-73 97 -73 252zM143 1014q0 -142 63 -227t167 -85t167 85q62 84 62 227q0 142 -62 226q-63 85 -167 85t-167 -85q-63 -86 -63 -226zM451 0l630 1331 q6 6 22 6q15 0 21 -6l-630 -1331q-6 -6 -22 -6q-15 0 -21 6zM932 317q0 155 73 252t197 97q125 0 198 -97t73 -252q0 -154 -73 -251t-198 -97q-124 0 -197 97t-73 251zM973 317q0 -142 62 -226q63 -85 167 -85t167 85t63 226t-63 227q-63 85 -167 85t-167 -85 q-62 -84 -62 -227z" />
<glyph unicode="&#x26;" horiz-adv-x="1257" d="M82 289q0 143 85 231q87 90 259 185q-190 227 -190 374q0 118 86 201q85 82 229 82q151 0 233 -85t82 -212q0 -140 -157 -246q-56 -39 -222 -127l437 -442q149 197 149 471q6 6 21 6q14 0 20 -6q0 -289 -162 -500l224 -221q-6 -6 -28 -6t-28 6l-194 188 q-189 -219 -459 -219q-157 0 -271 87t-114 233zM123 289q0 -131 102 -207q101 -76 242 -76q254 0 432 211l-446 457q-174 -96 -252 -177t-78 -208zM276 1079q0 -135 185 -356q222 121 280 170q84 72 84 172q0 113 -69 186q-69 74 -205 74q-127 0 -201 -71t-74 -175z" />
<glyph unicode="'" horiz-adv-x="245" d="M102 928v403q6 6 21 6q14 0 20 -6l-10 -403q-15 -15 -31 0z" />
<glyph unicode="(" horiz-adv-x="434" d="M102 551q0 190 53 410q53 218 136 370q6 6 20 6q15 0 21 -6q-87 -169 -137 -379q-52 -217 -52 -401t52 -401q50 -210 137 -379q-7 -7 -21 -7q-13 0 -20 7q-83 152 -136 370q-53 220 -53 410z" />
<glyph unicode=")" horiz-adv-x="434" d="M102 -229q89 172 138 379q51 213 51 401t-51 401q-49 207 -138 379q6 6 21 6q14 0 20 -6q85 -155 137 -370t52 -410t-52 -410t-137 -370q-7 -7 -20 -7q-14 0 -21 7z" />
<glyph unicode="*" horiz-adv-x="823" d="M104 1102q-4 6 1 21q4 12 14 18l278 -109l-8 299q6 6 21 6q14 0 20 -6l-4 -299l279 109q9 -5 13 -18q5 -15 1 -21l-283 -96l197 -226q-2 -8 -12 -17q-11 -9 -19 -9l-190 239l-191 -239q-7 0 -18 9q-12 10 -13 17l197 226z" />
<glyph unicode="+" horiz-adv-x="921" d="M102 590q0 11 7 18h333v334q6 6 19 6q12 0 18 -6v-334h334q6 -6 6 -18q0 -13 -6 -19h-334v-333q-7 -7 -18 -7q-12 0 -19 7v333h-333q-7 7 -7 19z" />
<glyph unicode="," horiz-adv-x="303" d="M102 -279q26 33 46 116q20 81 12 134q-10 -2 -15 -2q-15 0 -27 12t-12 29q0 43 44 43q37 0 47 -49q10 -52 -7 -152q-16 -97 -47 -131q-6 -6 -20 -6q-15 0 -21 6z" />
<glyph unicode="-" horiz-adv-x="780" d="M102 590q0 11 7 18h563q6 -6 6 -18q0 -13 -6 -19h-563q-7 7 -7 19z" />
<glyph unicode="." horiz-adv-x="288" d="M102 12q0 16 13 29q12 12 30 12q17 0 29 -12t12 -29q0 -18 -12 -30q-13 -13 -29 -13q-17 0 -30 13t-13 30z" />
<glyph unicode="/" horiz-adv-x="595" d="M102 0l351 1331q6 6 20 6q15 0 21 -6l-351 -1331q-6 -6 -20 -6q-15 0 -21 6z" />
<glyph unicode="0" horiz-adv-x="1355" d="M154 666q0 313 142 504q142 192 382 192t382 -192q142 -191 142 -504q0 -314 -142 -505q-142 -192 -382 -192t-382 192q-142 191 -142 505zM195 666q0 -299 131 -480q130 -180 352 -180t352 180q131 181 131 480q0 298 -131 479q-130 180 -352 180t-352 -180 q-131 -181 -131 -479z" />
<glyph unicode="1" horiz-adv-x="665" d="M82 1072q0 16 6 22l332 237q6 6 20 6q15 0 21 -6v-1331q-6 -6 -21 -6q-14 0 -20 6v1288l-332 -237q-6 6 -6 21z" />
<glyph unicode="2" horiz-adv-x="1077" d="M102 0v18q337 310 512 500q165 179 219 280q52 98 52 206q0 125 -97 224q-96 97 -270 97q-226 0 -371 -149q-6 6 -6 24q0 19 6 25q154 137 371 137q191 0 299 -108q109 -109 109 -250q0 -170 -144 -355q-147 -188 -602 -612h768q6 -6 6 -19q0 -12 -6 -18h-846z" />
<glyph unicode="3" horiz-adv-x="1146" d="M195 131q0 19 6 25q69 -70 175 -110q107 -40 216 -40q185 0 298 94q114 95 114 250q0 135 -97 229q-96 93 -284 93h-185q-6 6 -6 18q0 13 6 19h187q144 0 233 88q90 89 90 217t-96 219q-97 92 -270 92q-226 0 -371 -149q-6 6 -6 24q0 19 6 25q154 137 371 137 q191 0 300 -104q107 -103 107 -244q0 -112 -61 -197q-62 -85 -168 -123q140 -33 212 -128q72 -94 72 -216q0 -170 -124 -275q-126 -106 -328 -106q-108 0 -213 37q-107 38 -178 100q-6 6 -6 25z" />
<glyph unicode="4" horiz-adv-x="1167" d="M82 338q0 12 6 18l737 975q6 6 21 6q14 0 20 -6v-975h213q6 -6 6 -18q0 -13 -6 -19h-213v-319q-6 -6 -20 -6q-15 0 -21 6v319h-737q-6 6 -6 19zM137 356h688v908z" />
<glyph unicode="5" horiz-adv-x="1075" d="M123 131q0 19 6 25q68 -69 173 -110q104 -40 218 -40q182 0 297 106t115 267q0 159 -114 260q-113 100 -304 100q-149 0 -299 -90l104 682h590q6 -6 6 -18q0 -13 -6 -19h-555l-88 -579q118 61 248 61q210 0 334 -111q125 -111 125 -286q0 -176 -126 -293t-327 -117 q-237 0 -391 137q-6 6 -6 25z" />
<glyph unicode="6" horiz-adv-x="1196" d="M154 438q0 150 49 285q50 137 120 233q73 99 160 179q88 81 159 127q69 45 126 69q6 6 45 6t45 -6q-63 -22 -140 -68q-75 -45 -173 -123q-93 -74 -178 -189q-84 -114 -127 -242q150 141 364 141q203 0 321 -124q117 -123 117 -316q0 -190 -124 -315q-124 -126 -320 -126 t-320 127t-124 342zM195 438q0 -198 111 -315t292 -117q175 0 290 115q113 113 113 289q0 178 -105 290q-105 113 -292 113q-133 0 -233 -56q-104 -58 -152 -118q-24 -91 -24 -201z" />
<glyph unicode="7" horiz-adv-x="1062" d="M113 1313q0 12 6 18h862v-18l-694 -1313q-6 -6 -23 -6q-16 0 -22 6l684 1294h-807q-6 6 -6 19z" />
<glyph unicode="8" horiz-adv-x="1110" d="M102 342q0 117 77 217q76 98 212 133q-108 39 -170 127q-63 89 -63 195q0 141 106 244q107 104 291 104t291 -104q106 -103 106 -244q0 -106 -63 -195q-62 -88 -170 -127q136 -35 212 -133q77 -100 77 -217q0 -168 -128 -270q-129 -103 -325 -103t-325 103 q-128 102 -128 270zM143 342q0 -152 116 -244t296 -92t296 92t116 244q0 132 -102 231t-275 99h-70q-173 0 -275 -99t-102 -231zM199 1014q0 -125 91 -215q92 -90 228 -90h74q136 0 228 90q91 90 91 215q0 128 -94 219q-95 92 -262 92t-262 -92q-94 -91 -94 -219z" />
<glyph unicode="9" horiz-adv-x="1196" d="M154 922q0 187 125 314q124 126 319 126q197 0 321 -127q123 -126 123 -342q0 -150 -49 -285q-50 -137 -120 -233t-160 -178q-88 -81 -159 -127q-73 -48 -126 -70q-6 -6 -45 -6t-45 6q59 20 140 69t173 122q93 74 178 189q83 113 127 243q-151 -142 -364 -142 q-203 0 -321 124q-117 123 -117 317zM195 922q0 -178 105 -291t292 -113q133 0 233 56q104 58 152 118q24 92 24 201q0 198 -111 315t-292 117q-175 0 -290 -115q-113 -113 -113 -288z" />
<glyph unicode=":" horiz-adv-x="288" d="M102 12q0 16 13 29q12 12 30 12q17 0 29 -12t12 -29q0 -18 -12 -30q-13 -13 -29 -13q-17 0 -30 13t-13 30zM102 809q0 16 13 29q12 12 30 12q17 0 29 -12t12 -29q0 -19 -12 -31t-29 -12q-18 0 -30 12q-13 13 -13 31z" />
<glyph unicode=";" horiz-adv-x="303" d="M102 -279q26 33 46 116q20 81 12 134q-10 -2 -15 -2q-15 0 -27 12t-12 29q0 43 44 43q37 0 47 -49q10 -52 -7 -152q-16 -97 -47 -131q-6 -6 -20 -6q-15 0 -21 6zM106 809q0 16 13 29q12 12 31 12q16 0 28 -12t12 -29q0 -19 -12 -31t-28 -12q-19 0 -31 12q-13 13 -13 31z " />
<glyph unicode="&#x3c;" horiz-adv-x="948" d="M102 571q0 16 7 23l731 364q6 -6 6 -22q0 -17 -6 -23l-686 -342l686 -342q6 -6 6 -22q0 -17 -6 -23l-731 365q-7 7 -7 22z" />
<glyph unicode="=" horiz-adv-x="921" d="M102 444q0 12 7 19h704q6 -6 6 -19q0 -12 -6 -18h-704q-7 7 -7 18zM102 688q0 12 7 19h704q6 -6 6 -19q0 -12 -6 -18h-704q-7 7 -7 18z" />
<glyph unicode="&#x3e;" horiz-adv-x="948" d="M102 207q0 15 7 22l686 342l-686 342q-7 7 -7 23q0 15 7 22l731 -364q6 -6 6 -23q0 -16 -6 -22l-731 -365q-7 7 -7 23z" />
<glyph unicode="?" horiz-adv-x="1015" d="M102 1200q0 18 7 25q154 137 391 137q192 0 302 -97q111 -98 111 -233q0 -127 -65 -198q-66 -72 -209 -154q-67 -38 -95 -59q-31 -23 -55 -73q-24 -49 -24 -124q-6 -6 -21 -6q-14 0 -20 6q0 118 41 173q40 53 133 105q155 90 214 153q60 65 60 177q0 122 -100 207 q-101 86 -272 86q-246 0 -391 -149q-7 7 -7 24zM401 12q0 16 13 29q12 12 30 12q17 0 29 -12t12 -29q0 -18 -12 -30q-13 -13 -29 -13q-17 0 -30 13t-13 30z" />
<glyph unicode="@" horiz-adv-x="1953" d="M154 430q0 351 241 588t588 237q373 0 595 -229q222 -230 222 -588q0 -134 -35 -234q-35 -101 -90 -147t-103 -67t-91 -21q-157 4 -172 156q-141 -156 -346 -156q-191 0 -308 125q-116 123 -116 316q0 192 116 315q117 125 308 125q205 0 346 -156v125q6 6 20 6 q15 0 21 -6v-669q0 -142 123 -142q120 0 203 112t83 318q0 345 -211 562q-213 219 -565 219q-329 0 -559 -227q-229 -226 -229 -562q0 -285 170 -491q169 -205 440 -258q6 -6 6 -20q0 -13 -6 -19q-285 52 -469 269q-182 215 -182 519zM580 410q0 -177 104 -290 q105 -114 279 -114q115 0 206 55q96 58 140 115v467q-44 57 -140 115q-91 55 -206 55q-174 0 -279 -114q-104 -113 -104 -289z" />
<glyph unicode="A" horiz-adv-x="1345" d="M82 0l569 1331q6 6 22 6q15 0 21 -6l570 -1331q-6 -6 -22 -6q-15 0 -21 6l-193 449h-711l-192 -449q-6 -6 -22 -6q-15 0 -21 6zM332 485h682l-342 795z" />
<glyph unicode="B" horiz-adv-x="1251" d="M205 0v1331h491q173 0 285 -91q113 -92 113 -241q0 -109 -58 -191q-57 -81 -162 -114q137 -33 206 -122t69 -212q0 -157 -118 -259q-117 -101 -331 -101h-495zM246 37h454q194 0 301 90t107 233q0 140 -93 226q-94 86 -288 86h-481v-635zM246 709h483q151 0 237 79 q87 80 87 211q0 135 -101 215t-256 80h-450v-585z" />
<glyph unicode="C" horiz-adv-x="1509" d="M154 666q0 293 195 494q196 202 497 202q273 0 463 -137q6 -6 6 -25q0 -18 -6 -24q-182 149 -463 149q-283 0 -467 -190t-184 -469t184 -469q185 -191 467 -191q280 0 463 150q6 -6 6 -25t-6 -25q-190 -137 -463 -137q-301 0 -497 202q-195 201 -195 495z" />
<glyph unicode="D" horiz-adv-x="1464" d="M205 0v1331h403q342 0 522 -190q181 -192 181 -475q0 -284 -181 -476q-180 -190 -522 -190h-403zM246 37h362q323 0 493 179q169 178 169 450q0 271 -169 449q-170 179 -493 179h-362v-1257z" />
<glyph unicode="E" horiz-adv-x="1187" d="M205 0v1331h874q6 -6 6 -18q0 -13 -6 -19h-833v-589h776q6 -6 6 -19q0 -12 -6 -18h-776v-631h833q6 -6 6 -19q0 -12 -6 -18h-874z" />
<glyph unicode="F" horiz-adv-x="1187" d="M205 0v1331h874q6 -6 6 -18q0 -13 -6 -19h-833v-600h776q6 -6 6 -18q0 -13 -6 -19h-776v-657q-6 -6 -21 -6q-14 0 -20 6z" />
<glyph unicode="G" horiz-adv-x="1523" d="M154 666q0 293 195 494q196 202 497 202q273 0 463 -137q6 -6 6 -25q0 -18 -6 -24q-182 149 -463 149q-283 0 -467 -190t-184 -469t184 -469q185 -191 467 -191q259 0 444 121v502q6 6 20 6q13 0 19 -6v-523q-191 -137 -483 -137q-301 0 -497 202q-195 201 -195 495z" />
<glyph unicode="H" horiz-adv-x="1476" d="M205 0v1331q6 6 20 6q15 0 21 -6v-626h985v626q6 6 20 6q15 0 21 -6v-1331q-6 -6 -21 -6q-14 0 -20 6v668h-985v-668q-6 -6 -21 -6q-14 0 -20 6z" />
<glyph unicode="I" horiz-adv-x="450" d="M205 0v1331q6 6 20 6q15 0 21 -6v-1331q-6 -6 -21 -6q-14 0 -20 6z" />
<glyph unicode="J" horiz-adv-x="845" d="M82 63q0 19 6 25q106 -82 227 -82q285 0 285 361v964q6 6 21 6q14 0 20 -6v-964q0 -203 -87 -300q-87 -98 -239 -98q-117 0 -227 70q-6 6 -6 24z" />
<glyph unicode="K" horiz-adv-x="1214" d="M205 0v1331q6 6 20 6q15 0 21 -6v-626l776 626q6 6 32 6q25 0 31 -6l-798 -645l846 -686q-6 -6 -32 -6t-32 6l-823 668v-668q-6 -6 -21 -6q-14 0 -20 6z" />
<glyph unicode="L" horiz-adv-x="1144" d="M205 0v1331q6 6 20 6q15 0 21 -6v-1294h811q6 -6 6 -19q0 -12 -6 -18h-852z" />
<glyph unicode="M" horiz-adv-x="1765" d="M82 0l305 1331q6 6 21 6q14 0 20 -6l455 -1274l454 1274q6 6 21 6q14 0 20 -6l305 -1331q-6 -6 -20 -6q-15 0 -21 6l-288 1262l-451 -1262q-6 -6 -20 -6q-15 0 -21 6l-450 1262l-289 -1262q-6 -6 -21 -6q-14 0 -20 6z" />
<glyph unicode="N" horiz-adv-x="1456" d="M195 0v1331q6 6 20 6q15 0 21 -6l985 -1265v1265q6 6 20 6q15 0 21 -6v-1331q-6 -6 -21 -6q-14 0 -20 6l-985 1266v-1266q-6 -6 -21 -6q-14 0 -20 6z" />
<glyph unicode="O" d="M154 666q0 293 195 494q196 202 497 202q300 0 496 -202t196 -494q0 -293 -196 -495t-496 -202q-301 0 -497 202q-195 201 -195 495zM195 666q0 -279 184 -469q185 -191 467 -191t467 191q184 190 184 469t-184 469t-467 190t-467 -190t-184 -469z" />
<glyph unicode="P" horiz-adv-x="1282" d="M205 0v1331h444q237 0 359 -123q120 -121 120 -297t-120 -297q-121 -122 -359 -122h-403v-492q-6 -6 -21 -6q-14 0 -20 6zM246 528h403q219 0 329 112q109 110 109 271q0 162 -109 272q-110 111 -329 111h-403v-766z" />
<glyph unicode="Q" d="M154 666q0 293 195 494q196 202 497 202q300 0 496 -202t196 -494q0 -258 -157 -451q-155 -191 -410 -235l243 -314q-6 -6 -24 -6q-19 0 -25 6l-239 307q-44 -4 -80 -4q-301 0 -497 202q-195 201 -195 495zM195 666q0 -279 184 -469q185 -191 467 -191t467 191 q184 190 184 469t-184 469t-467 190t-467 -190t-184 -469z" />
<glyph unicode="R" horiz-adv-x="1269" d="M205 0v1331h465q237 0 358 -118t121 -291q0 -157 -98 -270q-99 -114 -293 -136l409 -516q-6 -6 -25 -6q-20 0 -26 6l-405 512h-465v-512q-6 -6 -21 -6q-14 0 -20 6zM246 549h424q222 0 329 106q109 107 109 267q0 159 -109 266q-107 106 -329 106h-424v-745z" />
<glyph unicode="S" horiz-adv-x="1173" d="M154 1032q0 136 111 233q110 97 302 97q237 0 391 -137q7 -7 7 -25q0 -17 -7 -24q-145 149 -391 149q-171 0 -272 -86q-100 -85 -100 -207q0 -128 86 -190q87 -62 327 -140q73 -24 131 -45q51 -19 110 -51q62 -34 93 -68q32 -35 55 -92t23 -124q0 -154 -121 -253 q-123 -100 -309 -100q-238 0 -418 144q-6 6 -6 24q0 19 6 25q85 -75 196 -115q115 -41 222 -41q169 0 279 89t110 227q0 80 -27 135q-27 56 -91 96q-65 41 -123 63q-71 27 -171 58q-117 36 -170 59q-61 26 -126 68q-63 41 -90 97q-27 57 -27 134z" />
<glyph unicode="T" horiz-adv-x="1196" d="M82 1313q0 12 6 18h1020q6 -6 6 -18q0 -13 -6 -19h-490v-1294q-6 -6 -20 -6t-20 6v1294h-490q-6 6 -6 19z" />
<glyph unicode="U" horiz-adv-x="1431" d="M205 485v846q6 6 20 6q15 0 21 -6v-846q0 -223 129 -351q130 -128 346 -128t346 128q129 128 129 351v846q6 6 21 6q14 0 20 -6v-846q0 -237 -140 -376q-142 -140 -376 -140t-376 140q-140 139 -140 376z" />
<glyph unicode="V" horiz-adv-x="1325" d="M82 1331q6 6 21 6q16 0 22 -6l539 -1280l536 1280q6 6 22 6q15 0 21 -6l-559 -1331q-6 -6 -21 -6q-16 0 -22 6z" />
<glyph unicode="W" horiz-adv-x="2039" d="M82 1331q6 6 20 6q15 0 21 -6l438 -1272l438 1272q6 6 21 6q14 0 20 -6l439 -1272l438 1272q6 6 20 6q15 0 21 -6l-459 -1331q-6 -6 -20 -6q-15 0 -21 6l-438 1272l-438 -1272q-6 -6 -21 -6q-14 0 -20 6z" />
<glyph unicode="X" horiz-adv-x="1196" d="M82 0l487 686l-460 645q6 6 24 6q19 0 25 -6l440 -616l440 616q6 6 25 6q18 0 24 -6l-460 -645l487 -686q-6 -6 -24 -6q-19 0 -25 6l-467 657l-467 -657q-6 -6 -25 -6q-18 0 -24 6z" />
<glyph unicode="Y" horiz-adv-x="1247" d="M82 1331q6 6 23 6q18 0 24 -6l496 -764l493 764q6 6 24 6q17 0 23 -6l-520 -805v-526q-6 -6 -20 -6q-15 0 -21 6v524z" />
<glyph unicode="Z" horiz-adv-x="1112" d="M102 0v18l846 1276h-823q-6 6 -6 19q0 12 6 18h885v-18l-846 -1276h840q6 -6 6 -19q0 -12 -6 -18h-902z" />
<glyph unicode="[" horiz-adv-x="479" d="M102 -229v1560h269q6 -6 6 -18q0 -13 -6 -19h-228v-1487h228q6 -6 6 -18t-6 -18h-269z" />
<glyph unicode="\" horiz-adv-x="595" d="M102 1331q6 6 21 6q14 0 20 -6l351 -1331q-6 -6 -21 -6q-14 0 -20 6z" />
<glyph unicode="]" horiz-adv-x="479" d="M102 -211q0 11 7 18h227v1487h-227q-7 7 -7 19q0 11 7 18h268v-1560h-268q-7 7 -7 18z" />
<glyph unicode="^" horiz-adv-x="892" d="M102 964q0 20 7 27l337 340l338 -340q7 -7 7 -27q0 -21 -7 -28l-338 342l-337 -342q-7 7 -7 28z" />
<glyph unicode="_" horiz-adv-x="1021" d="M102 -186q0 11 7 18h804q7 -7 7 -18q0 -12 -7 -19h-804q-7 7 -7 19z" />
<glyph unicode="`" horiz-adv-x="475" d="M102 1694q0 7 11 18q10 10 18 10l242 -247q0 -23 -23 -23z" />
<glyph unicode="a" horiz-adv-x="1007" d="M117 236q0 116 85 191q86 75 230 75q114 0 216 -45q97 -43 161 -99v146q0 144 -79 226q-80 83 -230 83q-157 0 -297 -104q-6 6 -6 22q0 17 6 23q117 96 297 96q170 0 260 -94t90 -252v-504q-6 -6 -21 -6q-14 0 -20 6v113q-64 -56 -161 -99q-102 -45 -216 -45 q-144 0 -230 75q-85 75 -85 192zM158 236q0 -101 73 -165q74 -65 201 -65q115 0 224 53q106 51 153 105v143q-47 54 -153 105q-109 53 -224 53q-127 0 -201 -65q-73 -64 -73 -164z" />
<glyph unicode="b" horiz-adv-x="1097" d="M164 0v1331q6 6 20 6q15 0 21 -6v-637q141 156 346 156q190 0 307 -125t117 -315q0 -192 -117 -316q-117 -125 -307 -125q-205 0 -346 156v-125q-6 -6 -21 -6q-14 0 -20 6zM205 176q45 -58 139 -115q91 -55 207 -55q173 0 278 114t105 290q0 175 -105 289t-278 114 q-116 0 -207 -55q-94 -57 -139 -115v-467z" />
<glyph unicode="c" horiz-adv-x="1046" d="M123 410q0 188 128 314q127 126 329 126q186 0 303 -96q6 -6 6 -23q0 -16 -6 -22q-140 104 -303 104q-181 0 -299 -115q-117 -114 -117 -288q0 -175 117 -289q118 -115 299 -115q162 0 303 105q6 -6 6 -23q0 -16 -6 -22q-118 -97 -303 -97q-202 0 -329 126 q-128 126 -128 315z" />
<glyph unicode="d" horiz-adv-x="1097" d="M123 410q0 190 117 315t307 125q205 0 346 -156v637q6 6 20 6q15 0 21 -6v-1331q-6 -6 -21 -6q-14 0 -20 6v125q-141 -156 -346 -156q-190 0 -307 125q-117 124 -117 316zM164 410q0 -177 104 -290q105 -114 279 -114q116 0 207 55q94 57 139 115v467q-45 58 -139 115 q-91 55 -207 55q-174 0 -279 -114q-104 -113 -104 -289z" />
<glyph unicode="e" horiz-adv-x="1069" d="M123 410q0 187 119 314q118 126 311 126q189 0 303 -129q96 -108 95 -254q0 -28 -3 -57h-784q0 -184 114 -294q115 -110 295 -110q163 0 304 105q6 -6 6 -23q0 -16 -6 -22q-118 -97 -304 -97q-199 0 -324 121q-126 121 -126 320zM166 446h745v17q0 146 -96 245 q-102 105 -262 105q-163 0 -270 -102q-106 -102 -117 -265z" />
<glyph unicode="f" horiz-adv-x="765" d="M82 801q0 12 6 18h141v291q0 126 65 189q64 63 167 63q107 0 217 -70q6 -6 6 -24q0 -19 -6 -25q-101 82 -217 82q-85 0 -137 -51q-54 -52 -54 -164v-291h344q7 -7 7 -18q0 -12 -7 -19h-344v-782q-6 -6 -20 -6q-15 0 -21 6v782h-141q-6 6 -6 19z" />
<glyph unicode="g" horiz-adv-x="1091" d="M123 410q0 190 117 315t307 125q205 0 346 -156v125q6 6 20 6q15 0 21 -6v-819q0 -161 -96 -263t-279 -102q-185 0 -303 97q-6 6 -6 22q0 17 6 23q141 -105 303 -105q163 0 249 90q85 89 85 238v125q-141 -156 -346 -156q-190 0 -307 125q-117 124 -117 316zM164 410 q0 -177 104 -290q105 -114 279 -114q116 0 207 55q94 57 139 115v467q-45 58 -139 115q-91 55 -207 55q-174 0 -279 -114q-104 -113 -104 -289z" />
<glyph unicode="h" horiz-adv-x="1056" d="M168 0v1331q6 6 20 6q15 0 21 -6v-657q164 176 354 176q165 0 251 -93q85 -92 85 -249v-508q-6 -6 -20 -6q-15 0 -21 6v508q0 139 -73 223q-72 82 -222 82q-107 0 -204 -63q-96 -62 -150 -127v-623q-6 -6 -21 -6q-14 0 -20 6z" />
<glyph unicode="i" horiz-adv-x="415" d="M168 1092q0 16 12 28q13 13 31 13q16 0 29 -13q12 -12 12 -28q0 -19 -12 -31t-29 -12q-19 0 -31 12t-12 31zM188 0v819q6 6 21 6q14 0 20 -6v-819q-6 -6 -20 -6q-15 0 -21 6z" />
<glyph unicode="j" horiz-adv-x="540" d="M10 -287q0 19 6 25q84 -66 170 -66q59 0 97 35q36 33 36 111v1001q6 6 21 6q14 0 20 -6v-1001q0 -90 -49 -136q-50 -47 -125 -47q-84 0 -170 54q-6 6 -6 24zM305 1085q0 15 11 25t26 10t25 -10t10 -25q0 -14 -10 -25t-25 -11t-26 10t-11 26z" />
<glyph unicode="k" horiz-adv-x="901" d="M168 0v1331q6 6 20 6q15 0 21 -6v-887l522 375q6 6 34 6t34 -6l-555 -399l575 -420q-6 -6 -34 -6q-27 0 -33 6l-543 395v-395q-6 -6 -21 -6q-14 0 -20 6z" />
<glyph unicode="l" horiz-adv-x="366" d="M168 0v1331q6 6 20 6q15 0 21 -6v-1331q-6 -6 -21 -6q-14 0 -20 6z" />
<glyph unicode="m" horiz-adv-x="1689" d="M164 0v819q6 6 20 6q15 0 21 -6v-145q164 176 348 176q232 0 295 -199q187 199 369 199q155 0 235 -93q80 -94 80 -249v-508q-6 -6 -21 -6q-14 0 -20 6v508q0 140 -68 223q-67 82 -206 82q-105 0 -199 -63q-92 -62 -150 -127v-623q-6 -6 -20 -6q-15 0 -21 6v508 q0 141 -67 223t-207 82q-105 0 -199 -63q-90 -60 -149 -127v-623q-6 -6 -21 -6q-14 0 -20 6z" />
<glyph unicode="n" horiz-adv-x="1052" d="M164 0v819q6 6 20 6q15 0 21 -6v-145q164 176 354 176q165 0 251 -93q85 -92 85 -249v-508q-6 -6 -21 -6q-14 0 -20 6v508q0 139 -73 223q-72 82 -222 82q-107 0 -204 -63q-96 -62 -150 -127v-623q-6 -6 -21 -6q-14 0 -20 6z" />
<glyph unicode="o" horiz-adv-x="1118" d="M123 410q0 186 124 313t312 127t312 -127t124 -313q0 -187 -124 -314t-312 -127t-312 127t-124 314zM164 410q0 -173 112 -288q113 -116 283 -116t283 116q112 115 112 288q0 172 -112 287q-113 116 -283 116t-283 -116q-112 -115 -112 -287z" />
<glyph unicode="p" horiz-adv-x="1101" d="M168 -334v1153q6 6 20 6q15 0 21 -6v-125q141 156 346 156q190 0 307 -125t117 -315q0 -192 -117 -316q-117 -125 -307 -125q-205 0 -346 156v-459q-6 -6 -21 -6q-14 0 -20 6zM209 176q45 -58 139 -115q91 -55 207 -55q174 0 279 114q104 113 104 290q0 176 -104 289 q-105 114 -279 114q-116 0 -207 -55q-94 -57 -139 -115v-467z" />
<glyph unicode="q" horiz-adv-x="1097" d="M123 410q0 190 117 315t307 125q205 0 346 -156v125q6 6 20 6q15 0 21 -6v-1153q-6 -6 -21 -6q-14 0 -20 6v459q-141 -156 -346 -156q-190 0 -307 125q-117 124 -117 316zM164 410q0 -177 104 -290q105 -114 279 -114q116 0 207 55q94 57 139 115v467q-45 58 -139 115 q-91 55 -207 55q-174 0 -279 -114q-104 -113 -104 -289z" />
<glyph unicode="r" horiz-adv-x="800" d="M164 0v819q6 6 20 6q15 0 21 -6v-176q153 207 330 207q105 0 178 -39q6 -6 6 -21q0 -16 -6 -22q-72 45 -178 45q-28 0 -60 -8q-25 -6 -54 -19q-25 -11 -50 -29q-24 -17 -44 -34q-12 -10 -41 -39q-21 -21 -33 -35q-24 -28 -28 -33q-16 -20 -20 -24v-592q-6 -6 -21 -6 q-14 0 -20 6z" />
<glyph unicode="s" horiz-adv-x="825" d="M102 635q0 101 88 158t205 57q79 0 165 -28q81 -27 132 -68q6 -6 6 -23q0 -16 -6 -22q-135 104 -293 104q-103 0 -179 -45q-77 -45 -77 -129q0 -74 63 -113t216 -90q87 -28 126 -46q44 -20 90 -48q45 -28 65 -64q20 -37 20 -85q0 -110 -91 -167q-92 -57 -212 -57 q-81 0 -167 28q-79 26 -132 69q-6 6 -6 22q0 17 6 23q137 -105 297 -105q104 0 184 45t80 137q0 78 -60 118q-58 39 -212 91q-74 25 -103 36q-40 16 -82 36q-47 22 -68 44q-21 21 -38 52t-17 70z" />
<glyph unicode="t" horiz-adv-x="712" d="M82 801q0 12 6 18h141v266q7 7 21 7q13 0 20 -7v-266h310q6 -6 6 -18q0 -13 -6 -19h-310v-630q0 -77 37 -111q38 -35 94 -35q90 0 203 88q6 -6 6 -24q0 -19 -6 -25q-100 -76 -203 -76q-76 0 -123 46q-49 47 -49 137v630h-141q-6 6 -6 19z" />
<glyph unicode="u" horiz-adv-x="1046" d="M158 311v508q6 6 20 6q15 0 21 -6v-508q0 -141 72 -223t223 -82q104 0 203 64q98 63 151 127v622q6 6 20 6q15 0 21 -6v-819q-6 -6 -21 -6q-14 0 -20 6v145q-164 -176 -354 -176q-166 0 -251 93q-85 92 -85 249z" />
<glyph unicode="v" horiz-adv-x="995" d="M82 819q6 6 22 6q17 0 23 -6l371 -772l370 772q6 6 23 6q16 0 22 -6l-393 -819q-6 -6 -22 -6q-17 0 -23 6z" />
<glyph unicode="w" horiz-adv-x="1370" d="M82 819q6 6 21 6q16 0 22 -6l270 -758l269 758q6 6 21 6q16 0 22 -6l270 -758l268 758q6 6 22 6q15 0 21 -6l-291 -819q-6 -6 -21 -6q-16 0 -22 6l-268 758l-270 -758q-6 -6 -22 -6q-15 0 -21 6z" />
<glyph unicode="x" horiz-adv-x="952" d="M82 0l364 420l-346 399q6 6 27 6t27 -6l323 -373l322 373q6 6 26 6q21 0 27 -6l-346 -399l364 -420q-6 -6 -26 -6q-21 0 -27 6l-340 393l-342 -393q-6 -6 -26 -6q-21 0 -27 6z" />
<glyph unicode="y" horiz-adv-x="995" d="M82 819q6 6 22 6q17 0 23 -6l373 -713l368 713q6 6 23 6q16 0 22 -6l-598 -1153q-6 -6 -22 -6q-17 0 -23 6l207 397z" />
<glyph unicode="z" horiz-adv-x="849" d="M92 0v16l600 766h-575q-6 6 -6 19q0 12 6 18h641v-16l-600 -766h594q6 -6 6 -19q0 -12 -6 -18h-660z" />
<glyph unicode="{" horiz-adv-x="557" d="M102 535v32q74 23 100 53q25 29 31 80q17 123 30 194q15 80 52 198q39 126 99 239q6 6 20 6q15 0 21 -6q-62 -130 -99 -242q-32 -100 -51 -189q-14 -69 -33 -210q-7 -55 -32 -87q-23 -31 -84 -52q61 -21 84 -52q25 -32 32 -87q19 -141 33 -210q19 -89 51 -189 q37 -112 99 -242q-7 -7 -21 -7q-13 0 -20 7q-60 113 -99 239q-37 118 -52 198q-14 73 -30 193q-6 52 -31 81q-26 30 -100 53z" />
<glyph unicode="|" horiz-adv-x="245" d="M102 -123v1454q6 6 21 6q14 0 20 -6v-1454q-6 -6 -20 -6q-15 0 -21 6z" />
<glyph unicode="}" horiz-adv-x="557" d="M102 -229q62 130 99 242q32 100 51 189q14 69 33 210q7 55 32 87q23 31 84 52q-61 21 -84 52q-25 32 -32 87q-19 141 -33 210q-19 89 -51 189q-37 112 -99 242q6 6 21 6q14 0 20 -6q60 -113 99 -239q37 -118 52 -198q13 -71 30 -194q6 -51 31 -80q26 -30 100 -53v-32 q-74 -23 -100 -53q-25 -29 -31 -81q-16 -120 -30 -193q-15 -80 -52 -198q-39 -126 -99 -239q-7 -7 -20 -7q-14 0 -21 7z" />
<glyph unicode="~" horiz-adv-x="999" d="M102 504q0 11 7 18q1 0 6 3t17 9.5t22 12.5q46 26 59 31q17 7 56 18q36 10 73 10q69 0 164 -50t153 -50q25 0 53 5q23 4 54 17q25 11 44 20q3 1 11 5l17 8.5t18 9.5q34 19 35 19q6 -6 6 -19q0 -12 -6 -18q-1 0 -6 -3t-17 -9.5t-22 -12.5q-36 -20 -60 -30t-56 -19 q-36 -10 -73 -10q-68 0 -163 50t-154 50q-24 0 -52 -5q-25 -4 -55 -17q-25 -11 -44 -20q-3 -1 -11 -5l-17 -8.5t-18 -9.5q-8 -4 -16.5 -9t-12.5 -7.5t-5 -2.5q-7 7 -7 19z" />
<glyph unicode="&#xa1;" horiz-adv-x="288" d="M102 969q0 17 13 30t30 13q16 0 29 -13q12 -12 12 -30q0 -17 -12 -29t-29 -12q-18 0 -30 12q-13 13 -13 29zM123 -119l6 676q15 15 29 0l6 -676v-231q-6 -6 -21 -6q-14 0 -20 6v231z" />
<glyph unicode="&#xa2;" horiz-adv-x="1032" d="M123 410q0 182 122 307q122 126 314 133v190q7 7 21 7q13 0 20 -7v-190q177 -6 283 -96q6 -6 6 -23q0 -16 -6 -22q-140 104 -303 104q-181 0 -299 -115q-117 -114 -117 -288q0 -175 117 -289q118 -115 299 -115q162 0 303 105q6 -6 6 -23q0 -16 -6 -22q-108 -91 -283 -97 v-190q-6 -6 -20 -6q-15 0 -21 6v190q-192 7 -314 133q-122 125 -122 308z" />
<glyph unicode="&#xa3;" horiz-adv-x="1226" d="M82 633q0 12 6 18h178q-18 253 -18 353q0 142 108 250t299 108q217 0 371 -137q6 -6 6 -25q0 -18 -6 -24q-145 149 -371 149q-172 0 -269 -97t-97 -224q0 -90 18 -353h502q6 -6 6 -18q0 -13 -6 -19h-498q20 -161 5 -328q-15 -163 -83 -249h793q6 -6 6 -19q0 -12 -6 -18 h-850v18q79 91 97 257q18 163 -5 339h-180q-6 6 -6 19z" />
<glyph unicode="&#xa4;" horiz-adv-x="880" d="M102 319l131 132q-65 77 -65 179t65 177l-131 131q0 7 11 18t18 11l131 -131q76 64 178 66q100 1 178 -66l132 131q7 0 18 -11q10 -10 10 -18l-131 -131q66 -78 66 -178t-66 -178l131 -129q0 -11 -10 -21t-20 -10l-130 131q-78 -66 -178 -66t-178 66l-131 -131 q-8 0 -18 10q-11 11 -11 18zM208 631q2 -98 68 -166q70 -70 166 -70t164 68q66 66 66 164t-68 166q-67 67 -166 67t-164 -65q-68 -68 -66 -164z" />
<glyph unicode="&#xa5;" horiz-adv-x="1247" d="M82 1331q6 6 23 6q18 0 24 -6l496 -764l493 764q6 6 24 6q17 0 23 -6l-516 -796h332q6 -6 6 -19q0 -12 -6 -18h-336v-191h336q6 -6 6 -18q0 -13 -6 -19h-336v-270q-6 -6 -20 -6q-15 0 -21 6v270h-336q-6 6 -6 19q0 12 6 18h336v191h-336q-6 6 -6 18q0 13 6 19h330z" />
<glyph unicode="&#xa6;" horiz-adv-x="245" d="M102 -123v631q6 6 21 6q14 0 20 -6v-631q-6 -6 -20 -6q-15 0 -21 6zM102 700v631q6 6 21 6q14 0 20 -6v-631q-6 -6 -20 -6q-15 0 -21 6z" />
<glyph unicode="&#xa7;" horiz-adv-x="825" d="M102 514q0 75 53 128q52 52 134 73q-93 38 -139 81q-48 45 -48 113q0 101 88 158t205 57q83 0 165 -27q79 -26 132 -69q6 -6 6 -22q0 -17 -6 -23q-135 104 -293 104q-103 0 -179 -45q-77 -45 -77 -129q0 -73 63 -112t216 -90q87 -28 126 -46q37 -17 90 -49q45 -28 65 -64 q20 -37 20 -85q0 -146 -164 -203q81 -34 123 -79q41 -44 41 -113q0 -110 -91 -167q-92 -57 -212 -57q-81 0 -167 28q-79 26 -132 69q-6 6 -6 22q0 17 6 23q137 -105 297 -105q104 0 184 45t80 138q0 76 -60 117q-58 39 -212 91q-74 25 -103 36q-40 16 -82 36q-47 22 -68 44 q-21 21 -38 52t-17 70zM143 518q0 -73 63 -112q66 -41 216 -91l80 -26q180 35 180 174q0 77 -60 118q-58 39 -212 91l-54 18q-89 -10 -151 -54t-62 -118z" />
<glyph unicode="&#xa8;" horiz-adv-x="768" d="M102 1604q0 15 13 28t30 13q16 0 29 -13q12 -12 12 -28q0 -19 -12 -31t-29 -12q-18 0 -30 12q-13 13 -13 31zM582 1604q0 16 12 28q13 13 31 13q15 0 28 -13t13 -28q0 -18 -13 -31q-12 -12 -28 -12q-19 0 -31 12t-12 31z" />
<glyph unicode="&#xa9;" horiz-adv-x="1331" d="M102 881q0 227 159 390t405 163q245 0 404 -163t159 -390t-159 -391q-158 -162 -404 -162q-247 0 -405 162q-159 164 -159 391zM143 881q0 -217 147 -367q146 -149 376 -149q229 0 375 149q147 150 147 367q0 216 -147 366t-375 150q-229 0 -376 -150t-147 -366zM354 881 q0 133 90 222q91 89 232 89q126 0 215 -68q4 -4 4 -21q0 -18 -4 -22q-101 74 -215 74q-122 0 -201 -78q-80 -78 -80 -196q0 -119 80 -197q79 -78 201 -78q114 0 215 74q4 -4 4 -22q0 -17 -4 -21q-89 -68 -215 -68q-141 0 -232 89q-90 88 -90 223z" />
<glyph unicode="&#xab;" horiz-adv-x="796" d="M102 444l279 320q6 6 19 6q14 0 20 -6l-262 -320l262 -319q-6 -6 -20 -6q-13 0 -19 6zM377 444l278 320q6 6 20 6q13 0 19 -6l-262 -320l262 -319q-6 -6 -19 -6q-14 0 -20 6z" />
<glyph unicode="&#xac;" horiz-adv-x="915" d="M102 590q0 11 7 18h704v-246q-6 -6 -20 -6q-15 0 -21 6v209h-663q-7 7 -7 19z" />
<glyph unicode="&#xad;" horiz-adv-x="780" d="M102 590q0 11 7 18h563q6 -6 6 -18q0 -13 -6 -19h-563q-7 7 -7 19z" />
<glyph unicode="&#xae;" horiz-adv-x="1331" d="M102 881q0 227 159 390t405 163q245 0 404 -163t159 -390t-159 -391q-158 -162 -404 -162q-247 0 -405 162q-159 164 -159 391zM143 881q0 -217 147 -367q146 -149 376 -149q229 0 375 149q147 150 147 367q0 216 -147 366t-375 150q-229 0 -376 -150t-147 -366zM442 580 v596h279q89 0 146 -42t57 -128q0 -150 -166 -168l200 -258q-5 -5 -26 -5q-23 0 -25 5l-198 256h-226v-256q-5 -5 -20 -5q-16 0 -21 5zM483 872h238q68 0 115 32t47 102q0 69 -47 101t-115 32h-238v-267z" />
<glyph unicode="&#xaf;" horiz-adv-x="747" d="M102 1579q0 11 7 18h530q6 -6 6 -18t-6 -18h-530q-7 7 -7 18z" />
<glyph unicode="&#xb0;" horiz-adv-x="702" d="M102 1206q0 100 72 171q73 71 176 71q104 0 177 -71t73 -171q0 -103 -72 -172q-73 -70 -178 -71q-105 0 -176 70q-72 71 -72 173zM145 1206q0 -84 59 -145q58 -60 146 -60t148 60q59 59 59 145q0 87 -59 146t-148 57q-88 0 -146 -58q-59 -59 -59 -145z" />
<glyph unicode="&#xb1;" horiz-adv-x="921" d="M102 334q0 11 7 18h704q6 -6 6 -18q0 -13 -6 -19h-704q-7 7 -7 19zM102 705q0 11 7 18h333v219q6 6 19 6q12 0 18 -6v-219h334q6 -6 6 -18q0 -13 -6 -19h-334v-219q-6 -6 -18 -6q-13 0 -19 6v219h-333q-7 7 -7 19z" />
<glyph unicode="&#xb4;" horiz-adv-x="475" d="M102 1475l242 247q8 0 18 -10q11 -11 11 -18l-248 -242q-23 0 -23 23z" />
<glyph unicode="&#xb6;" horiz-adv-x="1193" d="M102 922q0 203 127 306t297 103h559q7 -7 7 -18q0 -12 -7 -19h-159v-1628q-6 -6 -21 -6q-14 0 -20 6v1628h-318v-1628q-6 -6 -20 -6q-15 0 -21 6v862q-108 0 -199 36q-92 36 -158 128q-67 93 -67 230z" />
<glyph unicode="&#xb7;" horiz-adv-x="288" d="M102 528q0 16 13 29q12 12 30 12q17 0 29 -12t12 -29q0 -18 -12 -30q-13 -13 -29 -13q-17 0 -30 13t-13 30z" />
<glyph unicode="&#xb8;" horiz-adv-x="479" d="M102 -388q0 12 7 19q46 -34 104 -34q51 1 87 30t36 82q0 71 -64 97q-63 25 -133 -5v199h41v-150q69 18 132 -21q65 -41 65 -120q0 -68 -47 -109q-46 -40 -115 -40q-57 0 -106 30q-7 9 -7 22z" />
<glyph unicode="&#xbb;" horiz-adv-x="796" d="M102 125l263 319l-263 320q6 6 20 6q13 0 19 -6l279 -320l-279 -319q-6 -6 -19 -6q-14 0 -20 6zM377 125l262 319l-262 320q6 6 19 6q14 0 20 -6l278 -320l-278 -319q-6 -6 -20 -6q-13 0 -19 6z" />
<glyph unicode="&#xbc;" horiz-adv-x="1226" d="M102 1172q0 15 7 22l192 137q6 6 21 6q14 0 20 -6v-635q-6 -6 -20 -6q-15 0 -21 6v592l-192 -137q-7 7 -7 21zM258 0l631 1331q6 6 21 6q16 0 22 -6l-631 -1331q-6 -6 -21 -6q-16 0 -22 6zM625 172q0 12 6 18l336 445q6 6 20 6q15 0 21 -6v-445h110q6 -6 6 -18t-6 -18 h-110v-154q-6 -6 -21 -6q-14 0 -20 6v154h-336q-6 6 -6 18zM680 190h287v379z" />
<glyph unicode="&#xbd;" horiz-adv-x="1249" d="M51 1172q0 16 6 22l193 137q6 6 20 6q15 0 21 -6v-635q-6 -6 -21 -6q-14 0 -20 6v592l-193 -137q-6 6 -6 21zM207 0l631 1331q6 6 21 6q16 0 22 -6l-631 -1331q-6 -6 -22 -6q-15 0 -21 6zM694 0v18q251 224 320 310q67 83 67 164q0 51 -46 94t-132 43q-107 0 -186 -76 q-4 4 -4 22q0 19 4 23q79 68 186 68q104 0 162 -53q57 -52 57 -121q0 -86 -67 -171q-66 -84 -283 -284h369q6 -6 6 -19q0 -12 -6 -18h-447z" />
<glyph unicode="&#xbe;" horiz-adv-x="1347" d="M102 757q0 20 4 21q76 -76 201 -76q85 0 138 44t53 114q0 66 -46 112t-135 46h-92q-4 1 -4 18q0 18 4 19h94q70 0 110 40t40 93t-43 95q-44 42 -125 42q-112 0 -188 -76q-2 2 -2 22q0 19 2 21q78 70 188 70q97 0 153 -52t56 -124q0 -102 -98 -148q58 -22 93 -70 q34 -47 34 -108q0 -86 -66 -140t-168 -54q-119 0 -199 69q-4 1 -4 22zM379 0l631 1331q6 6 21 6q16 0 22 -6l-631 -1331q-6 -6 -22 -6q-15 0 -21 6zM745 172q0 11 7 18l335 445q6 6 21 6q14 0 20 -6v-445h111q6 -6 6 -18t-6 -18h-111v-154q-6 -6 -20 -6q-15 0 -21 6v154 h-335q-7 7 -7 18zM801 190h286v379z" />
<glyph unicode="&#xbf;" horiz-adv-x="1015" d="M102 -47q0 127 66 199q64 70 209 153q62 35 95 60q30 23 54 72q25 52 25 124q6 6 20 6q15 0 21 -6q0 -118 -41 -173q-40 -53 -133 -105q-155 -90 -214 -153q-61 -66 -61 -177q0 -121 101 -207t272 -86q246 0 391 150q6 -6 6 -25t-6 -25q-154 -137 -391 -137 q-192 0 -302 97q-112 98 -112 233zM530 973q0 18 13 31q12 12 28 12q19 0 31 -12t12 -31q0 -17 -12 -29t-31 -12q-16 0 -28 12q-13 13 -13 29z" />
<glyph unicode="&#xc0;" horiz-adv-x="1345" d="M82 0l569 1331q6 6 22 6q15 0 21 -6l570 -1331q-6 -6 -22 -6q-15 0 -21 6l-193 449h-711l-192 -449q-6 -6 -22 -6q-15 0 -21 6zM332 485h682l-342 795zM539 1694q0 8 10 18t18 10l242 -247q0 -23 -23 -23z" />
<glyph unicode="&#xc1;" horiz-adv-x="1345" d="M82 0l569 1331q6 6 22 6q15 0 21 -6l570 -1331q-6 -6 -22 -6q-15 0 -21 6l-193 449h-711l-192 -449q-6 -6 -22 -6q-15 0 -21 6zM332 485h682l-342 795zM539 1475l241 247q9 0 19 -10t10 -18l-248 -242q-22 0 -22 23z" />
<glyph unicode="&#xc2;" horiz-adv-x="1345" d="M82 0l569 1331q6 6 22 6q15 0 21 -6l570 -1331q-6 -6 -22 -6q-15 0 -21 6l-193 449h-711l-192 -449q-6 -6 -22 -6q-15 0 -21 6zM332 485h682l-342 795zM399 1464l234 236q41 33 82 0l233 -236q0 -9 -11 -17q-12 -9 -19 -9l-244 245l-244 -245q-7 0 -19 9t-12 17z" />
<glyph unicode="&#xc3;" horiz-adv-x="1345" d="M82 0l569 1331q6 6 22 6q15 0 21 -6l570 -1331q-6 -6 -22 -6q-15 0 -21 6l-193 449h-711l-192 -449q-6 -6 -22 -6q-15 0 -21 6zM332 485h682l-342 795zM360 1556q0 12 7 19l26 13q8 4 17.5 9.5t11.5 6.5q4 2 27 12q21 9 30 11q12 3 30 6t34 3q54 0 153 -45 q56 -24 107 -24q58 0 176 61q6 -6 6 -18q0 -13 -6 -19q-8 -2 -27 -13q-8 -4 -17 -9t-11 -6q-10 -6 -27 -13q-19 -8 -31 -11q-14 -3 -29 -6q-18 -3 -34 -3q-55 0 -154 45q-55 24 -106 24q-58 0 -176 -61q-7 7 -7 18z" />
<glyph unicode="&#xc4;" horiz-adv-x="1345" d="M82 0l569 1331q6 6 22 6q15 0 21 -6l570 -1331q-6 -6 -22 -6q-15 0 -21 6l-193 449h-711l-192 -449q-6 -6 -22 -6q-15 0 -21 6zM332 485h682l-342 795zM391 1604q0 16 12 28q13 13 31 13q16 0 29 -13q12 -12 12 -28q0 -19 -12 -31t-29 -12q-19 0 -31 12t-12 31zM870 1604 q0 15 13 28t30 13q16 0 29 -13q12 -12 12 -28q0 -19 -12 -31t-29 -12q-18 0 -30 12q-13 13 -13 31z" />
<glyph unicode="&#xc5;" horiz-adv-x="1345" d="M82 0l569 1331q6 6 22 6q15 0 21 -6l570 -1331q-6 -6 -22 -6q-15 0 -21 6l-193 449h-711l-192 -449q-6 -6 -22 -6q-15 0 -21 6zM332 485h682l-342 795zM522 1602q0 57 43 100t109 43q64 0 107 -43q44 -44 44 -100q0 -63 -44 -107q-43 -43 -107 -43q-66 0 -109 43t-43 107 zM565 1602q0 -47 29 -79t80 -32q50 0 80 33t30 78q0 42 -30 74t-80 32q-49 0 -79 -32t-30 -74z" />
<glyph unicode="&#xc6;" horiz-adv-x="1634" d="M82 0l569 1331h875q6 -6 6 -18q0 -13 -6 -19h-832l-2 -589h776q7 -7 7 -19q0 -11 -7 -18h-776v-631h834q6 -6 6 -19q0 -12 -6 -18h-875v449h-334l-192 -449q-6 -6 -22 -6q-15 0 -21 6zM332 485h319v748z" />
<glyph unicode="&#xc7;" horiz-adv-x="1509" d="M154 666q0 293 195 494q196 202 497 202q273 0 463 -137q6 -6 6 -25q0 -18 -6 -24q-182 149 -463 149q-283 0 -467 -190t-184 -469t184 -469q185 -191 467 -191q280 0 463 150q6 -6 6 -25q0 -18 -6 -24q-185 -132 -443 -138v-118q68 18 132 -22q65 -41 65 -120 q0 -68 -47 -109q-46 -40 -115 -40q-57 0 -106 30q-7 9 -7 22q0 12 7 19q46 -34 104 -34q51 1 87 30t36 82q0 72 -63 97q-62 25 -134 -5v168q-293 8 -482 209t-189 488z" />
<glyph unicode="&#xc8;" horiz-adv-x="1187" d="M205 0v1331h874q6 -6 6 -18q0 -13 -6 -19h-833v-589h776q6 -6 6 -19q0 -12 -6 -18h-776v-631h833q6 -6 6 -19q0 -12 -6 -18h-874zM459 1694q0 8 10 18t18 10l242 -247q0 -23 -22 -23z" />
<glyph unicode="&#xc9;" horiz-adv-x="1187" d="M205 0v1331h874q6 -6 6 -18q0 -13 -6 -19h-833v-589h776q6 -6 6 -19q0 -12 -6 -18h-776v-631h833q6 -6 6 -19q0 -12 -6 -18h-874zM459 1475l241 247q9 0 19 -10t10 -18l-248 -242q-22 0 -22 23z" />
<glyph unicode="&#xca;" horiz-adv-x="1187" d="M205 0v1331h874q6 -6 6 -18q0 -13 -6 -19h-833v-589h776q6 -6 6 -19q0 -12 -6 -18h-776v-631h833q6 -6 6 -19q0 -12 -6 -18h-874zM319 1464l234 236q41 33 82 0l233 -236q0 -9 -11 -17q-12 -9 -19 -9l-244 245l-244 -245q-7 0 -19 9t-12 17z" />
<glyph unicode="&#xcb;" horiz-adv-x="1187" d="M205 0v1331h874q6 -6 6 -18q0 -13 -6 -19h-833v-589h776q6 -6 6 -19q0 -12 -6 -18h-776v-631h833q6 -6 6 -19q0 -12 -6 -18h-874zM350 1604q0 16 12 28q13 13 31 13q16 0 29 -13q12 -12 12 -28q0 -19 -12 -31t-29 -12q-19 0 -31 12t-12 31zM829 1604q0 15 13 28t30 13 q16 0 29 -13q12 -12 12 -28q0 -19 -12 -31t-29 -12q-18 0 -30 12q-13 13 -13 31z" />
<glyph unicode="&#xcc;" horiz-adv-x="450" d="M90 1694q0 8 10 18t19 10l241 -247q0 -23 -22 -23zM205 0v1331q6 6 20 6q15 0 21 -6v-1331q-6 -6 -21 -6q-14 0 -20 6z" />
<glyph unicode="&#xcd;" horiz-adv-x="450" d="M90 1475l242 247q8 0 18 -10t10 -18l-247 -242q-23 0 -23 23zM205 0v1331q6 6 20 6q15 0 21 -6v-1331q-6 -6 -21 -6q-14 0 -20 6z" />
<glyph unicode="&#xce;" horiz-adv-x="450" d="M-49 1464l233 236q41 33 82 0l234 -236q0 -8 -12 -17t-19 -9l-244 245l-243 -245q-8 0 -20 9q-11 8 -11 17zM205 0v1331q6 6 20 6q15 0 21 -6v-1331q-6 -6 -21 -6q-14 0 -20 6z" />
<glyph unicode="&#xcf;" horiz-adv-x="450" d="M-57 1604q0 16 12 28q13 13 31 13q15 0 28 -13t13 -28q0 -18 -13 -31q-12 -12 -28 -12q-19 0 -31 12t-12 31zM205 0v1331q6 6 20 6q15 0 21 -6v-1331q-6 -6 -21 -6q-14 0 -20 6zM422 1604q0 16 12 28q13 13 31 13q16 0 29 -13q12 -12 12 -28q0 -19 -12 -31t-29 -12 q-19 0 -31 12t-12 31z" />
<glyph unicode="&#xd0;" horiz-adv-x="1464" d="M102 670q0 11 7 18h96v643h403q342 0 522 -190q181 -192 181 -475q0 -284 -181 -476q-180 -190 -522 -190h-403v651h-96q-7 7 -7 19zM246 37h362q323 0 493 179q169 178 169 450q0 271 -169 449q-170 179 -493 179h-362v-606h426q6 -6 6 -18q0 -13 -6 -19h-426v-614z" />
<glyph unicode="&#xd1;" horiz-adv-x="1456" d="M195 0v1331q6 6 20 6q15 0 21 -6l985 -1265v1265q6 6 20 6q15 0 21 -6v-1331q-6 -6 -21 -6q-14 0 -20 6l-985 1266v-1266q-6 -6 -21 -6q-14 0 -20 6zM416 1556q0 13 6 19q2 1 27 13q4 3 9.5 5.5t8 4.5t5.5 3.5l5 2.5q4 2 27 12q20 8 31 11q14 3 29 6q18 3 34 3 q55 0 154 -45q56 -24 106 -24q58 0 176 61q6 -6 6 -18q0 -13 -6 -19q-6 -1 -26 -13q-8 -5 -17.5 -9.5t-11.5 -5.5q-10 -6 -27 -13q-21 -9 -30 -11q-12 -3 -30 -6t-34 -3q-54 0 -153 45q-55 24 -107 24q-58 0 -176 -61q-6 6 -6 18z" />
<glyph unicode="&#xd2;" d="M154 666q0 293 195 494q196 202 497 202q300 0 496 -202t196 -494q0 -293 -196 -495t-496 -202q-301 0 -497 202q-195 201 -195 495zM195 666q0 -279 184 -469q185 -191 467 -191t467 191q184 190 184 469t-184 469t-467 190t-467 -190t-184 -469zM711 1694q0 8 10 18 t18 10l242 -247q0 -23 -23 -23z" />
<glyph unicode="&#xd3;" d="M154 666q0 293 195 494q196 202 497 202q300 0 496 -202t196 -494q0 -293 -196 -495t-496 -202q-301 0 -497 202q-195 201 -195 495zM195 666q0 -279 184 -469q185 -191 467 -191t467 191q184 190 184 469t-184 469t-467 190t-467 -190t-184 -469zM711 1475l241 247 q9 0 19 -10t10 -18l-248 -242q-22 0 -22 23z" />
<glyph unicode="&#xd4;" d="M154 666q0 293 195 494q196 202 497 202q300 0 496 -202t196 -494q0 -293 -196 -495t-496 -202q-301 0 -497 202q-195 201 -195 495zM195 666q0 -279 184 -469q185 -191 467 -191t467 191q184 190 184 469t-184 469t-467 190t-467 -190t-184 -469zM571 1464l234 236 q41 33 82 0l233 -236q0 -9 -11 -17q-12 -9 -19 -9l-244 245l-244 -245q-7 0 -19 9t-12 17z" />
<glyph unicode="&#xd5;" d="M154 666q0 293 195 494q196 202 497 202q300 0 496 -202t196 -494q0 -293 -196 -495t-496 -202q-301 0 -497 202q-195 201 -195 495zM195 666q0 -279 184 -469q185 -191 467 -191t467 191q184 190 184 469t-184 469t-467 190t-467 -190t-184 -469zM532 1556q0 12 7 19 l26 13q8 4 17.5 9.5t11.5 6.5q4 2 27 12q21 9 30 11q12 3 30 6t34 3q54 0 153 -45q55 -24 107 -24q58 0 176 61q6 -6 6 -18q0 -13 -6 -19q-8 -2 -27 -13q-8 -4 -17 -9t-11 -6q-10 -6 -27 -13q-20 -8 -31 -11q-14 -3 -29 -6q-18 -3 -34 -3q-55 0 -154 45q-55 24 -106 24 q-58 0 -176 -61q-7 7 -7 18z" />
<glyph unicode="&#xd6;" d="M154 666q0 293 195 494q196 202 497 202q300 0 496 -202t196 -494q0 -293 -196 -495t-496 -202q-301 0 -497 202q-195 201 -195 495zM195 666q0 -279 184 -469q185 -191 467 -191t467 191q184 190 184 469t-184 469t-467 190t-467 -190t-184 -469zM563 1604q0 16 12 28 q13 13 31 13q16 0 29 -13q12 -12 12 -28q0 -19 -12 -31t-29 -12q-19 0 -31 12t-12 31zM1042 1604q0 15 13 28t30 13q16 0 29 -13q12 -12 12 -28q0 -19 -12 -31t-29 -12q-18 0 -30 12q-13 13 -13 31z" />
<glyph unicode="&#xd7;" horiz-adv-x="729" d="M102 354l236 236l-236 235q0 10 9 19q8 8 18 8l236 -236l235 236q10 0 18 -8q9 -9 9 -19l-236 -235l236 -236q0 -9 -9 -18q-8 -8 -18 -8l-235 235l-236 -235q-10 0 -18 8q-9 9 -9 18z" />
<glyph unicode="&#xd8;" d="M154 0l184 184q-184 196 -184 482q0 293 195 494q196 202 497 202q282 0 479 -186l156 155q6 6 28 6q23 0 29 -6l-184 -184q184 -196 184 -481q0 -293 -196 -495t-496 -202q-281 0 -479 187l-156 -156q-6 -6 -29 -6q-22 0 -28 6zM195 666q0 -264 170 -455l933 938 q-184 176 -452 176q-283 0 -467 -190t-184 -469zM393 182q187 -176 453 -176q282 0 467 191q184 190 184 469q0 267 -170 454z" />
<glyph unicode="&#xd9;" horiz-adv-x="1431" d="M205 485v846q6 6 20 6q15 0 21 -6v-846q0 -223 129 -351q130 -128 346 -128t346 128q129 128 129 351v846q6 6 21 6q14 0 20 -6v-846q0 -237 -140 -376q-142 -140 -376 -140t-376 140q-140 139 -140 376zM582 1694q0 8 10 18t18 10l242 -247q0 -23 -23 -23z" />
<glyph unicode="&#xda;" horiz-adv-x="1431" d="M205 485v846q6 6 20 6q15 0 21 -6v-846q0 -223 129 -351q130 -128 346 -128t346 128q129 128 129 351v846q6 6 21 6q14 0 20 -6v-846q0 -237 -140 -376q-142 -140 -376 -140t-376 140q-140 139 -140 376zM582 1475l241 247q9 0 19 -10t10 -18l-248 -242q-22 0 -22 23z " />
<glyph unicode="&#xdb;" horiz-adv-x="1431" d="M205 485v846q6 6 20 6q15 0 21 -6v-846q0 -223 129 -351q130 -128 346 -128t346 128q129 128 129 351v846q6 6 21 6q14 0 20 -6v-846q0 -237 -140 -376q-142 -140 -376 -140t-376 140q-140 139 -140 376zM442 1464l234 236q41 33 82 0l233 -236q0 -9 -11 -17 q-12 -9 -19 -9l-244 245l-244 -245q-7 0 -19 9t-12 17z" />
<glyph unicode="&#xdc;" horiz-adv-x="1431" d="M205 485v846q6 6 20 6q15 0 21 -6v-846q0 -223 129 -351q130 -128 346 -128t346 128q129 128 129 351v846q6 6 21 6q14 0 20 -6v-846q0 -237 -140 -376q-142 -140 -376 -140t-376 140q-140 139 -140 376zM434 1604q0 16 12 28q13 13 31 13q16 0 29 -13q12 -12 12 -28 q0 -19 -12 -31t-29 -12q-19 0 -31 12t-12 31zM913 1604q0 15 13 28t30 13q16 0 29 -13q12 -12 12 -28q0 -19 -12 -31t-29 -12q-18 0 -30 12q-13 13 -13 31z" />
<glyph unicode="&#xdd;" horiz-adv-x="1247" d="M82 1331q6 6 23 6q18 0 24 -6l496 -764l493 764q6 6 24 6q17 0 23 -6l-520 -805v-526q-6 -6 -20 -6q-15 0 -21 6v524zM489 1475l242 247q9 0 19 -10t10 -18l-248 -242q-23 0 -23 23z" />
<glyph unicode="&#xde;" horiz-adv-x="1282" d="M205 0v1331q6 6 20 6q15 0 21 -6v-172h403q237 0 359 -123q120 -121 120 -297t-120 -297q-122 -123 -359 -123h-403v-319q-6 -6 -21 -6q-14 0 -20 6zM246 356h403q219 0 329 112q109 110 109 271q0 162 -109 272q-110 111 -329 111h-403v-766z" />
<glyph unicode="&#xdf;" horiz-adv-x="1212" d="M158 0v834q0 239 134 384q134 144 355 144q191 0 300 -104q108 -103 108 -246q0 -109 -63 -196q-64 -88 -167 -122q140 -35 212 -129q73 -96 73 -217q0 -168 -125 -273q-126 -106 -321 -106q-244 0 -398 137q-6 6 -6 25t6 25q69 -70 175 -110q107 -40 223 -40 q176 0 291 95q114 95 114 247q0 138 -96 231t-285 93h-184q-6 6 -6 18q0 13 6 19h186q145 0 234 88q90 89 90 215q0 130 -96 221q-97 92 -271 92q-205 0 -326 -133q-122 -134 -122 -358v-834q-6 -6 -21 -6q-14 0 -20 6z" />
<glyph unicode="&#xe0;" horiz-adv-x="1007" d="M117 236q0 116 85 191q86 75 230 75q114 0 216 -45q97 -43 161 -99v146q0 144 -79 226q-80 83 -230 83q-157 0 -297 -104q-6 6 -6 22q0 17 6 23q117 96 297 96q170 0 260 -94t90 -252v-504q-6 -6 -21 -6q-14 0 -20 6v113q-64 -56 -161 -99q-102 -45 -216 -45 q-144 0 -230 75q-85 75 -85 192zM158 236q0 -101 73 -165q74 -65 201 -65q115 0 224 53q106 51 153 105v143q-47 54 -153 105q-109 53 -224 53q-127 0 -201 -65q-73 -64 -73 -164zM365 1182q0 8 10 18t18 10l242 -247q0 -23 -23 -23z" />
<glyph unicode="&#xe1;" horiz-adv-x="1007" d="M117 236q0 116 85 191q86 75 230 75q114 0 216 -45q97 -43 161 -99v146q0 144 -79 226q-80 83 -230 83q-157 0 -297 -104q-6 6 -6 22q0 17 6 23q117 96 297 96q170 0 260 -94t90 -252v-504q-6 -6 -21 -6q-14 0 -20 6v113q-64 -56 -161 -99q-102 -45 -216 -45 q-144 0 -230 75q-85 75 -85 192zM158 236q0 -101 73 -165q74 -65 201 -65q115 0 224 53q106 51 153 105v143q-47 54 -153 105q-109 53 -224 53q-127 0 -201 -65q-73 -64 -73 -164zM365 963l241 247q9 0 19 -10t10 -18l-248 -242q-22 0 -22 23z" />
<glyph unicode="&#xe2;" horiz-adv-x="1007" d="M117 236q0 116 85 191q86 75 230 75q114 0 216 -45q97 -43 161 -99v146q0 144 -79 226q-80 83 -230 83q-157 0 -297 -104q-6 6 -6 22q0 17 6 23q117 96 297 96q170 0 260 -94t90 -252v-504q-6 -6 -21 -6q-14 0 -20 6v113q-64 -56 -161 -99q-102 -45 -216 -45 q-144 0 -230 75q-85 75 -85 192zM158 236q0 -101 73 -165q74 -65 201 -65q115 0 224 53q106 51 153 105v143q-47 54 -153 105q-109 53 -224 53q-127 0 -201 -65q-73 -64 -73 -164zM225 952l234 236q41 33 82 0l233 -236q0 -9 -11 -17q-12 -9 -20 -9l-243 245l-244 -245 q-7 0 -19 9t-12 17z" />
<glyph unicode="&#xe3;" horiz-adv-x="1007" d="M117 236q0 116 85 191q86 75 230 75q114 0 216 -45q97 -43 161 -99v146q0 144 -79 226q-80 83 -230 83q-157 0 -297 -104q-6 6 -6 22q0 17 6 23q117 96 297 96q170 0 260 -94t90 -252v-504q-6 -6 -21 -6q-14 0 -20 6v113q-64 -56 -161 -99q-102 -45 -216 -45 q-144 0 -230 75q-85 75 -85 192zM158 236q0 -101 73 -165q74 -65 201 -65q115 0 224 53q106 51 153 105v143q-47 54 -153 105q-109 53 -224 53q-127 0 -201 -65q-73 -64 -73 -164zM197 1044q0 13 6 19l26 13q8 4 17.5 9.5t11.5 6.5q4 2 27 12q21 9 30 11q12 3 30 6t34 3 q54 0 153 -45q56 -24 107 -24q58 0 176 61q6 -6 6 -18q0 -13 -6 -19q-8 -2 -27 -13q-8 -4 -17 -9t-11 -6q-10 -6 -27 -13q-20 -8 -31 -11q-14 -3 -29 -6q-18 -3 -34 -3q-55 0 -154 45q-55 24 -106 24q-58 0 -176 -61q-6 6 -6 18z" />
<glyph unicode="&#xe4;" horiz-adv-x="1007" d="M117 236q0 116 85 191q86 75 230 75q114 0 216 -45q97 -43 161 -99v146q0 144 -79 226q-80 83 -230 83q-157 0 -297 -104q-6 6 -6 22q0 17 6 23q117 96 297 96q170 0 260 -94t90 -252v-504q-6 -6 -21 -6q-14 0 -20 6v113q-64 -56 -161 -99q-102 -45 -216 -45 q-144 0 -230 75q-85 75 -85 192zM158 236q0 -101 73 -165q74 -65 201 -65q115 0 224 53q106 51 153 105v143q-47 54 -153 105q-109 53 -224 53q-127 0 -201 -65q-73 -64 -73 -164zM217 1092q0 16 12 28q13 13 31 13q16 0 29 -13q12 -12 12 -28q0 -19 -12 -31t-29 -12 q-19 0 -31 12t-12 31zM696 1092q0 15 13 28t30 13q16 0 29 -13q12 -12 12 -28q0 -19 -12 -31t-29 -12q-18 0 -30 12q-13 13 -13 31z" />
<glyph unicode="&#xe5;" horiz-adv-x="1007" d="M117 236q0 116 85 191q86 75 230 75q114 0 216 -45q97 -43 161 -99v146q0 144 -79 226q-80 83 -230 83q-157 0 -297 -104q-6 6 -6 22q0 17 6 23q117 96 297 96q170 0 260 -94t90 -252v-504q-6 -6 -21 -6q-14 0 -20 6v113q-64 -56 -161 -99q-102 -45 -216 -45 q-144 0 -230 75q-85 75 -85 192zM158 236q0 -101 73 -165q74 -65 201 -65q115 0 224 53q106 51 153 105v143q-47 54 -153 105q-109 53 -224 53q-127 0 -201 -65q-73 -64 -73 -164zM348 1090q0 57 43 100t109 43q64 0 107 -43q44 -44 44 -100q0 -63 -44 -107 q-43 -43 -107 -43q-66 0 -109 43t-43 107zM391 1090q0 -47 29 -79t80 -32q50 0 80 33t30 78q0 42 -30 74t-80 32q-49 0 -79 -32t-30 -74z" />
<glyph unicode="&#xe6;" horiz-adv-x="1755" d="M117 236q0 116 85 191q86 75 230 75q114 0 216 -45q97 -43 161 -99v146q0 144 -79 226q-80 83 -230 83q-157 0 -297 -104q-6 6 -6 22q0 17 6 23q117 96 297 96q141 0 231 -70q89 -69 111 -190q47 119 151 189q106 71 246 71q189 0 303 -129t92 -311h-784q0 -184 114 -294 q115 -110 296 -110q162 0 303 105q6 -6 6 -23q0 -16 -6 -22q-118 -97 -303 -97q-139 0 -249 64q-108 63 -161 178v-211q-6 -6 -21 -6q-14 0 -20 6v113q-64 -56 -161 -99q-102 -45 -216 -45q-144 0 -230 75q-85 75 -85 192zM158 236q0 -101 73 -165q74 -65 201 -65 q115 0 224 53q106 51 153 105v143q-47 54 -153 105q-109 53 -224 53q-127 0 -201 -65q-73 -64 -73 -164zM852 446h745q6 157 -96 262t-262 105q-163 0 -270 -102q-106 -102 -117 -265z" />
<glyph unicode="&#xe7;" horiz-adv-x="1046" d="M123 410q0 188 128 314q127 126 329 126q186 0 303 -96q6 -6 6 -23q0 -16 -6 -22q-140 104 -303 104q-181 0 -299 -115q-117 -114 -117 -288q0 -175 117 -289q118 -115 299 -115q162 0 303 105q6 -6 6 -23q0 -16 -6 -22q-118 -97 -303 -97h-7v-118q69 18 133 -22t64 -120 q0 -68 -47 -109q-46 -40 -115 -40q-56 0 -106 30q-6 8 -6 22q0 13 6 19q46 -34 104 -34q51 1 87 30t36 82q0 72 -63 97q-63 26 -134 -5v170q-181 15 -295 139t-114 300z" />
<glyph unicode="&#xe8;" horiz-adv-x="1069" d="M123 410q0 187 119 314q118 126 311 126q189 0 303 -129t92 -311h-784q0 -184 114 -294q115 -110 295 -110q163 0 304 105q6 -6 6 -23q0 -16 -6 -22q-118 -97 -304 -97q-199 0 -324 121q-126 121 -126 320zM166 446h745q6 157 -96 262t-262 105q-163 0 -270 -102 q-106 -102 -117 -265zM399 1182q0 7 11 18q10 10 18 10l242 -247q0 -23 -23 -23z" />
<glyph unicode="&#xe9;" horiz-adv-x="1069" d="M123 410q0 187 119 314q118 126 311 126q189 0 303 -129t92 -311h-784q0 -184 114 -294q115 -110 295 -110q163 0 304 105q6 -6 6 -23q0 -16 -6 -22q-118 -97 -304 -97q-199 0 -324 121q-126 121 -126 320zM166 446h745q6 157 -96 262t-262 105q-163 0 -270 -102 q-106 -102 -117 -265zM399 963l242 247q8 0 18 -10q11 -11 11 -18l-248 -242q-23 0 -23 23z" />
<glyph unicode="&#xea;" horiz-adv-x="1069" d="M123 410q0 187 119 314q118 126 311 126q189 0 303 -129t92 -311h-784q0 -184 114 -294q115 -110 295 -110q163 0 304 105q6 -6 6 -23q0 -16 -6 -22q-118 -97 -304 -97q-199 0 -324 121q-126 121 -126 320zM166 446h745q6 157 -96 262t-262 105q-163 0 -270 -102 q-106 -102 -117 -265zM260 952l234 236q40 33 81 0l234 -236q0 -9 -11 -17q-12 -9 -20 -9l-243 245l-244 -245q-8 0 -20 9q-11 8 -11 17z" />
<glyph unicode="&#xeb;" horiz-adv-x="1069" d="M123 410q0 187 119 314q118 126 311 126q189 0 303 -129t92 -311h-784q0 -184 114 -294q115 -110 295 -110q163 0 304 105q6 -6 6 -23q0 -16 -6 -22q-118 -97 -304 -97q-199 0 -324 121q-126 121 -126 320zM166 446h745q6 157 -96 262t-262 105q-163 0 -270 -102 q-106 -102 -117 -265zM252 1092q0 16 12 28q13 13 31 13q16 0 29 -13q12 -12 12 -28q0 -19 -12 -31t-29 -12q-19 0 -31 12t-12 31zM731 1092q0 16 12 28q13 13 31 13q16 0 29 -13q12 -12 12 -28q0 -19 -12 -31t-29 -12q-19 0 -31 12t-12 31z" />
<glyph unicode="&#xec;" horiz-adv-x="372" d="M53 1182q0 8 10 18t19 10l242 -247q0 -23 -23 -23zM168 0v819q6 6 20 6q15 0 21 -6v-819q-6 -6 -21 -6q-14 0 -20 6z" />
<glyph unicode="&#xed;" horiz-adv-x="372" d="M53 963l242 247q8 0 18 -10q11 -11 11 -18l-248 -242q-23 0 -23 23zM168 0v819q6 6 20 6q15 0 21 -6v-819q-6 -6 -21 -6q-14 0 -20 6z" />
<glyph unicode="&#xee;" horiz-adv-x="372" d="M-86 952l233 236q41 33 82 0l234 -236q0 -9 -11 -17q-12 -9 -20 -9l-244 245l-243 -245q-8 0 -20 9q-11 8 -11 17zM168 0v819q6 6 20 6q15 0 21 -6v-819q-6 -6 -21 -6q-14 0 -20 6z" />
<glyph unicode="&#xef;" horiz-adv-x="372" d="M-94 1092q0 16 12 28q13 13 31 13q15 0 28 -13t13 -28q0 -18 -13 -31q-12 -12 -28 -12q-19 0 -31 12t-12 31zM168 0v819q6 6 20 6q15 0 21 -6v-819q-6 -6 -21 -6q-14 0 -20 6zM385 1092q0 16 12 28q13 13 31 13q16 0 29 -13q12 -12 12 -28q0 -19 -12 -31t-29 -12 q-19 0 -31 12t-12 31z" />
<glyph unicode="&#xf0;" horiz-adv-x="1050" d="M117 410q0 192 109 316t300 124q190 0 336 -137q-56 215 -219 372l-225 -135q-6 6 -6 23q0 16 6 22l196 117q-160 138 -356 178q-6 6 -6 21q0 14 6 20q218 -39 393 -196l213 127q6 -6 6 -23q0 -16 -6 -22l-182 -109q246 -242 246 -594v-102q0 -211 -113 -327t-287 -116 q-171 0 -291 122q-120 121 -120 319zM158 410q0 -182 108 -293t262 -111q155 0 257 105t102 301v102q0 66 -10 135q-50 57 -149 112q-94 52 -202 52q-171 0 -270 -113q-98 -111 -98 -290z" />
<glyph unicode="&#xf1;" horiz-adv-x="1052" d="M164 0v819q6 6 20 6q15 0 21 -6v-145q164 176 354 176q165 0 251 -93q85 -92 85 -249v-508q-6 -6 -21 -6q-14 0 -20 6v508q0 139 -73 223q-72 82 -222 82q-107 0 -204 -63q-96 -62 -150 -127v-623q-6 -6 -21 -6q-14 0 -20 6zM213 1044q0 13 6 19q2 1 27 13q4 2 9.5 5t8 5 t5.5 3.5l5 2.5q4 2 27 12q20 8 31 11q14 3 29 6q18 3 34 3q55 0 154 -45q55 -24 106 -24q58 0 176 61q7 -7 7 -18q0 -12 -7 -19q-6 -1 -26 -13q-8 -5 -17.5 -9.5t-11.5 -5.5q-12 -7 -26 -13q-19 -8 -31 -11t-30 -6t-34 -3q-54 0 -153 45q-56 24 -107 24q-58 0 -176 -61 q-6 6 -6 18z" />
<glyph unicode="&#xf2;" horiz-adv-x="1118" d="M123 410q0 186 124 313t312 127t312 -127t124 -313q0 -187 -124 -314t-312 -127t-312 127t-124 314zM164 410q0 -173 112 -288q113 -116 283 -116t283 116q112 115 112 288q0 172 -112 287q-113 116 -283 116t-283 -116q-112 -115 -112 -287zM424 1182q0 8 10 18t19 10 l241 -247q0 -23 -22 -23z" />
<glyph unicode="&#xf3;" horiz-adv-x="1118" d="M123 410q0 186 124 313t312 127t312 -127t124 -313q0 -187 -124 -314t-312 -127t-312 127t-124 314zM164 410q0 -173 112 -288q113 -116 283 -116t283 116q112 115 112 288q0 172 -112 287q-113 116 -283 116t-283 -116q-112 -115 -112 -287zM424 963l242 247q8 0 18 -10 t10 -18l-248 -242q-22 0 -22 23z" />
<glyph unicode="&#xf4;" horiz-adv-x="1118" d="M123 410q0 186 124 313t312 127t312 -127t124 -313q0 -187 -124 -314t-312 -127t-312 127t-124 314zM164 410q0 -173 112 -288q113 -116 283 -116t283 116q112 115 112 288q0 172 -112 287q-113 116 -283 116t-283 -116q-112 -115 -112 -287zM285 952l233 236q41 33 82 0 l234 -236q0 -8 -12 -17t-19 -9l-244 245l-244 -245q-7 0 -19 9q-11 8 -11 17z" />
<glyph unicode="&#xf5;" horiz-adv-x="1118" d="M123 410q0 186 124 313t312 127t312 -127t124 -313q0 -187 -124 -314t-312 -127t-312 127t-124 314zM164 410q0 -173 112 -288q113 -116 283 -116t283 116q112 115 112 288q0 172 -112 287q-113 116 -283 116t-283 -116q-112 -115 -112 -287zM246 1044q0 13 6 19 q2 1 27 13q4 2 9.5 5t8 5t5.5 3.5l5 2.5q4 2 27 12q19 8 31 11q14 3 29 6q18 3 34 3q55 0 154 -45q55 -24 106 -24q58 0 176 61q6 -6 6 -18q0 -13 -6 -19q-6 -1 -26 -13q-8 -5 -17.5 -9.5t-11.5 -5.5q-10 -6 -27 -13q-21 -9 -30 -11q-12 -3 -30 -6t-34 -3q-54 0 -153 45 q-56 24 -107 24q-58 0 -176 -61q-6 6 -6 18z" />
<glyph unicode="&#xf6;" horiz-adv-x="1118" d="M123 410q0 186 124 313t312 127t312 -127t124 -313q0 -187 -124 -314t-312 -127t-312 127t-124 314zM164 410q0 -173 112 -288q113 -116 283 -116t283 116q112 115 112 288q0 172 -112 287q-113 116 -283 116t-283 -116q-112 -115 -112 -287zM276 1092q0 15 13 28t30 13 q16 0 29 -13q12 -12 12 -28q0 -19 -12 -31t-29 -12q-18 0 -30 12q-13 13 -13 31zM756 1092q0 16 12 28q13 13 31 13q15 0 28 -13t13 -28q0 -18 -13 -31q-12 -12 -28 -12q-19 0 -31 12t-12 31z" />
<glyph unicode="&#xf7;" horiz-adv-x="921" d="M102 590q0 11 7 18h704q6 -6 6 -18q0 -13 -6 -19h-704q-7 7 -7 19zM420 403q0 17 12 29t31 12q17 0 29 -12t12 -29q0 -18 -12 -30q-13 -13 -29 -13q-18 0 -31 13q-12 12 -12 30zM420 778q0 17 12 29t31 12q17 0 29 -12t12 -29q0 -18 -12 -30q-13 -13 -29 -13 q-18 0 -31 13q-12 12 -12 30z" />
<glyph unicode="&#xf8;" horiz-adv-x="1118" d="M123 0l110 111q-110 122 -110 299q0 186 124 313t312 127q173 0 297 -113l82 82q6 6 29 6q22 0 28 -6l-110 -110q110 -122 110 -299q0 -187 -124 -314t-312 -127q-173 0 -297 113l-82 -82q-6 -6 -28 -6q-23 0 -29 6zM164 410q0 -158 96 -271l569 572q-113 102 -270 102 q-170 0 -283 -116q-112 -115 -112 -287zM289 109q114 -103 270 -103q170 0 283 116q112 115 112 288q0 158 -96 270z" />
<glyph unicode="&#xf9;" horiz-adv-x="1046" d="M158 311v508q6 6 20 6q15 0 21 -6v-508q0 -141 72 -223t223 -82q104 0 203 64q98 63 151 127v622q6 6 20 6q15 0 21 -6v-819q-6 -6 -21 -6q-14 0 -20 6v145q-164 -176 -354 -176q-166 0 -251 93q-85 92 -85 249zM389 1182q0 8 10 18t19 10l241 -247q0 -23 -22 -23z" />
<glyph unicode="&#xfa;" horiz-adv-x="1046" d="M158 311v508q6 6 20 6q15 0 21 -6v-508q0 -141 72 -223t223 -82q104 0 203 64q98 63 151 127v622q6 6 20 6q15 0 21 -6v-819q-6 -6 -21 -6q-14 0 -20 6v145q-164 -176 -354 -176q-166 0 -251 93q-85 92 -85 249zM389 963l242 247q8 0 18 -10t10 -18l-247 -242 q-23 0 -23 23z" />
<glyph unicode="&#xfb;" horiz-adv-x="1046" d="M158 311v508q6 6 20 6q15 0 21 -6v-508q0 -141 72 -223t223 -82q104 0 203 64q98 63 151 127v622q6 6 20 6q15 0 21 -6v-819q-6 -6 -21 -6q-14 0 -20 6v145q-164 -176 -354 -176q-166 0 -251 93q-85 92 -85 249zM250 952l233 236q41 33 82 0l234 -236q0 -8 -12 -17 t-19 -9l-244 245l-243 -245q-8 0 -20 9q-11 8 -11 17z" />
<glyph unicode="&#xfc;" horiz-adv-x="1046" d="M158 311v508q6 6 20 6q15 0 21 -6v-508q0 -141 72 -223t223 -82q104 0 203 64q98 63 151 127v622q6 6 20 6q15 0 21 -6v-819q-6 -6 -21 -6q-14 0 -20 6v145q-164 -176 -354 -176q-166 0 -251 93q-85 92 -85 249zM242 1092q0 16 12 28q13 13 31 13q15 0 28 -13t13 -28 q0 -18 -13 -31q-12 -12 -28 -12q-19 0 -31 12t-12 31zM721 1092q0 16 12 28q13 13 31 13q16 0 29 -13q12 -12 12 -28q0 -19 -12 -31t-29 -12q-19 0 -31 12t-12 31z" />
<glyph unicode="&#xfd;" horiz-adv-x="995" d="M82 819q6 6 22 6q17 0 23 -6l373 -713l368 713q6 6 23 6q16 0 22 -6l-598 -1153q-6 -6 -22 -6q-17 0 -23 6l207 397zM362 963l242 247q9 0 19 -10t10 -18l-248 -242q-23 0 -23 23z" />
<glyph unicode="&#xfe;" horiz-adv-x="1101" d="M168 -334v1665q6 6 20 6q15 0 21 -6v-637q141 156 346 156q190 0 307 -125t117 -315q0 -192 -117 -316q-117 -125 -307 -125q-205 0 -346 156v-459q-6 -6 -21 -6q-14 0 -20 6zM209 176q45 -58 139 -115q91 -55 207 -55q174 0 279 114q104 113 104 290q0 176 -104 289 q-105 114 -279 114q-116 0 -207 -55q-94 -57 -139 -115v-467z" />
<glyph unicode="&#xff;" horiz-adv-x="995" d="M82 819q6 6 22 6q17 0 23 -6l373 -713l368 713q6 6 23 6q16 0 22 -6l-598 -1153q-6 -6 -22 -6q-17 0 -23 6l207 397zM215 1092q0 16 12 28q13 13 31 13q16 0 29 -13q12 -12 12 -28q0 -19 -12 -31t-29 -12q-19 0 -31 12t-12 31zM694 1092q0 15 13 28t30 13q16 0 29 -13 q12 -12 12 -28q0 -19 -12 -31t-29 -12q-18 0 -30 12q-13 13 -13 31z" />
<glyph unicode="&#x152;" horiz-adv-x="2480" d="M154 668q0 293 195 494q196 202 497 202q230 0 405 -125q174 -124 246 -328v420h875q6 -6 6 -18q0 -13 -6 -19h-834v-589h776q6 -6 6 -19q0 -12 -6 -18h-776v-631h834q6 -6 6 -19q0 -12 -6 -18h-875v424q-72 -204 -246 -328q-175 -125 -405 -125q-301 0 -497 202 q-195 201 -195 495zM195 668q0 -279 184 -469q185 -191 467 -191t467 191q184 190 184 469t-184 469t-467 190t-467 -190t-184 -469z" />
<glyph unicode="&#x153;" horiz-adv-x="1900" d="M123 410q0 186 124 313t312 127q149 0 261 -83t155 -216q39 134 147 217q107 82 262 82q190 0 304 -129t92 -311h-785q0 -184 114 -294q115 -110 296 -110q162 0 303 105q6 -6 6 -23q0 -16 -6 -22q-118 -97 -303 -97q-160 0 -275 80t-155 219q-43 -134 -156 -217 q-112 -82 -260 -82q-188 0 -312 127t-124 314zM164 410q0 -173 112 -288q113 -116 283 -116t283 116q112 115 112 288q0 172 -112 287q-113 116 -283 116t-283 -116q-112 -115 -112 -287zM997 446h746q6 157 -96 262t-263 105q-164 0 -270 -102t-117 -265z" />
<glyph unicode="&#x178;" horiz-adv-x="1247" d="M82 1331q6 6 23 6q18 0 24 -6l496 -764l493 764q6 6 24 6q17 0 23 -6l-520 -805v-526q-6 -6 -20 -6q-15 0 -21 6v524zM342 1604q0 16 12 28q13 13 31 13q16 0 29 -13q12 -12 12 -28q0 -19 -12 -31t-29 -12q-19 0 -31 12t-12 31zM821 1604q0 15 13 28t30 13q16 0 29 -13 q12 -12 12 -28q0 -19 -12 -31t-29 -12q-18 0 -30 12q-13 13 -13 31z" />
<glyph unicode="&#x2c6;" horiz-adv-x="753" d="M102 1464l234 236q41 33 82 0l233 -236q0 -9 -11 -17q-12 -9 -19 -9l-244 245l-244 -245q-7 0 -19 9t-12 17z" />
<glyph unicode="&#x2dc;" horiz-adv-x="829" d="M102 1556q0 12 7 19l26 13q8 4 17.5 9.5t11.5 6.5q6 4 26 12q19 8 31 11t30 6t34 3q54 0 153 -45q55 -24 107 -24q58 0 176 61q6 -6 6 -18q0 -13 -6 -19q-8 -2 -27 -13q-8 -4 -17 -9t-11 -6q-10 -6 -27 -13q-19 -8 -31 -11q-14 -3 -29 -6q-18 -3 -34 -3q-55 0 -154 45 q-56 24 -106 24q-58 0 -176 -61q-7 7 -7 18z" />
<glyph unicode="&#x2000;" horiz-adv-x="872" />
<glyph unicode="&#x2001;" horiz-adv-x="1745" />
<glyph unicode="&#x2002;" horiz-adv-x="872" />
<glyph unicode="&#x2003;" horiz-adv-x="1745" />
<glyph unicode="&#x2004;" horiz-adv-x="581" />
<glyph unicode="&#x2005;" horiz-adv-x="436" />
<glyph unicode="&#x2006;" horiz-adv-x="290" />
<glyph unicode="&#x2007;" horiz-adv-x="290" />
<glyph unicode="&#x2008;" horiz-adv-x="218" />
<glyph unicode="&#x2009;" horiz-adv-x="349" />
<glyph unicode="&#x200a;" horiz-adv-x="96" />
<glyph unicode="&#x2010;" horiz-adv-x="780" d="M102 590q0 11 7 18h563q6 -6 6 -18q0 -13 -6 -19h-563q-7 7 -7 19z" />
<glyph unicode="&#x2011;" horiz-adv-x="780" d="M102 590q0 11 7 18h563q6 -6 6 -18q0 -13 -6 -19h-563q-7 7 -7 19z" />
<glyph unicode="&#x2012;" horiz-adv-x="780" d="M102 590q0 11 7 18h563q6 -6 6 -18q0 -13 -6 -19h-563q-7 7 -7 19z" />
<glyph unicode="&#x2013;" horiz-adv-x="1073" d="M102 590q0 11 7 18h856q6 -6 6 -18q0 -13 -6 -19h-856q-7 7 -7 19z" />
<glyph unicode="&#x2014;" horiz-adv-x="1302" d="M102 590q0 11 7 18h1085q6 -6 6 -18q0 -13 -6 -19h-1085q-7 7 -7 19z" />
<glyph unicode="&#x2018;" horiz-adv-x="303" d="M106 1049q-10 52 7 152q16 96 47 130q6 6 20 6q15 0 21 -6q-26 -33 -46 -116q-20 -81 -12 -134q10 2 15 2q16 0 27 -11q12 -12 12 -30q0 -43 -43 -43q-37 0 -48 50z" />
<glyph unicode="&#x2019;" horiz-adv-x="303" d="M102 1030q26 33 46 116q20 81 12 134q-10 -2 -15 -2q-16 0 -27 11q-12 12 -12 30q0 43 44 43q37 0 47 -49q10 -53 -7 -153q-16 -96 -47 -130q-6 -6 -20 -6q-15 0 -21 6z" />
<glyph unicode="&#x201a;" horiz-adv-x="303" d="M102 -279q26 33 46 116q20 81 12 134q-10 -2 -15 -2q-15 0 -27 12t-12 29q0 43 44 43q37 0 47 -49q10 -52 -7 -152q-16 -97 -47 -131q-6 -6 -20 -6q-15 0 -21 6z" />
<glyph unicode="&#x201c;" horiz-adv-x="499" d="M106 1049q-10 52 7 152q16 96 47 130q6 6 20 6q15 0 21 -6q-26 -33 -46 -116q-20 -81 -12 -134q10 2 15 2q16 0 27 -11q12 -12 12 -30q0 -43 -43 -43q-37 0 -48 50zM303 1049q-10 55 6 152q16 96 47 130q6 6 21 6q14 0 20 -6q-26 -33 -46 -116q-19 -79 -11 -134 q10 2 14 2q17 0 28 -11t11 -30q0 -43 -43 -43q-36 0 -47 50z" />
<glyph unicode="&#x201d;" horiz-adv-x="499" d="M102 1030q26 33 46 116q20 81 12 134q-10 -2 -15 -2q-16 0 -27 11q-12 12 -12 30q0 43 44 43q37 0 47 -49q10 -53 -7 -153q-16 -96 -47 -130q-6 -6 -20 -6q-15 0 -21 6zM299 1030q26 33 46 116q19 79 11 134q-10 -2 -14 -2q-17 0 -28 11t-11 30q0 43 43 43q37 0 47 -49 q11 -55 -6 -153q-16 -96 -47 -130q-6 -6 -21 -6q-14 0 -20 6z" />
<glyph unicode="&#x201e;" horiz-adv-x="499" d="M102 -279q26 33 46 116q20 81 12 134q-10 -2 -15 -2q-15 0 -27 12t-12 29q0 43 44 43q37 0 47 -49q10 -52 -7 -152q-16 -97 -47 -131q-6 -6 -20 -6q-15 0 -21 6zM299 -279q26 33 46 116q19 79 11 134q-10 -2 -14 -2q-16 0 -28 12q-11 11 -11 29q0 43 43 43q37 0 47 -49 q10 -55 -6 -152t-47 -131q-6 -6 -21 -6q-14 0 -20 6z" />
<glyph unicode="&#x2022;" horiz-adv-x="352" d="M102 586q0 30 22 52q21 21 52 21t52 -21q22 -22 22 -52t-22 -52t-52 -22t-52 22t-22 52z" />
<glyph unicode="&#x2026;" horiz-adv-x="903" d="M102 12q0 16 13 29q12 12 30 12q17 0 29 -12t12 -29q0 -18 -12 -30q-13 -13 -29 -13q-17 0 -30 13t-13 30zM410 12q0 17 12 29t31 12q16 0 28 -12q13 -13 13 -29q0 -17 -13 -30t-28 -13q-18 0 -31 13q-12 12 -12 30zM717 12q0 17 12 29t31 12q16 0 28 -12q13 -13 13 -29 q0 -17 -13 -30t-28 -13q-18 0 -31 13q-12 12 -12 30z" />
<glyph unicode="&#x202f;" horiz-adv-x="349" />
<glyph unicode="&#x2039;" horiz-adv-x="522" d="M102 444l279 320q6 6 19 6q14 0 20 -6l-262 -320l262 -319q-6 -6 -20 -6q-13 0 -19 6z" />
<glyph unicode="&#x203a;" horiz-adv-x="522" d="M102 125l263 319l-263 320q6 6 20 6q13 0 19 -6l279 -320l-279 -319q-6 -6 -19 -6q-14 0 -20 6z" />
<glyph unicode="&#x205f;" horiz-adv-x="436" />
<glyph unicode="&#x20ac;" horiz-adv-x="1624" d="M102 543q0 11 7 18h167q-8 50 -8 105q0 54 8 104h-167q-7 7 -7 18q0 12 7 19h172q47 243 232 398q187 157 448 157q272 0 462 -137q7 -7 7 -25q0 -17 -7 -24q-182 149 -462 149q-245 0 -418 -145q-174 -146 -219 -373h634q7 -7 7 -19q0 -11 -7 -18h-641q-8 -50 -8 -104 q0 -55 8 -105h560q6 -6 6 -18q0 -13 -6 -19h-553q45 -226 219 -372q175 -146 418 -146q279 0 462 150q7 -7 7 -25t-7 -25q-190 -137 -462 -137q-261 0 -448 157q-185 155 -232 398h-172q-7 7 -7 19z" />
<glyph unicode="&#x2122;" horiz-adv-x="1308" d="M102 1313q0 11 7 18h434q6 -6 6 -18q0 -13 -6 -19h-197v-376q-7 -7 -20 -7q-14 0 -21 7v376h-196q-7 7 -7 19zM565 918l123 405q6 6 22 6q15 0 21 -6l156 -356l153 356q6 6 22 6q15 0 21 -6l123 -405q-7 -7 -21 -7q-15 0 -22 7l-104 348l-152 -348q-7 -7 -21 -7 q-15 0 -22 7l-151 348l-105 -348q-7 -7 -21 -7q-15 0 -22 7z" />
<glyph unicode="&#x25fc;" horiz-adv-x="829" d="M0 0v829h829v-829h-829z" />
</font>
</defs>
</svg>
