<?xml version="1.0" standalone="no"?>
<!DOCTYPE svg PUBLIC "-//W3C//DTD SVG 1.1//EN" "http://www.w3.org/Graphics/SVG/1.1/DTD/svg11.dtd" >
<svg xmlns="http://www.w3.org/2000/svg">
<metadata></metadata>
<defs>
<font id="merel-lightuploaded_file" horiz-adv-x="1673" >
<font-face units-per-em="2048" ascent="1616" descent="-432" />
<missing-glyph horiz-adv-x="430" />
<glyph horiz-adv-x="0" />
<glyph unicode="&#xd;" horiz-adv-x="681" />
<glyph unicode=" "  horiz-adv-x="430" />
<glyph unicode="&#x09;" horiz-adv-x="430" />
<glyph unicode="&#xa0;" horiz-adv-x="430" />
<glyph unicode="!" horiz-adv-x="327" d="M94 37q0 29 21 48q20 19 51 19q29 0 48 -19t19 -48t-19 -48q-20 -20 -48 -20q-29 0 -51 20q-21 19 -21 48zM115 1100v231q49 21 96 0v-231l-18 -666q-31 -12 -60 0z" />
<glyph unicode="&#x22;" horiz-adv-x="546" d="M94 928v403q46 21 96 0l-26 -403q-35 -15 -70 0zM356 928v403q50 21 97 0l-27 -403q-35 -15 -70 0z" />
<glyph unicode="#" horiz-adv-x="1052" d="M96 496q-2 13 5 32q7 20 16 29h194l64 217h-199q-2 12 4 32q6 21 15 30h196l144 495q34 18 67 0l-141 -495h231l142 495q32 18 69 0l-143 -495h198q5 -35 -16 -62h-201l-61 -217h199q1 -12 -6 -33q-7 -20 -15 -28h-196l-142 -496q-37 -18 -69 0l143 496h-232l-143 -496 q-33 -18 -67 0l141 496h-197zM379 557h231l62 217h-230z" />
<glyph unicode="$" horiz-adv-x="1165" d="M141 1014q0 140 111 242q110 102 299 106v190q29 21 53 0v-190q213 -12 350 -131q9 -14 9 -51t-9 -50q-160 148 -385 148q-151 0 -240 -75t-89 -183q0 -116 78 -170q78 -55 300 -127q73 -22 126 -44q51 -21 108 -52q59 -32 92 -70q32 -37 56 -93q24 -57 24 -128 q0 -157 -118 -259q-119 -102 -302 -108v-190q-24 -21 -53 0v190q-221 11 -383 135q-8 11 -8 51q0 39 8 50q184 -152 412 -152q153 0 249 78q97 79 97 199q0 131 -86 191q-88 61 -293 124q-101 30 -162 57q-60 26 -124 69q-62 42 -91 102q-29 61 -29 141z" />
<glyph unicode="%" horiz-adv-x="1568" d="M94 1014q0 158 75 253t202 95q126 0 200 -95t74 -253t-74 -253t-200 -95q-127 0 -202 95t-75 253zM170 1014q0 -133 54 -208t147 -75t145 75q53 76 53 208t-53 208q-52 74 -145 74q-94 0 -147 -74q-54 -75 -54 -208zM434 0l631 1331q35 18 72 0l-631 -1331q-38 -18 -72 0 zM922 317q0 160 74 253q76 96 202 96t201 -96q74 -95 74 -253q0 -157 -74 -252q-75 -96 -201 -96t-202 96q-74 93 -74 252zM997 317q0 -131 55 -207q54 -75 146 -75t145 75q54 77 54 207q0 131 -54 208q-53 75 -145 75t-146 -75q-55 -76 -55 -208z" />
<glyph unicode="&#x26;" horiz-adv-x="1300" d="M78 303q0 136 80 225t241 183q-178 211 -178 356q0 124 92 210q91 85 242 85q157 0 246 -85q90 -86 90 -218q0 -40 -11 -72q-12 -35 -24 -60q-13 -27 -46 -56q-35 -31 -52 -46t-69 -47q-54 -32 -72 -43q-29 -16 -82 -45l385 -391q131 181 137 420q49 21 96 0 q-12 -278 -168 -486l236 -233q-19 -8 -61 -8q-41 0 -60 8l-174 170q-189 -201 -445 -201q-165 0 -284 90t-119 244zM176 307q0 -118 91 -187t216 -69q222 0 381 180l-405 414q-148 -84 -216 -157q-67 -72 -67 -181zM317 1065q0 -124 160 -311q89 49 143 80q41 24 92 62 q49 37 66 74t17 85q0 95 -62 159t-178 64q-109 0 -173 -61q-65 -62 -65 -152z" />
<glyph unicode="'" horiz-adv-x="284" d="M94 928v403q46 21 96 0l-26 -403q-35 -15 -70 0z" />
<glyph unicode="(" horiz-adv-x="466" d="M94 551q0 201 52 413t137 367q45 18 88 0q-84 -163 -135 -377q-52 -217 -52 -403q0 -187 52 -404q51 -212 135 -376q-43 -18 -88 0q-85 155 -137 367t-52 413z" />
<glyph unicode=")" horiz-adv-x="466" d="M94 -229q84 164 135 376q52 217 52 404q0 186 -52 403q-51 214 -135 377q43 18 88 0q83 -152 136 -367q53 -217 53 -413t-53 -413q-53 -215 -136 -367q-43 -18 -88 0z" />
<glyph unicode="*" horiz-adv-x="835" d="M96 1075q-4 43 25 74l272 -111l-14 293q39 16 76 0l-11 -293l273 111q29 -30 24 -74l-278 -86l196 -219q-22 -37 -59 -47l-182 242l-180 -242q-38 11 -60 47l197 219z" />
<glyph unicode="+" horiz-adv-x="907" d="M102 541q-18 34 0 73h316v316q37 15 71 0v-316h318q18 -39 0 -73h-318v-316q-34 -18 -71 0v316h-316z" />
<glyph unicode="," horiz-adv-x="344" d="M98 37q0 25 20 47q19 20 52 20q31 0 52 -21q22 -23 24 -63q7 -67 -20 -170q-27 -101 -62 -135q-29 -17 -64 0q37 40 63 122q26 81 21 134q-10 -2 -18 -2q-27 0 -48 19q-20 18 -20 49z" />
<glyph unicode="-" horiz-adv-x="765" d="M102 541q-18 34 0 73h564q18 -39 0 -73h-564z" />
<glyph unicode="." horiz-adv-x="327" d="M94 37q0 29 21 48q20 19 51 19q29 0 48 -19t19 -48t-19 -48q-20 -20 -48 -20q-29 0 -51 20q-21 19 -21 48z" />
<glyph unicode="/" horiz-adv-x="626" d="M94 0l350 1331q43 18 88 0l-350 -1331q-45 -18 -88 0z" />
<glyph unicode="0" horiz-adv-x="1349" d="M141 666q0 311 146 504q146 192 389 192q244 0 388 -192t144 -504q0 -313 -144 -505t-388 -192q-243 0 -389 192q-146 193 -146 505zM240 666q0 -289 117 -450q118 -163 319 -163q198 0 316 163t118 450q0 286 -118 449t-316 163q-201 0 -319 -163q-117 -161 -117 -449z " />
<glyph unicode="1" horiz-adv-x="696" d="M79 1042q2 39 7 50l336 239q41 17 82 0v-1331q-50 -21 -96 0v1225l-322 -230q-8 12 -7 47z" />
<glyph unicode="2" horiz-adv-x="1079" d="M94 0v18q336 329 486 498q156 176 208 276q50 95 50 193q0 121 -87 207q-88 86 -243 86q-209 0 -363 -148q-8 8 -8 49q0 39 8 52q148 131 369 131q199 0 310 -111q112 -112 112 -262q0 -166 -132 -343q-131 -175 -540 -562h692q16 -44 0 -84h-862z" />
<glyph unicode="3" horiz-adv-x="1140" d="M183 151q-1 38 7 50q77 -70 182 -110q104 -40 208 -40q163 0 265 84q101 83 101 225q0 121 -85 203t-251 82h-180q-17 39 0 80h180q129 0 208 79t79 195q0 117 -86 198q-85 81 -240 81q-210 0 -370 -148q-8 12 -7 50q2 40 7 51q154 131 372 131q197 0 310 -102 q112 -102 112 -250q0 -110 -59 -194q-60 -85 -162 -124q132 -35 201 -128t69 -212q0 -172 -128 -277q-129 -106 -330 -106q-106 0 -216 35q-109 35 -180 94q-5 11 -7 53z" />
<glyph unicode="4" horiz-adv-x="1173" d="M86 305q-17 41 0 82l715 944q43 17 84 0v-944h200q17 -41 0 -82h-200v-305q-50 -21 -97 0v305h-702zM180 387h608v801z" />
<glyph unicode="5" horiz-adv-x="1079" d="M120 151q-1 38 7 50q162 -150 389 -150q164 0 266 93q103 94 103 241q0 149 -105 237q-106 89 -280 89q-144 0 -291 -84l106 704h603q16 -41 0 -84h-527l-78 -510q107 51 215 51q206 0 330 -111q125 -111 125 -292q0 -182 -129 -299t-334 -117q-237 0 -393 129 q-5 11 -7 53z" />
<glyph unicode="6" horiz-adv-x="1193" d="M141 444q0 141 48 274q47 131 118 231q67 95 157 180q88 84 154 129q65 45 123 73q19 8 75 8t75 -8q-74 -35 -146 -84q-73 -49 -162 -123q-91 -76 -166 -177q-78 -106 -118 -218q134 121 328 121q197 0 311 -124q115 -126 115 -310q0 -192 -127 -319q-128 -128 -328 -128 q-205 0 -331 130q-126 131 -126 345zM240 434q0 -175 98 -277q99 -104 258 -104q158 0 258 102q100 101 100 259t-94 258t-258 100q-116 0 -205 -49q-90 -49 -135 -105q-22 -88 -22 -184z" />
<glyph unicode="7" horiz-adv-x="1079" d="M117 1247q-17 43 0 84h882v-18l-671 -1313q-51 -21 -107 0l643 1247h-747z" />
<glyph unicode="8" horiz-adv-x="1112" d="M96 344q0 119 72 215q72 95 201 133q-101 38 -162 124q-62 88 -62 194q0 144 111 248q112 104 301 104q187 0 299 -104q111 -104 111 -248q0 -106 -62 -194q-61 -86 -162 -124q129 -38 201 -133q72 -96 72 -215q0 -170 -129 -272q-130 -103 -330 -103q-199 0 -331 103 q-130 102 -130 272zM195 352q0 -136 102 -219q101 -82 260 -82q158 0 259 82q102 83 102 219q0 120 -90 207q-89 86 -242 86h-60q-153 0 -242 -86t-89 -207zM242 999q0 -112 81 -193t201 -81h62q122 0 202 81q80 82 80 193q0 114 -83 197q-82 82 -230 82q-146 0 -229 -82 q-84 -82 -84 -197z" />
<glyph unicode="9" horiz-adv-x="1193" d="M141 915q0 192 127 319q128 128 328 128q205 0 331 -130t126 -345q0 -141 -48 -274q-47 -131 -118 -231q-67 -95 -157 -180q-86 -81 -155 -129q-67 -46 -122 -73q-19 -8 -75 -8t-75 8q74 35 146 84q73 50 162 123q91 76 166 177q78 106 118 218q-134 -121 -328 -121 q-197 0 -311 124q-115 126 -115 310zM240 918q0 -159 94 -259t258 -100q116 0 205 49q90 50 135 105q22 88 22 184q0 175 -99 278t-259 103q-156 0 -256 -101t-100 -259z" />
<glyph unicode=":" horiz-adv-x="327" d="M94 37q0 29 21 48q20 19 51 19q29 0 48 -19t19 -48t-19 -48q-20 -20 -48 -20q-29 0 -51 20q-21 19 -21 48zM94 782q0 28 21 48q22 20 51 20q28 0 48 -20q19 -19 19 -48t-19 -48t-48 -19q-31 0 -51 19q-21 20 -21 48z" />
<glyph unicode=";" horiz-adv-x="344" d="M98 37q0 25 20 47q19 20 52 20q31 0 52 -21q22 -23 24 -63q7 -67 -20 -170q-27 -101 -62 -135q-29 -17 -64 0q37 40 63 122q26 81 21 134q-10 -2 -18 -2q-27 0 -48 19q-20 18 -20 49zM98 782q0 28 21 48q22 20 51 20q28 0 48 -20t20 -48t-20 -48q-19 -19 -48 -19 q-31 0 -51 19q-21 20 -21 48z" />
<glyph unicode="&#x3c;" horiz-adv-x="933" d="M94 564q0 17 8 28l732 371q21 -45 0 -86l-623 -312l623 -311q21 -45 0 -86l-732 369q-8 11 -8 27z" />
<glyph unicode="=" horiz-adv-x="907" d="M102 393q-18 37 0 72h705q18 -35 0 -74zM102 655q-18 37 0 74h705q18 -37 0 -74h-705z" />
<glyph unicode="&#x3e;" horiz-adv-x="933" d="M102 168q-21 41 0 86l621 311l-621 312q-21 41 0 86l732 -371q8 -8 8 -28q0 -19 -8 -27z" />
<glyph unicode="?" horiz-adv-x="1009" d="M93 1180q2 40 7 51q158 131 394 131q195 0 308 -98t113 -238q0 -120 -63 -192q-61 -69 -205 -160q-57 -36 -89 -61q-29 -22 -49 -66q-22 -47 -22 -113q-49 -16 -96 0q0 116 39 168q40 54 133 113q147 91 200 147q54 57 54 158q0 108 -89 183q-88 75 -241 75 q-222 0 -387 -148q-8 12 -7 50zM371 37q0 29 20 48t51 19q29 0 48 -19q20 -20 20 -48t-20 -48t-48 -20q-29 0 -51 20q-20 19 -20 48z" />
<glyph unicode="@" horiz-adv-x="1933" d="M141 428q0 350 242 587q240 236 596 236q373 0 593 -225q220 -224 220 -575q0 -136 -35 -239q-35 -102 -90 -150q-55 -47 -106 -70q-52 -23 -101 -23q-169 4 -196 154q-131 -154 -330 -154q-188 0 -302 125q-114 124 -114 316q0 190 114 315t302 125q198 0 328 -150 l4 119q41 17 82 0v-635q0 -139 112 -139q106 0 180 105q74 106 74 301q0 327 -200 529t-535 202q-320 0 -540 -214t-220 -542q0 -277 162 -469q163 -193 407 -242q9 -13 9 -34q0 -23 -9 -37q-280 49 -463 265q-184 217 -184 519zM610 410q0 -157 93 -259t247 -102 q100 0 183 48q76 44 124 102v422q-46 56 -124 101q-83 48 -183 48q-155 0 -247 -101q-93 -102 -93 -259z" />
<glyph unicode="A" horiz-adv-x="1372" d="M78 0l563 1331q22 9 44.5 9t43.5 -9l563 -1331q-26 -10 -51 -10t-49 10l-174 410h-666l-174 -410q-26 -10 -51 -10t-49 10zM385 494h604l-303 714z" />
<glyph unicode="B" horiz-adv-x="1251" d="M193 0v1331h507q175 0 290 -92q114 -91 114 -244q0 -109 -55 -188q-56 -81 -156 -115q129 -35 196 -121q66 -85 66 -206q0 -162 -120 -264q-119 -101 -330 -101h-512zM291 84h409q172 0 264 79q93 79 93 208q0 124 -83 201t-253 77h-430v-565zM291 723h430q133 0 211 72 t78 190q0 122 -88 192t-228 70h-403v-524z" />
<glyph unicode="C" horiz-adv-x="1488" d="M141 666q0 293 198 494q199 202 507 202q269 0 450 -131q9 -13 9 -48t-9 -48q-188 143 -448 143q-263 0 -436 -176q-172 -175 -172 -436q0 -262 172 -437q173 -176 436 -176q259 0 448 144q9 -13 9 -49q0 -35 -9 -48q-181 -131 -450 -131q-308 0 -507 202 q-198 201 -198 495z" />
<glyph unicode="D" horiz-adv-x="1460" d="M193 0v1331h423q337 0 520 -190q183 -191 183 -475q0 -286 -183 -476t-520 -190h-423zM291 84h325q294 0 450 164q157 165 157 418q0 252 -157 417q-156 164 -450 164h-325v-1163z" />
<glyph unicode="E" horiz-adv-x="1181" d="M193 0v1331h884q8 -20 8.5 -41.5t-8.5 -42.5h-788v-522h729q8 -20 8 -41.5t-8 -42.5h-729v-557h788q8 -22 8.5 -43t-8.5 -41h-884z" />
<glyph unicode="F" horiz-adv-x="1181" d="M193 0v1331h884q8 -20 8.5 -41.5t-8.5 -42.5h-788v-532h729q8 -22 8 -42.5t-8 -41.5h-729v-631q-24 -10 -48 -10t-48 10z" />
<glyph unicode="G" horiz-adv-x="1505" d="M141 666q0 293 198 494q199 202 507 202q269 0 450 -131q9 -13 9 -48t-9 -48q-188 143 -448 143q-263 0 -436 -176q-172 -175 -172 -436q0 -264 172 -439q173 -176 436 -176q220 0 379 99v483q25 9 48 9t46 -9v-533q-85 -61 -215 -96q-131 -35 -260 -35q-308 0 -507 202 q-198 201 -198 495z" />
<glyph unicode="H" horiz-adv-x="1480" d="M193 0v1331q24 10 47.5 10.5t48.5 -10.5v-606h901v606q23 10 47 10.5t49 -10.5v-1331q-25 -10 -49 -10t-47 10v641h-901v-641q-24 -10 -48 -10t-48 10z" />
<glyph unicode="I" horiz-adv-x="483" d="M193 0v1331q24 10 47.5 10.5t48.5 -10.5v-1331q-24 -10 -48 -10t-48 10z" />
<glyph unicode="J" horiz-adv-x="843" d="M79 84v7q0 27 7 38q106 -74 213 -74q256 0 256 320v956q23 11 47 11t49 -11v-962q0 -200 -89 -300t-245 -100q-122 0 -231 68q-5 11 -7 47z" />
<glyph unicode="K" horiz-adv-x="1247" d="M193 0v1331q24 10 47.5 10.5t48.5 -10.5v-622l710 622q22 8 65 8t62 -8l-735 -645l776 -686q-19 -8 -62 -8q-44 0 -63 8l-753 662v-662q-24 -10 -48 -10t-48 10z" />
<glyph unicode="L" horiz-adv-x="1134" d="M193 0v1331q24 10 47.5 10.5t48.5 -10.5v-1247h760q8 -22 8.5 -43t-8.5 -41h-856z" />
<glyph unicode="M" horiz-adv-x="1792" d="M78 0l307 1331q22 9 43 9l43 -9l424 -1184l424 1184q22 9 43 9l43 -9l307 -1331q-23 -9 -47 -9t-49 9l-264 1161l-414 -1161q-22 -8 -43 -8l-43 8l-414 1161l-264 -1161q-25 -9 -49 -9t-47 9z" />
<glyph unicode="N" horiz-adv-x="1460" d="M184 0v1331q20 8 41 8.5t43 -8.5l914 -1171v1171q23 10 47 10.5t49 -10.5v-1331q-20 -8 -41 -8l-41 8l-915 1171v-1171q-24 -10 -48 -10t-49 10z" />
<glyph unicode="O" d="M141 666q0 292 196 494t499 202q302 0 499 -202t197 -494q0 -293 -197 -495t-499 -202q-303 0 -499 202t-196 495zM240 666q0 -263 169 -438t427 -175q260 0 429 175t169 438q0 262 -169 437t-429 175q-258 0 -427 -175t-169 -437z" />
<glyph unicode="P" horiz-adv-x="1277" d="M193 0v1331h458q237 0 361 -123q125 -123 125 -303q0 -178 -125 -301q-124 -123 -361 -123h-362v-481q-24 -10 -48 -10t-48 10zM291 563h362q191 0 288 99q97 98 97 243q0 148 -97 245t-288 97h-362v-684z" />
<glyph unicode="Q" d="M141 666q0 292 196 494t499 202q302 0 499 -202t197 -494q0 -249 -148 -438q-146 -187 -389 -238l246 -324q-19 -8 -53 -8t-53 8l-234 307q-40 -4 -67 -4q-302 1 -498 204q-195 201 -195 493zM240 666q0 -263 169 -438t427 -175q260 0 429 175t169 438q0 262 -169 437 t-429 175q-258 0 -427 -175t-169 -437z" />
<glyph unicode="R" horiz-adv-x="1277" d="M193 0v1331h477q235 0 360 -119t125 -297q0 -151 -92 -263q-92 -111 -272 -140l393 -512q-22 -8 -57 -8q-34 0 -56 8l-383 500h-399v-500q-24 -10 -48 -10t-48 10zM291 584h381q194 0 289 94q96 94 96 237t-96 238q-95 94 -289 94h-381v-663z" />
<glyph unicode="S" horiz-adv-x="1165" d="M141 1014q0 143 115 246q114 102 311 102q233 0 387 -131q9 -14 9 -51t-9 -50q-160 148 -385 148q-151 0 -240 -75t-89 -183q0 -116 78 -170q78 -55 300 -127q73 -22 126 -44q51 -21 108 -52q59 -32 92 -70q32 -37 56 -93q24 -57 24 -128q0 -163 -125 -265t-317 -102 q-238 0 -414 135q-8 11 -8 51q0 39 8 50q184 -152 412 -152q153 0 249 78q97 79 97 199q0 131 -86 191q-88 61 -293 124q-101 30 -162 57q-60 26 -124 69q-62 42 -91 102q-29 61 -29 141z" />
<glyph unicode="T" horiz-adv-x="1198" d="M86 1247q-8 22 -8 42.5t8 41.5h1026q8 -20 8 -41.5t-8 -42.5h-465v-1247q-24 -10 -48.5 -10t-49.5 10v1247h-463z" />
<glyph unicode="U" horiz-adv-x="1427" d="M193 500v831q24 10 49 11l49 -11v-842q0 -201 116 -319q115 -117 312 -117t312 117q116 118 116 319v842q24 10 49 11l49 -11v-831q0 -249 -142 -390q-143 -141 -384 -141q-243 0 -385 140q-141 140 -141 391z" />
<glyph unicode="V" horiz-adv-x="1351" d="M78 1331q26 10 51 10.5t49 -10.5l498 -1194l495 1194q25 10 50 10.5t51 -10.5l-553 -1331q-22 -9 -43.5 -9t-44.5 9z" />
<glyph unicode="W" horiz-adv-x="2052" d="M78 1331q24 10 49 11l49 -11l404 -1188l403 1188q20 9 41.5 9t42.5 -9l403 -1188l404 1188q24 10 49 11l49 -11l-459 -1331q-22 -9 -43 -9l-43 9l-401 1178l-403 -1178q-22 -9 -43 -9l-43 9z" />
<glyph unicode="X" horiz-adv-x="1234" d="M78 0l473 686l-449 645q19 8 57 8q37 0 56 -8l403 -577l400 577q22 8 57 8q36 0 55 -8l-446 -645l473 -686q-22 -8 -57 -8q-36 0 -58 8l-428 618l-424 -618q-19 -8 -56 -8t-56 8z" />
<glyph unicode="Y" horiz-adv-x="1282" d="M78 1331q19 8 53 8t53 -8l457 -725l457 725q26 11 52 11t54 -11l-514 -817v-514q-24 -10 -48 -10t-50 10v512z" />
<glyph unicode="Z" horiz-adv-x="1120" d="M96 0v18l785 1229h-760q-8 22 -7.5 42.5t7.5 41.5h903v-18l-784 -1229h776q8 -22 8 -43t-8 -41h-920z" />
<glyph unicode="[" horiz-adv-x="507" d="M94 -229v1560h312q17 -39 0 -80h-222v-1401h222q16 -39 0 -79h-312z" />
<glyph unicode="\" horiz-adv-x="626" d="M94 1331q43 18 88 0l350 -1331q-45 -18 -88 0z" />
<glyph unicode="]" horiz-adv-x="507" d="M102 -150h220v1401h-220q-17 41 0 80h312v-1560h-312q-16 39 0 79z" />
<glyph unicode="^" horiz-adv-x="880" d="M93 937q2 43 7 54l338 340l338 -340q8 -13 8 -54t-8 -52l-338 342l-338 -342q-8 12 -7 52z" />
<glyph unicode="_" horiz-adv-x="1007" d="M102 -141h805q18 -39 0 -74h-805q-18 35 0 74z" />
<glyph unicode="`" horiz-adv-x="489" d="M94 1710q1 13 25 32q22 17 37 19l237 -268q-6 -15 -18 -26q-15 -14 -29 -15z" />
<glyph unicode="a" horiz-adv-x="999" d="M109 236q0 119 85 191q87 73 226 73q106 0 196 -40q95 -42 146 -87v127q0 128 -71 201t-210 73q-148 0 -288 -98q-9 9 -9 40q0 29 9 42q118 92 301 92q175 0 267 -95q91 -94 91 -261v-494q-20 -8 -41 -8l-41 8l-4 106q-57 -53 -151 -95q-93 -42 -197 -42q-138 0 -224 74 q-85 73 -85 193zM199 240q0 -87 62 -142t173 -55q98 0 193 45q94 45 133 88v127q-39 43 -133 88q-95 45 -193 45q-110 0 -172 -55q-63 -55 -63 -141z" />
<glyph unicode="b" horiz-adv-x="1099" d="M154 0v1331q22 9 45 9l45 -9v-626q130 145 325 145q186 0 300 -125t114 -315q0 -191 -114 -316t-300 -125q-197 0 -327 150l-4 -119q-22 -8 -43 -8t-41 8zM246 199q48 -56 127 -102q83 -48 182 -48q155 0 246 102q92 103 92 259t-92 259q-91 101 -246 101q-99 0 -182 -48 q-81 -47 -127 -101v-422z" />
<glyph unicode="c" horiz-adv-x="1026" d="M115 410q0 190 128 315t330 125q179 0 297 -94q9 -13 9 -42t-9 -42q-139 100 -290 100q-165 0 -270 -102t-105 -260t105 -260q106 -103 270 -103q151 0 290 100q9 -9 9 -41q0 -30 -9 -43q-118 -94 -297 -94q-202 0 -330 125t-128 316z" />
<glyph unicode="d" horiz-adv-x="1099" d="M115 410q0 192 113 315q114 125 300 125q196 0 326 -145v626q22 9 45 9l45 -9v-1331q-20 -8 -41 -8l-41 8l-4 119q-130 -150 -330 -150q-186 0 -300 125q-113 123 -113 316zM207 410q0 -157 93 -259t247 -102q99 0 182 48q78 45 125 102v422q-45 55 -125 101 q-82 48 -182 48q-155 0 -247 -101q-93 -102 -93 -259z" />
<glyph unicode="e" horiz-adv-x="1054" d="M115 410q0 191 121 315q122 125 313 125q197 0 308 -135q89 -109 88 -244q0 -34 -5 -70h-733q1 -162 104 -258q102 -96 264 -96q154 0 293 100q9 -13 9 -42t-9 -42q-113 -94 -301 -94q-202 0 -327 122t-125 319zM211 461h647v12q0 127 -84 213q-88 90 -225 90 q-143 0 -235 -87q-91 -86 -103 -228z" />
<glyph unicode="f" horiz-adv-x="768" d="M86 741q-9 19 -9 38t9 40h135v283q0 128 71 194q70 66 177 66q108 0 215 -64q5 -11 7 -45v-7q0 -25 -7 -36q-103 74 -199 74q-172 0 -172 -194v-271h314q9 -21 9 -40t-9 -38h-314v-741q-23 -9 -46 -9t-46 9v741h-135z" />
<glyph unicode="g" horiz-adv-x="1093" d="M115 412q0 190 113 313q114 125 300 125q200 0 330 -150l4 119q20 9 41 9l41 -9v-811q0 -166 -100 -269q-101 -104 -287 -104q-193 0 -307 93q-8 13 -8 43t8 41q136 -99 293 -99q148 0 230 80q81 79 81 213v113q-131 -146 -326 -146q-186 0 -300 125q-113 123 -113 314z M207 412q0 -155 93 -257t247 -102q101 0 183 48t124 102v418q-45 55 -125 101q-82 48 -182 48q-155 0 -247 -101q-93 -102 -93 -257z" />
<glyph unicode="h" horiz-adv-x="1054" d="M158 0v1331q22 9 45 9l45 -9v-641q160 160 330 160q162 0 245 -93q82 -92 82 -243v-514q-22 -9 -45 -9l-45 9v500q0 125 -63 197q-64 73 -195 73q-89 0 -174 -53q-82 -51 -135 -109v-608q-22 -9 -45 -9z" />
<glyph unicode="i" horiz-adv-x="450" d="M158 1110q0 29 20 48q22 20 51 20t49 -20q19 -19 19 -48t-19 -48q-20 -20 -49 -20t-51 20q-20 19 -20 48zM180 0v819q22 9 45 9l45 -9v-819q-22 -9 -45 -9z" />
<glyph unicode="j" horiz-adv-x="559" d="M9 -270v7q0 25 7 36q90 -60 162 -60q115 0 115 135v971q23 9 46 9t46 -9v-979q0 -100 -52 -152q-53 -53 -138 -53q-88 0 -179 50q-5 11 -7 45zM276 1106q0 25 19 44q17 17 47 17q28 0 45 -17q19 -19 19 -44q0 -26 -19 -45t-45 -19q-28 0 -47 19t-19 45z" />
<glyph unicode="k" horiz-adv-x="929" d="M158 0v1331q22 9 45 9l45 -9v-882l467 370q19 8 59 8q41 0 60 -8l-498 -397l516 -422q-19 -8 -59 -8t-62 8l-483 393v-393q-22 -9 -45 -9z" />
<glyph unicode="l" horiz-adv-x="397" d="M158 0v1331q22 9 45 9l45 -9v-1331q-22 -9 -45 -9z" />
<glyph unicode="m" horiz-adv-x="1667" d="M154 0v819q20 8 41 8.5t43 -8.5l4 -135q150 166 327 166q223 0 289 -188q172 188 350 188q156 0 234 -93t78 -243v-514q-22 -9 -45 -9l-45 9v500q0 124 -61 197t-181 73q-92 0 -175 -54q-84 -55 -130 -110v-606q-24 -9 -46.5 -9t-45.5 9v500q0 125 -60 197 q-61 73 -182 73q-90 0 -173 -53q-80 -51 -132 -111v-606q-22 -9 -45 -9z" />
<glyph unicode="n" horiz-adv-x="1052" d="M154 0v819q20 8 41 8.5t43 -8.5l4 -135q150 166 333 166q163 0 246 -93q82 -92 82 -243v-514q-22 -9 -45 -9l-45 9v500q0 125 -63 197q-64 73 -195 73q-91 0 -177 -54q-82 -52 -134 -110v-606q-22 -9 -45 -9z" />
<glyph unicode="o" horiz-adv-x="1110" d="M115 410q0 185 125 313q124 127 315 127q188 0 314 -127t126 -313t-126 -314q-126 -127 -314 -127q-191 0 -315 127q-125 128 -125 314zM207 410q0 -156 99 -258q100 -103 249 -103q151 0 251 103q99 102 99 258t-99 258t-251 102q-150 0 -249 -102t-99 -258z" />
<glyph unicode="p" horiz-adv-x="1103" d="M158 -334v1153q20 9 41 9t43 -9l4 -119q130 150 327 150q186 0 300 -125t114 -315q0 -191 -114 -316t-300 -125q-194 0 -325 146v-449q-22 -9 -45 -9zM250 199q48 -56 127 -102q83 -48 182 -48q155 0 246 102q92 103 92 259t-92 259q-91 101 -246 101q-99 0 -182 -48 q-81 -47 -127 -101v-422z" />
<glyph unicode="q" horiz-adv-x="1099" d="M115 410q0 192 113 315q114 125 300 125q200 0 330 -150l4 119q20 9 41 9l41 -9v-1153q-22 -9 -45 -9l-45 9v449q-131 -146 -326 -146q-186 0 -300 125q-113 123 -113 316zM207 410q0 -157 93 -259t247 -102q99 0 182 48q78 45 125 102v422q-45 55 -125 101 q-82 48 -182 48q-155 0 -247 -101q-93 -102 -93 -259z" />
<glyph unicode="r" horiz-adv-x="808" d="M154 0v819q20 8 41 8.5t43 -8.5l6 -170q135 201 311 201q102 0 168 -39q8 -11 8 -46t-8 -48q-71 49 -178 49q-148 0 -301 -203v-563q-22 -9 -45 -9z" />
<glyph unicode="s" horiz-adv-x="827" d="M96 621q0 105 89 167t214 62q80 0 164 -26q82 -25 131 -64q8 -11 8 -41q0 -31 -8 -39q-139 102 -286 102q-89 0 -155 -39q-67 -40 -67 -112q0 -34 16 -60q15 -24 56 -47q42 -23 74 -35q37 -14 106 -36q152 -50 221 -102q70 -53 70 -148q0 -113 -93 -173q-95 -61 -220 -61 q-81 0 -165 26t-132 64q-8 11 -8 41q0 31 8 39q139 -102 293 -102q88 0 158 38q69 37 69 118q0 47 -34 81q-36 36 -75 52q-30 12 -137 49q-155 52 -226 102t-71 144z" />
<glyph unicode="t" horiz-adv-x="731" d="M86 741q-9 18 -9 37.5t9 40.5h135v266q22 9 45.5 9t46.5 -9v-266h289q9 -20 9 -39.5t-9 -38.5h-289v-559q0 -135 115 -135q77 0 195 86q7 -11 7 -36v-6q-2 -33 -7 -44q-99 -78 -209 -78q-87 0 -140 53t-53 152v567h-135z" />
<glyph unicode="u" horiz-adv-x="1046" d="M147 305v514q22 9 45 9t46 -9v-500q0 -125 63 -197q64 -73 195 -73q92 0 177 54q82 52 134 110v606q22 9 45 9l45 -9v-819q-20 -8 -41 -8l-41 8l-6 135q-150 -166 -334 -166q-163 0 -246 93q-82 92 -82 243z" />
<glyph unicode="v" horiz-adv-x="1011" d="M78 819q23 10 47 10.5t49 -10.5l332 -704l330 704q26 10 50 10.5t48 -10.5l-387 -819q-20 -10 -41 -10l-41 10z" />
<glyph unicode="w" horiz-adv-x="1413" d="M78 819q23 10 47 10.5t49 -10.5l244 -692l248 692q20 10 41 11l41 -11l249 -692l240 692q24 9 48.5 9t47.5 -9l-297 -819q-20 -10 -40 -10t-40 10l-249 696l-250 -696q-20 -10 -41 -10l-41 10z" />
<glyph unicode="x" horiz-adv-x="972" d="M78 0l346 422l-328 397q19 8 54 8q34 0 53 -8l286 -342l283 342q26 10 52.5 10.5t54.5 -10.5l-330 -397l346 -422q-19 -8 -53 -8q-35 0 -54 8l-303 362l-301 -362q-19 -8 -53 -8t-53 8z" />
<glyph unicode="y" horiz-adv-x="1011" d="M78 819q23 11 47 11t49 -11l334 -657l328 657q26 11 50 11t48 -11l-580 -1153q-23 -9 -47 -9t-49 9l203 400z" />
<glyph unicode="z" horiz-adv-x="858" d="M88 0v16l545 723h-518q-8 20 -8.5 40.5t8.5 39.5h655v-16l-543 -723h537q8 -20 8 -40t-8 -40h-676z" />
<glyph unicode="{" horiz-adv-x="589" d="M94 535v32q74 27 100 56q24 27 29 77q46 370 183 631q45 18 88 0q-62 -130 -99 -242q-36 -112 -49 -185q-17 -96 -31 -202q-7 -56 -35 -91q-24 -31 -92 -60q67 -29 92 -61q28 -35 35 -91q14 -101 31 -201q13 -73 49 -185q37 -112 99 -242q-43 -18 -88 0 q-137 262 -183 630q-5 51 -29 78q-26 29 -100 56z" />
<glyph unicode="|" horiz-adv-x="258" d="M94 -123v1454q35 17 70 0v-1454q-35 -17 -70 0z" />
<glyph unicode="}" horiz-adv-x="589" d="M94 -229q66 136 100 242q38 118 50 185q13 74 30 201q7 59 35 93q26 31 90 59q-64 28 -90 59q-28 34 -35 92q-18 131 -30 202q-12 67 -50 185q-34 106 -100 242q43 18 88 0q143 -266 183 -631q5 -50 29 -77q26 -29 100 -56v-32q-74 -27 -100 -56q-24 -27 -29 -78 q-40 -364 -183 -630q-43 -18 -88 0z" />
<glyph unicode="~" horiz-adv-x="985" d="M102 455q-18 34 0 73l45 25q43 24 60 31t56 18q36 10 73 10q69 0 164 -50t153 -50q25 0 53 5q19 3 54 18q38 16 44 19q26 13 46 24q29 16 35 18q18 -39 0 -74q-5 -2 -45 -24q-43 -24 -60 -31t-56 -18t-73 -11q-69 0 -164 50q-97 51 -153 51q-24 0 -52 -5q-21 -4 -55 -18 q-38 -16 -44 -19q-26 -13 -46 -24q-29 -16 -35 -18z" />
<glyph unicode="&#xa1;" horiz-adv-x="327" d="M94 944q0 28 21 48q22 20 51 20q28 0 48 -20q19 -19 19 -48t-19 -48t-48 -19q-31 0 -51 19q-21 20 -21 48zM115 -119l18 666q31 12 60 0l18 -666v-231q-47 -21 -96 0v231z" />
<glyph unicode="&#xa2;" horiz-adv-x="1013" d="M115 410q0 184 119 307q121 125 313 133v190q24 21 53 0v-190q164 -7 270 -94q9 -13 9 -42t-9 -42q-139 100 -290 100q-165 0 -270 -102t-105 -260t105 -260q106 -103 270 -103q151 0 290 100q9 -9 9 -41q0 -30 -9 -43q-106 -87 -270 -94v-190q-29 -21 -53 0v190 q-192 8 -313 133q-119 123 -119 308z" />
<glyph unicode="&#xa3;" horiz-adv-x="1214" d="M86 612q-22 25 0 50h166q-19 253 -19 327q0 150 112 262q111 111 310 111q222 0 367 -131q8 -13 8 -51q0 -39 -8 -50q-154 148 -363 148q-152 0 -240 -86q-87 -86 -87 -207q0 -116 20 -323h467q17 -25 0 -50h-459q19 -154 6 -296q-13 -147 -77 -232h733q16 -44 0 -84 h-856v18q58 71 82 168q24 99 21 202q-3 86 -11 224h-172z" />
<glyph unicode="&#xa4;" horiz-adv-x="849" d="M94 334l121 121q-63 77 -63 174q0 99 63 172l-121 121q1 9 15 23q11 11 22 13l121 -120q76 63 173 63t173 -63l121 120q9 -1 22 -13q14 -14 15 -23l-121 -121q63 -76 63 -173q0 -96 -63 -173l121 -119q-1 -10 -15 -24q-10 -10 -24 -15l-119 121q-77 -62 -173 -62t-173 62 l-121 -121q-33 10 -37 37zM218 631q2 -87 61 -148q63 -63 149 -63t145 59q60 60 60 147q0 86 -62 148t-148 62q-87 0 -147 -60t-58 -145z" />
<glyph unicode="&#xa5;" horiz-adv-x="1282" d="M78 1331q19 8 53 8t53 -8l457 -725l457 725q51 21 106 0l-504 -796h310q17 -25 0 -50h-320v-176h320q17 -25 0 -49h-320v-260q-47 -21 -98 0v260h-318q-21 24 0 49h318v176h-318q-22 25 0 50h306z" />
<glyph unicode="&#xa6;" horiz-adv-x="258" d="M94 -123v633q35 18 70 0v-633q-35 -17 -70 0zM94 698v633q35 17 70 0v-633q-35 -18 -70 0z" />
<glyph unicode="&#xa7;" horiz-adv-x="823" d="M94 502q0 143 166 198q-166 73 -166 195q0 106 89 168q88 61 214 61q83 0 164 -25q80 -25 131 -65q8 -11 8 -41q0 -31 -8 -39q-141 103 -286 103q-89 0 -155 -39q-67 -40 -67 -113q0 -33 16 -59q15 -24 56 -47q42 -23 74 -35q64 -23 106 -37q154 -52 221 -103 q70 -53 70 -147q0 -141 -147 -198q147 -72 147 -195q0 -115 -91 -175q-93 -61 -220 -61q-81 0 -165 26q-83 26 -130 65q-8 11 -8 39q0 29 8 40q139 -102 289 -102q92 0 159 39q68 39 68 119q0 29 -12 53q-12 25 -29 40t-55 33q-28 13 -65 26l-85 30q-152 51 -226 103 q-71 50 -71 143zM168 526q0 -47 37 -83q38 -37 80 -54q55 -23 135 -49l18 -6l72 -25q147 33 147 144q0 32 -15 59q-14 25 -32 43q-16 17 -60 36q-45 20 -70 29q-8 3 -38 12.5t-51 16.5l-51 19q-72 -7 -122 -44q-50 -36 -50 -98z" />
<glyph unicode="&#xa8;" horiz-adv-x="813" d="M94 1616q0 29 21 47t51 18q29 0 48 -19t19 -46q0 -31 -19 -50q-20 -20 -48 -20q-29 0 -51 20q-21 20 -21 50zM578 1616q0 30 20 47q21 18 51 18q29 0 48 -19q20 -20 20 -46q0 -30 -20 -50t-48 -20q-29 0 -51 20q-20 19 -20 50z" />
<glyph unicode="&#xa9;" horiz-adv-x="1310" d="M94 881q0 228 160 391q159 162 401 162q243 0 402 -162q160 -163 160 -391q0 -229 -160 -392q-158 -161 -402 -161q-243 0 -401 161q-160 163 -160 392zM154 881q0 -210 141 -354t362 -144q220 0 361 144t141 354q0 209 -141 353t-361 144q-221 0 -362 -144t-141 -353z M352 881q0 132 88 217q89 86 228 86q122 0 204 -66q7 -9 7 -33q0 -23 -7 -30q-96 69 -200 69q-110 0 -179 -68q-71 -69 -71 -175t71 -175t179 -69t200 68q7 -5 7 -30t-7 -34q-84 -63 -204 -63q-139 0 -228 86q-88 85 -88 217z" />
<glyph unicode="&#xab;" horiz-adv-x="833" d="M94 444l271 320q38 16 75 0l-243 -320l243 -319q-38 -16 -75 0zM393 444l271 320q37 16 75 0l-243 -320l243 -319q-38 -16 -75 0z" />
<glyph unicode="&#xac;" horiz-adv-x="901" d="M102 541q-18 34 0 73h705v-282q-41 -15 -80 0v209h-625z" />
<glyph unicode="&#xad;" horiz-adv-x="765" d="M102 541q-18 34 0 73h564q18 -39 0 -73h-564z" />
<glyph unicode="&#xae;" horiz-adv-x="1310" d="M94 881q0 228 160 391q159 162 401 162q243 0 402 -162q160 -163 160 -391q0 -229 -160 -392q-158 -161 -402 -161q-243 0 -401 161q-160 163 -160 392zM154 881q0 -210 141 -354t362 -144q220 0 361 144t141 354q0 209 -141 353t-361 144q-221 0 -362 -144t-141 -353z M430 590v577h283q89 0 145 -42q55 -42 55 -130q0 -137 -151 -164l186 -241q-12 -6 -41 -6t-39 6l-182 235h-186v-235q-35 -17 -70 0zM498 881h204q60 0 99 26q41 27 41 90q0 61 -41 88t-99 27h-204v-231z" />
<glyph unicode="&#xaf;" horiz-adv-x="733" d="M102 1548q-18 38 0 72h531q18 -35 0 -74z" />
<glyph unicode="&#xb0;" horiz-adv-x="692" d="M94 1217q0 102 73 173q71 70 177 70q107 0 180 -70q74 -71 74 -173q0 -103 -74 -175q-73 -71 -180 -73q-105 0 -177 72q-73 73 -73 176zM166 1217q0 -79 52 -130q53 -51 128 -51q78 0 130 51t52 130q0 75 -52 126q-54 52 -130 52q-74 0 -128 -52q-52 -51 -52 -126z" />
<glyph unicode="&#xb1;" horiz-adv-x="907" d="M102 276q-18 37 0 74h705q18 -37 0 -74h-705zM102 659q-18 39 0 74h316v205q37 18 71 0v-205h318q18 -35 0 -74h-318v-202q-34 -18 -71 0v202h-316z" />
<glyph unicode="&#xb4;" horiz-adv-x="489" d="M94 1493l240 268q16 -2 36 -19q22 -19 23 -32l-250 -258q-14 1 -29 15t-20 26z" />
<glyph unicode="&#xb6;" horiz-adv-x="1206" d="M94 922q0 203 127 306t297 103h588q12 -33 0 -65h-152v-1600q-34 -18 -69 0v1600h-297v-1600q-35 -18 -70 0v862q-109 0 -200 36q-90 36 -157 128q-67 93 -67 230z" />
<glyph unicode="&#xb7;" horiz-adv-x="327" d="M94 522q0 28 21 48q22 20 51 20q28 0 48 -20q19 -19 19 -48t-19 -48t-48 -19q-31 0 -51 19q-21 20 -21 48z" />
<glyph unicode="&#xb8;" horiz-adv-x="483" d="M94 -374q0 22 8 30q51 -39 111 -39q49 0 82 27t33 75q0 66 -59 90q-57 23 -128 -6v197h60v-139q65 15 127 -26q61 -40 61 -120q0 -71 -49 -113q-50 -42 -121 -42q-67 0 -117 34q-8 11 -8 32z" />
<glyph unicode="&#xbb;" horiz-adv-x="833" d="M94 125l246 319l-246 320q39 16 76 0l270 -320l-270 -319q-39 -16 -76 0zM393 125l246 319l-246 320q37 16 76 0l270 -320l-270 -319q-39 -16 -76 0z" />
<glyph unicode="&#xbc;" horiz-adv-x="1255" d="M94 1161q0 27 8 35l191 135q30 18 63 0v-635q-37 -18 -75 0v559l-179 -129q-8 8 -8 35zM260 0l631 1331q35 18 72 0l-631 -1331q-38 -18 -72 0zM659 143q-17 31 0 62l328 430q34 18 64 0v-430h104q15 -31 0 -62h-104v-143q-37 -18 -76 0v143h-316zM727 205h250v327z" />
<glyph unicode="&#xbd;" horiz-adv-x="1290" d="M53 1161q0 27 8 35l191 135q30 18 63 0v-635q-37 -18 -75 0v559l-179 -129q-8 8 -8 35zM219 0l631 1331q34 18 72 0l-631 -1331q-37 -18 -72 0zM729 0v16q232 216 301 302q66 82 66 159q0 47 -41 85t-119 38q-100 0 -180 -74q-4 4 -4 37q0 34 4 39q75 64 188 64 q107 0 168 -56q59 -55 59 -129q0 -85 -62 -165q-63 -81 -253 -250h332q17 -35 0 -66h-459z" />
<glyph unicode="&#xbe;" horiz-adv-x="1366" d="M96 768q0 31 4 35q82 -76 197 -76q77 0 123 39q47 39 47 100q0 57 -41 98q-40 40 -121 40h-86q-7 27 0 59h88q60 0 97 35q36 34 36 82q0 46 -39 84q-37 36 -110 36q-104 0 -185 -75q-4 4 -4 35t4 36q76 66 191 66q100 0 159 -53q58 -54 58 -125q0 -100 -98 -150 q123 -45 123 -174q0 -88 -67 -141t-171 -53q-124 0 -201 65q-4 5 -4 37zM371 0l630 1331q35 18 72 0l-631 -1331q-37 -18 -71 0zM770 143q-17 31 0 62l328 430q33 18 63 0v-430h105q16 -31 0 -62h-105v-143q-37 -18 -76 0v143h-315zM838 205h249v327z" />
<glyph unicode="&#xbf;" horiz-adv-x="1009" d="M94 -41q0 121 64 194q65 74 202 158q63 40 90 61q29 22 49 66q21 45 21 113q47 17 98 0q0 -117 -38 -168q-39 -53 -134 -113q-146 -89 -199 -146q-54 -58 -54 -159q0 -108 89 -183q88 -75 240 -75q225 0 385 148q8 -11 8 -50q0 -38 -8 -51q-154 -131 -393 -131 q-196 0 -307 98q-113 99 -113 238zM500 948q0 29 20 48q22 20 49 20t49 -20q21 -20 21 -48t-21 -48q-20 -19 -49 -19t-49 19t-20 48z" />
<glyph unicode="&#xc0;" horiz-adv-x="1372" d="M78 0l563 1331q45 18 88 0l563 -1331q-51 -21 -100 0l-174 410h-666l-174 -410q-51 -21 -100 0zM385 494h604l-303 714zM537 1710q1 14 24 32q22 17 37 19l238 -268q-5 -13 -19 -26q-15 -14 -29 -15z" />
<glyph unicode="&#xc1;" horiz-adv-x="1372" d="M78 0l563 1331q45 18 88 0l563 -1331q-51 -21 -100 0l-174 410h-666l-174 -410q-51 -21 -100 0zM385 494h604l-303 714zM537 1493l239 268q16 -2 36 -19q23 -20 24 -32l-250 -258q-15 2 -30 15q-14 13 -19 26z" />
<glyph unicode="&#xc2;" horiz-adv-x="1372" d="M78 0l563 1331q45 18 88 0l563 -1331q-51 -21 -100 0l-174 410h-666l-174 -410q-51 -21 -100 0zM385 494h604l-303 714zM399 1493l246 248q17 12 41 12t41 -12l246 -248q-1 -13 -22 -32q-18 -16 -33 -21l-232 233l-229 -233q-14 1 -34 20q-19 18 -24 33z" />
<glyph unicode="&#xc3;" horiz-adv-x="1372" d="M78 0l563 1331q45 18 88 0l563 -1331q-51 -21 -100 0l-174 410h-666l-174 -410q-51 -21 -100 0zM381 1530q-18 39 0 74q2 0 27 13q8 4 17 9t11 6q10 6 27 13q19 8 31 11q14 4 29 6q18 3 34 3q55 0 154 -45q58 -25 106 -25q57 0 176 62q18 -35 0 -74q-6 -1 -26 -13 q-8 -4 -17.5 -9.5t-11.5 -6.5q-4 -2 -27 -12q-21 -9 -30 -11q-12 -3 -30 -6t-34 -3q-54 0 -153 45q-56 24 -107 24q-58 0 -176 -61zM385 494h604l-303 714z" />
<glyph unicode="&#xc4;" horiz-adv-x="1372" d="M78 0l563 1331q45 18 88 0l563 -1331q-51 -21 -100 0l-174 410h-666l-174 -410q-51 -21 -100 0zM375 1616q0 30 20 47q21 18 51 18t49 -19t19 -46q0 -31 -19 -50q-20 -20 -49 -20t-51 20q-20 19 -20 50zM385 494h604l-303 714zM858 1616q0 29 21 47t51 18q29 0 48 -19 t19 -46q0 -31 -19 -50q-20 -20 -48 -20q-29 0 -51 20q-21 20 -21 50z" />
<glyph unicode="&#xc5;" horiz-adv-x="1372" d="M78 0l563 1331q45 18 88 0l563 -1331q-51 -21 -100 0l-174 410h-666l-174 -410q-51 -21 -100 0zM385 494h604l-303 714zM524 1622q0 63 47 110q46 46 117 46q68 0 115 -47t47 -109q0 -69 -47 -116q-46 -46 -115 -46q-71 0 -117 46q-47 47 -47 116zM590 1622q0 -42 26 -71 t72 -29q45 0 71 29q27 30 27 71q0 38 -27 66t-71 28q-45 0 -72 -28q-26 -27 -26 -66z" />
<glyph unicode="&#xc6;" horiz-adv-x="1656" d="M78 0l563 1331h911q16 -41 0 -84h-786v-522h727q17 -41 0 -84h-727v-557h786q16 -44 0 -84h-884v410h-316l-174 -410q-51 -21 -100 0zM385 494h285v675z" />
<glyph unicode="&#xc7;" horiz-adv-x="1488" d="M141 666q0 293 198 494q199 202 507 202q269 0 450 -131q9 -13 9 -48t-9 -48q-188 143 -448 143q-263 0 -436 -176q-172 -175 -172 -436q0 -262 172 -437q173 -176 436 -176q259 0 448 144q9 -13 9 -49q0 -35 -9 -48q-165 -120 -422 -131v-108q65 15 127 -26t62 -120 q0 -71 -49 -113q-50 -42 -121 -42q-67 0 -117 34q-8 11 -8 32q0 22 8 30q51 -39 111 -39q49 0 82 27q32 26 32 75q0 66 -58 90q-57 23 -128 -6v166q-295 12 -485 212q-189 199 -189 485z" />
<glyph unicode="&#xc8;" horiz-adv-x="1181" d="M193 0v1331h884q17 -41 0 -84h-788v-522h729q16 -41 0 -84h-729v-557h788q17 -44 0 -84h-884zM446 1710q1 13 25 32q22 17 37 19l237 -268q-6 -15 -18 -26q-15 -14 -29 -15z" />
<glyph unicode="&#xc9;" horiz-adv-x="1181" d="M193 0v1331h884q17 -41 0 -84h-788v-522h729q16 -41 0 -84h-729v-557h788q17 -44 0 -84h-884zM446 1493l240 268q16 -2 36 -19q22 -19 23 -32l-249 -258q-15 2 -30 15q-15 14 -20 26z" />
<glyph unicode="&#xca;" horiz-adv-x="1181" d="M193 0v1331h884q17 -41 0 -84h-788v-522h729q16 -41 0 -84h-729v-557h788q17 -44 0 -84h-884zM309 1493l246 248q16 12 41 12q24 0 41 -12l246 -248q-1 -13 -22 -32q-17 -16 -34 -21l-231 233l-229 -233q-14 1 -34 20q-19 18 -24 33z" />
<glyph unicode="&#xcb;" horiz-adv-x="1181" d="M193 0v1331h884q17 -41 0 -84h-788v-522h729q16 -41 0 -84h-729v-557h788q17 -44 0 -84h-884zM315 1616q0 29 21 47t51 18q29 0 48 -19q20 -20 20 -46q0 -30 -20 -50t-48 -20q-29 0 -51 20q-21 20 -21 50zM799 1616q0 30 20 47q21 18 51 18t49 -19t19 -46q0 -31 -19 -50 q-20 -20 -49 -20t-51 20q-20 19 -20 50z" />
<glyph unicode="&#xcc;" horiz-adv-x="483" d="M92 1710q1 13 25 32q22 17 37 19l237 -268q-6 -15 -18 -26q-15 -14 -29 -15zM193 0v1331q47 21 96 0v-1331q-47 -21 -96 0z" />
<glyph unicode="&#xcd;" horiz-adv-x="483" d="M92 1493l240 268q16 -2 36 -19q22 -19 23 -32l-250 -258q-14 1 -29 15t-20 26zM193 0v1331q47 21 96 0v-1331q-47 -21 -96 0z" />
<glyph unicode="&#xce;" horiz-adv-x="483" d="M-45 1493l246 248q17 12 41 12t41 -12l245 -248q-5 -16 -23 -33q-20 -19 -34 -20l-229 233l-232 -233q-17 5 -34 21q-20 18 -21 32zM193 0v1331q47 21 96 0v-1331q-47 -21 -96 0z" />
<glyph unicode="&#xcf;" horiz-adv-x="483" d="M-70 1616q0 26 21 46q20 19 49 19t49 -19q21 -20 21 -46q0 -30 -21 -50q-22 -20 -49 -20t-49 20q-21 20 -21 50zM193 0v1331q47 21 96 0v-1331q-47 -21 -96 0zM412 1616q0 30 20 47q21 18 51 18q29 0 48 -19q20 -20 20 -46q0 -30 -20 -50t-48 -20q-29 0 -51 20 q-20 19 -20 50z" />
<glyph unicode="&#xd0;" horiz-adv-x="1460" d="M98 633q-18 37 0 74h95v624h423q337 0 520 -190q183 -191 183 -475q0 -286 -183 -476t-520 -190h-423v633h-95zM291 84h325q294 0 450 164q157 165 157 418q0 252 -157 417q-156 164 -450 164h-325v-540h371q18 -37 0 -74h-371v-549z" />
<glyph unicode="&#xd1;" horiz-adv-x="1460" d="M184 0v1331q40 17 84 0l914 -1171v1171q46 21 96 0v-1331q-41 -17 -82 0l-915 1171v-1171q-47 -21 -97 0zM424 1530q-18 39 0 74q2 0 27 13q8 4 17 9t11 6q10 6 27 13q20 8 31 11q14 4 29 6q18 3 34 3q55 0 154 -45q58 -25 106 -25q57 0 176 62q18 -35 0 -74 q-6 -1 -26 -13q-8 -4 -17.5 -9.5t-11.5 -6.5q-4 -2 -27 -12q-21 -9 -30 -11q-12 -3 -30 -6t-34 -3q-54 0 -153 45q-55 24 -107 24q-58 0 -176 -61z" />
<glyph unicode="&#xd2;" d="M141 666q0 292 196 494t499 202q302 0 499 -202t197 -494q0 -293 -197 -495t-499 -202q-303 0 -499 202t-196 495zM240 666q0 -263 169 -438t427 -175q260 0 429 175t169 438q0 262 -169 437t-429 175q-258 0 -427 -175t-169 -437zM686 1710q1 13 25 32q22 17 37 19 l237 -268q-6 -15 -18 -26q-15 -14 -29 -15z" />
<glyph unicode="&#xd3;" d="M141 666q0 292 196 494t499 202q302 0 499 -202t197 -494q0 -293 -197 -495t-499 -202q-303 0 -499 202t-196 495zM240 666q0 -263 169 -438t427 -175q260 0 429 175t169 438q0 262 -169 437t-429 175q-258 0 -427 -175t-169 -437zM686 1493l240 268q16 -2 36 -19 q22 -19 23 -32l-250 -258q-14 1 -29 15t-20 26z" />
<glyph unicode="&#xd4;" d="M141 666q0 292 196 494t499 202q302 0 499 -202t197 -494q0 -293 -197 -495t-499 -202q-303 0 -499 202t-196 495zM240 666q0 -263 169 -438t427 -175q260 0 429 175t169 438q0 262 -169 437t-429 175q-258 0 -427 -175t-169 -437zM549 1493l246 248q17 12 41 12t41 -12 l245 -248q-1 -14 -21 -32q-17 -16 -34 -21l-231 233l-230 -233q-14 1 -34 20q-18 17 -23 33z" />
<glyph unicode="&#xd5;" d="M141 666q0 292 196 494t499 202q302 0 499 -202t197 -494q0 -293 -197 -495t-499 -202q-303 0 -499 202t-196 495zM240 666q0 -263 169 -438t427 -175q260 0 429 175t169 438q0 262 -169 437t-429 175q-258 0 -427 -175t-169 -437zM530 1530q-18 39 0 74q2 0 27 13 q8 5 17.5 9.5t11.5 5.5q12 7 26 13q20 8 31 11q12 3 30 6t34 3q54 0 153 -45q58 -25 107 -25q57 0 176 62q18 -35 0 -74q-8 -2 -27 -13q-8 -4 -17.5 -9.5t-11.5 -6.5q-6 -4 -26 -12t-31 -11q-12 -3 -30 -6t-33 -3q-55 0 -154 45q-55 24 -106 24q-59 0 -177 -61z" />
<glyph unicode="&#xd6;" d="M141 666q0 292 196 494t499 202q302 0 499 -202t197 -494q0 -293 -197 -495t-499 -202q-303 0 -499 202t-196 495zM240 666q0 -263 169 -438t427 -175q260 0 429 175t169 438q0 262 -169 437t-429 175q-258 0 -427 -175t-169 -437zM524 1616q0 29 21 47t51 18 q29 0 48 -19q20 -20 20 -46q0 -30 -20 -50t-48 -20q-29 0 -51 20q-21 20 -21 50zM1008 1616q0 30 20 47q21 18 51 18q29 0 48 -19q20 -20 20 -46q0 -30 -20 -50t-48 -20q-29 0 -51 20q-20 19 -20 50z" />
<glyph unicode="&#xd7;" horiz-adv-x="739" d="M94 354l223 224l-223 221q15 38 53 53l222 -223l223 223q38 -15 53 -53l-223 -221l223 -224q-15 -38 -53 -53l-223 223l-222 -223q-38 15 -53 53z" />
<glyph unicode="&#xd8;" d="M141 0l183 186q-183 198 -183 480q0 292 196 494t499 202q275 0 469 -172l137 141q16 8 44 8t46 -8l-182 -186q182 -197 182 -479q0 -293 -197 -495t-499 -202q-273 0 -467 172l-138 -141q-16 -8 -45 -8t-45 8zM240 666q0 -240 147 -414l854 874q-169 152 -405 152 q-258 0 -427 -175t-169 -437zM432 205q169 -152 404 -152q260 0 429 175t169 438q0 238 -148 413z" />
<glyph unicode="&#xd9;" horiz-adv-x="1427" d="M193 500v831q49 21 98 0v-842q0 -201 116 -319q115 -117 312 -117t312 117q116 118 116 319v842q49 21 98 0v-831q0 -249 -142 -390q-143 -141 -384 -141q-243 0 -385 140q-141 140 -141 391zM565 1710q1 13 25 32q22 17 37 19l237 -268q-6 -15 -18 -26q-15 -14 -29 -15z " />
<glyph unicode="&#xda;" horiz-adv-x="1427" d="M193 500v831q49 21 98 0v-842q0 -201 116 -319q115 -117 312 -117t312 117q116 118 116 319v842q49 21 98 0v-831q0 -249 -142 -390q-143 -141 -384 -141q-243 0 -385 140q-141 140 -141 391zM565 1493l240 268q16 -2 36 -19q22 -19 23 -32l-250 -258q-14 1 -29 15 t-20 26z" />
<glyph unicode="&#xdb;" horiz-adv-x="1427" d="M193 500v831q49 21 98 0v-842q0 -201 116 -319q115 -117 312 -117t312 117q116 118 116 319v842q49 21 98 0v-831q0 -249 -142 -390q-143 -141 -384 -141q-243 0 -385 140q-141 140 -141 391zM428 1493l246 248q17 12 41 12q25 0 41 -12l245 -248q-1 -14 -21 -32 q-17 -16 -34 -21l-231 233l-230 -233q-13 1 -33 20q-20 18 -24 33z" />
<glyph unicode="&#xdc;" horiz-adv-x="1427" d="M193 500v831q49 21 98 0v-842q0 -201 116 -319q115 -117 312 -117t312 117q116 118 116 319v842q49 21 98 0v-831q0 -249 -142 -390q-143 -141 -384 -141q-243 0 -385 140q-141 140 -141 391zM403 1616q0 29 21 47t51 18q29 0 48 -19q20 -20 20 -46q0 -30 -20 -50 t-48 -20q-29 0 -51 20q-21 20 -21 50zM887 1616q0 30 20 47q21 18 51 18t49 -19t19 -46q0 -31 -19 -50q-20 -20 -49 -20t-51 20q-20 19 -20 50z" />
<glyph unicode="&#xdd;" horiz-adv-x="1282" d="M78 1331q19 8 53 8t53 -8l457 -725l457 725q51 21 106 0l-514 -817v-514q-47 -21 -98 0v512zM492 1493l239 268q16 -2 36 -19q23 -20 24 -32l-250 -258q-15 2 -30 15q-14 13 -19 26z" />
<glyph unicode="&#xde;" horiz-adv-x="1277" d="M193 0v1331q47 21 96 0v-174h362q237 0 361 -123q125 -123 125 -303q0 -178 -125 -301q-124 -123 -361 -123h-362v-307q-47 -21 -96 0zM291 389h362q191 0 288 98t97 244t-97 244t-288 98h-362v-684z" />
<glyph unicode="&#xdf;" horiz-adv-x="1204" d="M147 0v838q0 238 136 382q135 142 356 142q193 0 305 -106q111 -105 111 -252q0 -106 -59 -191q-58 -84 -158 -121q131 -38 200 -129q70 -93 70 -215q0 -165 -122 -272t-318 -107q-220 0 -359 117q-8 13 -8 46t8 44q57 -57 155 -93q93 -34 193 -34q157 0 258 84t101 221 q0 127 -88 209t-256 82h-164q-17 39 0 80h164q129 0 211 79t82 195q0 118 -86 201q-85 82 -242 82q-183 0 -291 -120t-108 -326v-836q-46 -18 -91 0z" />
<glyph unicode="&#xe0;" horiz-adv-x="999" d="M109 236q0 119 85 191q87 73 226 73q106 0 196 -40q95 -42 146 -87v127q0 128 -71 201t-210 73q-148 0 -288 -98q-9 9 -9 40q0 29 9 42q118 92 301 92q175 0 267 -95q91 -94 91 -261v-494q-41 -17 -82 0l-4 106q-57 -53 -151 -95q-93 -42 -197 -42q-138 0 -224 74 q-85 73 -85 193zM199 240q0 -87 62 -142t173 -55q98 0 193 45q94 45 133 88v127q-39 43 -133 88q-95 45 -193 45q-110 0 -172 -55q-63 -55 -63 -141zM346 1198q1 13 25 32q22 17 37 19l237 -268q-6 -15 -18 -26q-15 -14 -29 -15z" />
<glyph unicode="&#xe1;" horiz-adv-x="999" d="M109 236q0 119 85 191q87 73 226 73q106 0 196 -40q95 -42 146 -87v127q0 128 -71 201t-210 73q-148 0 -288 -98q-9 9 -9 40q0 29 9 42q118 92 301 92q175 0 267 -95q91 -94 91 -261v-494q-41 -17 -82 0l-4 106q-57 -53 -151 -95q-93 -42 -197 -42q-138 0 -224 74 q-85 73 -85 193zM199 240q0 -87 62 -142t173 -55q98 0 193 45q94 45 133 88v127q-39 43 -133 88q-95 45 -193 45q-110 0 -172 -55q-63 -55 -63 -141zM346 981l240 268q16 -2 36 -19q22 -19 23 -32l-250 -258q-14 1 -29 15t-20 26z" />
<glyph unicode="&#xe2;" horiz-adv-x="999" d="M109 236q0 119 85 191q87 73 226 73q106 0 196 -40q95 -42 146 -87v127q0 128 -71 201t-210 73q-148 0 -288 -98q-9 9 -9 40q0 29 9 42q118 92 301 92q175 0 267 -95q91 -94 91 -261v-494q-41 -17 -82 0l-4 106q-57 -53 -151 -95q-93 -42 -197 -42q-138 0 -224 74 q-85 73 -85 193zM199 240q0 -87 62 -142t173 -55q98 0 193 45q94 45 133 88v127q-39 43 -133 88q-95 45 -193 45q-110 0 -172 -55q-63 -55 -63 -141zM211 981l246 248q17 12 41 12t41 -12l245 -248q-1 -14 -21 -32q-17 -16 -34 -21l-231 233l-230 -233q-14 1 -34 20 q-18 17 -23 33z" />
<glyph unicode="&#xe3;" horiz-adv-x="999" d="M109 236q0 119 85 191q87 73 226 73q106 0 196 -40q95 -42 146 -87v127q0 128 -71 201t-210 73q-148 0 -288 -98q-9 9 -9 40q0 29 9 42q118 92 301 92q175 0 267 -95q91 -94 91 -261v-494q-41 -17 -82 0l-4 106q-57 -53 -151 -95q-93 -42 -197 -42q-138 0 -224 74 q-85 73 -85 193zM199 240q0 -87 62 -142t173 -55q98 0 193 45q94 45 133 88v127q-39 43 -133 88q-95 45 -193 45q-110 0 -172 -55q-63 -55 -63 -141zM199 1018q-18 39 0 74l26 13q8 5 17.5 9.5t11.5 5.5q10 6 27 13q21 9 30 11q12 3 30 6t34 3q54 0 153 -45q58 -25 107 -25 q57 0 176 62q18 -35 0 -74q-8 -2 -27 -13q-4 -2 -9.5 -5t-8 -5t-5.5 -3.5l-5 -2.5q-4 -2 -27 -12q-19 -8 -31 -11q-14 -3 -29 -6q-18 -3 -34 -3q-55 0 -154 45q-55 24 -106 24q-58 0 -176 -61z" />
<glyph unicode="&#xe4;" horiz-adv-x="999" d="M109 236q0 119 85 191q87 73 226 73q106 0 196 -40q95 -42 146 -87v127q0 128 -71 201t-210 73q-148 0 -288 -98q-9 9 -9 40q0 29 9 42q118 92 301 92q175 0 267 -95q91 -94 91 -261v-494q-41 -17 -82 0l-4 106q-57 -53 -151 -95q-93 -42 -197 -42q-138 0 -224 74 q-85 73 -85 193zM184 1104q0 29 21 47t51 18q29 0 48 -19q20 -20 20 -46q0 -30 -20 -50t-48 -20q-29 0 -51 20q-21 20 -21 50zM199 240q0 -87 62 -142t173 -55q98 0 193 45q94 45 133 88v127q-39 43 -133 88q-95 45 -193 45q-110 0 -172 -55q-63 -55 -63 -141zM668 1104 q0 30 20 47q21 18 51 18q29 0 48 -19q20 -20 20 -46q0 -30 -20 -50t-48 -20q-29 0 -51 20q-20 19 -20 50z" />
<glyph unicode="&#xe5;" horiz-adv-x="999" d="M109 236q0 119 85 191q87 73 226 73q106 0 196 -40q95 -42 146 -87v127q0 128 -71 201t-210 73q-148 0 -288 -98q-9 9 -9 40q0 29 9 42q118 92 301 92q175 0 267 -95q91 -94 91 -261v-494q-41 -17 -82 0l-4 106q-57 -53 -151 -95q-93 -42 -197 -42q-138 0 -224 74 q-85 73 -85 193zM199 240q0 -87 62 -142t173 -55q98 0 193 45q94 45 133 88v127q-39 43 -133 88q-95 45 -193 45q-110 0 -172 -55q-63 -55 -63 -141zM334 1110q0 63 47 110q46 46 117 46q67 0 114 -47t47 -109q0 -69 -47 -116q-46 -46 -114 -46q-71 0 -117 46 q-47 47 -47 116zM399 1110q0 -41 27 -71q26 -29 72 -29q44 0 70 29q28 31 28 71q0 36 -28 66q-27 28 -70 28q-44 0 -71 -28q-28 -30 -28 -66z" />
<glyph unicode="&#xe6;" horiz-adv-x="1701" d="M109 236q0 119 85 191q87 73 226 73q104 0 195 -39q92 -39 145 -86l2 125q0 128 -71 201t-210 73q-148 0 -288 -98q-9 9 -9 40q0 29 9 42q118 92 301 92q268 0 329 -225q46 100 145 163q98 62 226 62q197 0 308 -135q111 -136 83 -314h-733q1 -162 104 -258 q102 -96 265 -96q156 0 295 100q9 -10 7 -41q-2 -32 -7 -43q-118 -94 -302 -94q-126 0 -227 55q-98 53 -149 150l-2 -174q-33 -21 -66 0l-4 106q-57 -53 -151 -95q-93 -42 -197 -42q-138 0 -224 74q-85 73 -85 193zM199 240q0 -87 62 -142t173 -55q98 0 193 45q94 45 133 88 v127q-39 43 -133 88q-95 45 -193 45q-110 0 -172 -55q-63 -55 -63 -141zM858 461h647q5 135 -84 225t-225 90q-142 0 -234 -87q-92 -88 -104 -228z" />
<glyph unicode="&#xe7;" horiz-adv-x="1026" d="M115 410q0 190 128 315t330 125q179 0 297 -94q9 -13 9 -42t-9 -42q-139 100 -290 100q-165 0 -270 -102t-105 -260t105 -260q106 -103 270 -103q151 0 290 100q9 -9 9 -41q0 -30 -9 -43q-118 -94 -295 -94v-108q65 15 127 -26t62 -120q0 -71 -49 -113t-121 -42 q-67 0 -117 34q-8 11 -8 32q0 22 8 30q51 -39 111 -39q49 0 82 27q32 26 32 75q0 65 -58 89t-128 -5v168q-179 21 -291 143q-110 120 -110 296z" />
<glyph unicode="&#xe8;" horiz-adv-x="1056" d="M115 410q0 191 121 315q122 125 313 125q197 0 308 -135q111 -136 83 -314h-733q1 -162 104 -258q102 -96 264 -96q154 0 293 100q9 -13 9 -42t-9 -42q-113 -94 -301 -94q-202 0 -327 122t-125 319zM211 461h647q4 135 -84 225t-225 90q-143 0 -235 -87 q-91 -86 -103 -228zM383 1198q1 13 25 32q22 18 36 19l238 -268q-6 -15 -18 -26q-15 -14 -29 -15z" />
<glyph unicode="&#xe9;" horiz-adv-x="1056" d="M115 410q0 191 121 315q122 125 313 125q197 0 308 -135q111 -136 83 -314h-733q1 -162 104 -258q102 -96 264 -96q154 0 293 100q9 -13 9 -42t-9 -42q-113 -94 -301 -94q-202 0 -327 122t-125 319zM211 461h647q4 135 -84 225t-225 90q-143 0 -235 -87 q-91 -86 -103 -228zM383 981l240 268q15 -1 35 -19q23 -20 24 -32l-250 -258q-15 2 -30 15q-14 13 -19 26z" />
<glyph unicode="&#xea;" horiz-adv-x="1056" d="M115 410q0 191 121 315q122 125 313 125q197 0 308 -135q111 -136 83 -314h-733q1 -162 104 -258q102 -96 264 -96q154 0 293 100q9 -13 9 -42t-9 -42q-113 -94 -301 -94q-202 0 -327 122t-125 319zM211 461h647q4 135 -84 225t-225 90q-143 0 -235 -87 q-91 -86 -103 -228zM246 981l246 248q17 12 40 12q24 0 41 -12l246 -248q-1 -14 -21 -32q-17 -16 -34 -21l-232 233l-229 -233q-14 1 -34 20q-18 17 -23 33z" />
<glyph unicode="&#xeb;" horiz-adv-x="1056" d="M115 410q0 191 121 315q122 125 313 125q197 0 308 -135q111 -136 83 -314h-733q1 -162 104 -258q102 -96 264 -96q154 0 293 100q9 -13 9 -42t-9 -42q-113 -94 -301 -94q-202 0 -327 122t-125 319zM211 461h647q4 135 -84 225t-225 90q-143 0 -235 -87 q-91 -86 -103 -228zM221 1104q0 29 21 47t51 18q29 0 48 -19t19 -46q0 -31 -19 -50q-20 -20 -48 -20q-29 0 -51 20q-21 20 -21 50zM705 1104q0 30 20 47q21 18 51 18q29 0 48 -19q20 -20 20 -46q0 -30 -20 -50t-48 -20q-29 0 -51 20q-20 19 -20 50z" />
<glyph unicode="&#xec;" horiz-adv-x="403" d="M53 1198q1 13 25 32q22 17 37 19l237 -268q-6 -15 -18 -26q-15 -14 -29 -15zM158 0v819q45 18 90 0v-819q-45 -18 -90 0z" />
<glyph unicode="&#xed;" horiz-adv-x="403" d="M53 981l240 268q16 -2 36 -19q22 -19 23 -32l-250 -258q-14 1 -29 15t-20 26zM158 0v819q45 18 90 0v-819q-45 -18 -90 0z" />
<glyph unicode="&#xee;" horiz-adv-x="403" d="M-82 981l246 248q16 12 41 12t41 -12l246 -248q-4 -15 -24 -33q-20 -19 -34 -20l-229 233l-232 -233q-15 5 -33 21q-21 19 -22 32zM158 0v819q45 18 90 0v-819q-45 -18 -90 0z" />
<glyph unicode="&#xef;" horiz-adv-x="403" d="M-109 1104q0 26 21 46q20 19 49 19t49 -19q21 -20 21 -46q0 -30 -21 -50q-22 -20 -49 -20t-49 20q-21 20 -21 50zM158 0v819q45 18 90 0v-819q-45 -18 -90 0zM375 1104q0 30 20 47q21 18 51 18t49 -19t19 -46q0 -31 -19 -50q-20 -20 -49 -20t-51 20q-20 19 -20 50z" />
<glyph unicode="&#xf0;" horiz-adv-x="1054" d="M109 410q0 188 108 312t295 124q184 0 315 -131q-52 199 -211 346l-227 -137q-21 37 0 69l180 107q-146 112 -323 145q-8 13 -8 45q0 33 8 41q222 -35 401 -184l207 125q21 -37 0 -70l-162 -96q246 -236 246 -592v-90q0 -214 -115 -335q-114 -120 -295 -120 q-176 0 -298 123q-121 122 -121 318zM201 408q0 -162 96 -261q95 -98 233 -98q140 0 230 93t90 270v90q0 60 -10 119q-45 52 -131 99q-85 46 -181 46q-150 0 -239 -99q-88 -98 -88 -259z" />
<glyph unicode="&#xf1;" horiz-adv-x="1052" d="M154 0v819q40 17 84 0l4 -135q150 166 333 166q163 0 246 -93q82 -92 82 -243v-514q-45 -18 -90 0v500q0 125 -63 197q-64 73 -195 73q-91 0 -177 -54q-82 -52 -134 -110v-606q-45 -18 -90 0zM219 1018q-18 39 0 74q2 0 27 13q8 4 17 9t11 6q10 6 27 13q20 8 31 11 q14 4 29 6q18 3 34 3q55 0 154 -45q58 -25 106 -25q57 0 176 62q18 -35 0 -74q-6 -1 -26 -13q-8 -4 -17.5 -9.5t-11.5 -6.5q-6 -4 -26 -12q-19 -8 -31 -11t-30 -6t-34 -3q-54 0 -153 45q-56 24 -107 24q-58 0 -176 -61z" />
<glyph unicode="&#xf2;" horiz-adv-x="1110" d="M115 410q0 185 125 313q124 127 315 127q188 0 314 -127t126 -313t-126 -314q-126 -127 -314 -127q-191 0 -315 127q-125 128 -125 314zM207 410q0 -156 99 -258q100 -103 249 -103q151 0 251 103q99 102 99 258t-99 258t-251 102q-150 0 -249 -102t-99 -258zM406 1198 q1 14 24 32q22 17 37 19l238 -268q-5 -13 -19 -26q-15 -14 -29 -15z" />
<glyph unicode="&#xf3;" horiz-adv-x="1110" d="M115 410q0 185 125 313q124 127 315 127q188 0 314 -127t126 -313t-126 -314q-126 -127 -314 -127q-191 0 -315 127q-125 128 -125 314zM207 410q0 -156 99 -258q100 -103 249 -103q151 0 251 103q99 102 99 258t-99 258t-251 102q-150 0 -249 -102t-99 -258zM406 981 l239 268q16 -2 36 -19q23 -20 24 -32l-250 -258q-15 2 -30 15q-14 13 -19 26z" />
<glyph unicode="&#xf4;" horiz-adv-x="1110" d="M115 410q0 185 125 313q124 127 315 127q188 0 314 -127t126 -313t-126 -314q-126 -127 -314 -127q-191 0 -315 127q-125 128 -125 314zM207 410q0 -156 99 -258q100 -103 249 -103q151 0 251 103q99 102 99 258t-99 258t-251 102q-150 0 -249 -102t-99 -258zM268 981 l246 248q17 12 41 12q25 0 41 -12l246 -248q-1 -13 -22 -32q-17 -16 -34 -21l-231 233l-229 -233q-14 1 -34 20q-20 18 -24 33z" />
<glyph unicode="&#xf5;" horiz-adv-x="1110" d="M115 410q0 185 125 313q124 127 315 127q188 0 314 -127t126 -313t-126 -314q-126 -127 -314 -127q-191 0 -315 127q-125 128 -125 314zM207 410q0 -156 99 -258q100 -103 249 -103q151 0 251 103q99 102 99 258t-99 258t-251 102q-150 0 -249 -102t-99 -258zM248 1018 q-18 39 0 74l26 13q8 5 17.5 9.5t11.5 5.5q10 6 27 13q21 9 30 11q12 3 30 6t34 3q55 0 154 -45q58 -25 106 -25q57 0 176 62q18 -35 0 -74q-6 -1 -26 -13q-8 -4 -17.5 -9.5t-11.5 -6.5q-4 -2 -27 -12q-21 -9 -30 -11q-12 -3 -30 -6t-34 -3q-55 0 -154 45q-55 24 -106 24 q-58 0 -176 -61z" />
<glyph unicode="&#xf6;" horiz-adv-x="1110" d="M115 410q0 185 125 313q124 127 315 127q188 0 314 -127t126 -313t-126 -314q-126 -127 -314 -127q-191 0 -315 127q-125 128 -125 314zM207 410q0 -156 99 -258q100 -103 249 -103q151 0 251 103q99 102 99 258t-99 258t-251 102q-150 0 -249 -102t-99 -258zM242 1104 q0 30 20 47q21 18 51 18q29 0 48 -19q20 -20 20 -46q0 -30 -20 -50t-48 -20q-29 0 -51 20q-20 19 -20 50zM727 1104q0 29 21 47t51 18q29 0 48 -19t19 -46q0 -31 -19 -50q-20 -20 -48 -20q-29 0 -51 20q-21 20 -21 50z" />
<glyph unicode="&#xf7;" horiz-adv-x="907" d="M102 541q-18 34 0 73h705q18 -39 0 -73h-705zM385 358q0 30 21 49q20 19 51 19q29 0 48 -19t19 -49q0 -29 -19 -48t-48 -19q-31 0 -51 19q-21 20 -21 48zM385 797q0 29 21 48q20 19 51 19q27 0 47 -20t20 -47q0 -29 -19 -49q-19 -21 -48 -21q-30 0 -51 21t-21 49z" />
<glyph unicode="&#xf8;" horiz-adv-x="1110" d="M115 0l108 113q-108 125 -108 297q0 185 125 313q124 127 315 127q165 0 285 -98l65 67q18 8 45 8t45 -8l-108 -112q108 -125 108 -297q0 -186 -126 -314q-126 -127 -314 -127q-168 0 -287 101l-65 -70q-16 -8 -44 -8t-44 8zM207 410q0 -135 78 -234l495 514 q-92 80 -225 80q-150 0 -249 -102t-99 -258zM330 131q94 -82 225 -82q151 0 251 103q99 102 99 258q0 134 -78 235z" />
<glyph unicode="&#xf9;" horiz-adv-x="1046" d="M147 305v514q45 18 91 0v-500q0 -125 63 -197q64 -73 195 -73q92 0 177 54q82 52 134 110v606q45 18 90 0v-819q-41 -17 -82 0l-6 135q-150 -166 -334 -166q-163 0 -246 93q-82 92 -82 243zM375 1198q1 14 24 32q22 17 37 19l238 -268q-5 -13 -19 -26q-15 -14 -28 -15z " />
<glyph unicode="&#xfa;" horiz-adv-x="1046" d="M147 305v514q45 18 91 0v-500q0 -125 63 -197q64 -73 195 -73q92 0 177 54q82 52 134 110v606q45 18 90 0v-819q-41 -17 -82 0l-6 135q-150 -166 -334 -166q-163 0 -246 93q-82 92 -82 243zM375 981l239 268q16 -2 36 -19q23 -20 24 -32l-250 -258q-15 2 -30 15 q-14 13 -19 26z" />
<glyph unicode="&#xfb;" horiz-adv-x="1046" d="M147 305v514q45 18 91 0v-500q0 -125 63 -197q64 -73 195 -73q92 0 177 54q82 52 134 110v606q45 18 90 0v-819q-41 -17 -82 0l-6 135q-150 -166 -334 -166q-163 0 -246 93q-82 92 -82 243zM238 981l245 248q16 12 41 12q24 0 41 -12l246 -248q-1 -14 -21 -32 q-17 -16 -34 -21l-232 233l-229 -233q-14 1 -34 20q-18 17 -23 33z" />
<glyph unicode="&#xfc;" horiz-adv-x="1046" d="M147 305v514q45 18 91 0v-500q0 -125 63 -197q64 -73 195 -73q92 0 177 54q82 52 134 110v606q45 18 90 0v-819q-41 -17 -82 0l-6 135q-150 -166 -334 -166q-163 0 -246 93q-82 92 -82 243zM211 1104q0 30 20 47q21 18 52 18q29 0 48 -19t19 -46q0 -31 -19 -50 q-20 -20 -48 -20q-30 0 -52 20q-20 19 -20 50zM694 1104q0 29 21 47t51 18q29 0 48 -19q20 -20 20 -46q0 -30 -20 -50t-48 -20q-29 0 -51 20q-21 20 -21 50z" />
<glyph unicode="&#xfd;" horiz-adv-x="1011" d="M78 819q46 21 96 0l334 -657l328 657q51 21 98 0l-580 -1153q-46 -18 -96 0l203 400zM356 981l240 268q16 -2 36 -19q22 -19 23 -32l-249 -258q-15 2 -30 15q-15 14 -20 26z" />
<glyph unicode="&#xfe;" horiz-adv-x="1103" d="M158 -334v1665q45 18 90 0v-626q130 145 325 145q186 0 300 -125t114 -315q0 -191 -114 -316t-300 -125q-194 0 -325 146v-449q-45 -18 -90 0zM250 199q48 -56 127 -102q83 -48 182 -48q155 0 246 102q92 103 92 259t-92 259q-91 101 -246 101q-99 0 -182 -48 q-81 -47 -127 -101v-422z" />
<glyph unicode="&#xff;" horiz-adv-x="1011" d="M78 819q46 21 96 0l334 -657l328 657q51 21 98 0l-580 -1153q-46 -18 -96 0l203 400zM195 1104q0 30 20 47q21 18 51 18q29 0 48 -19q20 -20 20 -46q0 -30 -20 -50t-48 -20q-29 0 -51 20q-20 19 -20 50zM678 1104q0 30 20 47q21 18 52 18q29 0 48 -19t19 -46 q0 -31 -19 -50q-20 -20 -48 -20q-30 0 -52 20q-20 19 -20 50z" />
<glyph unicode="&#x152;" horiz-adv-x="2422" d="M141 668q0 292 196 494t499 202q205 0 366 -106q160 -106 232 -279v352h884q16 -41 0 -84h-786v-522h727q17 -41 0 -84h-727v-557h786q16 -44 0 -84h-884v354q-71 -171 -232 -277t-366 -106q-303 0 -499 202t-196 495zM240 668q0 -264 169 -439q170 -176 427 -176 q259 0 429 176q169 175 169 439q0 260 -170 436t-428 176q-257 0 -427 -176q-169 -175 -169 -436z" />
<glyph unicode="&#x153;" horiz-adv-x="1845" d="M115 410q0 185 125 313q124 127 315 127q138 0 243 -72t150 -190q45 120 147 191q103 71 242 71q198 0 309 -135q111 -136 83 -314h-734q1 -161 105 -258q102 -96 264 -96q154 0 293 100q8 -11 8 -42t-8 -42q-113 -94 -301 -94q-145 0 -255 70q-108 69 -153 192 q-46 -117 -152 -190q-105 -72 -241 -72q-191 0 -315 127q-125 128 -125 314zM207 410q0 -156 99 -258q100 -103 249 -103q151 0 251 103q99 102 99 258t-99 258t-251 102q-150 0 -249 -102t-99 -258zM999 461h648q5 135 -84 225q-88 90 -226 90q-143 0 -234 -87 q-92 -88 -104 -228z" />
<glyph unicode="&#x178;" horiz-adv-x="1282" d="M78 1331q19 8 53 8t53 -8l457 -725l457 725q51 21 106 0l-514 -817v-514q-47 -21 -98 0v512zM330 1616q0 30 20 47q21 18 51 18t49 -19t19 -46q0 -31 -19 -50q-20 -20 -49 -20t-51 20q-20 19 -20 50zM813 1616q0 29 21 47t51 18q29 0 48 -19t19 -46q0 -31 -19 -50 q-20 -20 -48 -20q-29 0 -51 20q-21 20 -21 50z" />
<glyph unicode="&#x2c6;" horiz-adv-x="761" d="M94 1493l246 248q16 12 41 12q24 0 41 -12l246 -248q-1 -13 -22 -32q-17 -16 -34 -21l-231 233l-229 -233q-14 1 -34 20q-20 18 -24 33z" />
<glyph unicode="&#x2dc;" horiz-adv-x="815" d="M102 1530q-18 39 0 74q2 0 27 13q8 5 17.5 9.5t11.5 5.5q12 7 26 13q19 8 31 11t30 6t34 3q54 0 153 -45q58 -25 107 -25q57 0 176 62q18 -35 0 -74q-8 -2 -27 -13q-8 -4 -17.5 -9.5t-11.5 -6.5q-6 -4 -26 -12q-19 -8 -31 -11t-30 -6t-33 -3q-55 0 -154 45 q-56 24 -106 24q-59 0 -177 -61z" />
<glyph unicode="&#x2000;" horiz-adv-x="889" />
<glyph unicode="&#x2001;" horiz-adv-x="1778" />
<glyph unicode="&#x2002;" horiz-adv-x="889" />
<glyph unicode="&#x2003;" horiz-adv-x="1778" />
<glyph unicode="&#x2004;" horiz-adv-x="592" />
<glyph unicode="&#x2005;" horiz-adv-x="444" />
<glyph unicode="&#x2006;" horiz-adv-x="296" />
<glyph unicode="&#x2007;" horiz-adv-x="296" />
<glyph unicode="&#x2008;" horiz-adv-x="222" />
<glyph unicode="&#x2009;" horiz-adv-x="355" />
<glyph unicode="&#x200a;" horiz-adv-x="98" />
<glyph unicode="&#x2010;" horiz-adv-x="765" d="M102 541q-18 34 0 73h564q18 -39 0 -73h-564z" />
<glyph unicode="&#x2011;" horiz-adv-x="765" d="M102 541q-18 34 0 73h564q18 -39 0 -73h-564z" />
<glyph unicode="&#x2012;" horiz-adv-x="765" d="M102 541q-18 34 0 73h564q18 -39 0 -73h-564z" />
<glyph unicode="&#x2013;" horiz-adv-x="1058" d="M102 541q-18 34 0 73h856q18 -39 0 -73h-856z" />
<glyph unicode="&#x2014;" horiz-adv-x="1288" d="M102 541q-18 34 0 73h1086q18 -39 0 -73h-1086z" />
<glyph unicode="&#x2018;" horiz-adv-x="344" d="M98 1026q-8 69 19 170q27 103 61 135q35 17 64 0q-36 -40 -61 -119q-25 -77 -23 -137q14 2 20 2q28 0 48 -18t20 -47q0 -27 -20 -49q-19 -21 -52 -21q-30 0 -52 22q-23 23 -24 62z" />
<glyph unicode="&#x2019;" horiz-adv-x="344" d="M98 1292q0 27 20 49q19 21 52 21q30 0 52 -22q23 -23 24 -62q7 -67 -20 -170q-27 -101 -62 -135q-29 -17 -64 0q35 41 62 122q27 80 22 134q-10 -2 -18 -2q-28 0 -48 18t-20 47z" />
<glyph unicode="&#x201a;" horiz-adv-x="344" d="M98 37q0 25 20 47q19 20 52 20q31 0 52 -21q22 -23 24 -63q7 -67 -20 -170q-27 -101 -62 -135q-29 -17 -64 0q37 40 63 122q26 81 21 134q-10 -2 -18 -2q-27 0 -48 19q-20 18 -20 49z" />
<glyph unicode="&#x201c;" horiz-adv-x="587" d="M98 1026q-8 69 19 170q27 103 61 135q35 17 64 0q-36 -40 -61 -119q-25 -77 -23 -137q14 2 20 2q28 0 48 -18t20 -47q0 -27 -20 -49q-19 -21 -52 -21q-30 0 -52 22q-23 23 -24 62zM344 1026q-8 72 18 170q27 101 62 135q34 17 63 0q-34 -39 -60 -119t-24 -137q14 2 21 2 q28 0 48 -18t20 -47q0 -27 -20 -49q-20 -21 -52 -21q-30 0 -52 22q-23 23 -24 62z" />
<glyph unicode="&#x201d;" horiz-adv-x="587" d="M98 1292q0 27 20 49q19 21 52 21q30 0 52 -22q23 -23 24 -62q7 -67 -20 -170q-27 -101 -62 -135q-29 -17 -64 0q35 41 62 122q27 80 22 134q-10 -2 -18 -2q-28 0 -48 18t-20 47zM342 1292q0 29 19 49q20 21 53 21q27 0 51 -22q22 -21 24 -62q8 -69 -19 -170t-62 -135 q-29 -17 -64 0q33 39 61 122q27 82 23 134q-10 -2 -18 -2q-30 0 -49 18t-19 47z" />
<glyph unicode="&#x201e;" horiz-adv-x="587" d="M98 37q0 25 20 47q19 20 52 20q31 0 52 -21q22 -23 24 -63q7 -67 -20 -170q-27 -101 -62 -135q-29 -17 -64 0q37 40 63 122q26 81 21 134q-10 -2 -18 -2q-27 0 -48 19q-20 18 -20 49zM342 37q0 27 19 47t53 20q28 0 51 -21q22 -21 24 -63q8 -69 -19 -170t-62 -135 q-29 -17 -64 0q37 40 63 122q26 81 21 134q-10 -2 -18 -2q-28 0 -49 19q-19 18 -19 49z" />
<glyph unicode="&#x2022;" horiz-adv-x="444" d="M94 586q0 53 38 91t91 38q52 0 90 -38q37 -37 37 -91t-37 -91q-38 -38 -90 -38q-53 0 -91 38t-38 91z" />
<glyph unicode="&#x2026;" horiz-adv-x="1015" d="M94 37q0 29 21 48q20 19 51 19q29 0 48 -19t19 -48t-19 -48q-20 -20 -48 -20q-29 0 -51 20q-21 19 -21 48zM438 37q0 29 21 48q20 19 51 19q29 0 48 -19q20 -20 20 -48t-20 -48t-48 -20q-29 0 -51 20q-21 19 -21 48zM780 37q0 29 21 48q20 19 51 19q29 0 48 -19 q20 -20 20 -48t-20 -48t-48 -20q-29 0 -51 20q-21 19 -21 48z" />
<glyph unicode="&#x202f;" horiz-adv-x="355" />
<glyph unicode="&#x2039;" horiz-adv-x="534" d="M94 444l271 320q38 16 75 0l-243 -320l243 -319q-38 -16 -75 0z" />
<glyph unicode="&#x203a;" horiz-adv-x="534" d="M94 125l246 319l-246 320q39 16 76 0l270 -320l-270 -319q-39 -16 -76 0z" />
<glyph unicode="&#x205f;" horiz-adv-x="444" />
<glyph unicode="&#x20ac;" horiz-adv-x="1607" d="M102 520q-18 24 0 51h166q-6 45 -6 95q0 48 6 94h-166q-18 27 0 51h174q46 240 234 396q187 155 455 155q271 0 452 -131q8 -11 8 -49q0 -39 -8 -47q-188 143 -448 143q-224 0 -385 -130q-162 -131 -207 -337h606q18 -24 0 -51h-616q-7 -54 -7 -94q0 -41 7 -95h534 q18 -27 0 -51h-524q45 -206 207 -337q161 -130 385 -130q259 0 448 144q8 -8 8 -48q0 -38 -8 -49q-181 -131 -452 -131q-268 0 -455 155q-188 156 -234 396h-174z" />
<glyph unicode="&#x2122;" horiz-adv-x="1277" d="M100 1276q-15 27 0 55h428q15 -28 0 -55h-182v-358q-30 -16 -63 0v358h-183zM543 918l121 407q28 15 57 0l141 -330l144 330q27 15 55 0l123 -407q-34 -17 -64 0l-94 317l-135 -317q-29 -15 -57 0l-136 317l-92 -317q-33 -16 -63 0z" />
<glyph unicode="&#x25fc;" horiz-adv-x="829" d="M0 0v829h829v-829h-829z" />
</font>
</defs>
</svg>
