<?xml version="1.0" standalone="no"?>
<!DOCTYPE svg PUBLIC "-//W3C//DTD SVG 1.1//EN" "http://www.w3.org/Graphics/SVG/1.1/DTD/svg11.dtd" >
<svg xmlns="http://www.w3.org/2000/svg">
<metadata></metadata>
<defs>
<font id="merel-mediumuploaded_file" horiz-adv-x="985" >
<font-face units-per-em="2048" ascent="1616" descent="-432" />
<missing-glyph horiz-adv-x="468" />
<glyph horiz-adv-x="0" />
<glyph unicode="&#xd;" horiz-adv-x="681" />
<glyph unicode=" "  horiz-adv-x="468" />
<glyph unicode="&#x09;" horiz-adv-x="468" />
<glyph unicode="&#xa0;" horiz-adv-x="468" />
<glyph unicode="!" horiz-adv-x="407" d="M78 88q0 51 37 85t90 34q51 0 88 -34t37 -85t-37 -85t-88 -34q-53 0 -90 34t-37 85zM98 1100v231q107 23 209 0v-231l-43 -643q-62 -17 -123 0z" />
<glyph unicode="&#x22;" horiz-adv-x="706" d="M78 928v403q104 22 209 0l-62 -403q-73 -15 -147 0zM420 928v403q104 22 209 0l-62 -403q-73 -15 -147 0z" />
<glyph unicode="#" horiz-adv-x="1122" d="M80 461q-5 21 7 59q12 39 26 53h196l53 185h-198q-2 26 9 60q12 37 24 52h198l131 461q63 18 125 0l-131 -461h199l133 461q62 18 125 0l-133 -461h198q2 -22 -9 -58q-12 -42 -21 -54h-199l-53 -185h196q2 -24 -9 -59q-12 -39 -23 -53h-197l-133 -461q-62 -18 -125 0 l133 461h-201l-133 -461q-63 -18 -125 0l133 461h-196zM434 573h201l53 185h-201z" />
<glyph unicode="$" horiz-adv-x="1148" d="M117 975q0 154 110 264q111 111 305 121v192q37 21 76 0v-192q195 -7 340 -115q9 -24 11 -106q2 -80 -11 -97q-203 144 -377 144q-112 0 -178 -54q-65 -53 -65 -139q0 -89 64 -129q63 -40 247 -100q83 -27 144 -54q55 -25 120 -71q63 -45 95 -115t32 -162 q0 -171 -118 -276q-118 -104 -304 -115v-192q-39 -21 -76 0v190q-211 10 -374 119q-13 24 -13 106q0 81 13 97q212 -146 399 -146q122 0 191 57t69 146q0 94 -66 138q-69 46 -247 102q-93 31 -145 55q-54 25 -119 71q-64 45 -93 109q-30 66 -30 152z" />
<glyph unicode="%" horiz-adv-x="1554" d="M78 1014q0 158 78 253t209 95q132 0 209 -95t77 -253t-77 -253t-209 -95q-131 0 -209 95t-78 253zM223 1014q0 -113 38 -171q37 -57 104 -57q65 0 103 57q38 58 38 171t-38 171q-37 56 -103 56q-67 0 -104 -56q-38 -58 -38 -171zM399 0l631 1331q64 18 127 0l-631 -1331 q-63 -18 -127 0zM901 317q0 159 78 253q79 96 209 96q132 0 210 -96q77 -95 77 -253q0 -157 -77 -252q-78 -96 -210 -96q-130 0 -209 96q-78 95 -78 252zM1047 317q0 -115 37 -171t104 -56q66 0 103 56q38 58 38 171t-38 171q-38 57 -103 57q-66 0 -104 -57 q-37 -56 -37 -171z" />
<glyph unicode="&#x26;" horiz-adv-x="1386" d="M72 334q0 123 69 213q68 89 205 174q-153 183 -153 319q0 139 106 230q107 92 266 92q163 0 270 -85t107 -230q0 -114 -77 -193q-78 -80 -232 -170l280 -285q93 138 111 318q102 27 209 0q-35 -262 -178 -457l260 -258q-43 -10 -129 -10t-127 10l-133 129 q-184 -164 -414 -164q-180 0 -310 99t-130 268zM285 342q0 -96 69 -147q70 -52 166 -52q151 0 275 119l-320 324q-95 -57 -144 -113q-46 -53 -46 -131zM401 1034q0 -91 109 -221q125 68 175 113q48 44 48 108q0 66 -43 109t-123 43q-74 0 -120 -43t-46 -109z" />
<glyph unicode="'" horiz-adv-x="364" d="M78 928v403q104 22 209 0l-62 -403q-73 -15 -147 0z" />
<glyph unicode="(" horiz-adv-x="530" d="M78 551q0 205 50 417q50 210 138 363q95 18 185 0q-84 -164 -134 -376q-49 -209 -49 -404q0 -196 49 -405q49 -210 134 -375q-90 -18 -185 0q-88 153 -138 363q-50 212 -50 417z" />
<glyph unicode=")" horiz-adv-x="530" d="M78 -229q83 162 133 375q49 209 49 405q0 195 -49 404q-50 215 -133 376q94 18 184 0q88 -153 138 -363q51 -216 51 -417t-51 -417q-50 -210 -138 -363q-90 -18 -184 0z" />
<glyph unicode="*" horiz-adv-x="864" d="M80 1024q6 77 47 139l258 -114l-25 282q74 18 146 0l-25 -282l258 114q46 -67 47 -139l-268 -68l195 -206q-51 -63 -117 -91l-162 248l-164 -248q-69 29 -114 91l192 206z" />
<glyph unicode="+" horiz-adv-x="880" d="M88 477q-18 74 0 148h283v278q69 18 141 0v-278h281q23 -74 0 -148h-281v-278q-72 -23 -141 0v278h-283z" />
<glyph unicode="," horiz-adv-x="423" d="M80 88q0 51 37 85t90 34t94 -38q42 -38 43 -114q2 -96 -46 -206q-48 -111 -93 -144q-53 -15 -109 0q52 52 90 130q36 73 47 138q-19 -4 -30 -4q-52 0 -87 34q-36 34 -36 85z" />
<glyph unicode="-" horiz-adv-x="739" d="M88 477q-18 74 0 148h563q23 -74 0 -148h-563z" />
<glyph unicode="." horiz-adv-x="407" d="M78 88q0 51 37 85t90 34q51 0 88 -34t37 -85t-37 -85t-88 -34q-53 0 -90 34t-37 85z" />
<glyph unicode="/" horiz-adv-x="686" d="M78 0l350 1331q90 18 180 0l-350 -1331q-90 -18 -180 0z" />
<glyph unicode="0" horiz-adv-x="1339" d="M117 666q0 316 149 505q150 191 404 191q251 0 401 -191t150 -505q0 -316 -150 -506q-150 -191 -401 -191q-254 0 -404 191q-149 189 -149 506zM330 666q0 -260 92 -391q91 -130 248 -130q153 0 245 131q93 133 93 390q0 256 -93 389q-92 131 -245 131q-157 0 -248 -130 q-92 -131 -92 -390z" />
<glyph unicode="1" horiz-adv-x="759" d="M73 983q2 84 11 104l340 244q84 17 168 0v-1331q-107 -23 -209 0v1100l-299 -215q-12 17 -11 98z" />
<glyph unicode="2" horiz-adv-x="1083" d="M80 0v20q284 306 432 491q144 180 188 269q43 87 43 170q0 105 -68 170q-69 66 -183 66q-174 0 -349 -144q-12 17 -11 98q2 83 11 105q135 117 363 117q214 0 332 -117t118 -284q0 -159 -110 -321q-109 -160 -414 -464h541q21 -88 0 -176h-893z" />
<glyph unicode="3" horiz-adv-x="1128" d="M161 191q-1 81 11 98q196 -146 381 -146q121 0 200 63q78 62 78 173q0 96 -62 155q-63 60 -185 60h-172q-18 82 0 166h168q98 0 157 59q60 60 60 152q0 93 -67 154t-181 61q-172 0 -367 -144q-13 17 -11 97q2 82 11 106q153 117 375 117q208 0 328 -101 q121 -102 121 -257q0 -105 -55 -191q-54 -84 -146 -125q116 -39 178 -128q61 -88 61 -206q0 -176 -134 -281q-135 -106 -339 -106q-113 0 -221 33q-110 34 -178 84q-9 24 -11 107z" />
<glyph unicode="4" horiz-adv-x="1183" d="M82 276q-18 86 0 175l674 880q84 17 168 0v-880h178q18 -86 0 -175h-178v-276q-107 -23 -209 0v276h-633zM266 451h447v583z" />
<glyph unicode="5" horiz-adv-x="1089" d="M116 191q-1 81 11 98q196 -146 381 -146q125 0 205 71t80 183q0 119 -87 188q-86 68 -231 68q-127 0 -276 -71l108 749h631q18 -88 0 -176h-469l-57 -371q78 29 147 29q197 0 322 -113t125 -301q0 -194 -137 -313t-347 -119q-110 0 -218 33t-177 84q-9 24 -11 107z" />
<glyph unicode="6" horiz-adv-x="1191" d="M117 455q0 155 66 311t165 267q103 115 187 188q88 76 153 110q48 8 134 8t132 -8q-183 -129 -327 -267q-140 -134 -209 -296q105 84 252 84q182 -1 293 -125q110 -122 110 -301q0 -193 -132 -325t-345 -132q-218 0 -348 135q-131 136 -131 351zM330 426q0 -125 72 -203 t192 -78q118 0 192 77t74 200q0 118 -72 192t-190 74q-147 0 -252 -108q-16 -76 -16 -154z" />
<glyph unicode="7" horiz-adv-x="1110" d="M111 1155q-18 88 0 176h927v-20l-630 -1311q-46 -8 -112 -8t-114 8l561 1155h-632z" />
<glyph unicode="8" horiz-adv-x="1118" d="M84 350q0 114 63 206q62 91 179 132q-93 41 -148 126t-55 190q0 154 118 256t318 102q199 0 317 -102q117 -101 117 -256q0 -105 -55 -190q-56 -86 -147 -126q115 -41 178 -132t63 -206q0 -173 -133 -278t-340 -105q-209 0 -342 105t-133 278zM297 371q0 -107 74 -167 q75 -61 188 -61q111 0 186 61q74 60 74 167q0 96 -66 159q-67 64 -178 64h-34q-110 0 -177 -64t-67 -159zM330 971q0 -89 60 -150t151 -61h34q92 0 152 61q59 60 59 150q0 92 -61 153q-62 62 -166 62t-167 -63q-62 -62 -62 -152z" />
<glyph unicode="9" horiz-adv-x="1191" d="M117 905q0 193 132 325t345 132q218 0 348 -135q131 -136 131 -350q0 -156 -66 -312t-165 -267t-187 -187q-90 -78 -155 -111q-46 -8 -132 -8t-132 8q183 129 327 267q140 134 209 296q-105 -84 -252 -84q-184 1 -294 125q-109 122 -109 301zM330 909q0 -119 70 -192 q71 -74 192 -74q146 0 252 109q16 76 16 153q0 124 -73 203q-72 78 -193 78q-117 0 -191 -77q-73 -76 -73 -200z" />
<glyph unicode=":" horiz-adv-x="407" d="M78 88q0 51 37 85t90 34q51 0 88 -34t37 -85t-37 -85t-88 -34q-53 0 -90 34t-37 85zM78 731q0 51 37 85t90 34q51 0 88 -34t37 -85t-37 -85t-88 -34q-53 0 -90 34t-37 85z" />
<glyph unicode=";" horiz-adv-x="423" d="M80 88q0 51 37 85t90 34t94 -38q42 -38 43 -114q2 -96 -46 -206q-48 -111 -93 -144q-53 -15 -109 0q52 52 90 130q36 73 47 138q-19 -4 -30 -4q-52 0 -87 34q-36 34 -36 85zM80 731q0 51 37 85t90 34q51 0 88 -34t37 -85t-37 -85t-88 -34q-53 0 -90 34t-37 85z" />
<glyph unicode="&#x3c;" horiz-adv-x="907" d="M88 512q-22 40 0 78l731 379q24 -84 0 -168l-491 -250l491 -250q24 -84 0 -168z" />
<glyph unicode="=" horiz-adv-x="880" d="M88 326q-18 72 0 145h705q23 -73 0 -147zM88 627q-18 73 0 145h705q23 -69 0 -147z" />
<glyph unicode="&#x3e;" horiz-adv-x="907" d="M88 133q-22 84 0 168l494 250l-494 250q-22 84 0 168l731 -379q27 -38 0 -78z" />
<glyph unicode="?" horiz-adv-x="999" d="M77 1139q2 82 11 106q162 117 397 117q206 0 320 -102q115 -103 115 -248q0 -111 -58 -181q-55 -67 -194 -169q-55 -39 -77 -59q-22 -21 -38 -55q-16 -35 -16 -91q-102 -23 -209 0q0 105 34 157q35 54 134 127q92 63 126 90q31 25 60 69q27 42 27 93q0 85 -66 139 t-178 54q-175 0 -377 -144q-13 17 -11 97zM307 88q0 51 37 85t90 34q51 0 88 -34t37 -85t-37 -85t-88 -34q-53 0 -90 34t-37 85z" />
<glyph unicode="@" horiz-adv-x="1892" d="M117 422q0 351 241 586t611 235q376 0 590 -217q215 -218 215 -549q0 -145 -34 -248q-35 -106 -90 -157q-60 -56 -115 -78q-61 -25 -118 -25q-78 0 -145 37q-68 38 -98 111q-122 -148 -300 -148t-287 126q-110 127 -110 315q0 187 110 314q109 126 287 126 q180 0 291 -139l15 108q82 18 166 0v-565q0 -135 88 -135q82 0 136 90t54 268q0 293 -177 461t-478 168t-501 -187q-202 -188 -202 -499q0 -261 145 -426q144 -164 345 -207q12 -17 12 -66q0 -50 -10 -71q-270 39 -456 253q-185 213 -185 519zM670 410q0 -122 69 -199 q69 -76 185 -76q131 0 231 109v331q-100 109 -231 109q-116 0 -185 -76t-69 -198z" />
<glyph unicode="A" horiz-adv-x="1425" d="M72 0l553 1331q43 9 87 9t89 -9l553 -1331q-54 -12 -108 -12t-109 12l-136 334h-579l-133 -334q-54 -12 -108.5 -12t-108.5 12zM489 510h447l-223 553z" />
<glyph unicode="B" horiz-adv-x="1249" d="M168 0v1331h539q183 0 302 -95q117 -93 117 -247q0 -105 -52 -182q-52 -78 -144 -117q112 -39 174 -122q61 -82 61 -197q0 -168 -122 -270q-120 -101 -332 -101h-543zM379 176h321q123 0 188 58q66 58 66 159q0 97 -63 154t-186 57h-326v-428zM379 754h321q100 0 160 54 t60 146q0 95 -64 148t-168 53h-309v-401z" />
<glyph unicode="C" horiz-adv-x="1445" d="M117 666q0 294 201 495t526 201q254 0 430 -117q9 -20 11 -100v-11q0 -67 -11 -83q-201 135 -420 135q-225 0 -375 -147q-149 -146 -149 -373q0 -228 149 -374q150 -147 375 -147q218 0 420 136q11 -16 11 -83v-12q-2 -80 -11 -100q-176 -117 -430 -117q-325 0 -526 201 t-201 496z" />
<glyph unicode="D" horiz-adv-x="1454" d="M168 0v1331h463q325 0 516 -189q190 -189 190 -476q0 -288 -190 -477q-191 -189 -516 -189h-463zM379 176h254q230 0 360 133q131 134 131 357q0 222 -131 356q-130 133 -360 133h-254v-979z" />
<glyph unicode="E" horiz-adv-x="1169" d="M168 0v1331h905q10 -44 10.5 -88t-10.5 -88h-696v-389h633q9 -44 9 -88t-9 -88h-633v-414h696q10 -44 10.5 -88t-10.5 -88h-905z" />
<glyph unicode="F" horiz-adv-x="1169" d="M168 0v1331h905q10 -44 10.5 -88t-10.5 -88h-696v-401h633q9 -44 9 -88t-9 -88h-633v-578q-51 -12 -103 -12t-106 12z" />
<glyph unicode="G" horiz-adv-x="1468" d="M117 666q0 294 201 495t526 201q254 0 430 -117q9 -20 11 -100v-11q0 -67 -11 -83q-201 135 -420 135q-225 0 -375 -147q-149 -146 -149 -373q0 -231 149 -377q151 -148 375 -148q136 0 248 56v444q51 11 102.5 11t102.5 -11v-555q-77 -51 -203 -84q-128 -33 -260 -33 q-325 0 -526 201t-201 496z" />
<glyph unicode="H" horiz-adv-x="1486" d="M168 0v1331q54 12 106 11.5t103 -11.5v-565h731v565q51 12 103.5 11.5t105.5 -11.5v-1331q-54 -12 -106 -12t-103 12v590h-731v-590q-51 -12 -103 -12t-106 12z" />
<glyph unicode="I" horiz-adv-x="546" d="M168 0v1331q54 12 106 11.5t103 -11.5v-1331q-51 -12 -103 -12t-106 12z" />
<glyph unicode="J" horiz-adv-x="839" d="M73 125v10q0 58 11 76q91 -55 182 -55q197 0 197 235v940q52 11 104.5 11t104.5 -11v-958q0 -197 -93 -300q-93 -104 -257 -104q-133 0 -238 66q-9 20 -11 90z" />
<glyph unicode="K" horiz-adv-x="1312" d="M168 0v1331q54 12 106 11.5t103 -11.5v-612l579 612q48 8 128 8t126 -8l-610 -647l639 -684q-46 -8 -126 -8t-126 8l-610 651v-651q-51 -12 -103 -12t-106 12z" />
<glyph unicode="L" horiz-adv-x="1116" d="M168 0v1331q54 12 106 11.5t103 -11.5v-1155h657q9 -44 9 -88t-9 -88h-866z" />
<glyph unicode="M" horiz-adv-x="1845" d="M72 0l311 1331q44 9 88.5 9t89.5 -9l361 -1003l360 1003q45 9 89.5 9t88.5 -9l312 -1331q-51 -10 -102.5 -10t-102.5 10l-215 961l-344 -961q-43 -9 -86 -9l-86 9l-344 961l-216 -961q-51 -10 -102 -10z" />
<glyph unicode="N" horiz-adv-x="1468" d="M162 0v1331q42 9 84 9l84 -9l770 -981v981q54 12 106 12t103 -12v-1331q-42 -9 -83.5 -9t-82.5 9l-772 981v-981q-51 -12 -103 -12t-106 12z" />
<glyph unicode="O" horiz-adv-x="1636" d="M117 666q0 294 196 494q197 202 504 202t504 -202t197 -494q0 -293 -197 -495t-504 -202t-504 202q-196 200 -196 495zM330 666q0 -228 139 -374q139 -147 348 -147t348 147q140 148 140 374q0 225 -140 373q-139 147 -348 147t-348 -147q-139 -146 -139 -373z" />
<glyph unicode="P" horiz-adv-x="1269" d="M168 0v1331h489q230 0 362 -123t132 -313q0 -188 -132 -311t-362 -123h-280v-461q-51 -12 -103 -12t-106 12zM379 635h280q133 0 207 72t74 188t-74 188t-207 72h-280v-520z" />
<glyph unicode="Q" horiz-adv-x="1636" d="M117 666q0 294 196 494q197 202 504 202t504 -202t197 -494q0 -232 -129 -412q-129 -179 -345 -246l248 -344q-54 -14 -109 -14t-110 14l-223 307q-20 -2 -43 -2q-300 1 -496 205q-194 201 -194 492zM330 666q0 -228 139 -374q139 -147 348 -147t348 147q140 148 140 374 q0 225 -140 373q-139 147 -348 147t-348 -147q-139 -146 -139 -373z" />
<glyph unicode="R" horiz-adv-x="1294" d="M168 0v1331h504q230 0 361 -121q132 -122 132 -307q0 -143 -80 -250q-79 -107 -231 -147l360 -506q-48 -8 -115 -8q-68 0 -116 8l-340 475h-266v-475q-51 -12 -103 -12t-106 12zM379 651h295q132 0 207 70q73 69 73 182t-73 182q-75 70 -207 70h-295v-504z" />
<glyph unicode="S" horiz-adv-x="1148" d="M117 975q0 164 122 275q123 112 330 112q217 0 379 -117q9 -24 11 -106v-20q0 -62 -11 -77q-203 144 -377 144q-112 0 -178 -54q-65 -53 -65 -139q0 -89 64 -129q63 -40 247 -100q83 -27 144 -54q55 -25 120 -71q63 -45 95 -115t32 -162q0 -182 -131 -287 q-132 -106 -334 -106q-232 0 -407 119q-13 24 -13 106q0 81 13 97q212 -146 399 -146q122 0 191 57t69 146q0 94 -66 138q-69 46 -247 102q-93 31 -145 55q-54 25 -119 71q-64 45 -93 109q-30 66 -30 152z" />
<glyph unicode="T" horiz-adv-x="1200" d="M82 1155q-9 44 -9 88t9 88h1038q9 -44 9 -88t-9 -88h-413v-1155q-52 -11 -105 -11t-106 11v1155h-414z" />
<glyph unicode="U" horiz-adv-x="1421" d="M168 528v803q53 12 106.5 11.5t106.5 -11.5v-833q0 -162 89 -257q90 -96 245 -96q153 0 243 96q89 95 89 257v833q54 12 107.5 11.5t105.5 -11.5v-803q0 -273 -144 -416q-145 -143 -401 -143q-259 0 -404 143q-143 142 -143 416z" />
<glyph unicode="V" horiz-adv-x="1404" d="M72 1331q54 12 108 11.5t109 -11.5l413 -1022l414 1022q54 12 108 11.5t109 -11.5l-542 -1331q-46 -9 -90 -9t-87 9z" />
<glyph unicode="W" horiz-adv-x="2076" d="M72 1331q54 12 108 11.5t107 -11.5l331 -1020l332 1020q44 9 87.5 9t86.5 -9l332 -1020l332 1020q54 12 108 11.5t107 -11.5l-459 -1331q-44 -9 -88 -9l-88 9l-330 987l-331 -987q-44 -9 -88.5 -9t-88.5 9z" />
<glyph unicode="X" horiz-adv-x="1314" d="M72 0l444 684l-424 647q48 8 121 8t119 -8l332 -502l317 502q48 8 121 8t119 -8l-422 -647l444 -684q-48 -8 -121 -8t-121 8l-350 539l-340 -539q-46 -8 -118 -8q-73 0 -121 8z" />
<glyph unicode="Y" horiz-adv-x="1353" d="M72 1331q56 11 112 11t113 -11l381 -647l379 647q46 8 111 8q66 0 114 -8l-500 -844v-487q-53 -11 -105.5 -11t-105.5 11v487z" />
<glyph unicode="Z" horiz-adv-x="1136" d="M84 0v20l659 1135h-628q-9 44 -9 88t9 88h936v-20l-660 -1135h651q9 -44 9 -88t-9 -88h-958z" />
<glyph unicode="[" horiz-adv-x="565" d="M78 -229v1558l397 2q21 -84 0 -166h-207v-1228h207q21 -82 0 -166h-397z" />
<glyph unicode="\" horiz-adv-x="686" d="M78 1331q90 18 180 0l350 -1331q-90 -18 -180 0z" />
<glyph unicode="]" horiz-adv-x="565" d="M88 -63h207v1228h-207q-16 84 0 166l399 -2v-1558h-399q-18 84 0 166z" />
<glyph unicode="^" horiz-adv-x="854" d="M77 882q2 85 11 109l338 340l338 -340q9 -24 11 -109q2 -83 -11 -100l-338 342l-338 -342q-13 17 -11 100z" />
<glyph unicode="_" horiz-adv-x="980" d="M88 -90h805q23 -74 0 -148h-805q-18 74 0 148z" />
<glyph unicode="`" horiz-adv-x="516" d="M78 1743q8 24 53 59q45 34 74 39l231 -311q-10 -22 -42 -48t-58 -30z" />
<glyph unicode="a" d="M92 233q0 121 84 193t219 72q162 0 271 -95v89q0 202 -224 202q-132 0 -268 -84q-11 16 -11 67v9q2 62 11 82q116 82 305 82q377 0 377 -375v-475q-41 -9 -82.5 -9t-83.5 9l-12 94q-51 -54 -127 -89q-78 -36 -164 -36q-127 0 -211 72t-84 192zM283 246q0 -56 42 -93 q43 -38 115 -38q66 0 129 27q61 26 97 59v92q-30 28 -96 56q-67 28 -128 28q-76 0 -117 -37q-42 -38 -42 -94z" />
<glyph unicode="b" horiz-adv-x="1101" d="M133 0v1331q48 10 95.5 10.5t95.5 -10.5v-606q111 125 282 125q179 0 287 -126t108 -314q0 -189 -108 -315t-287 -126t-293 140l-12 -109q-42 -8 -84 -8zM326 244q100 -109 233 -109q113 0 182 76q70 78 70 199q0 120 -70 198q-69 76 -182 76q-133 0 -233 -109v-331z" />
<glyph unicode="c" d="M98 410q0 191 128 316q127 124 333 124q169 0 287 -90q9 -20 11 -84v-9q0 -52 -11 -67q-139 88 -268 88q-124 0 -207 -77q-82 -76 -82 -201q0 -126 82 -202q83 -77 207 -77q129 0 268 88q11 -15 11 -67v-9q-2 -64 -11 -84q-118 -90 -287 -90q-206 0 -333 124 q-128 125 -128 317z" />
<glyph unicode="d" horiz-adv-x="1101" d="M98 410q0 187 109 314q108 126 287 126q171 0 282 -125v606q48 10 95.5 10.5t95.5 -10.5v-1331q-41 -9 -82.5 -9t-83.5 9l-15 109q-111 -140 -292 -140q-179 0 -287 126q-109 127 -109 315zM291 410q0 -122 69 -199q69 -76 185 -76q131 0 231 109v331q-100 109 -231 109 q-116 0 -185 -76t-69 -198z" />
<glyph unicode="e" horiz-adv-x="1028" d="M98 412q0 190 123 314t318 124q145 0 244 -75t132 -180q20 -64 20 -126q0 -42 -9 -84h-633q6 -119 85 -186q80 -68 200 -68q137 0 276 88q11 -15 11 -67v-9q-2 -64 -11 -84q-114 -90 -297 -90q-206 0 -333 122q-126 121 -126 321zM303 489h449q0 95 -59 156 q-59 60 -152 60q-96 0 -160 -59q-63 -59 -78 -157z" />
<glyph unicode="f" horiz-adv-x="774" d="M80 657q-10 39 -10 80t10 82h127v266q0 133 80 205q79 72 198 72q117 0 209 -51q10 -23 12 -87v-9q0 -55 -12 -72q-94 57 -162 57q-135 0 -135 -151v-230h254q11 -41 11 -82t-11 -80h-254v-657q-48 -10 -95.5 -10t-94.5 10v657h-127z" />
<glyph unicode="g" horiz-adv-x="1099" d="M98 416q0 183 109 309q108 125 287 125q181 0 292 -139l15 108q42 9 83.5 9t82.5 -9v-792q0 -179 -111 -285q-112 -107 -305 -107q-203 0 -315 86q-11 23 -12 82v8q0 51 12 68q136 -86 276 -86q121 0 193 57q71 56 71 166v90q-111 -124 -282 -124q-179 0 -287 124 q-109 126 -109 310zM291 416q0 -120 70 -194q71 -75 184 -75q139 0 231 109v319q-100 109 -231 109q-113 0 -184 -75q-70 -74 -70 -193z" />
<glyph unicode="h" horiz-adv-x="1048" d="M137 0v1331q48 10 95.5 10.5t95.5 -10.5v-610q136 129 276 129q163 0 239 -93q77 -94 77 -233v-524q-48 -10 -96 -10t-97 10v483q0 201 -184 201q-115 0 -215 -106v-578q-48 -10 -95.5 -10t-95.5 10z" />
<glyph unicode="i" horiz-adv-x="522" d="M137 1149q0 51 37 85t90 34q51 0 88 -34t37 -85t-37 -85t-88 -34q-53 0 -90 34t-37 85zM166 0v819q48 10 95.5 10.5t94.5 -10.5v-819q-47 -10 -94.5 -10t-95.5 10z" />
<glyph unicode="j" horiz-adv-x="595" d="M9 -237v9q0 54 11 70q86 -45 144 -45q80 0 80 113v909q47 11 94.5 11t95.5 -11v-936q0 -122 -59 -184q-61 -64 -164 -64q-102 0 -191 43q-9 20 -11 85zM217 1145q0 49 36 83q35 34 87 34t87 -34q36 -34 36 -83t-36 -82t-87 -33t-87 33t-36 82z" />
<glyph unicode="k" horiz-adv-x="987" d="M137 0v1331q48 10 95.5 10.5t95.5 -10.5v-874l352 362q56 11 111.5 11t111.5 -11l-385 -393l397 -426q-56 -11 -111.5 -11t-111.5 11l-364 391v-391q-48 -10 -95.5 -10t-95.5 10z" />
<glyph unicode="l" horiz-adv-x="458" d="M137 0v1331q48 10 95.5 10.5t95.5 -10.5v-1331q-48 -10 -95.5 -10t-95.5 10z" />
<glyph unicode="m" horiz-adv-x="1624" d="M133 0v819q42 8 84 9l84 -9l12 -117q136 148 291 148q208 0 277 -168q145 168 309 168q155 0 230 -93t75 -233v-524q-48 -10 -95.5 -10t-94.5 10v483q0 95 -44 148t-133 53q-114 0 -219 -111v-573q-48 -10 -95.5 -10t-94.5 10v483q0 95 -44 148t-132 53q-114 0 -219 -111 v-573q-48 -10 -95.5 -10t-95.5 10z" />
<glyph unicode="n" horiz-adv-x="1050" d="M133 0v819q42 8 84 9l84 -9l12 -117q136 148 293 148q162 0 239 -93q77 -94 77 -233v-524q-48 -10 -96 -10t-97 10v483q0 96 -46 148q-47 53 -138 53q-116 0 -221 -111v-573q-48 -10 -95.5 -10t-95.5 10z" />
<glyph unicode="o" horiz-adv-x="1091" d="M98 410q0 186 127 313t320 127q194 0 321 -127t127 -313q0 -187 -127 -314t-321 -127q-193 0 -320 127t-127 314zM291 410q0 -120 73 -198q72 -77 183 -77t183 77q73 78 73 198q0 119 -73 197q-72 77 -183 77t-183 -77q-73 -78 -73 -197z" />
<glyph unicode="p" horiz-adv-x="1105" d="M137 -334v1153q42 9 84 9l84 -9l12 -108q114 139 293 139t287 -126q109 -127 109 -314q0 -188 -109 -315q-108 -126 -287 -126q-171 0 -282 125v-428q-48 -10 -95.5 -10t-95.5 10zM330 244q100 -109 233 -109q113 0 182 76q70 78 70 199q0 120 -70 198q-69 76 -182 76 q-133 0 -233 -109v-331z" />
<glyph unicode="q" horiz-adv-x="1101" d="M98 410q0 187 109 314q108 126 287 126q181 0 292 -139l15 108q42 9 83.5 9t82.5 -9v-1153q-48 -10 -95.5 -10t-95.5 10v428q-111 -125 -282 -125q-179 0 -287 126q-109 127 -109 315zM291 410q0 -122 69 -199q69 -76 185 -76q131 0 231 109v331q-100 109 -231 109 q-116 0 -185 -76t-69 -198z" />
<glyph unicode="r" horiz-adv-x="827" d="M133 0v819q42 8 84 9l84 -9l18 -157q113 188 277 188q94 0 149 -37q12 -17 12 -84v-11q-1 -80 -12 -102q-90 58 -178 58q-73 0 -138 -52q-67 -53 -105 -118v-504q-48 -10 -95.5 -10t-95.5 10z" />
<glyph unicode="s" horiz-adv-x="829" d="M84 592q0 120 91 189q92 69 233 69q77 0 161 -23q83 -23 127 -55q10 -22 12 -77v-7q0 -46 -12 -63q-150 98 -272 98q-62 0 -106 -29t-44 -78q0 -30 25 -53q24 -23 52 -35q19 -8 93 -32q24 -9 25 -9q137 -45 206 -102q68 -56 68 -160q0 -123 -97 -189q-99 -67 -236 -67 q-78 0 -165 23q-86 23 -130 55q-10 22 -12 77v7q0 46 12 64q156 -99 284 -99q64 0 109 27t45 78q0 57 -78 90q-32 14 -100 35l-17 6q-136 45 -204 100q-70 56 -70 160z" />
<glyph unicode="t" horiz-adv-x="768" d="M80 657q-10 40 -10 80.5t10 81.5h127v266q47 10 94.5 10.5t95.5 -10.5v-266h250q10 -42 10.5 -82.5t-10.5 -79.5h-250v-413q0 -113 86 -113q76 0 174 82q12 -17 12 -70v-8q-1 -61 -12 -84q-82 -82 -221 -82q-106 0 -168 64q-61 62 -61 184v440h-127z" />
<glyph unicode="u" horiz-adv-x="1044" d="M129 295v524q48 10 95.5 10.5t94.5 -10.5v-483q0 -95 47 -148t138 -53q116 0 221 111v573q48 10 96.5 10.5t96.5 -10.5v-819q-42 -8 -84 -8l-84 8l-15 117q-131 -148 -293 -148q-160 0 -236 93q-77 94 -77 233z" />
<glyph unicode="v" horiz-adv-x="1044" d="M70 819q50 10 100 10.5t100 -10.5l252 -569l250 569q50 10 101 10.5t102 -10.5l-373 -819q-40 -10 -80 -10l-80 10z" />
<glyph unicode="w" horiz-adv-x="1497" d="M70 819q51 10 101.5 10.5t100.5 -10.5l189 -563l207 563q40 12 80 11.5t79 -11.5l209 -563l187 563q51 10 101.5 10.5t100.5 -10.5l-309 -819q-40 -10 -79.5 -10t-78.5 10l-210 575l-209 -575q-40 -10 -80 -10l-80 10z" />
<glyph unicode="x" horiz-adv-x="1015" d="M70 0l309 426l-293 393q56 11 110 11t107 -11l211 -278l203 278q54 12 107 11.5t106 -11.5l-293 -393l309 -426q-54 -12 -108 -12t-109 12l-225 301l-221 -301q-54 -11 -107 -11t-106 11z" />
<glyph unicode="y" horiz-adv-x="1044" d="M70 819q50 11 100 11t100 -11l254 -545l248 545q50 11 101 11t102 -11l-543 -1153q-49 -10 -98 -10l-98 10l190 402z" />
<glyph unicode="z" horiz-adv-x="876" d="M80 0v18l432 635h-401q-8 42 -8 83.5t8 82.5h686v-18l-432 -635h421q9 -41 9 -82.5t-9 -83.5h-706z" />
<glyph unicode="{" horiz-adv-x="653" d="M78 535v32q73 31 99 61q23 26 28 72q30 354 184 631q94 18 184 0q-62 -127 -99 -244q-33 -106 -47 -177q-10 -51 -26 -183q-7 -62 -43 -102q-35 -39 -104 -74q69 -35 104 -74q36 -40 43 -102q17 -135 26 -184q14 -71 47 -177q36 -114 99 -243q-90 -18 -184 0 q-154 277 -184 630q-5 47 -28 73q-26 30 -99 61z" />
<glyph unicode="|" horiz-adv-x="282" d="M78 -123v1454q64 17 127 0v-1454q-63 -17 -127 0z" />
<glyph unicode="}" horiz-adv-x="653" d="M78 -229q62 128 100 245q36 111 47 173q11 57 27 186q8 63 42 102q36 40 103 74q-67 34 -103 74q-34 39 -42 102q-16 126 -27 185q-11 62 -47 173q-38 120 -100 246q94 18 184 0q157 -277 187 -631q2 -46 25 -72q26 -30 99 -61v-32q-73 -31 -99 -61q-23 -26 -25 -73 q-30 -353 -187 -630q-90 -18 -184 0z" />
<glyph unicode="~" horiz-adv-x="958" d="M88 391q-18 76 0 148q4 1 45 24q43 24 60 31t56 18t73 11q66 0 163 -51q95 -50 154 -50q24 0 52 5q19 3 54 18q44 19 45 19q26 13 46 24q31 17 34 18q22 -74 0 -147q-1 0 -6 -3t-17 -9.5t-22 -12.5q-46 -26 -59 -31q-17 -7 -56 -18q-36 -10 -73 -10q-69 0 -164 50 t-154 50q-24 0 -52 -5q-23 -4 -54 -17q-25 -11 -44 -20q-3 -1 -11 -5l-17 -8.5t-18 -9.5q-34 -19 -35 -19z" />
<glyph unicode="&#xa1;" horiz-adv-x="407" d="M78 893q0 51 37 85t90 34q51 0 88 -34t37 -85t-37 -85t-88 -34q-53 0 -90 34t-37 85zM98 -119l43 643q61 16 123 0l43 -643v-231q-102 -23 -209 0v231z" />
<glyph unicode="&#xa2;" horiz-adv-x="978" d="M98 410q0 184 117 305t307 133v192q39 21 76 0v-192q142 -7 248 -88q9 -20 11 -84q1 -60 -11 -76q-139 88 -268 88q-124 0 -207 -77q-82 -76 -82 -201q0 -126 82 -202q83 -77 207 -77q129 0 268 88q12 -16 11 -76q-2 -64 -11 -84q-106 -81 -248 -88v-192q-37 -21 -76 0 v192q-190 12 -307 133q-117 122 -117 306z" />
<glyph unicode="&#xa3;" horiz-adv-x="1189" d="M82 606q-21 39 0 76h145q-22 198 -22 279q0 167 119 284q118 117 331 117q228 0 363 -117q9 -22 11 -105q1 -81 -11 -98q-176 144 -348 144q-115 0 -184 -66q-68 -65 -68 -170q0 -106 26 -268h396q21 -37 0 -76h-381q30 -299 -60 -430h619q21 -88 0 -176h-868v20 q83 121 100 283q17 164 -10 303h-158z" />
<glyph unicode="&#xa4;" horiz-adv-x="788" d="M78 365l98 100q-53 72 -54 163t54 163l-98 100q15 38 53 53l98 -100q72 57 164 57q93 0 164 -55l100 98q42 -16 52 -53l-99 -98q56 -74 56 -166q0 -91 -56 -164l99 -96q-11 -41 -54 -56l-98 99q-74 -54 -164 -54q-91 0 -164 56l-98 -101q-41 15 -53 54zM237 630 q2 -66 48 -112q47 -46 111 -48q65 -2 112 44t46 111q-1 64 -48 114q-46 44 -113 46q-65 1 -110 -44q-47 -47 -46 -111z" />
<glyph unicode="&#xa5;" horiz-adv-x="1353" d="M72 1331q112 23 225 0l381 -647l379 647q46 8 111 8q66 0 114 -8l-475 -796h260q21 -37 0 -74h-285v-146h285q21 -38 0 -75h-285v-240q-106 -22 -211 0v240h-284q-21 37 0 75h284v146h-284q-21 37 0 74h258z" />
<glyph unicode="&#xa6;" horiz-adv-x="282" d="M78 -123v637q63 17 127 0v-637q-63 -17 -127 0zM78 694v637q64 17 127 0v-637q-63 -17 -127 0z" />
<glyph unicode="&#xa7;" horiz-adv-x="817" d="M78 475q0 132 127 199q-127 72 -127 192q0 121 91 190q90 68 232 68q81 0 162 -22q83 -23 127 -55q9 -20 11 -77q1 -54 -11 -71q-150 98 -272 98q-63 0 -106 -28q-44 -29 -44 -78q0 -30 25 -53q24 -23 52 -35q27 -12 93 -33q18 -7 25 -8q141 -46 208 -106q66 -59 66 -156 q0 -131 -119 -197q119 -72 119 -194q0 -123 -92 -192q-91 -69 -235 -69q-78 0 -162 23q-83 23 -127 55q-9 20 -11 77q-1 54 11 71q151 -99 274 -99q63 0 109 29q45 29 45 80q0 45 -37 69q-38 24 -127 54q-23 7 -31 10q-139 46 -209 105q-67 57 -67 153zM215 543 q0 -43 37 -76t71 -46q43 -17 113 -38q23 -7 31 -10l59 -23q78 22 78 84q0 43 -35 76t-73 48q-42 16 -109 38l-9 3q-1 1 -3.5 1.5t-3.5 0.5l-9 2q-2 1 -4.5 2t-3.5 1l-51 19q-88 -16 -88 -82z" />
<glyph unicode="&#xa8;" horiz-adv-x="901" d="M78 1638q0 51 37 85t90 34q51 0 88 -34t37 -85t-37 -85q-36 -33 -88 -33q-54 0 -90 33q-37 34 -37 85zM571 1638q0 51 37 85t90 34q51 0 88 -34t37 -85t-37 -85q-36 -33 -88 -33q-54 0 -90 33q-37 34 -37 85z" />
<glyph unicode="&#xa9;" horiz-adv-x="1271" d="M78 881q0 226 161 390q160 163 396 163t396 -163q161 -164 161 -390q0 -227 -161 -391q-159 -162 -396 -162t-396 162q-161 164 -161 391zM172 881q0 -194 133 -328q134 -135 332 -135q199 0 332 135q133 134 133 328q0 193 -133 327q-133 135 -332 135t-332 -135 q-133 -134 -133 -327zM350 879q0 126 83 207t218 81q114 0 189 -59q6 -14 7 -54q1 -38 -7 -50q-88 59 -176 59q-83 0 -136 -50t-53 -134q0 -83 53 -133t136 -50q86 0 176 58q8 -8 7 -49q-2 -42 -7 -56q-78 -57 -189 -57q-133 0 -217 81t-84 206z" />
<glyph unicode="&#xab;" horiz-adv-x="907" d="M78 444l254 320q76 16 149 0l-209 -320l209 -319q-76 -16 -149 0zM424 444l254 320q76 16 149 0l-209 -320l209 -319q-73 -16 -149 0z" />
<glyph unicode="&#xac;" horiz-adv-x="870" d="M88 477q-18 74 0 148h705v-353q-78 -21 -156 0v205h-549z" />
<glyph unicode="&#xad;" horiz-adv-x="739" d="M88 477q-18 74 0 148h563q23 -74 0 -148h-563z" />
<glyph unicode="&#xae;" horiz-adv-x="1271" d="M78 881q0 226 161 390q160 163 396 163t396 -163q161 -164 161 -390q0 -227 -161 -391q-159 -162 -396 -162t-396 162q-161 164 -161 391zM172 881q0 -194 133 -328q134 -135 332 -135q199 0 332 135q133 134 133 328q0 193 -133 327q-133 135 -332 135t-332 -135 q-133 -134 -133 -327zM403 610v543h291q90 0 143 -45q52 -45 52 -133q0 -121 -121 -154l160 -211q-70 -18 -140 0l-147 195h-113v-195q-62 -17 -125 0zM528 897h138q98 0 98 82t-98 82h-138v-164z" />
<glyph unicode="&#xaf;" horiz-adv-x="706" d="M88 1522q-18 72 0 145h530q22 -73 0 -147z" />
<glyph unicode="&#xb0;" horiz-adv-x="669" d="M78 1235q0 105 75 178q76 74 181 74t182 -74q76 -73 76 -178q0 -107 -75 -180q-76 -75 -183 -76q-106 0 -181 75t-75 181zM205 1235q0 -54 38 -92q37 -37 93 -37t93 37q38 38 38 92q0 53 -38 91t-93 38t-93 -38t-38 -91z" />
<glyph unicode="&#xb1;" horiz-adv-x="880" d="M88 201q-18 72 0 145h705q23 -74 0 -147zM88 608q-18 74 0 148h283v174q69 18 141 0v-174h281q23 -74 0 -148h-281v-174q-72 -18 -141 0v174h-283z" />
<glyph unicode="&#xb4;" horiz-adv-x="516" d="M78 1530l233 311q31 -5 73 -38q45 -36 52 -60l-258 -291q-26 4 -58 30t-42 48z" />
<glyph unicode="&#xb6;" horiz-adv-x="1232" d="M78 922q0 203 127 306t297 103h643q17 -62 0 -125h-135v-1540q-62 -17 -125 0v1540h-256v-1540q-63 -17 -127 0v862q-108 0 -200 36t-158 128t-66 230z" />
<glyph unicode="&#xb7;" horiz-adv-x="407" d="M78 512q0 51 37 85t90 34q51 0 88 -34t37 -85t-37 -85t-88 -34q-53 0 -90 34t-37 85z" />
<glyph unicode="&#xb8;" horiz-adv-x="491" d="M78 -346q0 35 10 49q68 -47 127 -47q45 0 71 22q27 22 27 62q0 56 -52 75t-118 -8v193h99v-117q63 6 118 -36q56 -42 56 -119q0 -74 -54 -122q-52 -46 -135 -46q-77 0 -139 41q-10 17 -10 53z" />
<glyph unicode="&#xbb;" horiz-adv-x="907" d="M78 125l211 319l-211 320q76 16 151 0l252 -320l-252 -319q-75 -16 -151 0zM424 125l211 319l-211 320q76 16 151 0l252 -320l-252 -319q-76 -16 -151 0z" />
<glyph unicode="&#xbc;" horiz-adv-x="1314" d="M78 1138q0 46 10 60l186 133q56 18 111 0v-635q-72 -18 -145 0v492l-152 -109q-10 11 -10 59zM262 0l631 1331q63 18 127 0l-631 -1331q-63 -18 -127 0zM715 121q-16 55 0 112l313 402q56 18 111 0v-402h88q16 -55 0 -112h-88v-121q-74 -18 -146 0v121h-278zM819 233h174 v228z" />
<glyph unicode="&#xbd;" horiz-adv-x="1370" d="M57 1138q0 42 9 60l186 133q55 18 110 0v-635q-72 -18 -145 0v492l-151 -109q-9 14 -9 59zM242 0l630 1331q63 18 127 0l-630 -1331q-63 -18 -127 0zM799 0v14q201 197 264 284q61 85 61 148q0 39 -31 69t-92 30q-81 0 -170 -72q-4 7 -4 66q0 58 4 69q73 58 193 58 q116 0 181 -62t65 -145q0 -79 -52 -150q-49 -67 -190 -188h254q18 -60 0 -121h-483z" />
<glyph unicode="&#xbe;" horiz-adv-x="1404" d="M79 791q-1 52 5 59q99 -72 190 -72q56 0 92 27q35 26 35 72q0 42 -30 69t-90 27h-78q-6 51 0 104h76q47 0 75 24q29 24 29 60q0 37 -31 63q-29 25 -82 25q-82 0 -180 -71q-6 6 -5 59q2 57 5 66q78 59 197 59q105 0 169 -53q62 -52 62 -129q0 -101 -94 -152 q113 -44 113 -166q0 -90 -69 -143q-70 -53 -177 -53q-130 0 -207 59q-3 9 -5 66zM352 0l631 1331q63 18 127 0l-631 -1331q-63 -18 -127 0zM805 121q-16 55 0 112l313 402q56 18 111 0v-402h88q16 -55 0 -112h-88v-121q-74 -18 -146 0v121h-278zM909 233h174v228z" />
<glyph unicode="&#xbf;" horiz-adv-x="999" d="M78 -27q0 112 57 181q56 67 195 170q60 42 77 58q21 19 37 55q17 37 17 91q102 23 209 0q0 -104 -35 -157q-36 -55 -133 -127q-92 -63 -126 -90q-33 -26 -61 -69q-26 -40 -26 -93q0 -85 65 -138q67 -55 178 -55q174 0 377 144q13 -19 12 -97q-1 -79 -12 -106 q-162 -117 -397 -117q-204 0 -319 103t-115 247zM440 897q0 51 36 85q35 34 89 34q53 0 90 -34t37 -85t-37 -85t-90 -34q-54 0 -89 34q-36 34 -36 85z" />
<glyph unicode="&#xc0;" horiz-adv-x="1425" d="M72 0l553 1331q86 18 176 0l553 -1331q-108 -23 -217 0l-136 334h-579l-133 -334q-109 -23 -217 0zM489 510h447l-223 553zM535 1743q8 24 53 59q45 34 74 39l231 -311q-11 -22 -42 -48q-32 -26 -58 -30z" />
<glyph unicode="&#xc1;" horiz-adv-x="1425" d="M72 0l553 1331q86 18 176 0l553 -1331q-108 -23 -217 0l-136 334h-579l-133 -334q-109 -23 -217 0zM489 510h447l-223 553zM535 1530l233 311q31 -5 73 -38q45 -36 52 -60l-258 -291q-26 4 -58 30q-31 26 -42 48z" />
<glyph unicode="&#xc2;" horiz-adv-x="1425" d="M72 0l553 1331q86 18 176 0l553 -1331q-108 -23 -217 0l-136 334h-579l-133 -334q-109 -23 -217 0zM401 1548l271 273q16 12 42 12q25 0 40 -12l270 -273q-7 -26 -45 -61t-61 -41l-205 207l-203 -207q-26 6 -63 41q-36 34 -46 61zM489 510h447l-223 553z" />
<glyph unicode="&#xc3;" horiz-adv-x="1425" d="M72 0l553 1331q86 18 176 0l553 -1331q-108 -23 -217 0l-136 334h-579l-133 -334q-109 -23 -217 0zM406 1516q-18 74 0 147l26 13q8 4 17.5 9.5t11.5 6.5q6 4 26 12q19 8 31 11t30 6t34 3q54 0 153 -45q56 -24 107 -24q58 0 176 61q22 -76 0 -147q-4 -1 -27 -14 q-8 -4 -17 -9t-11 -6q-4 -2 -27 -12q-19 -8 -31 -11q-26 -7 -29 -7q-18 -3 -34 -3q-55 0 -154 45q-58 25 -106 25q-58 0 -176 -61zM489 510h447l-223 553z" />
<glyph unicode="&#xc4;" horiz-adv-x="1425" d="M72 0l553 1331q86 18 176 0l553 -1331q-108 -23 -217 0l-136 334h-579l-133 -334q-109 -23 -217 0zM342 1638q0 51 37 85t90 34q51 0 88 -34t37 -85t-37 -85q-36 -33 -88 -33q-54 0 -90 33q-37 34 -37 85zM489 510h447l-223 553zM834 1638q0 52 36 85q37 34 91 34 q51 0 88 -34q36 -33 36 -85t-36 -85t-88 -33q-55 0 -91 33t-36 85z" />
<glyph unicode="&#xc5;" horiz-adv-x="1425" d="M72 0l553 1331q86 18 176 0l553 -1331q-108 -23 -217 0l-136 334h-579l-133 -334q-109 -23 -217 0zM489 510h447l-223 553zM526 1661q0 73 55 128q54 54 132 54q76 0 130 -54t54 -128q0 -77 -53 -132q-52 -54 -131 -54q-78 0 -132 54q-55 55 -55 132zM637 1661 q0 -30 21 -54t55 -24q33 0 54 24t21 54q0 31 -21 52q-22 22 -54 22q-33 0 -55 -22q-21 -21 -21 -52z" />
<glyph unicode="&#xc6;" horiz-adv-x="1703" d="M72 0l553 1331h985q18 -88 0 -176h-697v-389h631q21 -88 0 -176h-631v-414h697q18 -88 0 -176h-905v334h-283l-133 -334q-109 -23 -217 0zM489 510h216v532z" />
<glyph unicode="&#xc7;" horiz-adv-x="1445" d="M117 666q0 294 201 495t526 201q254 0 430 -117q9 -20 11 -100q1 -77 -11 -94q-201 135 -420 135q-225 0 -375 -147q-149 -146 -149 -373q0 -228 149 -374q150 -147 375 -147q218 0 420 136q12 -17 11 -95q-2 -80 -11 -100q-164 -108 -385 -115v-88q63 6 119 -36 q55 -42 55 -119q0 -75 -53 -122q-52 -46 -136 -46q-77 0 -139 41q-10 17 -10 53q0 35 10 49q68 -47 127 -47q45 0 71 22q28 23 28 62q0 55 -53 75q-51 19 -117 -8v164q-302 18 -488 216t-186 479z" />
<glyph unicode="&#xc8;" horiz-adv-x="1169" d="M168 0v1331h905q21 -88 0 -176h-696v-389h633q18 -88 0 -176h-633v-414h696q21 -88 0 -176h-905zM422 1743q8 24 53 59q45 34 74 39l231 -311q-10 -22 -42 -48t-58 -30z" />
<glyph unicode="&#xc9;" horiz-adv-x="1169" d="M168 0v1331h905q21 -88 0 -176h-696v-389h633q18 -88 0 -176h-633v-414h696q21 -88 0 -176h-905zM422 1530l233 311q31 -5 73 -38q45 -36 52 -60l-258 -291q-26 4 -58 30t-42 48z" />
<glyph unicode="&#xca;" horiz-adv-x="1169" d="M168 0v1331h905q21 -88 0 -176h-696v-389h633q18 -88 0 -176h-633v-414h696q21 -88 0 -176h-905zM289 1548l270 273q17 12 42 12t40 -12l270 -273q-7 -26 -45 -61t-61 -41l-205 207l-203 -207q-25 6 -62 41q-36 34 -46 61z" />
<glyph unicode="&#xcb;" horiz-adv-x="1169" d="M168 0v1331h905q21 -88 0 -176h-696v-389h633q18 -88 0 -176h-633v-414h696q21 -88 0 -176h-905zM246 1638q0 51 37 85t90 34q51 0 88 -34t37 -85t-37 -85q-36 -33 -88 -33q-54 0 -90 33q-37 34 -37 85zM737 1638q0 51 37 85t90 34q51 0 88 -34t37 -85t-37 -85 q-36 -33 -88 -33q-54 0 -90 33q-37 34 -37 85z" />
<glyph unicode="&#xcc;" horiz-adv-x="546" d="M94 1743q8 24 53 59q45 34 74 39l232 -311q-11 -22 -42 -48q-31 -25 -59 -30zM168 0v1331q107 23 209 0v-1331q-102 -23 -209 0z" />
<glyph unicode="&#xcd;" horiz-adv-x="546" d="M94 1530l234 311q30 -5 72 -38q47 -37 53 -60l-258 -291q-28 5 -59 30q-32 26 -42 48zM168 0v1331q107 23 209 0v-1331q-102 -23 -209 0z" />
<glyph unicode="&#xce;" horiz-adv-x="546" d="M-37 1548l270 273q17 12 41 12t41 -12l271 -273q-10 -27 -46 -61q-37 -35 -63 -41l-203 207l-204 -207q-24 6 -62 41t-45 61zM168 0v1331q107 23 209 0v-1331q-102 -23 -209 0z" />
<glyph unicode="&#xcf;" horiz-adv-x="546" d="M-98 1638q0 51 37 85t90 34q51 0 88 -34t37 -85t-37 -85q-36 -33 -88 -33q-54 0 -90 33q-37 34 -37 85zM168 0v1331q107 23 209 0v-1331q-102 -23 -209 0zM393 1638q0 51 37 85t90 34q51 0 88 -34t37 -85t-37 -85q-36 -33 -88 -33q-54 0 -90 33q-37 34 -37 85z" />
<glyph unicode="&#xd0;" horiz-adv-x="1454" d="M74 596q-18 73 0 145h94v590h463q325 0 516 -189q190 -189 190 -476q0 -288 -190 -477q-191 -189 -516 -189h-463v596h-94zM379 176h254q230 0 360 133q131 134 131 357q0 222 -131 356q-130 133 -360 133h-254v-414h258q23 -69 0 -147h-258v-418z" />
<glyph unicode="&#xd1;" horiz-adv-x="1468" d="M162 0v1331q84 17 168 0l770 -981v981q107 23 209 0v-1331q-84 -18 -166 0l-772 981v-981q-102 -23 -209 0zM428 1516q-18 74 0 147q2 1 27 13q4 3 9.5 5.5t8 4.5t5.5 3.5l5 2.5q4 2 27 12q20 8 31 11q14 3 29 6q18 3 34 3q55 0 154 -45q56 -24 106 -24q58 0 176 61 q22 -76 0 -147q-3 -1 -26 -14q-8 -5 -17.5 -9.5t-11.5 -5.5q-4 -2 -27 -12q-21 -9 -30 -11q-24 -6 -30 -7q-18 -3 -34 -3q-54 0 -153 45q-58 25 -107 25q-58 0 -176 -61z" />
<glyph unicode="&#xd2;" horiz-adv-x="1636" d="M117 666q0 294 196 494q197 202 504 202t504 -202t197 -494q0 -293 -197 -495t-504 -202t-504 202q-196 200 -196 495zM330 666q0 -228 139 -374q139 -147 348 -147t348 147q140 148 140 374q0 225 -140 373q-139 147 -348 147t-348 -147q-139 -146 -139 -373zM639 1743 q8 24 53 59q45 34 74 39l231 -311q-11 -22 -42 -48q-32 -26 -58 -30z" />
<glyph unicode="&#xd3;" horiz-adv-x="1636" d="M117 666q0 294 196 494q197 202 504 202t504 -202t197 -494q0 -293 -197 -495t-504 -202t-504 202q-196 200 -196 495zM330 666q0 -228 139 -374q139 -147 348 -147t348 147q140 148 140 374q0 225 -140 373q-139 147 -348 147t-348 -147q-139 -146 -139 -373zM639 1530 l233 311q31 -5 73 -38q45 -36 52 -60l-258 -291q-26 4 -58 30q-31 26 -42 48z" />
<glyph unicode="&#xd4;" horiz-adv-x="1636" d="M117 666q0 294 196 494q197 202 504 202t504 -202t197 -494q0 -293 -197 -495t-504 -202t-504 202q-196 200 -196 495zM330 666q0 -228 139 -374q139 -147 348 -147t348 147q140 148 140 374q0 225 -140 373q-139 147 -348 147t-348 -147q-139 -146 -139 -373zM506 1548 l270 273q16 12 42 12q25 0 40 -12l270 -273q-7 -26 -45 -61t-61 -41l-205 207l-203 -207q-25 6 -62 41q-36 34 -46 61z" />
<glyph unicode="&#xd5;" horiz-adv-x="1636" d="M117 666q0 294 196 494q197 202 504 202t504 -202t197 -494q0 -293 -197 -495t-504 -202t-504 202q-196 200 -196 495zM330 666q0 -228 139 -374q139 -147 348 -147t348 147q140 148 140 374q0 225 -140 373q-139 147 -348 147t-348 -147q-139 -146 -139 -373zM510 1516 q-18 74 0 147q2 1 27 13l28 16q4 2 27 12q19 8 31 11q14 3 29 6q18 3 34 3q55 0 154 -45q56 -24 106 -24q58 0 176 61q22 -76 0 -147q-3 -1 -26 -14q-8 -5 -17.5 -9.5t-11.5 -5.5q-4 -2 -27 -12q-21 -9 -30 -11q-24 -6 -30 -7q-18 -3 -34 -3q-54 0 -153 45q-58 25 -107 25 q-58 0 -176 -61z" />
<glyph unicode="&#xd6;" horiz-adv-x="1636" d="M117 666q0 294 196 494q197 202 504 202t504 -202t197 -494q0 -293 -197 -495t-504 -202t-504 202q-196 200 -196 495zM330 666q0 -228 139 -374q139 -147 348 -147t348 147q140 148 140 374q0 225 -140 373q-139 147 -348 147t-348 -147q-139 -146 -139 -373zM446 1638 q0 51 37 85t90 34q52 0 89 -34q36 -33 36 -85t-36 -85t-89 -33q-54 0 -90 33q-37 34 -37 85zM938 1638q0 51 37 85t90 34q51 0 88 -34t37 -85t-37 -85q-36 -33 -88 -33q-54 0 -90 33q-37 34 -37 85z" />
<glyph unicode="&#xd7;" horiz-adv-x="759" d="M78 352l196 199l-196 197q39 65 104 104l197 -197l199 197q65 -40 104 -104l-199 -197l197 -199q-37 -66 -102 -104l-199 198l-197 -196q-66 37 -104 102z" />
<glyph unicode="&#xd8;" horiz-adv-x="1636" d="M117 0l178 190q-178 196 -178 476q0 294 196 494q197 202 504 202q253 0 438 -143l107 112q78 23 156 0l-179 -190q179 -197 179 -475q0 -293 -197 -495t-504 -202q-252 0 -438 144l-107 -113q-78 -22 -155 0zM330 666q0 -194 102 -330l692 741q-129 109 -307 109 q-209 0 -348 -147q-139 -146 -139 -373zM510 254q132 -109 307 -109q209 0 348 147q140 148 140 374q0 189 -101 329z" />
<glyph unicode="&#xd9;" horiz-adv-x="1421" d="M168 528v803q106 23 213 0v-833q0 -162 89 -257q90 -96 245 -96q153 0 243 96q89 95 89 257v833q108 23 213 0v-803q0 -273 -144 -416q-145 -143 -401 -143q-259 0 -404 143q-143 142 -143 416zM532 1743q7 23 54 59q45 35 73 39l232 -311q-11 -22 -42 -48 q-32 -26 -58 -30z" />
<glyph unicode="&#xda;" horiz-adv-x="1421" d="M168 528v803q106 23 213 0v-833q0 -162 89 -257q90 -96 245 -96q153 0 243 96q89 95 89 257v833q108 23 213 0v-803q0 -273 -144 -416q-145 -143 -401 -143q-259 0 -404 143q-143 142 -143 416zM532 1530l234 311q31 -5 73 -38q45 -36 52 -60l-258 -291q-28 5 -59 30 q-32 26 -42 48z" />
<glyph unicode="&#xdb;" horiz-adv-x="1421" d="M168 528v803q106 23 213 0v-833q0 -162 89 -257q90 -96 245 -96q153 0 243 96q89 95 89 257v833q108 23 213 0v-803q0 -273 -144 -416q-145 -143 -401 -143q-259 0 -404 143q-143 142 -143 416zM399 1548l271 273q16 12 41 12t41 -12l270 -273q-7 -26 -45 -61t-62 -41 l-204 207l-203 -207q-26 6 -63 41q-36 34 -46 61z" />
<glyph unicode="&#xdc;" horiz-adv-x="1421" d="M168 528v803q106 23 213 0v-833q0 -162 89 -257q90 -96 245 -96q153 0 243 96q89 95 89 257v833q108 23 213 0v-803q0 -273 -144 -416q-145 -143 -401 -143q-259 0 -404 143q-143 142 -143 416zM340 1638q0 51 37 85t90 34q51 0 88 -34t37 -85t-37 -85q-36 -33 -88 -33 q-54 0 -90 33q-37 34 -37 85zM834 1638q0 52 36 85q37 34 91 34q51 0 88 -34q36 -33 36 -85t-36 -85t-88 -33q-55 0 -91 33t-36 85z" />
<glyph unicode="&#xdd;" horiz-adv-x="1353" d="M72 1331q112 23 225 0l381 -647l379 647q46 8 111 8q66 0 114 -8l-500 -844v-487q-106 -22 -211 0v487zM498 1530l233 311q31 -5 73 -38q45 -36 52 -60l-258 -291q-26 4 -58 30t-42 48z" />
<glyph unicode="&#xde;" horiz-adv-x="1269" d="M168 0v1331q107 23 209 0v-180h280q230 0 362 -123t132 -311q0 -191 -132 -314q-131 -122 -362 -122h-280v-281q-102 -23 -209 0zM379 457h280q135 0 207 71q74 72 74 189q0 116 -74 188t-207 72h-280v-520z" />
<glyph unicode="&#xdf;" horiz-adv-x="1187" d="M129 0v848q0 241 138 377q139 137 358 137q197 0 316 -108q118 -108 118 -265q0 -103 -52 -182q-53 -80 -145 -119q118 -44 180 -132q62 -89 62 -208q0 -167 -116 -274t-308 -107q-167 0 -283 76q-12 27 -12 93t12 83q97 -86 248 -86q116 0 192 64q74 62 74 170 q0 104 -71 165q-73 62 -199 62h-125q-18 82 0 166h121q102 0 165 59q64 60 64 158q0 100 -65 159q-66 60 -180 60q-140 0 -221 -94t-81 -260v-842q-94 -21 -190 0z" />
<glyph unicode="&#xe0;" d="M92 233q0 121 84 193t219 72q162 0 271 -95v89q0 202 -224 202q-132 0 -268 -84q-12 17 -11 76q2 62 11 82q116 82 305 82q377 0 377 -375v-475q-82 -18 -166 0l-12 94q-51 -54 -127 -89q-78 -36 -164 -36q-127 0 -211 72t-84 192zM283 246q0 -56 42 -93q43 -38 115 -38 q66 0 129 27q61 26 97 59v92q-30 28 -96 56q-67 28 -128 28q-76 0 -117 -37q-42 -38 -42 -94zM311 1231q7 23 54 59q45 35 73 39l232 -311q-10 -22 -42 -48q-31 -25 -59 -30z" />
<glyph unicode="&#xe1;" d="M92 233q0 121 84 193t219 72q162 0 271 -95v89q0 202 -224 202q-132 0 -268 -84q-12 17 -11 76q2 62 11 82q116 82 305 82q377 0 377 -375v-475q-82 -18 -166 0l-12 94q-51 -54 -127 -89q-78 -36 -164 -36q-127 0 -211 72t-84 192zM283 246q0 -56 42 -93q43 -38 115 -38 q66 0 129 27q61 26 97 59v92q-30 28 -96 56q-67 28 -128 28q-76 0 -117 -37q-42 -38 -42 -94zM311 1018l234 311q30 -5 72 -38q47 -37 53 -60l-258 -291q-28 5 -59 30q-31 26 -42 48z" />
<glyph unicode="&#xe2;" d="M92 233q0 121 84 193t219 72q162 0 271 -95v89q0 202 -224 202q-132 0 -268 -84q-12 17 -11 76q2 62 11 82q116 82 305 82q377 0 377 -375v-475q-82 -18 -166 0l-12 94q-51 -54 -127 -89q-78 -36 -164 -36q-127 0 -211 72t-84 192zM180 1036l271 273q17 12 41 12t40 -12 l271 -273q-7 -26 -45 -61t-62 -41l-204 207l-203 -207q-26 6 -63 41q-36 34 -46 61zM283 246q0 -56 42 -93q43 -38 115 -38q66 0 129 27q61 26 97 59v92q-30 28 -96 56q-67 28 -128 28q-76 0 -117 -37q-42 -38 -42 -94z" />
<glyph unicode="&#xe3;" d="M92 233q0 121 84 193t219 72q162 0 271 -95v89q0 202 -224 202q-132 0 -268 -84q-12 17 -11 76q2 62 11 82q116 82 305 82q377 0 377 -375v-475q-82 -18 -166 0l-12 94q-51 -54 -127 -89q-78 -36 -164 -36q-127 0 -211 72t-84 192zM188 1004q-18 74 0 147q2 1 27 13 q8 4 17.5 9.5t11.5 6.5q6 4 26 12t31 11q12 3 30 6t34 3q54 0 153 -45q56 -24 107 -24q58 0 176 61q22 -76 0 -147q-4 -1 -27 -14q-8 -5 -17.5 -9.5t-11.5 -5.5q-6 -4 -26 -12t-31 -11q-24 -6 -30 -7q-18 -3 -33 -3q-55 0 -154 45q-58 25 -106 25q-59 0 -177 -61zM283 246 q0 -56 42 -93q43 -38 115 -38q66 0 129 27q61 26 97 59v92q-30 28 -96 56q-67 28 -128 28q-76 0 -117 -37q-42 -38 -42 -94z" />
<glyph unicode="&#xe4;" d="M92 233q0 121 84 193t219 72q162 0 271 -95v89q0 202 -224 202q-132 0 -268 -84q-12 17 -11 76q2 62 11 82q116 82 305 82q377 0 377 -375v-475q-82 -18 -166 0l-12 94q-51 -54 -127 -89q-78 -36 -164 -36q-127 0 -211 72t-84 192zM119 1126q0 51 37 85t90 34 q51 0 88 -34t37 -85t-37 -85q-36 -33 -88 -33q-54 0 -90 33q-37 34 -37 85zM283 246q0 -56 42 -93q43 -38 115 -38q66 0 129 27q61 26 97 59v92q-30 28 -96 56q-67 28 -128 28q-76 0 -117 -37q-42 -38 -42 -94zM612 1126q0 51 37 85t90 34q51 0 88 -34t37 -85t-37 -85 q-36 -33 -88 -33q-54 0 -90 33q-37 34 -37 85z" />
<glyph unicode="&#xe5;" d="M92 233q0 121 84 193t219 72q162 0 271 -95v89q0 202 -224 202q-132 0 -268 -84q-12 17 -11 76q2 62 11 82q116 82 305 82q377 0 377 -375v-475q-82 -18 -166 0l-12 94q-51 -54 -127 -89q-78 -36 -164 -36q-127 0 -211 72t-84 192zM283 246q0 -56 42 -93q43 -38 115 -38 q66 0 129 27q61 26 97 59v92q-30 28 -96 56q-67 28 -128 28q-76 0 -117 -37q-42 -38 -42 -94zM305 1149q0 74 54 128t133 54q76 0 130 -54t54 -128q0 -77 -53 -132q-53 -54 -131 -54q-79 0 -133 54t-54 132zM416 1149q0 -30 21 -54t55 -24q33 0 54 24t21 54q0 31 -21 52 q-22 22 -54 22q-33 0 -55 -22q-21 -21 -21 -52z" />
<glyph unicode="&#xe6;" horiz-adv-x="1593" d="M92 233q0 121 84 193t219 72q162 0 269 -92l2 86q0 202 -224 202q-132 0 -268 -84q-12 17 -11 76q2 62 11 82q116 82 305 82q226 0 305 -154q107 154 318 154q215 0 320 -149q106 -149 67 -316h-633q7 -118 86 -186t199 -68q139 0 278 88q13 -17 12 -76q-1 -61 -12 -84 q-119 -90 -297 -90q-204 0 -311 131l-4 -100q-57 -21 -117 0l-12 94q-51 -54 -127 -89q-78 -36 -164 -36q-127 0 -211 72t-84 192zM283 246q0 -56 42 -93q43 -38 115 -38q66 0 129 27q61 26 97 59v92q-30 28 -96 56q-67 28 -128 28q-76 0 -117 -37q-42 -38 -42 -94zM868 489 h449q0 95 -59 156q-58 60 -152 60q-96 0 -160 -59q-63 -59 -78 -157z" />
<glyph unicode="&#xe7;" d="M98 410q0 191 128 316q127 124 333 124q169 0 287 -90q9 -20 11 -84q1 -60 -11 -76q-139 88 -268 88q-124 0 -207 -77q-82 -76 -82 -201q0 -126 82 -202q83 -77 207 -77q129 0 268 88q12 -16 11 -76q-2 -64 -11 -84q-108 -84 -266 -90v-86q63 6 118 -36q56 -42 56 -119 q0 -74 -54 -122q-52 -46 -135 -46q-77 0 -139 41q-8 19 -8 53q0 33 8 49q68 -47 127 -47q45 0 71 22q27 22 27 62q0 56 -52 75t-118 -8v168q-172 22 -278 142q-105 119 -105 293z" />
<glyph unicode="&#xe8;" horiz-adv-x="1030" d="M98 412q0 190 123 314t318 124q145 0 244 -75t132 -180q33 -106 11 -210h-633q6 -119 85 -186q80 -68 200 -68q137 0 276 88q12 -16 11 -76q-2 -64 -11 -84q-114 -90 -297 -90q-206 0 -333 122q-126 121 -126 321zM303 489h449q0 95 -59 156q-59 60 -152 60 q-96 0 -160 -59q-63 -59 -78 -157zM350 1231q8 24 53 59q45 34 74 39l232 -311q-11 -22 -42 -48q-31 -25 -59 -30z" />
<glyph unicode="&#xe9;" horiz-adv-x="1030" d="M98 412q0 190 123 314t318 124q145 0 244 -75t132 -180q33 -106 11 -210h-633q6 -119 85 -186q80 -68 200 -68q137 0 276 88q12 -16 11 -76q-2 -64 -11 -84q-114 -90 -297 -90q-206 0 -333 122q-126 121 -126 321zM303 489h449q0 95 -59 156q-59 60 -152 60 q-96 0 -160 -59q-63 -59 -78 -157zM350 1018l234 311q30 -5 72 -38q47 -37 53 -60l-258 -291q-28 5 -59 30q-32 26 -42 48z" />
<glyph unicode="&#xea;" horiz-adv-x="1030" d="M98 412q0 190 123 314t318 124q145 0 244 -75t132 -180q33 -106 11 -210h-633q6 -119 85 -186q80 -68 200 -68q137 0 276 88q12 -16 11 -76q-2 -64 -11 -84q-114 -90 -297 -90q-206 0 -333 122q-126 121 -126 321zM217 1036l270 273q17 12 41 12t41 -12l271 -273 q-7 -26 -45 -61t-62 -41l-205 207l-202 -207q-26 6 -63 41q-36 34 -46 61zM303 489h449q0 95 -59 156q-59 60 -152 60q-96 0 -160 -59q-63 -59 -78 -157z" />
<glyph unicode="&#xeb;" horiz-adv-x="1030" d="M98 412q0 190 123 314t318 124q145 0 244 -75t132 -180q33 -106 11 -210h-633q6 -119 85 -186q80 -68 200 -68q137 0 276 88q12 -16 11 -76q-2 -64 -11 -84q-114 -90 -297 -90q-206 0 -333 122q-126 121 -126 321zM158 1126q0 51 37 85t90 34q51 0 88 -34t37 -85t-37 -85 q-36 -33 -88 -33q-54 0 -90 33q-37 34 -37 85zM303 489h449q0 95 -59 156q-59 60 -152 60q-96 0 -160 -59q-63 -59 -78 -157zM651 1126q0 51 37 85t90 34q51 0 88 -34t37 -85t-37 -85q-36 -33 -88 -33q-54 0 -90 33q-37 34 -37 85z" />
<glyph unicode="&#xec;" horiz-adv-x="462" d="M55 1231q7 23 54 59q45 35 73 39l232 -311q-10 -22 -42 -48q-31 -25 -59 -30zM137 0v819q96 21 191 0v-819q-95 -21 -191 0z" />
<glyph unicode="&#xed;" horiz-adv-x="462" d="M55 1018l234 311q30 -5 72 -38q47 -37 53 -60l-258 -291q-28 5 -59 30q-31 26 -42 48zM137 0v819q96 21 191 0v-819q-95 -21 -191 0z" />
<glyph unicode="&#xee;" horiz-adv-x="462" d="M-78 1036l271 273q17 12 41 12q25 0 40 -12l273 -273q-10 -27 -46 -61q-37 -35 -63 -41l-205 207l-202 -207q-26 6 -63 41q-36 34 -46 61zM137 0v819q96 21 191 0v-819q-95 -21 -191 0z" />
<glyph unicode="&#xef;" horiz-adv-x="462" d="M-137 1126q0 50 36 85q35 34 89 34t89 -34q36 -35 36 -85t-36 -85q-34 -33 -89 -33t-89 33q-36 35 -36 85zM137 0v819q96 21 191 0v-819q-95 -21 -191 0zM354 1126q0 51 37 85t90 34q51 0 88 -34t37 -85t-37 -85q-36 -33 -88 -33q-54 0 -90 33q-37 34 -37 85z" />
<glyph unicode="&#xf0;" horiz-adv-x="1060" d="M92 412q0 179 107 303q107 123 284 123q160 0 277 -117q-49 171 -197 289l-231 -138q-21 60 0 117l137 82q-112 62 -248 86q-9 20 -11 90q-1 67 11 84q236 -28 416 -160l201 119q21 -57 0 -116l-119 -72q242 -231 242 -590v-61q0 -223 -119 -353q-118 -129 -312 -129 q-188 0 -313 125t-125 318zM285 406q0 -122 71 -196q72 -75 174 -75q107 0 175 71q67 70 67 208v61q0 53 -6 90q-38 40 -102 73q-65 34 -136 34q-105 0 -175 -73q-68 -71 -68 -193z" />
<glyph unicode="&#xf1;" horiz-adv-x="1050" d="M133 0v819q84 17 168 0l12 -117q136 148 293 148q162 0 239 -93q77 -94 77 -233v-524q-96 -21 -193 0v483q0 96 -46 148q-47 53 -138 53q-116 0 -221 -111v-573q-95 -21 -191 0zM217 1004q-18 74 0 147q2 1 27 13q4 3 9.5 5.5t8 4.5t5.5 3.5l5 2.5q4 2 27 12q20 8 31 11 q14 3 29 6q18 3 34 3q55 0 154 -45q55 -24 106 -24q58 0 176 61q22 -76 0 -147q-3 -1 -26 -14q-8 -5 -17.5 -9.5t-11.5 -5.5q-6 -4 -26 -12t-31 -11q-24 -6 -30 -7q-18 -3 -34 -3q-54 0 -153 45q-58 25 -107 25q-58 0 -176 -61z" />
<glyph unicode="&#xf2;" horiz-adv-x="1091" d="M98 410q0 186 127 313t320 127q194 0 321 -127t127 -313q0 -187 -127 -314t-321 -127q-193 0 -320 127t-127 314zM291 410q0 -120 73 -198q72 -77 183 -77t183 77q73 78 73 198q0 119 -73 197q-72 77 -183 77t-183 -77q-73 -78 -73 -197zM367 1231q8 24 53 59 q45 34 74 39l231 -311q-11 -22 -42 -48q-32 -26 -58 -30z" />
<glyph unicode="&#xf3;" horiz-adv-x="1091" d="M98 410q0 186 127 313t320 127q194 0 321 -127t127 -313q0 -187 -127 -314t-321 -127q-193 0 -320 127t-127 314zM291 410q0 -120 73 -198q72 -77 183 -77t183 77q73 78 73 198q0 119 -73 197q-72 77 -183 77t-183 -77q-73 -78 -73 -197zM367 1018l233 311q31 -5 73 -38 q45 -36 52 -60l-258 -291q-26 4 -58 30q-31 26 -42 48z" />
<glyph unicode="&#xf4;" horiz-adv-x="1091" d="M98 410q0 186 127 313t320 127q194 0 321 -127t127 -313q0 -187 -127 -314t-321 -127q-193 0 -320 127t-127 314zM233 1036l271 273q16 12 41 12t41 -12l270 -273q-7 -26 -45 -61t-61 -41l-205 207l-203 -207q-25 6 -62 41q-37 36 -47 61zM291 410q0 -120 73 -198 q72 -77 183 -77t183 77q73 78 73 198q0 119 -73 197q-72 77 -183 77t-183 -77q-73 -78 -73 -197z" />
<glyph unicode="&#xf5;" horiz-adv-x="1091" d="M98 410q0 186 127 313t320 127q194 0 321 -127t127 -313q0 -187 -127 -314t-321 -127q-193 0 -320 127t-127 314zM238 1004q-18 74 0 147l26 13q8 4 17.5 9.5t11.5 6.5q6 4 26 12q19 8 31 11t30 6t34 3q54 0 153 -45q56 -24 107 -24q58 0 176 61q22 -76 0 -147 q-4 -1 -27 -14q-8 -4 -17 -9t-11 -6q-4 -2 -27 -12q-19 -8 -31 -11q-26 -7 -29 -7q-18 -3 -34 -3q-55 0 -154 45q-58 25 -106 25q-58 0 -176 -61zM291 410q0 -120 73 -198q72 -77 183 -77t183 77q73 78 73 198q0 119 -73 197q-72 77 -183 77t-183 -77q-73 -78 -73 -197z" />
<glyph unicode="&#xf6;" horiz-adv-x="1091" d="M98 410q0 186 127 313t320 127q194 0 321 -127t127 -313q0 -187 -127 -314t-321 -127q-193 0 -320 127t-127 314zM174 1126q0 51 37 85t90 34q51 0 88 -34t37 -85t-37 -85q-36 -33 -88 -33q-54 0 -90 33q-37 34 -37 85zM291 410q0 -120 73 -198q72 -77 183 -77t183 77 q73 78 73 198q0 119 -73 197q-72 77 -183 77t-183 -77q-73 -78 -73 -197zM668 1126q0 51 37 85t90 34q51 0 88 -34t37 -85t-37 -85q-36 -33 -88 -33q-54 0 -90 33q-37 34 -37 85z" />
<glyph unicode="&#xf7;" horiz-adv-x="880" d="M88 477q-18 74 0 148h705q23 -74 0 -148h-705zM315 268q0 51 37 85t90 34q51 0 88 -34t37 -85t-37 -85q-36 -33 -88 -33q-54 0 -90 33q-37 34 -37 85zM315 831q0 53 37 87t90 34q51 0 88 -34t37 -87q0 -49 -37 -83q-38 -35 -88 -35q-54 0 -90 33q-37 34 -37 85z" />
<glyph unicode="&#xf8;" horiz-adv-x="1091" d="M98 0l107 117q-107 124 -107 293q0 186 127 313t320 127q145 0 258 -74l39 43q76 22 151 0l-106 -117q106 -122 106 -292q0 -187 -127 -314t-321 -127q-143 0 -256 74l-39 -43q-76 -22 -152 0zM291 410q0 -86 39 -154l354 389q-62 39 -137 39q-111 0 -183 -77 q-73 -78 -73 -197zM408 174q61 -39 139 -39q111 0 183 77q73 78 73 198q0 82 -41 155z" />
<glyph unicode="&#xf9;" horiz-adv-x="1044" d="M129 295v524q96 21 190 0v-483q0 -95 47 -148t138 -53q116 0 221 111v573q97 21 193 0v-819q-84 -16 -168 0l-15 117q-131 -148 -293 -148q-160 0 -236 93q-77 94 -77 233zM344 1231q8 24 53 59q45 34 74 39l231 -311q-10 -22 -42 -48t-58 -30z" />
<glyph unicode="&#xfa;" horiz-adv-x="1044" d="M129 295v524q96 21 190 0v-483q0 -95 47 -148t138 -53q116 0 221 111v573q97 21 193 0v-819q-84 -16 -168 0l-15 117q-131 -148 -293 -148q-160 0 -236 93q-77 94 -77 233zM344 1018l234 311q30 -5 72 -38q45 -36 52 -60l-258 -291q-26 4 -58 30t-42 48z" />
<glyph unicode="&#xfb;" horiz-adv-x="1044" d="M129 295v524q96 21 190 0v-483q0 -95 47 -148t138 -53q116 0 221 111v573q97 21 193 0v-819q-84 -16 -168 0l-15 117q-131 -148 -293 -148q-160 0 -236 93q-77 94 -77 233zM211 1036l270 273q17 12 42 12t40 -12l271 -273q-7 -25 -46 -61q-38 -35 -61 -41l-205 207 l-203 -207q-25 6 -62 41q-36 34 -46 61z" />
<glyph unicode="&#xfc;" horiz-adv-x="1044" d="M129 295v524q96 21 190 0v-483q0 -95 47 -148t138 -53q116 0 221 111v573q97 21 193 0v-819q-84 -16 -168 0l-15 117q-131 -148 -293 -148q-160 0 -236 93q-77 94 -77 233zM152 1126q0 52 36 85q37 34 91 34q51 0 88 -34q36 -33 36 -85t-36 -85t-88 -33q-55 0 -91 33 t-36 85zM643 1126q0 51 37 85t90 34q51 0 88 -34t37 -85t-37 -85q-36 -33 -88 -33q-54 0 -90 33q-37 34 -37 85z" />
<glyph unicode="&#xfd;" horiz-adv-x="1044" d="M70 819q101 21 200 0l254 -545l248 545q101 21 203 0l-543 -1153q-98 -21 -196 0l190 402zM344 1018l234 311q30 -5 72 -38q45 -36 52 -60l-258 -291q-26 4 -58 30t-42 48z" />
<glyph unicode="&#xfe;" horiz-adv-x="1105" d="M137 -334v1665q96 21 191 0v-606q113 125 282 125q179 0 287 -126q109 -127 109 -314q0 -188 -109 -315q-108 -126 -287 -126q-171 0 -282 125v-428q-95 -21 -191 0zM330 244q100 -109 233 -109q113 0 182 76q70 78 70 199q0 120 -70 198q-69 76 -182 76 q-133 0 -233 -109v-331z" />
<glyph unicode="&#xff;" horiz-adv-x="1044" d="M70 819q101 21 200 0l254 -545l248 545q101 21 203 0l-543 -1153q-98 -21 -196 0l190 402zM152 1126q0 52 36 85q37 34 91 34q51 0 88 -34q36 -33 36 -85t-36 -85t-88 -33q-55 0 -91 33t-36 85zM643 1126q0 51 37 85t90 34q51 0 88 -34t37 -85t-37 -85q-36 -33 -88 -33 q-54 0 -90 33q-37 34 -37 85z" />
<glyph unicode="&#x152;" horiz-adv-x="2310" d="M117 666q0 294 196 494q197 202 504 202q157 0 286 -67q128 -66 206 -179v215h905q21 -88 0 -176h-696v-389h632q18 -88 0 -176h-632v-414h696q21 -88 0 -176h-905v215q-78 -113 -206 -179q-129 -67 -286 -67q-307 0 -504 202q-196 200 -196 495zM330 666 q0 -228 139 -374q139 -147 348 -147t348 147q140 148 140 374q0 227 -140 375q-139 147 -348 147t-348 -147q-139 -146 -139 -375z" />
<glyph unicode="&#x153;" horiz-adv-x="1732" d="M98 410q0 186 127 313t320 127q112 0 206 -50q92 -49 144 -136q113 186 346 186q146 0 245 -75t132 -180q33 -104 10 -210h-633q6 -119 85 -186q80 -68 200 -68q137 0 276 88q13 -17 12 -76q-2 -61 -12 -84q-114 -90 -296 -90q-124 0 -218 49q-94 50 -147 138 q-54 -88 -145 -137q-92 -50 -205 -50q-193 0 -320 127t-127 314zM291 410q0 -120 73 -198q72 -77 183 -77t183 77q73 78 73 198q0 119 -73 197q-72 77 -183 77t-183 -77q-73 -78 -73 -197zM1006 489h448q0 97 -58 156q-58 60 -153 60q-96 0 -160 -59q-62 -58 -77 -157z" />
<glyph unicode="&#x178;" horiz-adv-x="1353" d="M72 1331q112 23 225 0l381 -647l379 647q46 8 111 8q66 0 114 -8l-500 -844v-487q-106 -22 -211 0v487zM305 1638q0 51 37 85t90 34q51 0 88 -34t37 -85t-37 -85q-36 -33 -88 -33q-54 0 -90 33q-37 34 -37 85zM799 1638q0 51 37 85t90 34q51 0 88 -34t37 -85t-37 -85 q-36 -33 -88 -33q-54 0 -90 33q-37 34 -37 85z" />
<glyph unicode="&#x2c6;" horiz-adv-x="780" d="M78 1548l270 273q17 12 41 12q25 0 41 -12l270 -273q-7 -26 -45 -61t-61 -41l-205 207l-203 -207q-25 6 -62 41q-36 34 -46 61z" />
<glyph unicode="&#x2dc;" horiz-adv-x="788" d="M88 1516q-18 74 0 147q2 1 27 13q4 3 9.5 5.5t8 4.5t5.5 3.5l5 2.5q4 2 27 12q20 8 31 11q14 3 29 6q18 3 34 3q55 0 154 -45q55 -24 106 -24q58 0 176 61q22 -76 0 -147q-3 -1 -26 -14q-8 -5 -17.5 -9.5t-11.5 -5.5q-4 -2 -27 -12q-21 -9 -30 -11q-24 -6 -30 -7 q-18 -3 -34 -3q-54 0 -153 45q-58 25 -107 25q-58 0 -176 -61z" />
<glyph unicode="&#x2000;" horiz-adv-x="921" />
<glyph unicode="&#x2001;" horiz-adv-x="1843" />
<glyph unicode="&#x2002;" horiz-adv-x="921" />
<glyph unicode="&#x2003;" horiz-adv-x="1843" />
<glyph unicode="&#x2004;" horiz-adv-x="614" />
<glyph unicode="&#x2005;" horiz-adv-x="460" />
<glyph unicode="&#x2006;" horiz-adv-x="307" />
<glyph unicode="&#x2007;" horiz-adv-x="307" />
<glyph unicode="&#x2008;" horiz-adv-x="230" />
<glyph unicode="&#x2009;" horiz-adv-x="368" />
<glyph unicode="&#x200a;" horiz-adv-x="102" />
<glyph unicode="&#x2010;" horiz-adv-x="739" d="M88 477q-18 74 0 148h563q23 -74 0 -148h-563z" />
<glyph unicode="&#x2011;" horiz-adv-x="739" d="M88 477q-18 74 0 148h563q23 -74 0 -148h-563z" />
<glyph unicode="&#x2012;" horiz-adv-x="739" d="M88 477q-18 74 0 148h563q23 -74 0 -148h-563z" />
<glyph unicode="&#x2013;" horiz-adv-x="1032" d="M88 477q-18 74 0 148h856q23 -74 0 -148h-856z" />
<glyph unicode="&#x2014;" horiz-adv-x="1261" d="M88 477q-18 74 0 148h1086q23 -74 0 -148h-1086z" />
<glyph unicode="&#x2018;" horiz-adv-x="423" d="M80 981q-5 92 44 204q48 112 93 146q53 15 109 0q-104 -104 -138 -268q21 4 31 4q52 0 87 -34q36 -34 36 -85q0 -50 -36 -85q-35 -34 -89 -34t-95 38q-40 37 -42 114z" />
<glyph unicode="&#x2019;" horiz-adv-x="423" d="M80 1241q0 52 37 86q38 35 90 35q53 0 94 -38q42 -38 43 -114q2 -95 -46 -205q-49 -112 -93 -145q-53 -15 -109 0q52 51 90 129q36 75 47 137q-14 -2 -30 -2q-52 0 -87 34q-36 34 -36 83z" />
<glyph unicode="&#x201a;" horiz-adv-x="423" d="M80 88q0 51 37 85t90 34t94 -38q42 -38 43 -114q2 -96 -46 -206q-48 -111 -93 -144q-53 -15 -109 0q52 52 90 130q36 73 47 138q-19 -4 -30 -4q-52 0 -87 34q-36 34 -36 85z" />
<glyph unicode="&#x201c;" horiz-adv-x="765" d="M80 981q-5 92 44 204q48 112 93 146q53 15 109 0q-104 -104 -138 -268q21 4 31 4q52 0 87 -34q36 -34 36 -85q0 -50 -36 -85q-35 -34 -89 -34t-95 38q-40 37 -42 114zM422 981q-5 92 44 204q48 112 93 146q53 15 109 0q-104 -104 -138 -268q21 4 31 4q52 0 87 -34 q36 -34 36 -85q0 -50 -36 -85q-35 -34 -89 -34t-95 38q-40 37 -42 114z" />
<glyph unicode="&#x201d;" horiz-adv-x="765" d="M80 1241q0 52 37 86q38 35 90 35q53 0 94 -38q42 -38 43 -114q2 -95 -46 -205q-49 -112 -93 -145q-53 -15 -109 0q52 51 90 129q36 75 47 137q-14 -2 -30 -2q-52 0 -87 34q-36 34 -36 83zM422 1241q0 52 37 86q38 35 90 35q53 0 94 -38q42 -38 43 -114q2 -95 -46 -205 q-49 -112 -93 -145q-53 -15 -109 0q52 51 90 129q36 75 47 137q-14 -2 -30 -2q-52 0 -87 34q-36 34 -36 83z" />
<glyph unicode="&#x201e;" horiz-adv-x="765" d="M80 88q0 51 37 85t90 34t94 -38q42 -38 43 -114q2 -96 -46 -206q-48 -111 -93 -144q-53 -15 -109 0q52 52 90 130q36 73 47 138q-19 -4 -30 -4q-52 0 -87 34q-36 34 -36 85zM422 88q0 51 37 85t90 34t94 -38q42 -38 43 -114q2 -96 -46 -206q-48 -111 -93 -144 q-53 -15 -109 0q52 52 90 130q36 73 47 138q-19 -4 -30 -4q-52 0 -87 34q-36 34 -36 85z" />
<glyph unicode="&#x2022;" horiz-adv-x="630" d="M78 586q0 99 69 168t168 69t168 -69q70 -70 70 -168t-70 -168t-168 -70t-168 70q-69 69 -69 168z" />
<glyph unicode="&#x2026;" horiz-adv-x="1239" d="M78 88q0 51 37 85t90 34q51 0 88 -34t37 -85t-37 -85t-88 -34q-53 0 -90 34t-37 85zM494 88q0 52 36 85q37 34 91 34q51 0 88 -34q36 -33 36 -85t-36 -85q-37 -34 -88 -34q-54 0 -91 34q-36 33 -36 85zM909 88q0 51 37 85t90 34q51 0 88 -34t37 -85t-37 -85t-88 -34 q-53 0 -90 34t-37 85z" />
<glyph unicode="&#x202f;" horiz-adv-x="368" />
<glyph unicode="&#x2039;" horiz-adv-x="561" d="M78 444l254 320q76 16 149 0l-209 -320l209 -319q-76 -16 -149 0z" />
<glyph unicode="&#x203a;" horiz-adv-x="561" d="M78 125l211 319l-211 320q76 16 151 0l252 -320l-252 -319q-75 -16 -151 0z" />
<glyph unicode="&#x205f;" horiz-adv-x="460" />
<glyph unicode="&#x20ac;" horiz-adv-x="1576" d="M88 514q-21 37 0 76h164q-4 44 -4 76q0 31 4 75h-164q-21 39 0 76h176q51 238 242 392q190 153 469 153q257 0 430 -117q9 -20 11 -100q1 -77 -11 -94q-197 135 -418 135q-185 0 -321 -102q-139 -104 -183 -267h549q22 -37 0 -76h-565q-6 -37 -6 -75t6 -76h483 q22 -39 0 -76h-467q44 -163 183 -267q136 -102 321 -102q220 0 418 136q12 -17 11 -95q-2 -80 -11 -100q-173 -117 -430 -117q-279 0 -469 153q-191 154 -242 392h-176z" />
<glyph unicode="&#x2122;" horiz-adv-x="1216" d="M84 1241q-12 45 0 90h418q12 -45 0 -92l-158 2v-323q-51 -15 -104 0v323h-156zM500 918l118 409q40 11 84 0l117 -274l117 274q40 11 84 0l119 -409q-53 -12 -105 0l-67 256l-107 -256q-40 -10 -84 0l-106 256l-68 -256q-51 -15 -102 0z" />
<glyph unicode="&#x25fc;" horiz-adv-x="829" d="M0 0v829h829v-829h-829z" />
</font>
</defs>
</svg>
