<?xml version="1.0" standalone="no"?>
<!DOCTYPE svg PUBLIC "-//W3C//DTD SVG 1.1//EN" "http://www.w3.org/Graphics/SVG/1.1/DTD/svg11.dtd" >
<svg xmlns="http://www.w3.org/2000/svg">
<metadata></metadata>
<defs>
<font id="merel-regularuploaded_file" horiz-adv-x="1099" >
<font-face units-per-em="2048" ascent="1616" descent="-432" />
<missing-glyph horiz-adv-x="450" />
<glyph horiz-adv-x="0" />
<glyph unicode="&#xd;" horiz-adv-x="681" />
<glyph unicode=" "  horiz-adv-x="450" />
<glyph unicode="&#x09;" horiz-adv-x="450" />
<glyph unicode="&#xa0;" horiz-adv-x="450" />
<glyph unicode="!" horiz-adv-x="368" d="M86 63q0 39 29 66t69 27q42 0 69 -27q28 -28 28 -66q0 -39 -28 -67q-27 -27 -69 -27q-40 0 -69 27t-29 67zM106 1100v231q76 22 154 0v-231l-31 -654q-45 -17 -92 0z" />
<glyph unicode="&#x22;" horiz-adv-x="626" d="M86 928v403q76 22 152 0l-43 -403q-56 -17 -109 0zM387 928v403q76 22 152 0l-43 -403q-53 -17 -109 0z" />
<glyph unicode="#" horiz-adv-x="1087" d="M86 477q-2 18 7 47q9 30 20 41h196l58 201h-197q-4 16 5 47q9 30 20 41h196l137 477q50 21 99 0l-138 -477h216l137 477q50 21 96 0l-137 -477h198q1 -15 -6 -46q-7 -32 -18 -42h-199l-57 -201h196q1 -15 -6 -46t-18 -42h-197l-139 -477q-47 -21 -96 0l137 477h-215 l-137 -477q-50 -21 -99 0l140 477h-199zM408 565h215l57 201h-215z" />
<glyph unicode="$" horiz-adv-x="1157" d="M129 993q0 147 111 254q112 108 301 115v190q33 22 65 0v-190q200 -12 346 -123q9 -22 9 -79q0 -59 -9 -73q-185 146 -383 146q-131 0 -208 -66q-76 -66 -76 -161q0 -102 71 -149q72 -48 273 -114q79 -25 150 -55q52 -22 121 -70q66 -46 95 -112q31 -70 31 -158 q0 -164 -117 -266q-118 -103 -303 -113v-190q-32 -22 -65 0v190q-218 11 -379 127q-10 17 -10 79t10 73q201 -150 407 -150q134 0 219 68q84 68 84 174q0 113 -76 164q-75 50 -272 112q-85 28 -152 58t-122 69q-61 43 -91 106t-30 144z" />
<glyph unicode="%" horiz-adv-x="1560" d="M86 1014q0 159 76 253q77 95 205 95q129 0 206 -95q76 -94 76 -253t-76 -253q-77 -95 -206 -95q-128 0 -205 95q-76 94 -76 253zM197 1014q0 -125 46 -190q47 -66 124 -66q79 0 125 66q47 67 47 190q0 122 -47 189t-125 67q-77 0 -124 -67q-46 -65 -46 -189zM416 0 l631 1331q49 21 98 0l-631 -1331q-49 -21 -98 0zM911 317q0 159 76 253q78 96 205 96q129 0 207 -96q76 -94 76 -253q0 -158 -76 -252q-78 -96 -207 -96q-127 0 -205 96q-76 94 -76 252zM1022 317q0 -124 46 -189q47 -67 124 -67q78 0 125 67t47 189q0 123 -47 190 q-47 66 -125 66t-124 -66q-46 -65 -46 -190z" />
<glyph unicode="&#x26;" horiz-adv-x="1343" d="M76 317q0 132 75 222q76 91 222 176q-166 200 -166 338q0 131 99 220q100 89 255 89q160 0 258 -85q99 -85 99 -224q0 -64 -24 -115q-24 -50 -78 -97q-49 -42 -98 -76q-40 -27 -132 -79l332 -336q110 150 122 369q78 18 154 0q-24 -276 -174 -471l250 -248q-35 -8 -95 -8 q-61 0 -96 8l-151 150q-186 -181 -430 -181q-173 0 -297 94q-125 95 -125 254zM231 324q0 -106 80 -166q79 -60 191 -60q188 0 327 150l-360 366q-122 -67 -181 -133q-57 -63 -57 -157zM360 1051q0 -105 134 -269q156 84 216 136q56 49 56 126q0 82 -52 135q-52 54 -151 54 q-92 0 -147 -52q-56 -53 -56 -130z" />
<glyph unicode="'" horiz-adv-x="325" d="M86 928v403q76 22 152 0l-43 -403q-56 -17 -109 0z" />
<glyph unicode="(" horiz-adv-x="497" d="M86 551q0 203 51 415q51 211 137 365q70 21 138 0q-85 -165 -134 -377q-51 -219 -51 -403q0 -185 51 -404q49 -210 134 -376q-68 -21 -138 0q-86 154 -137 365q-51 212 -51 415z" />
<glyph unicode=")" horiz-adv-x="497" d="M86 -229q85 166 134 376q50 215 50 404q0 188 -50 403q-49 212 -134 377q69 21 137 0q86 -154 137 -365q52 -216 52 -415t-52 -415q-51 -211 -137 -365q-69 -21 -137 0z" />
<glyph unicode="*" horiz-adv-x="849" d="M88 1051q0 54 37 104l264 -113l-20 289q55 18 112 0l-18 -289l266 113q35 -53 35 -104l-272 -78l194 -213q-34 -48 -88 -70l-172 246l-172 -246q-54 22 -88 70l196 213z" />
<glyph unicode="+" horiz-adv-x="894" d="M96 508q-21 57 0 110h297v297q53 18 109 0v-297h299q17 -53 0 -110h-299l-2 -297q-51 -17 -107 0v297h-297z" />
<glyph unicode="," horiz-adv-x="382" d="M88 61q0 40 28 68q27 27 70 27q44 0 74 -30q32 -32 33 -87q8 -80 -31 -187q-39 -108 -78 -141q-43 -16 -86 0q45 45 75 123t36 137q-14 -2 -27 -2q-39 0 -66 27q-28 28 -28 65z" />
<glyph unicode="-" horiz-adv-x="753" d="M96 508q-21 57 0 110h563q17 -53 0 -110h-563z" />
<glyph unicode="." horiz-adv-x="368" d="M86 63q0 39 29 66t69 27q42 0 69 -27q28 -28 28 -66q0 -39 -28 -67q-27 -27 -69 -27q-40 0 -69 27t-29 67z" />
<glyph unicode="/" horiz-adv-x="655" d="M86 0l350 1331q66 21 133 0l-350 -1331q-66 -21 -133 0z" />
<glyph unicode="0" horiz-adv-x="1345" d="M129 666q0 316 146 505q147 191 397 191q249 0 396 -191q146 -189 146 -505q0 -317 -146 -506q-147 -191 -396 -191q-250 0 -397 191q-146 189 -146 506zM285 666q0 -273 105 -420q106 -148 282 -148t282 148q105 147 105 420q0 272 -105 419q-106 148 -282 148 t-282 -148q-105 -147 -105 -419z" />
<glyph unicode="1" horiz-adv-x="729" d="M76 1012q0 61 10 78l336 241q63 18 127 0v-1331q-78 -22 -154 0v1163l-309 -223q-10 11 -10 72z" />
<glyph unicode="2" horiz-adv-x="1081" d="M88 0v18q293 300 460 495q148 173 198 271q47 92 47 185q0 112 -79 188t-214 76q-186 0 -355 -146q-10 11 -10 73t10 79q144 123 367 123q205 0 319 -114q115 -115 115 -273q0 -163 -122 -333q-120 -168 -476 -513h619q17 -63 0 -129h-879z" />
<glyph unicode="3" horiz-adv-x="1134" d="M172 171q0 62 10 73q179 -146 385 -146q141 0 232 73q90 72 90 198q0 108 -74 180q-73 72 -219 72h-174q-18 60 0 122h172q114 0 184 68t70 174q0 104 -76 176t-211 72q-184 0 -368 -146q-11 13 -11 73t11 79q157 123 372 123q203 0 320 -102q116 -101 116 -252 q0 -110 -56 -193q-58 -86 -154 -125q122 -37 188 -129q65 -90 65 -209q0 -172 -131 -277q-132 -106 -335 -106q-113 0 -219 34q-110 35 -177 89q-10 17 -10 79z" />
<glyph unicode="4" horiz-adv-x="1177" d="M84 291q-18 66 0 129l694 911q62 18 125 0v-911h191q16 -63 0 -129h-191v-291q-76 -22 -153 0v291h-666zM223 420h527v692z" />
<glyph unicode="5" horiz-adv-x="1085" d="M119 171q0 62 10 73q179 -146 385 -146q144 0 235 82t91 211q0 132 -97 212q-95 79 -254 79q-133 0 -284 -78l108 727h617q16 -66 0 -129h-500l-65 -440q96 39 180 39q197 0 324 -113q126 -112 126 -295q0 -190 -132 -307t-341 -117q-112 0 -217 34q-109 35 -176 89 q-10 17 -10 79z" />
<glyph unicode="6" horiz-adv-x="1191" d="M129 449q0 132 47 264q45 128 115 228q67 97 151 181q81 81 152 133q63 46 121 76q35 8 104 8q71 0 103 -8q-442 -273 -564 -581q124 102 289 100q190 -1 303 -124q113 -122 113 -306q0 -191 -130 -321t-337 -130q-212 0 -339 132q-128 133 -128 348zM285 430 q0 -149 86 -241q85 -91 225 -91q137 0 224 90t87 230q0 139 -83 225t-224 86q-180 0 -297 -131q-18 -78 -18 -168z" />
<glyph unicode="7" horiz-adv-x="1093" d="M115 1202q-18 66 0 129h905v-18l-653 -1313q-32 -8 -82 -8t-82 8l600 1202h-688z" />
<glyph unicode="8" horiz-adv-x="1114" d="M90 348q0 114 69 209q69 94 189 133q-95 39 -154 125t-59 193q0 146 114 250q115 104 308 104q194 0 309 -104t115 -250q0 -108 -58 -193q-59 -86 -157 -125q120 -39 189 -133t69 -209q0 -174 -131 -276q-132 -103 -336 -103t-336 103q-131 102 -131 276zM246 360 q0 -121 88 -191q89 -71 223 -71t223 71q88 70 88 191q0 110 -78 185q-79 76 -210 76h-45q-131 0 -210 -76t-79 -185zM287 985q0 -101 70 -172q70 -72 178 -72h47q106 0 177 72q70 71 70 172q0 103 -72 175q-73 73 -200 73q-125 0 -198 -73q-72 -72 -72 -175z" />
<glyph unicode="9" horiz-adv-x="1191" d="M129 911q0 191 130 321t337 130q212 0 339 -132q128 -133 128 -347q0 -133 -47 -265q-45 -128 -115 -228q-67 -97 -151 -181q-81 -81 -152 -133q-63 -46 -121 -76q-35 -8 -104 -8q-70 0 -105 8q439 269 566 582q-125 -103 -289 -101q-190 1 -303 124q-113 122 -113 306z M285 913q0 -139 83 -225t224 -86q180 0 297 131q18 78 18 168q0 149 -86 241q-85 91 -225 91q-137 0 -224 -90t-87 -230z" />
<glyph unicode=":" horiz-adv-x="368" d="M86 63q0 39 29 66t69 27q42 0 69 -27q28 -28 28 -66q0 -39 -28 -67q-27 -27 -69 -27q-40 0 -69 27t-29 67zM86 758q0 38 29 65t69 27q42 0 69 -27q28 -28 28 -65q0 -40 -28 -68q-26 -26 -69 -26q-42 0 -69 26q-29 27 -29 68z" />
<glyph unicode=";" horiz-adv-x="382" d="M88 61q0 40 28 68q27 27 70 27q44 0 74 -30q32 -32 33 -87q8 -80 -31 -187q-39 -108 -78 -141q-43 -16 -86 0q45 45 75 123t36 137q-14 -2 -27 -2q-39 0 -66 27q-28 28 -28 65zM88 758q0 38 29 65t69 27q42 0 69 -27q28 -28 28 -65q0 -40 -28 -68q-26 -26 -69 -26 q-42 0 -69 26q-29 27 -29 68z" />
<glyph unicode="&#x3c;" horiz-adv-x="921" d="M86 559q0 21 10 31l731 377q18 -63 0 -129l-557 -281l557 -281q18 -61 0 -126l-731 374q-10 14 -10 35z" />
<glyph unicode="=" horiz-adv-x="894" d="M96 358q-21 56 0 111h705q17 -55 0 -111h-705zM96 641q-21 53 0 111h705q17 -58 0 -111h-705z" />
<glyph unicode="&#x3e;" horiz-adv-x="921" d="M96 150q-22 65 0 126l555 281l-555 281q-22 66 0 129l731 -377q21 -28 0 -66z" />
<glyph unicode="?" horiz-adv-x="1005" d="M86 1160q0 62 10 79q158 123 396 123q201 0 313 -100q113 -101 113 -244q0 -117 -61 -187q-58 -67 -200 -163q-56 -36 -82 -59q-21 -18 -41 -60t-20 -103q-76 -22 -154 0q0 110 36 162q38 56 134 121q142 92 186 139q48 51 48 138q0 95 -78 161t-209 66q-196 0 -381 -146 q-10 11 -10 73zM338 63q0 39 29 66t69 27q42 0 69 -27t27 -66q0 -40 -27 -67t-69 -27q-40 0 -69 27t-29 67z" />
<glyph unicode="@" horiz-adv-x="1912" d="M129 424q0 349 241 587q239 236 603 236q375 0 593 -221t218 -561q0 -141 -35 -244t-91 -153q-57 -51 -111 -75t-109 -24q-175 4 -219 152q-123 -152 -316 -152q-183 0 -294 126t-111 315q0 188 111 314t294 126q187 0 311 -145l9 114q63 18 125 0v-600q0 -137 100 -137 q95 0 158 97t63 286q0 308 -189 494t-507 186q-307 0 -519 -201t-212 -520q0 -270 153 -449q153 -178 377 -225q10 -11 10 -49t-10 -55q-275 45 -459 259t-184 519zM639 410q0 -141 82 -229q83 -89 215 -89q158 0 270 129v377q-112 129 -270 129q-132 0 -215 -89 q-82 -88 -82 -228z" />
<glyph unicode="A" horiz-adv-x="1398" d="M76 0l559 1331q32 10 65 10.5t66 -10.5l559 -1331q-40 -12 -80 -12l-80 12l-153 371h-623l-156 -371q-32 -8 -78 -8q-47 0 -79 8zM436 502h527l-265 633z" />
<glyph unicode="B" horiz-adv-x="1251" d="M180 0v1331h525q180 0 295 -94q116 -95 116 -244q0 -106 -55 -185q-55 -78 -150 -116q122 -38 185 -123t63 -202q0 -167 -120 -267q-119 -100 -330 -100h-529zM334 129h366q146 0 225 69t79 185q0 110 -73 177t-220 67h-377v-498zM334 737h377q117 0 184 63q68 63 68 169 q0 107 -76 170q-77 63 -197 63h-356v-465z" />
<glyph unicode="C" horiz-adv-x="1466" d="M129 666q0 292 200 494t515 202q262 0 440 -123q10 -17 10 -76q0 -57 -10 -71q-192 141 -432 141q-246 0 -407 -162q-160 -161 -160 -405q0 -245 160 -406q161 -162 407 -162q239 0 432 142q10 -14 10 -72q0 -59 -10 -76q-178 -123 -440 -123q-315 0 -515 202t-200 495z " />
<glyph unicode="D" horiz-adv-x="1458" d="M180 0v1331h445q330 0 516 -189t186 -476q0 -288 -186 -477t-516 -189h-445zM334 129h291q260 0 404 150q145 151 145 387t-145 387q-143 149 -404 149h-291v-1073z" />
<glyph unicode="E" horiz-adv-x="1175" d="M180 0v1331h895q9 -32 9 -64t-9 -65h-741v-457h680q8 -33 8 -65t-8 -64h-680v-487h741q9 -33 9 -65t-9 -64h-895z" />
<glyph unicode="F" horiz-adv-x="1175" d="M180 0v1331h895q9 -32 9 -64t-9 -65h-741v-469h680q8 -32 8 -64t-8 -65h-680v-604q-39 -11 -77.5 -11t-76.5 11z" />
<glyph unicode="G" horiz-adv-x="1486" d="M129 666q0 292 200 494t515 202q262 0 440 -123q10 -17 10 -76q0 -57 -10 -71q-192 141 -432 141q-246 0 -407 -162q-160 -161 -160 -405q0 -247 160 -408q161 -162 407 -162q176 0 313 78v463q37 9 74 9t76 -9v-545q-80 -54 -210 -89q-126 -34 -261 -34q-315 0 -515 202 t-200 495z" />
<glyph unicode="H" horiz-adv-x="1482" d="M180 0v1331q38 11 76.5 11t77.5 -11v-586h815v586q38 11 76.5 11t77.5 -11v-1331q-39 -11 -77.5 -11t-76.5 11v616h-815v-616q-39 -11 -77.5 -11t-76.5 11z" />
<glyph unicode="I" horiz-adv-x="514" d="M180 0v1331q38 11 76.5 11t77.5 -11v-1331q-39 -11 -77.5 -11t-76.5 11z" />
<glyph unicode="J" horiz-adv-x="841" d="M76 105q0 54 10 65q98 -64 197 -64q225 0 225 277v948q39 11 77.5 11t76.5 -11v-960q0 -197 -92 -300q-91 -102 -251 -102q-127 0 -233 68q-10 16 -10 68z" />
<glyph unicode="K" horiz-adv-x="1280" d="M180 0v1331q38 11 76.5 11t77.5 -11v-616l645 616q32 8 94 8q61 0 96 -8l-673 -645l708 -686q-32 -8 -94 -8q-61 0 -96 8l-680 657v-657q-39 -11 -77.5 -11t-76.5 11z" />
<glyph unicode="L" horiz-adv-x="1126" d="M180 0v1331q38 11 76.5 11t77.5 -11v-1202h708q8 -32 8 -64t-8 -65h-862z" />
<glyph unicode="M" horiz-adv-x="1818" d="M76 0l309 1331q33 10 66 10.5t67 -10.5l391 -1093l394 1093q32 10 65 10.5t66 -10.5l309 -1331q-38 -11 -75.5 -11t-74.5 11l-239 1061l-381 -1061q-32 -9 -63.5 -9t-63.5 9l-381 1061l-240 -1061q-36 -11 -73.5 -11t-75.5 11z" />
<glyph unicode="N" horiz-adv-x="1464" d="M172 0v1331q32 9 63 9t62 -9l842 -1075v1075q38 11 76.5 11t76.5 -11v-1331q-31 -9 -62.5 -9t-62.5 9l-841 1075v-1075q-39 -11 -77.5 -11t-76.5 11z" />
<glyph unicode="O" horiz-adv-x="1654" d="M129 666q0 292 197 494t501 202q303 0 500 -202t197 -494q0 -293 -197 -495t-500 -202q-304 0 -501 202t-197 495zM285 666q0 -245 154 -406q155 -162 388 -162q234 0 387 162q154 163 154 406q0 242 -154 405q-153 162 -387 162q-233 0 -388 -162q-154 -161 -154 -405z " />
<glyph unicode="P" horiz-adv-x="1273" d="M180 0v1331h475q233 0 360 -123q128 -123 128 -307t-128 -307q-127 -123 -360 -123h-321v-471q-39 -11 -77.5 -11t-76.5 11zM334 600h321q162 0 247 85t85 216t-85 216t-247 85h-321v-602z" />
<glyph unicode="Q" horiz-adv-x="1654" d="M129 666q0 292 197 494t501 202q303 0 500 -202t197 -494q0 -240 -139 -426q-139 -185 -365 -242l248 -334q-42 -10 -83 -10t-81 10l-230 307q-14 0 -26 -1t-29 -1q-301 1 -496 204q-194 202 -194 493zM285 666q0 -245 154 -406q155 -162 388 -162q234 0 387 162 q154 163 154 406q0 242 -154 405q-153 162 -387 162q-233 0 -388 -162q-154 -161 -154 -405z" />
<glyph unicode="R" horiz-adv-x="1286" d="M180 0v1331h492q232 0 359 -120q128 -120 128 -302q0 -147 -86 -256t-252 -143l377 -510q-32 -8 -85 -8t-85 8l-362 487h-332v-487q-39 -11 -77.5 -11t-76.5 11zM334 616h338q162 0 247 82t85 211t-85 211t-247 82h-338v-586z" />
<glyph unicode="S" horiz-adv-x="1157" d="M129 993q0 156 118 262q119 107 322 107q224 0 383 -123q9 -22 9 -79q0 -59 -9 -73q-185 146 -383 146q-131 0 -208 -66q-76 -66 -76 -161q0 -102 71 -149q72 -48 273 -114q79 -25 150 -55q52 -22 121 -70q66 -46 95 -112q31 -70 31 -158q0 -171 -128 -275t-325 -104 q-238 0 -411 127q-10 17 -10 79t10 73q201 -150 407 -150q134 0 219 68q84 68 84 174q0 113 -76 164q-75 50 -272 112q-85 28 -152 58t-122 69q-61 43 -91 106t-30 144z" />
<glyph unicode="T" horiz-adv-x="1200" d="M84 1202q-9 33 -9 65.5t9 63.5h1030q9 -32 9 -64t-9 -65h-438v-1202q-39 -11 -77.5 -11t-76.5 11v1202h-438z" />
<glyph unicode="U" horiz-adv-x="1425" d="M180 514v817q39 11 78 11l78 -11v-837q0 -183 102 -289q102 -107 279 -107q173 0 277 107t104 289v837q38 11 77 11t78 -11v-817q0 -263 -142 -404q-143 -141 -394 -141t-394 141t-143 404z" />
<glyph unicode="V" horiz-adv-x="1378" d="M76 1331q32 8 79 8q46 0 78 -8l457 -1108l455 1108q40 11 80 11l80 -11l-549 -1331q-33 -10 -65.5 -10t-65.5 10z" />
<glyph unicode="W" horiz-adv-x="2064" d="M76 1331q39 11 78.5 11t78.5 -11l367 -1104l367 1104q33 9 66 9t65 -9l366 -1104l367 1104q40 12 79.5 11.5t78.5 -11.5l-459 -1331q-32 -9 -64.5 -9t-66.5 9l-367 1081l-366 -1081q-34 -9 -67 -9t-64 9z" />
<glyph unicode="X" horiz-adv-x="1275" d="M76 0l459 686l-437 645q32 8 88 8t88 -8l369 -540l358 540q32 8 89 8q56 0 88 -8l-437 -645l459 -686q-32 -8 -88 -8t-88 8l-391 578l-381 -578q-32 -8 -88 -8t-88 8z" />
<glyph unicode="Y" horiz-adv-x="1318" d="M76 1331q32 8 83 8t83 -8l417 -686l418 686q35 8 84 8q50 0 82 -8l-506 -831v-500q-39 -11 -77 -11t-76 11v500z" />
<glyph unicode="Z" horiz-adv-x="1128" d="M90 0v18l721 1184h-692q-9 33 -9 65.5t9 63.5h919v-18l-723 -1184h713q9 -33 9 -65t-9 -64h-938z" />
<glyph unicode="[" horiz-adv-x="536" d="M86 -229v1560h354q18 -60 0 -123h-213v-1314h213q18 -60 0 -123h-354z" />
<glyph unicode="\" horiz-adv-x="655" d="M86 1331q67 21 133 0l350 -1331q-67 -21 -133 0z" />
<glyph unicode="]" horiz-adv-x="536" d="M96 -106h213v1314h-213q-18 63 0 123h355v-1560h-355q-18 63 0 123z" />
<glyph unicode="^" horiz-adv-x="868" d="M86 909q0 65 10 82l338 340l338 -340q8 -19 8 -82q0 -62 -8 -75l-338 342l-338 -342q-10 11 -10 75z" />
<glyph unicode="_" horiz-adv-x="995" d="M96 -117h805q17 -53 0 -110h-805q-21 57 0 110z" />
<glyph unicode="`" horiz-adv-x="501" d="M86 1726q6 22 39 47q31 24 55 29l236 -291q-7 -16 -31 -37t-43 -22z" />
<glyph unicode="a" horiz-adv-x="993" d="M100 236q0 119 85 191q87 73 223 73q95 0 176 -34q84 -35 129 -77v107q0 113 -64 177q-62 62 -188 62q-137 0 -279 -92q-8 13 -8 57q0 45 8 64q115 86 305 86q183 0 275 -96q92 -97 92 -269v-485q-31 -9 -62.5 -9t-62.5 9l-6 100q-53 -53 -139 -92t-183 -39 q-132 0 -217 73q-84 72 -84 194zM242 244q0 -72 53 -119t143 -47q83 0 161 37q81 38 116 73v109q-37 37 -116 73t-161 36q-91 0 -144 -47q-52 -46 -52 -115z" />
<glyph unicode="b" d="M143 0v1331q34 10 69.5 10.5t72.5 -10.5v-616q121 135 303 135q183 0 294 -126t111 -314q0 -189 -111 -315t-294 -126q-187 0 -312 146l-8 -115q-32 -9 -63 -9t-62 9zM285 221q113 -129 270 -129q132 0 215 89q82 88 82 229q0 140 -82 228q-83 89 -215 89 q-157 0 -270 -129v-377z" />
<glyph unicode="c" horiz-adv-x="1005" d="M106 410q0 191 128 316q127 124 331 124q175 0 293 -92q8 -19 8 -65q0 -45 -8 -58q-139 94 -280 94q-146 0 -238 -89t-92 -230q0 -142 92 -231t238 -89q141 0 280 94q8 -13 8 -58q0 -46 -8 -65q-118 -92 -293 -92q-204 0 -331 124q-128 125 -128 317z" />
<glyph unicode="d" d="M106 410q0 188 111 314t295 126q182 0 303 -135v616q34 10 69.5 10.5t71.5 -10.5v-1331q-32 -9 -63 -9t-62 9l-10 115q-119 -146 -309 -146q-184 0 -295 126t-111 315zM248 410q0 -141 82 -229q83 -89 215 -89q157 0 270 129v377q-113 129 -270 129q-132 0 -215 -89 q-82 -88 -82 -228z" />
<glyph unicode="e" horiz-adv-x="1042" d="M106 410q0 190 122 315t315 125q206 0 314 -142q83 -109 83 -236q0 -39 -8 -79h-682q4 -139 94 -221q89 -82 231 -82q148 0 287 94q10 -15 9 -59q-2 -46 -9 -64q-118 -92 -299 -92q-204 0 -331 122q-126 121 -126 319zM258 475h549v6q0 111 -72 184q-73 74 -190 74 q-119 0 -197 -72t-90 -192z" />
<glyph unicode="f" horiz-adv-x="772" d="M84 698q-10 30 -10 60.5t10 60.5h129v275q0 130 76 199t188 69q111 0 211 -57q10 -16 10 -67t-10 -62q-97 65 -180 65q-154 0 -154 -172v-250h285q11 -30 11 -60.5t-11 -60.5h-285v-698q-34 -10 -69.5 -10t-71.5 10v698h-129z" />
<glyph unicode="g" horiz-adv-x="1095" d="M106 414q0 185 112 311q111 125 294 125q191 0 309 -145l10 114q31 9 62 9t63 -9v-801q0 -172 -106 -277q-108 -106 -297 -106q-196 0 -311 91q-9 21 -10 61q-1 41 10 57q134 -90 286 -90q134 0 210 69q77 69 77 187v103q-118 -136 -303 -136q-183 0 -294 125 q-112 126 -112 312zM248 414q0 -138 82 -226t215 -88q157 0 270 129v369q-113 129 -270 129q-133 0 -215 -88t-82 -225z" />
<glyph unicode="h" horiz-adv-x="1050" d="M147 0v1331q36 10 71.5 10.5t70.5 -10.5v-626q145 145 301 145q164 0 243 -93q78 -91 78 -239v-518q-34 -10 -69.5 -10t-71.5 10v492q0 109 -54 172t-165 63q-79 0 -149 -43q-68 -42 -113 -90v-594q-36 -10 -72 -10t-70 10z" />
<glyph unicode="i" horiz-adv-x="487" d="M147 1128q0 41 29 68q28 27 70 27q41 0 68 -27q28 -28 28 -68q0 -37 -28 -65q-27 -27 -68 -27q-42 0 -70 27q-29 27 -29 65zM174 0v819q34 10 69.5 10.5t71.5 -10.5v-819q-36 -10 -71.5 -10t-69.5 10z" />
<glyph unicode="j" horiz-adv-x="577" d="M8 -252q0 48 10 59q84 -51 152 -51q98 0 98 123v940q35 11 70 11l70 -11v-956q0 -112 -56 -170t-151 -58q-98 0 -183 48q-10 17 -10 65zM246 1126q0 38 27 63q26 25 67 25t67 -25q27 -25 27 -63t-27 -64q-28 -26 -67 -26t-67 26q-27 26 -27 64z" />
<glyph unicode="k" horiz-adv-x="958" d="M147 0v1331q36 10 71.5 10.5t70.5 -10.5v-878l407 366q35 8 86 8t86 -8l-442 -395l459 -424q-35 -8 -87 -8q-53 0 -85 8l-424 393v-393q-36 -10 -72 -10t-70 10z" />
<glyph unicode="l" horiz-adv-x="428" d="M147 0v1331q36 10 71.5 10.5t70.5 -10.5v-1331q-36 -10 -72 -10t-70 10z" />
<glyph unicode="m" horiz-adv-x="1646" d="M143 0v819q31 9 62 9t63 -9l8 -127q147 158 312 158q214 0 280 -178q157 178 330 178q156 0 233 -93q76 -92 76 -239v-518q-34 -10 -69.5 -10t-71.5 10v492q0 110 -52 172q-52 63 -157 63q-137 0 -262 -137v-590q-34 -10 -69 -10t-70 10v492q0 108 -53 172 q-52 63 -156 63q-77 0 -150 -44q-71 -43 -112 -93v-590q-36 -10 -72 -10t-70 10z" />
<glyph unicode="n" horiz-adv-x="1050" d="M143 0v819q31 9 62 9t63 -9l8 -127q147 158 314 158q164 0 243 -93q78 -91 78 -239v-518q-34 -10 -69.5 -10t-71.5 10v492q0 109 -54 172t-167 63q-79 0 -151 -45t-113 -92v-590q-36 -10 -72 -10t-70 10z" />
<glyph unicode="o" d="M106 410q0 186 126 313t319 127t317 -127q125 -128 125 -313q0 -186 -125 -314q-124 -127 -317 -127t-319 127q-126 128 -126 314zM248 410q0 -137 86 -228q86 -90 217 -90q129 0 215 90q86 91 86 228q0 136 -86 227q-86 90 -215 90q-131 0 -217 -90q-86 -91 -86 -227z " />
<glyph unicode="p" horiz-adv-x="1103" d="M147 -334v1153q31 9 62.5 9t62.5 -9l9 -114q124 145 311 145q183 0 294 -126t111 -314q0 -189 -111 -315t-294 -126q-182 0 -303 135v-438q-35 -10 -70 -10t-72 10zM289 221q113 -129 270 -129q132 0 215 89q82 88 82 229q0 140 -82 228q-83 89 -215 89q-157 0 -270 -129 v-377z" />
<glyph unicode="q" d="M106 410q0 188 111 314t295 126q191 0 309 -145l10 114q31 9 62 9t63 -9v-1153q-36 -10 -71 -10t-70 10v438q-121 -135 -303 -135q-184 0 -295 126t-111 315zM248 410q0 -141 82 -229q83 -89 215 -89q157 0 270 129v377q-113 129 -270 129q-132 0 -215 -89 q-82 -88 -82 -228z" />
<glyph unicode="r" horiz-adv-x="819" d="M143 0v819q31 9 62 9t63 -9l13 -164q129 195 294 195q97 0 160 -39q8 -13 8 -70q0 -55 -8 -73q-89 53 -178 53q-84 0 -155 -59t-117 -130v-532q-36 -10 -72 -10t-70 10z" />
<glyph unicode="s" horiz-adv-x="827" d="M90 606q0 114 90 179q91 65 223 65q81 0 164 -24q84 -25 127 -60q11 -17 11 -58q0 -42 -11 -55q-151 101 -278 101q-77 0 -130 -34q-55 -35 -55 -95q0 -67 93 -107q23 -12 131 -47q144 -47 213 -102q69 -56 69 -154q0 -119 -95 -182q-96 -64 -230 -64q-82 0 -166 24 q-87 25 -129 60q-8 18 -8 59t8 54q152 -100 289 -100q78 0 133 32q57 33 57 99q0 31 -12 53t-48 42q-33 18 -64 30q-6 2 -97 32q-138 45 -214 101q-71 53 -71 151z" />
<glyph unicode="t" horiz-adv-x="749" d="M84 698q-10 30 -10 60.5t10 60.5h129v266q36 10 71.5 10.5t69.5 -10.5v-266h271q8 -30 8 -60.5t-8 -60.5h-271v-485q0 -123 103 -123q75 0 182 84q10 -11 10 -59q0 -49 -10 -66q-91 -80 -213 -80q-99 0 -156 59q-57 58 -57 169v501h-129z" />
<glyph unicode="u" horiz-adv-x="1046" d="M139 301v518q34 10 69.5 10.5t72.5 -10.5v-491q0 -110 55 -172q56 -64 166 -64q78 0 150 45q74 46 114 92v590q36 10 71 10.5t70 -10.5v-819q-31 -9 -62 -9t-63 9l-8 127q-144 -158 -313 -158q-163 0 -242 93q-80 94 -80 239z" />
<glyph unicode="v" horiz-adv-x="1028" d="M74 819q36 11 73.5 11t75.5 -11l291 -637l291 637q36 11 73.5 11t75.5 -11l-379 -819q-30 -11 -61 -11l-61 11z" />
<glyph unicode="w" horiz-adv-x="1454" d="M74 819q38 11 75 11t74 -11l215 -629l228 629q30 11 60 11t60 -11l230 -629l215 629q38 11 75.5 11t73.5 -11l-303 -819q-30 -10 -60.5 -10t-60.5 10l-229 637l-229 -637q-30 -10 -60 -10t-61 10z" />
<glyph unicode="x" horiz-adv-x="995" d="M74 0l327 424l-309 395q32 8 80 8q47 0 82 -8l248 -309l241 309q41 11 81 11t79 -11l-309 -395l328 -424q-41 -11 -82 -11l-82 11l-262 332l-263 -332q-32 -8 -79 -8q-48 0 -80 8z" />
<glyph unicode="y" horiz-adv-x="1028" d="M74 819q36 11 73.5 11t75.5 -11l293 -602l289 602q37 11 74 11t75 -11l-561 -1153q-37 -10 -73 -10t-72 10l194 400z" />
<glyph unicode="z" horiz-adv-x="868" d="M84 0v16l487 680h-458q-9 32 -9 62.5t9 60.5h669v-16l-487 -680h479q9 -30 9 -60.5t-9 -62.5h-690z" />
<glyph unicode="{" horiz-adv-x="620" d="M86 535v32q73 28 98 58q25 29 29 75q41 370 184 631q70 21 138 0q-65 -132 -101 -241q-33 -101 -48 -182q-10 -58 -28 -193q-7 -61 -40 -98q-32 -36 -97 -66q64 -29 97 -67q33 -37 40 -97q18 -135 28 -193q15 -81 48 -182q36 -109 101 -241q-68 -21 -138 0 q-144 262 -184 630q-5 47 -29 76q-25 30 -98 58z" />
<glyph unicode="|" horiz-adv-x="270" d="M86 -123v1454q49 16 98 0v-1454q-49 -16 -98 0z" />
<glyph unicode="}" horiz-adv-x="620" d="M86 -229q62 125 100 241q33 101 48 182q10 58 28 193q7 60 40 97q33 38 97 67q-65 30 -97 66q-33 37 -40 98q-18 135 -28 193q-15 81 -48 182q-38 116 -100 241q69 21 137 0q145 -264 185 -631q5 -47 28 -75q25 -29 99 -58v-32q-74 -29 -99 -58q-23 -28 -28 -76 q-40 -366 -185 -630q-69 -21 -137 0z" />
<glyph unicode="~" horiz-adv-x="972" d="M96 422q-21 57 0 110l45 25q43 24 60 31t56 18q36 10 73 10q69 0 164 -50t153 -50q24 0 52 5q21 4 55 18q38 16 44 19q26 13 46 24q29 16 35 18q17 -53 0 -111q-5 -1 -45 -24q-43 -24 -60 -31t-56 -18q-36 -10 -73 -10q-69 0 -164 50t-153 50q-25 0 -53 -5 q-19 -3 -54 -18q-38 -16 -44 -19q-26 -13 -46 -24q-29 -16 -35 -18z" />
<glyph unicode="&#xa1;" horiz-adv-x="368" d="M86 918q0 40 29 67t69 27q42 0 69 -27q28 -28 28 -67q0 -38 -28 -66q-27 -27 -69 -27q-40 0 -69 27t-29 66zM106 -119l31 654q47 17 92 0l31 -654v-231q-78 -22 -154 0v231z" />
<glyph unicode="&#xa2;" horiz-adv-x="997" d="M106 410q0 183 119 307q118 122 310 133v190q30 22 63 0v-190q161 -11 260 -92q8 -19 8 -65q0 -45 -8 -58q-139 94 -280 94q-146 0 -238 -89t-92 -230q0 -142 92 -231t238 -89q141 0 280 94q8 -13 8 -58q0 -46 -8 -65q-99 -81 -260 -92v-190q-33 -23 -63 0v190 q-192 11 -310 133q-119 124 -119 308z" />
<glyph unicode="&#xa3;" horiz-adv-x="1202" d="M84 610q-23 29 0 62h156q-23 222 -23 303q0 159 116 273q115 114 320 114q223 0 367 -123q8 -21 9 -80q1 -60 -9 -72q-169 146 -356 146q-133 0 -212 -76t-79 -188q0 -96 24 -297h430q23 -33 0 -62h-419q18 -129 6 -264q-12 -134 -72 -217h678q16 -63 0 -129h-862v18 q58 80 82 183q24 107 23 190q-2 101 -15 219h-164z" />
<glyph unicode="&#xa4;" horiz-adv-x="819" d="M86 350l111 111q-59 71 -61 167q-2 95 59 169l-109 108q1 14 16 29q13 13 29 18l111 -110q72 59 168 59t168 -59l110 110q16 -5 29 -18q15 -15 16 -29l-110 -108q59 -72 59 -169t-59 -169l110 -109q-7 -37 -47 -45l-108 109q-75 -58 -168 -58t-168 58l-111 -109 q-37 7 -45 45zM228 630q1 -73 55 -130q55 -53 130 -55q74 -1 128 53q53 52 52 127t-54 131q-55 55 -130 55t-128 -53q-54 -54 -53 -128z" />
<glyph unicode="&#xa5;" horiz-adv-x="1318" d="M76 1331q32 8 83 8t83 -8l417 -686l418 686q35 8 84 8q50 0 82 -8l-487 -796h282q22 -31 0 -62h-301v-162h301q22 -28 0 -61h-301v-250q-77 -22 -153 0v250h-303q-18 33 0 61h303v162h-303q-17 31 0 62h282z" />
<glyph unicode="&#xa6;" horiz-adv-x="270" d="M86 -123v635q49 16 98 0v-635q-49 -16 -98 0zM86 696v635q49 16 98 0v-635q-49 -16 -98 0z" />
<glyph unicode="&#xa7;" horiz-adv-x="819" d="M86 487q0 135 147 201q-147 69 -147 193q0 115 90 179q89 64 223 64q85 0 164 -23q83 -24 127 -61q10 -16 10 -58q0 -43 -10 -54q-151 100 -278 100q-77 0 -130 -34q-55 -35 -55 -95q0 -67 92 -106q27 -14 132 -48q147 -50 214 -104q68 -55 68 -152q0 -135 -135 -198 q135 -72 135 -195q0 -116 -92 -182t-227 -66q-82 0 -164 24q-85 25 -129 60q-10 16 -10 59t10 54q149 -100 280 -100q80 0 135 33q56 34 56 100q0 57 -46 87q-42 27 -159 66q-3 0 -6 1t-5 2.5t-3 1.5q-151 51 -217 104q-70 56 -70 147zM190 535q0 -28 14 -53q13 -24 29 -38 q11 -10 55 -31q41 -20 61 -26q8 -3 34.5 -12t42.5 -15q18 -7 25 -8l67 -22q111 27 111 114q0 85 -117 136q-3 1 -141 49l-49 18q-132 -21 -132 -112z" />
<glyph unicode="&#xa8;" horiz-adv-x="856" d="M86 1626q0 41 29 68q27 26 69 26q43 0 69 -26q28 -28 28 -68q0 -37 -28 -65q-27 -27 -69 -27q-40 0 -69 27t-29 65zM573 1626q0 41 29 68q27 26 70 26q42 0 68 -26q28 -28 28 -68q0 -37 -28 -65q-27 -27 -68 -27q-42 0 -70 27q-29 27 -29 65z" />
<glyph unicode="&#xa9;" horiz-adv-x="1290" d="M86 881q0 228 161 391q161 162 398 162q240 0 399 -162q160 -163 160 -391q0 -229 -160 -392q-158 -161 -399 -161q-238 0 -398 161q-161 163 -161 392zM162 881q0 -199 137 -341q137 -141 346 -141t346 141q137 142 137 341q0 200 -137 340q-136 139 -346 139t-346 -139 q-137 -140 -137 -340zM350 881q0 127 86 211t221 84q116 0 199 -62q5 -11 7 -45q1 -32 -7 -39q-98 64 -190 64q-94 0 -157 -60t-63 -153q0 -96 63 -156q62 -59 157 -59q94 0 190 63q8 -7 7 -39q-2 -34 -7 -45q-82 -61 -199 -61q-135 0 -221 84t-86 213z" />
<glyph unicode="&#xab;" horiz-adv-x="870" d="M86 444l262 320q57 17 113 0l-228 -320l228 -319q-56 -17 -113 0zM410 444l262 320q55 16 112 0l-227 -320l227 -319q-55 -16 -112 0z" />
<glyph unicode="&#xac;" horiz-adv-x="886" d="M96 508q-21 57 0 110h705l-2 -315q-57 -21 -117 0v205h-586z" />
<glyph unicode="&#xad;" horiz-adv-x="753" d="M96 508q-21 57 0 110h563q17 -53 0 -110h-563z" />
<glyph unicode="&#xae;" horiz-adv-x="1290" d="M86 881q0 228 161 391q161 162 398 162q240 0 399 -162q160 -163 160 -391q0 -229 -160 -392q-158 -161 -399 -161q-238 0 -398 161q-161 163 -161 392zM162 881q0 -199 137 -341q137 -141 346 -141t346 141q137 142 137 341q0 200 -137 340q-136 139 -346 139t-346 -139 q-137 -140 -137 -340zM416 600v561h286q91 0 144 -44t53 -132q0 -129 -135 -158l174 -227q-21 -6 -56 -6q-37 0 -55 6l-165 215h-150v-215q-46 -16 -96 0zM512 889h170q119 0 119 98q0 100 -119 100h-170v-198z" />
<glyph unicode="&#xaf;" horiz-adv-x="720" d="M96 1534q-21 56 0 111h531q17 -55 0 -111h-531z" />
<glyph unicode="&#xb0;" horiz-adv-x="679" d="M86 1225q0 102 74 176t180 74q105 0 180 -73q74 -72 74 -177t-74 -177q-75 -74 -180 -75q-106 0 -180 74t-74 178zM184 1225q0 -67 45 -110q46 -44 111 -44t111 44q45 43 45 110q0 65 -45 110t-111 43q-65 0 -111 -44q-45 -44 -45 -109z" />
<glyph unicode="&#xb1;" horiz-adv-x="894" d="M96 238q-21 57 0 110h705q17 -53 0 -110h-705zM96 635q-21 53 0 110h297v189q53 18 109 0v-189h299q17 -57 0 -110h-299l-2 -191q-51 -17 -107 0v191h-297z" />
<glyph unicode="&#xb4;" horiz-adv-x="501" d="M86 1511l236 291q24 -5 55 -29q33 -25 39 -47l-256 -274q-19 1 -43 22t-31 37z" />
<glyph unicode="&#xb6;" horiz-adv-x="1220" d="M86 922q0 203 127 306t297 103h614q16 -47 0 -96h-141v-1569q-51 -18 -98 0v1569h-277v-1569q-49 -16 -98 0v862q-108 0 -200 36q-90 36 -157 128q-67 93 -67 230z" />
<glyph unicode="&#xb7;" horiz-adv-x="368" d="M86 518q0 39 29 66q27 26 69 26q43 0 69 -26q28 -28 28 -66q0 -39 -28 -67q-27 -27 -69 -27q-40 0 -69 27t-29 67z" />
<glyph unicode="&#xb8;" horiz-adv-x="487" d="M86 -361q0 26 8 39q62 -43 121 -43q43 1 75 27q29 23 29 68q0 60 -55 82q-54 22 -123 -7v195h80v-127q65 10 123 -31q57 -40 57 -121q0 -73 -50 -117t-128 -44q-70 0 -129 37q-8 16 -8 42z" />
<glyph unicode="&#xbb;" horiz-adv-x="870" d="M86 125l227 319l-227 320q57 17 113 0l262 -320l-262 -319q-56 -17 -113 0zM410 125l227 319l-227 320q57 16 112 0l262 -320l-262 -319q-55 -16 -112 0z" />
<glyph unicode="&#xbc;" horiz-adv-x="1286" d="M86 1149q0 35 10 49l187 133q45 21 88 0v-635q-53 -18 -111 0v525l-164 -117q-10 10 -10 45zM262 0l631 1331q49 21 98 0l-631 -1331q-49 -21 -98 0zM688 131q-18 45 0 88l320 416q43 21 88 0v-416h94q18 -43 0 -88h-94v-131q-56 -21 -111 0v131h-297zM774 219h211v279z " />
<glyph unicode="&#xbd;" horiz-adv-x="1329" d="M57 1149q0 31 9 49l186 133q45 21 88 0v-635q-53 -18 -111 0v525l-163 -117q-9 13 -9 45zM229 0l631 1331q49 21 98 0l-630 -1331q-50 -21 -99 0zM764 0v16q219 208 282 292q64 85 64 155q0 43 -37 77q-36 33 -104 33q-91 0 -174 -73q-6 6 -5 51q2 47 5 53q73 62 188 62 q114 0 176 -59t62 -138q0 -78 -58 -156q-54 -72 -221 -221h293q15 -47 0 -92h-471z" />
<glyph unicode="&#xbe;" horiz-adv-x="1384" d="M86 779q0 41 6 46q87 -71 193 -71q64 0 105 31q42 32 42 85q0 50 -35 85q-34 34 -106 34h-80q-12 39 0 80h80q55 0 87 30t32 70q0 44 -34 74q-36 31 -95 31q-93 0 -185 -72q-4 4 -4 46q0 43 4 50q79 64 195 64q102 0 163 -53q60 -53 60 -127q0 -104 -94 -150 q117 -46 117 -170q0 -90 -68 -143t-174 -53q-125 0 -203 63q-6 7 -6 50zM360 0l631 1331q49 21 99 0l-631 -1331q-49 -21 -99 0zM788 131q-18 45 0 88l320 416q43 21 88 0v-416h94q18 -43 0 -88h-94v-131q-56 -21 -111 0v131h-297zM872 219h211v279z" />
<glyph unicode="&#xbf;" horiz-adv-x="1005" d="M86 -33q0 63 16 110q16 48 59 92q47 49 78 72q39 29 107 76q56 36 83 60q25 22 42 60q18 41 18 102q78 22 154 0q0 -110 -36 -162q-38 -56 -134 -121q-136 -89 -183 -139q-48 -51 -48 -137q0 -96 76 -162t208 -66q198 0 383 146q9 -14 9 -73q0 -57 -9 -79 q-159 -123 -395 -123q-199 0 -314 101q-114 101 -114 243zM471 922q0 39 28 67q27 27 68 27t70 -27t29 -67q0 -39 -29 -66t-70 -27t-68 27q-28 28 -28 66z" />
<glyph unicode="&#xc0;" horiz-adv-x="1398" d="M76 0l559 1331q65 21 131 0l559 -1331q-80 -23 -160 0l-153 371h-623l-156 -371q-32 -8 -78 -8q-47 0 -79 8zM436 502h527l-265 633zM535 1726q6 23 38 47q31 24 56 29l235 -291q-7 -17 -30 -37q-24 -21 -43 -22z" />
<glyph unicode="&#xc1;" horiz-adv-x="1398" d="M76 0l559 1331q65 21 131 0l559 -1331q-80 -23 -160 0l-153 371h-623l-156 -371q-32 -8 -78 -8q-47 0 -79 8zM436 502h527l-265 633zM535 1511l235 291q24 -5 55 -29q33 -25 39 -47l-256 -274q-19 1 -43 22q-23 20 -30 37z" />
<glyph unicode="&#xc2;" horiz-adv-x="1398" d="M76 0l559 1331q65 21 131 0l559 -1331q-80 -23 -160 0l-153 371h-623l-156 -371q-32 -8 -78 -8q-47 0 -79 8zM401 1520l258 260q15 14 41 14t41 -14l258 -260q-6 -20 -33 -47q-28 -28 -48 -29l-218 219l-217 -219q-20 1 -48 29q-29 29 -34 47zM436 502h527l-265 633z" />
<glyph unicode="&#xc3;" horiz-adv-x="1398" d="M76 0l559 1331q65 21 131 0l559 -1331q-80 -23 -160 0l-153 371h-623l-156 -371q-32 -8 -78 -8q-47 0 -79 8zM393 1524q-21 53 0 110q2 0 5.5 2t9.5 5.5t12 6.5q8 5 17.5 9.5t11.5 5.5q6 4 26 12q25 11 31 12q12 3 30 6t33 3q55 0 154 -45q58 -25 106 -25q58 0 177 62 q17 -58 0 -111q-8 -2 -27 -13q-8 -4 -17.5 -9.5t-11.5 -6.5q-6 -4 -26 -12q-19 -8 -31 -11t-30 -6t-34 -3q-54 0 -153 45q-56 24 -107 24q-58 0 -176 -61zM436 502h527l-265 633z" />
<glyph unicode="&#xc4;" horiz-adv-x="1398" d="M76 0l559 1331q65 21 131 0l559 -1331q-80 -23 -160 0l-153 371h-623l-156 -371q-32 -8 -78 -8q-47 0 -79 8zM358 1626q0 41 29 68q27 26 70 26q42 0 68 -26q28 -28 28 -68q0 -37 -28 -65q-27 -27 -68 -27t-70 27t-29 65zM436 502h527l-265 633zM846 1626q0 41 28 68 q27 26 70 26t69 -26q27 -27 27 -68q0 -38 -27 -65t-69 -27t-70 27t-28 65z" />
<glyph unicode="&#xc5;" horiz-adv-x="1398" d="M76 0l559 1331q65 21 131 0l559 -1331q-80 -23 -160 0l-153 371h-623l-156 -371q-32 -8 -78 -8q-47 0 -79 8zM436 502h527l-265 633zM526 1640q0 69 51 120q50 50 123 50q74 0 124 -50t50 -120t-50 -122t-124 -52q-73 0 -123 52q-51 53 -51 122zM612 1640q0 -36 24 -62 t62 -26q40 0 64 26t24 62t-24 61t-64 25q-38 0 -62 -25t-24 -61z" />
<glyph unicode="&#xc6;" horiz-adv-x="1681" d="M76 0l559 1331h948q17 -66 0 -129h-741l-2 -457h680q18 -63 0 -129h-680v-487h743q17 -63 0 -129h-897v371h-297l-156 -371q-32 -8 -78 -8q-47 0 -79 8zM436 502h250v604z" />
<glyph unicode="&#xc7;" horiz-adv-x="1466" d="M129 666q0 292 200 494t515 202q262 0 440 -123q10 -17 10 -76q0 -57 -10 -71q-192 141 -432 141q-246 0 -407 -162q-160 -161 -160 -405q0 -245 160 -406q161 -162 407 -162q239 0 432 142q10 -14 10 -72q0 -59 -10 -76q-163 -111 -401 -123v-96q65 10 123 -31 q57 -40 57 -121q0 -73 -50 -117t-128 -44q-70 0 -129 37q-8 16 -8 42t8 39q62 -43 121 -43q42 1 74 27q30 24 30 68q0 60 -55 82q-54 22 -123 -7v164q-303 15 -488 214q-186 199 -186 483z" />
<glyph unicode="&#xc8;" horiz-adv-x="1175" d="M180 0v1331h895q18 -63 0 -129h-741v-457h680q16 -66 0 -129h-680v-487h741q18 -66 0 -129h-895zM434 1726q6 22 39 47q31 24 55 29l236 -291q-7 -16 -31 -37t-43 -22z" />
<glyph unicode="&#xc9;" horiz-adv-x="1175" d="M180 0v1331h895q18 -63 0 -129h-741v-457h680q16 -66 0 -129h-680v-487h741q18 -66 0 -129h-895zM434 1511l236 291q24 -5 55 -29q33 -25 39 -47l-256 -274q-19 1 -43 22t-31 37z" />
<glyph unicode="&#xca;" horiz-adv-x="1175" d="M180 0v1331h895q18 -63 0 -129h-741v-457h680q16 -66 0 -129h-680v-487h741q18 -66 0 -129h-895zM299 1520l258 260q15 14 41 14t41 -14l258 -260q-5 -18 -34 -47q-28 -28 -48 -29l-217 219l-217 -219q-20 1 -48 29q-29 29 -34 47z" />
<glyph unicode="&#xcb;" horiz-adv-x="1175" d="M180 0v1331h895q18 -63 0 -129h-741v-457h680q16 -66 0 -129h-680v-487h741q18 -66 0 -129h-895zM281 1626q0 41 28 68q27 26 70 26q42 0 68 -26q28 -28 28 -68q0 -37 -28 -65q-27 -27 -68 -27t-70 27q-28 27 -28 65zM768 1626q0 41 29 68q27 26 69 26q43 0 69 -26 q28 -28 28 -68q0 -37 -28 -65q-27 -27 -69 -27q-40 0 -69 27t-29 65z" />
<glyph unicode="&#xcc;" horiz-adv-x="514" d="M92 1726q6 22 39 47q31 24 55 29l236 -291q-7 -16 -31 -37t-43 -22zM180 0v1331q76 22 154 0v-1331q-78 -22 -154 0z" />
<glyph unicode="&#xcd;" horiz-adv-x="514" d="M92 1511l236 291q24 -5 55 -29q33 -25 39 -47l-256 -274q-19 1 -43 22t-31 37zM180 0v1331q76 22 154 0v-1331q-78 -22 -154 0z" />
<glyph unicode="&#xce;" horiz-adv-x="514" d="M-43 1520l258 260q15 14 42 14q26 0 40 -14l258 -260q-5 -18 -34 -47q-28 -28 -48 -29l-217 219l-217 -219q-20 1 -48 29q-29 29 -34 47zM180 0v1331q76 22 154 0v-1331q-78 -22 -154 0z" />
<glyph unicode="&#xcf;" horiz-adv-x="514" d="M-86 1626q0 41 29 68q27 26 69 26q43 0 70 -26q29 -27 29 -68q0 -38 -29 -65t-70 -27q-40 0 -69 27t-29 65zM180 0v1331q76 22 154 0v-1331q-78 -22 -154 0zM403 1626q0 41 29 68q27 26 70 26q42 0 68 -26q28 -28 28 -68q0 -37 -28 -65q-27 -27 -68 -27q-42 0 -70 27 q-29 27 -29 65z" />
<glyph unicode="&#xd0;" horiz-adv-x="1458" d="M86 614q-21 56 0 111h94v606h445q330 0 516 -189t186 -476q0 -288 -186 -477t-516 -189h-445v614h-94zM334 129h291q260 0 404 150q145 151 145 387t-145 387q-143 149 -404 149h-291v-477h315q17 -55 0 -111h-315v-485z" />
<glyph unicode="&#xd1;" horiz-adv-x="1464" d="M172 0v1331q63 18 125 0l842 -1075v1075q77 22 153 0v-1331q-62 -18 -125 0l-841 1075v-1075q-78 -22 -154 0zM426 1524q-21 53 0 110q2 0 5.5 2t9.5 5.5t12 6.5q8 4 17 9t11 6q4 2 27 12q25 11 31 12q14 3 29 6q18 3 34 3q55 0 154 -45q58 -25 106 -25q57 0 176 62 q17 -58 0 -111q-6 -1 -26 -13q-8 -4 -17.5 -9.5t-11.5 -6.5q-4 -2 -27 -12q-21 -9 -30 -11q-12 -3 -30 -6t-34 -3q-54 0 -153 45q-55 24 -107 24q-58 0 -176 -61z" />
<glyph unicode="&#xd2;" horiz-adv-x="1654" d="M129 666q0 292 197 494t501 202q303 0 500 -202t197 -494q0 -293 -197 -495t-500 -202q-304 0 -501 202t-197 495zM285 666q0 -245 154 -406q155 -162 388 -162q234 0 387 162q154 163 154 406q0 242 -154 405q-153 162 -387 162q-233 0 -388 -162q-154 -161 -154 -405z M664 1726q6 23 38 47q31 24 56 29l235 -291q-7 -17 -30 -37q-24 -21 -43 -22z" />
<glyph unicode="&#xd3;" horiz-adv-x="1654" d="M129 666q0 292 197 494t501 202q303 0 500 -202t197 -494q0 -293 -197 -495t-500 -202q-304 0 -501 202t-197 495zM285 666q0 -245 154 -406q155 -162 388 -162q234 0 387 162q154 163 154 406q0 242 -154 405q-153 162 -387 162q-233 0 -388 -162q-154 -161 -154 -405z M664 1511l235 291q24 -5 55 -29q33 -25 39 -47l-256 -274q-19 1 -43 22q-23 20 -30 37z" />
<glyph unicode="&#xd4;" horiz-adv-x="1654" d="M129 666q0 292 197 494t501 202q303 0 500 -202t197 -494q0 -293 -197 -495t-500 -202q-304 0 -501 202t-197 495zM285 666q0 -245 154 -406q155 -162 388 -162q234 0 387 162q154 163 154 406q0 242 -154 405q-153 162 -387 162q-233 0 -388 -162q-154 -161 -154 -405z M528 1520l258 260q15 14 41 14t41 -14l258 -260q-6 -20 -33 -47t-49 -29l-217 219l-217 -219q-20 1 -48 29q-29 29 -34 47z" />
<glyph unicode="&#xd5;" horiz-adv-x="1654" d="M129 666q0 292 197 494t501 202q303 0 500 -202t197 -494q0 -293 -197 -495t-500 -202q-304 0 -501 202t-197 495zM285 666q0 -245 154 -406q155 -162 388 -162q234 0 387 162q154 163 154 406q0 242 -154 405q-153 162 -387 162q-233 0 -388 -162q-154 -161 -154 -405z M520 1524q-21 53 0 110q2 0 5.5 2t9.5 5.5t12 6.5q8 4 17 9t11 6q4 2 27 12q26 11 31 12q12 3 30 6t33 3q55 0 154 -45q58 -25 106 -25q58 0 177 62q17 -58 0 -111q-8 -2 -27 -13q-8 -4 -17.5 -9.5t-11.5 -6.5q-6 -4 -26 -12t-31 -11q-12 -3 -30 -6t-34 -3q-54 0 -153 45 q-55 24 -107 24q-58 0 -176 -61z" />
<glyph unicode="&#xd6;" horiz-adv-x="1654" d="M129 666q0 292 197 494t501 202q303 0 500 -202t197 -494q0 -293 -197 -495t-500 -202q-304 0 -501 202t-197 495zM285 666q0 -245 154 -406q155 -162 388 -162q234 0 387 162q154 163 154 406q0 242 -154 405q-153 162 -387 162q-233 0 -388 -162q-154 -161 -154 -405z M485 1626q0 41 29 68q27 26 70 26q42 0 68 -26q28 -28 28 -68q0 -37 -28 -65q-27 -27 -68 -27q-42 0 -70 27q-29 27 -29 65zM973 1626q0 41 28 68q27 26 70 26t69 -26q27 -27 27 -68q0 -38 -27 -65t-69 -27q-41 0 -70 27q-28 27 -28 65z" />
<glyph unicode="&#xd7;" horiz-adv-x="749" d="M86 354l209 209l-209 211q30 55 78 78l211 -211l209 211q56 -27 80 -78l-211 -211l209 -209q-21 -52 -78 -80l-209 211l-211 -209q-50 22 -78 78z" />
<glyph unicode="&#xd8;" horiz-adv-x="1654" d="M129 0l180 188q-180 196 -180 478q0 292 197 494t501 202q262 0 453 -158l121 127q24 8 62 8q39 0 61 -8l-181 -188q181 -198 181 -477q0 -293 -197 -495t-500 -202q-263 0 -454 158l-121 -127q-24 -8 -62 -8q-37 0 -61 8zM285 666q0 -215 125 -373l772 809 q-148 131 -355 131q-233 0 -388 -162q-154 -161 -154 -405zM471 229q152 -131 356 -131q234 0 387 162q154 163 154 406q0 218 -125 372z" />
<glyph unicode="&#xd9;" horiz-adv-x="1425" d="M180 514v817q78 23 156 0v-837q0 -183 102 -289q102 -107 279 -107q173 0 277 107t104 289v837q76 22 155 0v-817q0 -263 -142 -404q-143 -141 -394 -141t-394 141t-143 404zM549 1726q6 22 39 47q31 24 55 29l236 -291q-7 -16 -31 -37t-43 -22z" />
<glyph unicode="&#xda;" horiz-adv-x="1425" d="M180 514v817q78 23 156 0v-837q0 -183 102 -289q102 -107 279 -107q173 0 277 107t104 289v837q76 22 155 0v-817q0 -263 -142 -404q-143 -141 -394 -141t-394 141t-143 404zM549 1511l235 291q25 -5 56 -29q33 -25 39 -47l-256 -274q-19 1 -43 22t-31 37z" />
<glyph unicode="&#xdb;" horiz-adv-x="1425" d="M180 514v817q78 23 156 0v-837q0 -183 102 -289q102 -107 279 -107q173 0 277 107t104 289v837q76 22 155 0v-817q0 -263 -142 -404q-143 -141 -394 -141t-394 141t-143 404zM414 1520l258 260q15 14 42 14q26 0 40 -14l258 -260q-5 -18 -34 -47q-28 -28 -48 -29 l-217 219l-217 -219q-22 2 -49 29t-33 47z" />
<glyph unicode="&#xdc;" horiz-adv-x="1425" d="M180 514v817q78 23 156 0v-837q0 -183 102 -289q102 -107 279 -107q173 0 277 107t104 289v837q76 22 155 0v-817q0 -263 -142 -404q-143 -141 -394 -141t-394 141t-143 404zM371 1626q0 41 28 68q27 26 70 26t69 -26q27 -27 27 -68q0 -38 -27 -65t-69 -27q-41 0 -70 27 q-28 27 -28 65zM860 1626q0 41 29 68q27 26 69 26q43 0 69 -26q28 -28 28 -68q0 -37 -28 -65q-27 -27 -69 -27q-40 0 -69 27t-29 65z" />
<glyph unicode="&#xdd;" horiz-adv-x="1318" d="M76 1331q32 8 83 8t83 -8l417 -686l418 686q35 8 84 8q50 0 82 -8l-506 -831v-500q-77 -22 -153 0v500zM496 1511l235 291q24 -5 55 -29q33 -25 39 -47l-256 -274q-19 1 -43 22q-23 20 -30 37z" />
<glyph unicode="&#xde;" horiz-adv-x="1273" d="M180 0v1331q76 22 154 0v-176h321q233 0 360 -123q128 -123 128 -307q0 -183 -128 -308q-127 -124 -360 -124h-321v-293q-78 -22 -154 0zM334 424h321q162 0 247 85t85 216t-85 216t-247 85h-321v-602z" />
<glyph unicode="&#xdf;" horiz-adv-x="1196" d="M139 0v844q0 239 137 379q136 139 357 139q196 0 311 -107t115 -258q0 -104 -55 -186t-152 -121q125 -39 189 -130q65 -92 65 -212q0 -166 -118 -272q-119 -107 -314 -107q-191 0 -320 97q-10 17 -10 68q0 52 10 63q114 -105 299 -105q137 0 225 73q87 72 87 195 q0 116 -80 188q-81 73 -228 73h-145q-15 60 0 122h143q115 0 189 69t74 177q0 106 -77 178t-210 72q-162 0 -256 -106t-94 -293v-840q-73 -21 -142 0z" />
<glyph unicode="&#xe0;" horiz-adv-x="993" d="M100 236q0 119 85 191q87 73 223 73q95 0 176 -34q84 -35 129 -77v107q0 113 -64 177q-62 62 -188 62q-137 0 -279 -92q-8 13 -8 57q0 45 8 64q115 86 305 86q183 0 275 -96q92 -97 92 -269v-485q-62 -18 -125 0l-6 100q-53 -53 -139 -92t-183 -39q-132 0 -217 73 q-84 72 -84 194zM242 244q0 -72 53 -119t143 -47q83 0 161 37q81 38 116 73v109q-37 37 -116 73t-161 36q-91 0 -144 -47q-52 -46 -52 -115zM330 1214q6 22 39 47q31 24 55 29l235 -291q-7 -17 -30 -37q-24 -21 -43 -22z" />
<glyph unicode="&#xe1;" horiz-adv-x="993" d="M100 236q0 119 85 191q87 73 223 73q95 0 176 -34q84 -35 129 -77v107q0 113 -64 177q-62 62 -188 62q-137 0 -279 -92q-8 13 -8 57q0 45 8 64q115 86 305 86q183 0 275 -96q92 -97 92 -269v-485q-62 -18 -125 0l-6 100q-53 -53 -139 -92t-183 -39q-132 0 -217 73 q-84 72 -84 194zM242 244q0 -72 53 -119t143 -47q83 0 161 37q81 38 116 73v109q-37 37 -116 73t-161 36q-91 0 -144 -47q-52 -46 -52 -115zM330 999l235 291q25 -5 56 -29q32 -24 38 -47l-256 -274q-19 1 -43 22q-23 20 -30 37z" />
<glyph unicode="&#xe2;" horiz-adv-x="993" d="M100 236q0 119 85 191q87 73 223 73q95 0 176 -34q84 -35 129 -77v107q0 113 -64 177q-62 62 -188 62q-137 0 -279 -92q-8 13 -8 57q0 45 8 64q115 86 305 86q183 0 275 -96q92 -97 92 -269v-485q-62 -18 -125 0l-6 100q-53 -53 -139 -92t-183 -39q-132 0 -217 73 q-84 72 -84 194zM195 1008l258 260q15 14 41 14t41 -14l258 -260q-5 -18 -34 -47q-28 -28 -48 -29l-217 219l-218 -219q-20 1 -48 29q-27 27 -33 47zM242 244q0 -72 53 -119t143 -47q83 0 161 37q81 38 116 73v109q-37 37 -116 73t-161 36q-91 0 -144 -47q-52 -46 -52 -115z " />
<glyph unicode="&#xe3;" horiz-adv-x="993" d="M100 236q0 119 85 191q87 73 223 73q95 0 176 -34q84 -35 129 -77v107q0 113 -64 177q-62 62 -188 62q-137 0 -279 -92q-8 13 -8 57q0 45 8 64q115 86 305 86q183 0 275 -96q92 -97 92 -269v-485q-62 -18 -125 0l-6 100q-53 -53 -139 -92t-183 -39q-132 0 -217 73 q-84 72 -84 194zM195 1012q-21 53 0 110q2 0 5 2t9 5.5t12 6.5q8 5 17.5 9.5t11.5 5.5q6 4 26 12q26 11 31 12q12 3 30 6t34 3q54 0 153 -45q58 -25 107 -25q57 0 176 62q17 -58 0 -111q-8 -2 -27 -13l-28 -16q-4 -2 -27 -12q-20 -8 -31 -11q-14 -3 -29 -6q-18 -3 -34 -3 q-55 0 -154 45q-56 24 -106 24q-58 0 -176 -61zM242 244q0 -72 53 -119t143 -47q83 0 161 37q81 38 116 73v109q-37 37 -116 73t-161 36q-91 0 -144 -47q-52 -46 -52 -115z" />
<glyph unicode="&#xe4;" horiz-adv-x="993" d="M100 236q0 119 85 191q87 73 223 73q95 0 176 -34q84 -35 129 -77v107q0 113 -64 177q-62 62 -188 62q-137 0 -279 -92q-8 13 -8 57q0 45 8 64q115 86 305 86q183 0 275 -96q92 -97 92 -269v-485q-62 -18 -125 0l-6 100q-53 -53 -139 -92t-183 -39q-132 0 -217 73 q-84 72 -84 194zM152 1114q0 41 28 68q27 26 70 26q42 0 68 -26q28 -28 28 -68q0 -37 -28 -65q-27 -27 -68 -27q-42 0 -70 27t-28 65zM242 244q0 -72 53 -119t143 -47q83 0 161 37q81 38 116 73v109q-37 37 -116 73t-161 36q-91 0 -144 -47q-52 -46 -52 -115zM641 1114 q0 41 29 68q27 26 69 26q43 0 69 -26q28 -28 28 -68q0 -37 -28 -65q-27 -27 -69 -27q-41 0 -69 27q-29 27 -29 65z" />
<glyph unicode="&#xe5;" horiz-adv-x="993" d="M100 236q0 119 85 191q87 73 223 73q95 0 176 -34q84 -35 129 -77v107q0 113 -64 177q-62 62 -188 62q-137 0 -279 -92q-8 13 -8 57q0 45 8 64q115 86 305 86q183 0 275 -96q92 -97 92 -269v-485q-62 -18 -125 0l-6 100q-53 -53 -139 -92t-183 -39q-132 0 -217 73 q-84 72 -84 194zM242 244q0 -72 53 -119t143 -47q83 0 161 37q81 38 116 73v109q-37 37 -116 73t-161 36q-91 0 -144 -47q-52 -46 -52 -115zM319 1128q0 69 51 120q50 50 124 50q73 0 123 -50q51 -51 51 -120t-51 -122q-50 -52 -123 -52q-74 0 -124 52q-51 53 -51 122z M408 1128q0 -38 23 -62q24 -26 63 -26t63 26q25 27 25 62q0 34 -25 61q-24 25 -63 25t-63 -25q-23 -24 -23 -61z" />
<glyph unicode="&#xe6;" horiz-adv-x="1648" d="M100 236q0 119 85 191q87 73 223 73q93 0 174 -34q84 -35 129 -77l2 107q0 113 -64 177q-62 62 -188 62q-137 0 -279 -92q-8 13 -8 57q0 45 8 64q115 86 305 86q247 0 316 -188q110 188 346 188q205 0 313 -142q109 -144 76 -315h-684q4 -139 94 -221q89 -82 232 -82 q147 0 286 94q11 -13 11 -58q0 -46 -11 -65q-113 -92 -299 -92q-233 0 -344 168l-2 -137q-47 -21 -92 0l-6 100q-53 -53 -139 -92t-183 -39q-132 0 -217 73q-84 72 -84 194zM242 244q0 -72 53 -119t143 -47q83 0 161 37q81 38 116 73v109q-37 37 -116 73t-161 36 q-91 0 -144 -47q-52 -46 -52 -115zM862 475h549q2 115 -72 190q-73 74 -190 74q-119 0 -197 -72t-90 -192z" />
<glyph unicode="&#xe7;" horiz-adv-x="1005" d="M106 410q0 191 128 316q127 124 331 124q175 0 293 -92q8 -19 8 -65q0 -45 -8 -58q-139 94 -280 94q-146 0 -238 -89t-92 -230q0 -142 92 -231t238 -89q141 0 280 94q8 -13 8 -58q0 -46 -8 -65q-115 -91 -280 -92v-96q64 10 122 -31t58 -121q0 -73 -50 -117t-128 -44 q-70 0 -129 37q-9 18 -9 42q0 25 9 39q65 -43 120 -43q43 1 75 27q30 24 30 68q0 60 -55 82q-54 22 -123 -7v168q-177 21 -284 142q-108 121 -108 295z" />
<glyph unicode="&#xe8;" horiz-adv-x="1042" d="M106 410q0 190 122 315t315 125q206 0 314 -142t75 -315h-682q4 -139 94 -221q89 -82 231 -82q148 0 287 94q10 -15 9 -59q-2 -46 -9 -64q-118 -92 -299 -92q-204 0 -331 122q-126 121 -126 319zM258 475h549q2 115 -72 190q-73 74 -190 74q-119 0 -197 -72t-90 -192z M367 1214q6 22 39 47q31 24 55 29l235 -291q-7 -17 -30 -37q-24 -21 -43 -22z" />
<glyph unicode="&#xe9;" horiz-adv-x="1042" d="M106 410q0 190 122 315t315 125q206 0 314 -142t75 -315h-682q4 -139 94 -221q89 -82 231 -82q148 0 287 94q10 -15 9 -59q-2 -46 -9 -64q-118 -92 -299 -92q-204 0 -331 122q-126 121 -126 319zM258 475h549q2 115 -72 190q-73 74 -190 74q-119 0 -197 -72t-90 -192z M367 999l235 291q24 -5 55 -29q33 -25 39 -47l-256 -274q-19 1 -43 22q-23 20 -30 37z" />
<glyph unicode="&#xea;" horiz-adv-x="1042" d="M106 410q0 190 122 315t315 125q206 0 314 -142t75 -315h-682q4 -139 94 -221q89 -82 231 -82q148 0 287 94q10 -15 9 -59q-2 -46 -9 -64q-118 -92 -299 -92q-204 0 -331 122q-126 121 -126 319zM231 1008l258 260q15 14 42 14q26 0 40 -14l258 -260q-6 -20 -33 -47 q-28 -28 -48 -29l-218 219l-217 -219q-20 1 -48 29q-29 29 -34 47zM258 475h549q2 115 -72 190q-73 74 -190 74q-119 0 -197 -72t-90 -192z" />
<glyph unicode="&#xeb;" horiz-adv-x="1042" d="M106 410q0 190 122 315t315 125q206 0 314 -142t75 -315h-682q4 -139 94 -221q89 -82 231 -82q148 0 287 94q10 -15 9 -59q-2 -46 -9 -64q-118 -92 -299 -92q-204 0 -331 122q-126 121 -126 319zM188 1114q0 41 29 68q27 26 70 26q42 0 68 -26q28 -28 28 -68 q0 -37 -28 -65q-27 -27 -68 -27t-70 27t-29 65zM258 475h549q2 115 -72 190q-73 74 -190 74q-119 0 -197 -72t-90 -192zM678 1114q0 41 29 68q27 26 69 26q43 0 69 -26q27 -27 27 -68q0 -38 -27 -65t-69 -27q-40 0 -69 27t-29 65z" />
<glyph unicode="&#xec;" horiz-adv-x="432" d="M53 1214q6 22 39 47q31 24 55 29l236 -291q-7 -16 -31 -37t-43 -22zM147 0v819q73 21 142 0v-819q-73 -21 -142 0z" />
<glyph unicode="&#xed;" horiz-adv-x="432" d="M53 999l236 291q24 -5 55 -29q33 -25 39 -47l-256 -274q-19 1 -43 22t-31 37zM147 0v819q73 21 142 0v-819q-73 -21 -142 0z" />
<glyph unicode="&#xee;" horiz-adv-x="432" d="M-82 1008l260 260q41 33 82 0l258 -260q-5 -18 -34 -47q-28 -28 -48 -29l-217 219l-217 -219q-20 1 -49 29q-30 28 -35 47zM147 0v819q73 21 142 0v-819q-73 -21 -142 0z" />
<glyph unicode="&#xef;" horiz-adv-x="432" d="M-123 1114q0 41 29 68q27 26 69 26q43 0 69 -26q28 -28 28 -68q0 -37 -28 -65q-27 -27 -69 -27q-41 0 -69 27q-29 27 -29 65zM147 0v819q73 21 142 0v-819q-73 -21 -142 0zM365 1114q0 41 28 68q27 26 70 26q42 0 68 -26q28 -28 28 -68q0 -37 -28 -65q-27 -27 -68 -27 t-70 27q-28 27 -28 65z" />
<glyph unicode="&#xf0;" horiz-adv-x="1056" d="M100 412q0 182 108 306t290 124q172 0 297 -125q-50 188 -205 317l-228 -135q-21 47 0 92l160 94q-128 89 -289 117q-7 16 -9 66q-1 48 9 63q230 -34 410 -172l205 121q18 -45 0 -92l-141 -84q243 -234 243 -592v-74q0 -221 -117 -344q-119 -125 -303 -125t-307 124 q-123 125 -123 319zM242 408q0 -142 84 -229t202 -87q123 0 202 82t79 240v73q0 57 -6 107q-46 48 -120 86q-75 39 -155 39q-127 0 -207 -86q-79 -85 -79 -225z" />
<glyph unicode="&#xf1;" horiz-adv-x="1050" d="M143 0v819q62 18 125 0l8 -127q147 158 314 158q164 0 243 -93q78 -91 78 -239v-518q-69 -21 -141 0v492q0 109 -54 172t-167 63q-79 0 -151 -45t-113 -92v-590q-73 -21 -142 0zM219 1012q-21 53 0 110q2 0 5.5 2t9.5 5.5t12 6.5q8 4 17 9t11 6q4 2 27 12q25 11 31 12 q14 3 29 6q18 3 34 3q55 0 154 -45q58 -25 106 -25q57 0 176 62q17 -58 0 -111q-6 -1 -26 -13q-8 -4 -17.5 -9.5t-11.5 -6.5q-6 -4 -26 -12q-19 -8 -31 -11t-30 -6t-34 -3q-54 0 -153 45q-56 24 -107 24q-58 0 -176 -61z" />
<glyph unicode="&#xf2;" d="M106 410q0 186 126 313t319 127t317 -127q125 -128 125 -313q0 -186 -125 -314q-124 -127 -317 -127t-319 127q-126 128 -126 314zM248 410q0 -137 86 -228q86 -90 217 -90q129 0 215 90q86 91 86 228q0 136 -86 227q-86 90 -215 90q-131 0 -217 -90q-86 -91 -86 -227z M385 1214q6 22 39 47q31 24 55 29l236 -291q-7 -16 -31 -37t-43 -22z" />
<glyph unicode="&#xf3;" d="M106 410q0 186 126 313t319 127t317 -127q125 -128 125 -313q0 -186 -125 -314q-124 -127 -317 -127t-319 127q-126 128 -126 314zM248 410q0 -137 86 -228q86 -90 217 -90q129 0 215 90q86 91 86 228q0 136 -86 227q-86 90 -215 90q-131 0 -217 -90q-86 -91 -86 -227z M385 999l236 291q24 -5 55 -29q33 -25 39 -47l-256 -274q-19 1 -43 22t-31 37z" />
<glyph unicode="&#xf4;" d="M106 410q0 186 126 313t319 127t317 -127q125 -128 125 -313q0 -186 -125 -314q-124 -127 -317 -127t-319 127q-126 128 -126 314zM248 410q0 -137 86 -228q86 -90 217 -90q129 0 215 90q86 91 86 228q0 136 -86 227q-86 90 -215 90q-131 0 -217 -90q-86 -91 -86 -227z M252 1008l258 260q15 14 42 14q26 0 40 -14l258 -260q-5 -18 -34 -47q-28 -28 -48 -29l-217 219l-217 -219q-20 1 -48 29q-29 29 -34 47z" />
<glyph unicode="&#xf5;" d="M106 410q0 186 126 313t319 127t317 -127q125 -128 125 -313q0 -186 -125 -314q-124 -127 -317 -127t-319 127q-126 128 -126 314zM244 1012q-21 53 0 110q2 0 5 2t9 5.5t12 6.5q8 5 17.5 9.5t11.5 5.5q4 2 27 12q27 11 30 12q12 3 30 6t34 3q54 0 153 -45 q58 -25 107 -25q57 0 176 62q17 -58 0 -111q-8 -2 -27 -13q-4 -2 -9.5 -5t-8 -5t-5.5 -3.5l-5 -2.5q-4 -2 -27 -12q-19 -8 -31 -11q-14 -3 -29 -6q-18 -3 -34 -3q-55 0 -154 45q-55 24 -106 24q-58 0 -176 -61zM248 410q0 -137 86 -228q86 -90 217 -90q129 0 215 90 q86 91 86 228q0 136 -86 227q-86 90 -215 90q-131 0 -217 -90q-86 -91 -86 -227z" />
<glyph unicode="&#xf6;" d="M106 410q0 186 126 313t319 127t317 -127q125 -128 125 -313q0 -186 -125 -314q-124 -127 -317 -127t-319 127q-126 128 -126 314zM209 1114q0 41 29 68q27 26 69 26q43 0 69 -26q27 -27 27 -68q0 -38 -27 -65t-69 -27q-41 0 -69 27q-29 27 -29 65zM248 410 q0 -137 86 -228q86 -90 217 -90q129 0 215 90q86 91 86 228q0 136 -86 227q-86 90 -215 90q-131 0 -217 -90q-86 -91 -86 -227zM696 1114q0 41 29 68q27 26 70 26q42 0 68 -26q28 -28 28 -68q0 -37 -28 -65q-27 -27 -68 -27t-70 27t-29 65z" />
<glyph unicode="&#xf7;" horiz-adv-x="894" d="M96 508q-21 57 0 110h705q17 -53 0 -110h-705zM350 313q0 39 29 66t70 27t68 -27q28 -28 28 -66q0 -39 -28 -67q-27 -27 -68 -27t-70 27t-29 67zM350 815q0 39 29 66q27 26 70 26q42 0 68 -26q28 -28 28 -66q0 -39 -28 -67q-27 -27 -68 -27t-70 27t-29 67z" />
<glyph unicode="&#xf8;" d="M106 0l109 115q-109 123 -109 295q0 186 126 313t319 127q152 0 270 -86l53 55q24 8 60 8q35 0 59 -8l-108 -114q108 -121 108 -295q0 -186 -125 -314q-124 -127 -317 -127q-153 0 -272 86l-52 -55q-24 -8 -60 -8q-37 0 -61 8zM248 410q0 -114 59 -195l426 453 q-81 59 -182 59q-131 0 -217 -90q-86 -91 -86 -227zM369 152q77 -60 182 -60q129 0 215 90q86 91 86 228q0 113 -59 194z" />
<glyph unicode="&#xf9;" horiz-adv-x="1046" d="M139 301v518q69 21 142 0v-491q0 -110 55 -172q56 -64 166 -64q78 0 150 45q74 46 114 92v590q72 21 141 0v-819q-62 -18 -125 0l-8 127q-144 -158 -313 -158q-163 0 -242 93q-80 94 -80 239zM358 1214q6 22 39 47q31 24 56 29l235 -291q-7 -16 -31 -37t-43 -22z" />
<glyph unicode="&#xfa;" horiz-adv-x="1046" d="M139 301v518q69 21 142 0v-491q0 -110 55 -172q56 -64 166 -64q78 0 150 45q74 46 114 92v590q72 21 141 0v-819q-62 -18 -125 0l-8 127q-144 -158 -313 -158q-163 0 -242 93q-80 94 -80 239zM358 999l236 291q24 -5 55 -29q33 -25 39 -47l-256 -274q-19 1 -43 22t-31 37 z" />
<glyph unicode="&#xfb;" horiz-adv-x="1046" d="M139 301v518q69 21 142 0v-491q0 -110 55 -172q56 -64 166 -64q78 0 150 45q74 46 114 92v590q72 21 141 0v-819q-62 -18 -125 0l-8 127q-144 -158 -313 -158q-163 0 -242 93q-80 94 -80 239zM223 1008l258 260q15 14 42 14q26 0 40 -14l258 -260q-5 -18 -34 -47 q-28 -28 -48 -29l-217 219l-217 -219q-20 1 -48 29q-29 29 -34 47z" />
<glyph unicode="&#xfc;" horiz-adv-x="1046" d="M139 301v518q69 21 142 0v-491q0 -110 55 -172q56 -64 166 -64q78 0 150 45q74 46 114 92v590q72 21 141 0v-819q-62 -18 -125 0l-8 127q-144 -158 -313 -158q-163 0 -242 93q-80 94 -80 239zM182 1114q0 41 29 68q27 26 70 26q42 0 68 -26q28 -28 28 -68q0 -37 -28 -65 q-27 -27 -68 -27t-70 27t-29 65zM670 1114q0 41 28 68q27 26 70 26t69 -26q27 -27 27 -68q0 -38 -27 -65t-69 -27t-70 27t-28 65z" />
<glyph unicode="&#xfd;" horiz-adv-x="1028" d="M74 819q73 22 149 0l293 -602l289 602q73 22 149 0l-561 -1153q-73 -21 -145 0l194 400zM350 999l236 291q24 -5 55 -29q33 -25 39 -47l-256 -274q-19 1 -43 22t-31 37z" />
<glyph unicode="&#xfe;" horiz-adv-x="1103" d="M147 -334v1665q73 21 142 0v-616q123 135 303 135q183 0 294 -126t111 -314q0 -189 -111 -315t-294 -126q-182 0 -303 135v-438q-69 -21 -142 0zM289 221q113 -129 270 -129q132 0 215 89q82 88 82 229q0 140 -82 228q-83 89 -215 89q-157 0 -270 -129v-377z" />
<glyph unicode="&#xff;" horiz-adv-x="1028" d="M74 819q73 22 149 0l293 -602l289 602q73 22 149 0l-561 -1153q-73 -21 -145 0l194 400zM172 1114q0 41 29 68q27 26 69 26q43 0 69 -26q28 -28 28 -68q0 -37 -28 -65q-27 -27 -69 -27q-40 0 -69 27t-29 65zM662 1114q0 41 28 68q27 26 70 26q42 0 68 -26q28 -28 28 -68 q0 -37 -28 -65q-27 -27 -68 -27q-42 0 -70 27t-28 65z" />
<glyph unicode="&#x152;" horiz-adv-x="2365" d="M129 668q0 292 197 494t501 202q181 0 326 -86q142 -84 219 -229v282h895q17 -66 0 -129h-743v-457h680q18 -63 0 -129h-680v-487h743q17 -63 0 -129h-895v285q-78 -145 -219 -228q-145 -86 -326 -86q-304 0 -501 202t-197 495zM285 668q0 -247 154 -407 q155 -161 388 -161q234 0 387 161q154 162 154 407q0 242 -154 405q-153 162 -387 162q-233 0 -388 -162q-154 -161 -154 -405z" />
<glyph unicode="&#x153;" horiz-adv-x="1787" d="M106 410q0 186 126 313t319 127q124 0 223 -60q98 -59 148 -163q47 103 143 163t223 60q208 0 316 -142t73 -315h-682q4 -138 95 -221q89 -82 231 -82q148 0 287 94q10 -15 9 -59q-2 -46 -9 -64q-118 -92 -299 -92q-133 0 -237 60t-150 164q-50 -103 -149 -163 q-101 -61 -222 -61q-193 0 -319 127q-126 128 -126 314zM248 410q0 -137 86 -228q86 -90 217 -90q129 0 215 90q86 91 86 228q0 136 -86 227q-86 90 -215 90q-131 0 -217 -90q-86 -91 -86 -227zM1004 475h548q2 116 -71 190t-191 74t-196 -72t-90 -192z" />
<glyph unicode="&#x178;" horiz-adv-x="1318" d="M76 1331q32 8 83 8t83 -8l417 -686l418 686q35 8 84 8q50 0 82 -8l-506 -831v-500q-77 -22 -153 0v500zM317 1626q0 41 29 68q27 26 70 26q42 0 68 -26q28 -28 28 -68q0 -37 -28 -65q-27 -27 -68 -27q-42 0 -70 27q-29 27 -29 65zM807 1626q0 41 29 68q27 26 69 26 q43 0 69 -26q27 -27 27 -68q0 -38 -27 -65t-69 -27q-41 0 -69 27q-29 27 -29 65z" />
<glyph unicode="&#x2c6;" horiz-adv-x="772" d="M86 1520l258 260q15 14 42 14q26 0 40 -14l258 -260q-5 -18 -34 -47q-28 -28 -48 -29l-217 219l-217 -219q-20 1 -48 29q-29 29 -34 47z" />
<glyph unicode="&#x2dc;" horiz-adv-x="802" d="M96 1524q-21 53 0 110q2 0 5.5 2t9.5 5.5t12 6.5q8 5 17.5 9.5t11.5 5.5q6 4 26 12q25 11 31 12q12 3 30 6t33 3q55 0 154 -45q58 -25 106 -25q58 0 177 62q17 -58 0 -111q-8 -2 -27 -13q-8 -4 -17.5 -9.5t-11.5 -6.5q-6 -4 -26 -12q-19 -8 -31 -11t-30 -6t-34 -3 q-54 0 -153 45q-56 24 -107 24q-58 0 -176 -61z" />
<glyph unicode="&#x2000;" horiz-adv-x="905" />
<glyph unicode="&#x2001;" horiz-adv-x="1810" />
<glyph unicode="&#x2002;" horiz-adv-x="905" />
<glyph unicode="&#x2003;" horiz-adv-x="1810" />
<glyph unicode="&#x2004;" horiz-adv-x="603" />
<glyph unicode="&#x2005;" horiz-adv-x="452" />
<glyph unicode="&#x2006;" horiz-adv-x="301" />
<glyph unicode="&#x2007;" horiz-adv-x="301" />
<glyph unicode="&#x2008;" horiz-adv-x="226" />
<glyph unicode="&#x2009;" horiz-adv-x="362" />
<glyph unicode="&#x200a;" horiz-adv-x="100" />
<glyph unicode="&#x2010;" horiz-adv-x="753" d="M96 508q-21 57 0 110h563q17 -53 0 -110h-563z" />
<glyph unicode="&#x2011;" horiz-adv-x="753" d="M96 508q-21 57 0 110h563q17 -53 0 -110h-563z" />
<glyph unicode="&#x2012;" horiz-adv-x="753" d="M96 508q-21 57 0 110h563q17 -53 0 -110h-563z" />
<glyph unicode="&#x2013;" horiz-adv-x="1046" d="M96 508q-21 57 0 110h856q17 -53 0 -110h-856z" />
<glyph unicode="&#x2014;" horiz-adv-x="1275" d="M96 508q-21 57 0 110h1086q17 -53 0 -110h-1086z" />
<glyph unicode="&#x2018;" horiz-adv-x="382" d="M88 1004q-6 80 32 188q37 105 79 139q43 16 86 0q-45 -46 -75 -125q-30 -78 -36 -137q19 4 25 4q42 0 68 -26q28 -28 28 -68q0 -39 -28 -67q-27 -27 -70 -27q-45 0 -75 29q-33 31 -34 90z" />
<glyph unicode="&#x2019;" horiz-adv-x="382" d="M88 1268q0 39 28 67q27 27 70 27q44 0 74 -30q32 -32 33 -87q8 -80 -31 -187q-39 -109 -78 -143q-43 -16 -86 0q45 46 75 125q30 78 36 138q-14 -2 -27 -2q-40 0 -66 25q-28 26 -28 67z" />
<glyph unicode="&#x201a;" horiz-adv-x="382" d="M88 61q0 40 28 68q27 27 70 27q44 0 74 -30q32 -32 33 -87q8 -80 -31 -187q-39 -108 -78 -141q-43 -16 -86 0q45 45 75 123t36 137q-14 -2 -27 -2q-39 0 -66 27q-28 28 -28 65z" />
<glyph unicode="&#x201c;" horiz-adv-x="677" d="M88 1004q-6 80 32 188q37 105 79 139q43 16 86 0q-45 -46 -75 -125q-30 -78 -36 -137q19 4 25 4q42 0 68 -26q28 -28 28 -68q0 -39 -28 -67q-27 -27 -70 -27q-45 0 -75 29q-33 31 -34 90zM383 1004q-6 80 32 188q37 105 79 139q43 16 86 0q-45 -46 -75 -125 q-30 -78 -36 -137q19 4 25 4q42 0 68 -26q28 -28 28 -68q0 -39 -28 -67q-27 -27 -70 -27q-45 0 -75 29q-33 31 -34 90z" />
<glyph unicode="&#x201d;" horiz-adv-x="675" d="M88 1268q0 39 28 67q27 27 70 27q44 0 74 -30q32 -32 33 -87q8 -80 -31 -187q-39 -109 -78 -143q-43 -16 -86 0q45 46 75 125q30 78 36 138q-14 -2 -27 -2q-40 0 -66 25q-28 26 -28 67zM383 1268q0 39 28 67q27 27 70 27q44 0 74 -30q32 -32 33 -87q8 -80 -31 -187 q-39 -109 -78 -143q-43 -16 -86 0q45 46 75 125q30 78 36 138q-14 -2 -27 -2q-40 0 -66 25q-28 26 -28 67z" />
<glyph unicode="&#x201e;" horiz-adv-x="675" d="M88 61q0 40 28 68q27 27 70 27q44 0 74 -30q32 -32 33 -87q8 -80 -31 -187q-39 -108 -78 -141q-43 -16 -86 0q45 45 75 123t36 137q-14 -2 -27 -2q-39 0 -66 27q-28 28 -28 65zM383 61q0 40 28 68q27 27 70 27q44 0 74 -30q32 -32 33 -87q8 -80 -31 -187 q-39 -108 -78 -141q-43 -16 -86 0q45 45 75 123t36 137q-14 -2 -27 -2q-39 0 -66 27q-28 28 -28 65z" />
<glyph unicode="&#x2022;" horiz-adv-x="538" d="M86 586q0 76 53 129t129 53q75 0 130 -53t55 -129t-55 -129q-56 -54 -130 -54q-75 0 -129 54q-53 53 -53 129z" />
<glyph unicode="&#x2026;" horiz-adv-x="1126" d="M86 63q0 39 29 66t69 27q42 0 69 -27q28 -28 28 -66q0 -39 -28 -67q-27 -27 -69 -27q-40 0 -69 27t-29 67zM465 63q0 39 29 66q28 27 69 27q42 0 69 -27t27 -66q0 -40 -27 -67t-69 -27q-41 0 -69 27q-29 27 -29 67zM846 63q0 39 28 66t70 27t69 -27t27 -66q0 -40 -27 -67 t-69 -27t-70 27t-28 67z" />
<glyph unicode="&#x202f;" horiz-adv-x="362" />
<glyph unicode="&#x2039;" horiz-adv-x="548" d="M86 444l262 320q57 17 113 0l-228 -320l228 -319q-56 -17 -113 0z" />
<glyph unicode="&#x203a;" horiz-adv-x="548" d="M86 125l227 319l-227 320q57 17 113 0l262 -320l-262 -319q-56 -17 -113 0z" />
<glyph unicode="&#x205f;" horiz-adv-x="452" />
<glyph unicode="&#x20ac;" horiz-adv-x="1591" d="M96 518q-22 31 0 62h164q-4 25 -4 86t4 86h-164q-21 30 0 61h174q50 242 239 395q190 154 462 154q261 0 440 -123q10 -17 10 -76q0 -57 -10 -71q-195 141 -434 141q-202 0 -352 -117t-195 -303h578q21 -31 0 -61h-592q-4 -51 -4 -86t4 -86h510q22 -31 0 -62h-496 q45 -186 195 -303t352 -117q238 0 434 142q10 -14 10 -72q0 -59 -10 -76q-179 -123 -440 -123q-272 0 -462 154q-189 153 -239 395h-174z" />
<glyph unicode="&#x2122;" horiz-adv-x="1247" d="M92 1257q-12 39 0 74h424q12 -35 0 -74h-172v-339q-41 -15 -82 0v339h-170zM520 918l119 409q37 12 72 0l129 -303l129 303q34 12 71 0l119 -409q-43 -15 -82 0l-82 286l-121 -286q-34 -12 -69 0l-121 286l-82 -286q-41 -15 -82 0z" />
<glyph unicode="&#x25fc;" horiz-adv-x="829" d="M0 0v829h829v-829h-829z" />
</font>
</defs>
</svg>
