<?xml version="1.0" standalone="no"?>
<!DOCTYPE svg PUBLIC "-//W3C//DTD SVG 1.1//EN" "http://www.w3.org/Graphics/SVG/1.1/DTD/svg11.dtd" >
<svg xmlns="http://www.w3.org/2000/svg">
<metadata></metadata>
<defs>
<font id="merel-bolduploaded_file" horiz-adv-x="1452" >
<font-face units-per-em="2048" ascent="1616" descent="-432" />
<missing-glyph horiz-adv-x="489" />
<glyph horiz-adv-x="0" />
<glyph unicode="&#xd;" horiz-adv-x="681" />
<glyph unicode=" "  horiz-adv-x="489" />
<glyph unicode="&#x09;" horiz-adv-x="489" />
<glyph unicode="&#xa0;" horiz-adv-x="489" />
<glyph unicode="!" horiz-adv-x="448" d="M70 113q0 63 44 104t109 41q66 0 110 -41t44 -104q0 -62 -44 -103t-110 -41q-65 0 -109 41t-44 103zM90 1100v231q133 24 266 0v-231l-57 -631q-76 -21 -154 0z" />
<glyph unicode="&#x22;" horiz-adv-x="786" d="M70 928v403q130 24 264 0l-78 -403q-94 -18 -186 0zM453 928v403q133 24 264 0l-78 -403q-95 -18 -186 0z" />
<glyph unicode="#" horiz-adv-x="1157" d="M72 442q-2 27 11 74q14 50 28 66h198l47 168h-196q-2 27 11 73q14 50 28 66h198l127 442q78 21 154 0l-127 -442h184l127 442q76 21 154 0l-127 -442h196q2 -27 -11 -74q-14 -50 -27 -65h-199l-49 -168h198q2 -30 -11 -75q-14 -49 -30 -65h-196l-127 -442q-76 -21 -154 0 l127 442h-184l-127 -442q-78 -21 -154 0l127 442h-196zM461 582h184l49 168h-184z" />
<glyph unicode="$" horiz-adv-x="1140" d="M106 954q0 163 111 277t307 129v192q43 22 86 0v-192q187 -7 336 -109q11 -29 13 -132q1 -102 -13 -122q-219 144 -371 144q-91 0 -146 -44q-54 -43 -54 -116q0 -74 58 -111q55 -35 218 -86q78 -23 139 -50q55 -25 118 -71q63 -47 96 -118q32 -70 32 -168 q0 -178 -118 -286t-308 -120v-192q-43 -22 -86 0v190q-208 10 -370 111q-13 31 -13 132t13 124q224 -146 395 -146q102 0 160 47q57 47 57 119q0 78 -57 115q-55 36 -224 88q-81 28 -137 54q-56 27 -118 73q-60 45 -92 113q-32 69 -32 155z" />
<glyph unicode="%" horiz-adv-x="1548" d="M70 1014q0 160 78 253q80 95 214 95q135 0 215 -95q78 -93 78 -253t-78 -253q-80 -95 -215 -95q-134 0 -214 95q-78 93 -78 253zM250 1014q0 -201 112 -201q113 0 113 201q0 200 -113 200q-112 0 -112 -200zM381 0l631 1331q77 21 153 0l-630 -1331q-76 -21 -154 0z M891 317q0 159 79 253q81 96 214 96t214 -96q79 -94 79 -253q0 -158 -79 -252q-81 -96 -214 -96t-214 96q-79 94 -79 252zM1073 317q0 -200 113 -200q112 0 112 200q0 201 -112 201q-113 0 -113 -201z" />
<glyph unicode="&#x26;" horiz-adv-x="1431" d="M70 348q0 119 63 208q62 87 189 171q-144 162 -144 299q0 146 113 241t280 95t282 -85q116 -86 116 -239q0 -111 -74 -193q-73 -80 -213 -163l229 -231q74 113 97 266q133 24 266 0q-51 -264 -184 -443l272 -272q-54 -10 -162 -10t-162 10l-110 109q-183 -144 -400 -144 q-190 0 -324 102t-134 279zM340 358q0 -83 58 -126q59 -44 141 -44q115 0 223 91l-279 278q-73 -49 -108 -93t-35 -106zM442 1020q0 -74 84 -176q99 51 138 90q38 38 38 90t-33 84q-35 33 -96 33q-57 0 -94 -34t-37 -87z" />
<glyph unicode="'" horiz-adv-x="405" d="M70 928v403q130 24 264 0l-78 -403q-94 -18 -186 0z" />
<glyph unicode="(" horiz-adv-x="563" d="M70 551q0 211 50 420q50 207 138 360q117 23 234 0q-86 -165 -133 -375q-48 -213 -48 -405q0 -193 48 -406q47 -208 133 -374q-117 -23 -234 0q-88 153 -138 360q-50 209 -50 420z" />
<glyph unicode=")" horiz-adv-x="563" d="M70 -229q84 163 132 374q48 213 48 406q0 192 -48 405t-132 375q117 22 233 0q89 -153 138 -360q51 -213 51 -420t-51 -420q-49 -207 -138 -360q-117 -22 -233 0z" />
<glyph unicode="*" horiz-adv-x="878" d="M72 997q7 97 57 174l252 -116l-31 276q88 21 180 0l-30 -276l252 116q51 -83 57 -174l-264 -57l192 -201q-67 -81 -141 -110l-156 250l-153 -250q-77 30 -144 110l193 201z" />
<glyph unicode="+" horiz-adv-x="866" d="M82 446q-23 91 0 183h264v260q88 21 178 0l-2 -260h264q23 -90 0 -185h-264v-260q-88 -21 -176 0v262h-264z" />
<glyph unicode="," horiz-adv-x="462" d="M72 113q0 63 44 104t109 41q67 0 116 -46q51 -47 52 -138q2 -111 -56 -225q-58 -115 -110 -150q-66 -15 -133 0q111 102 166 274q-25 -4 -37 -4q-63 0 -107 41t-44 103z" />
<glyph unicode="-" horiz-adv-x="724" d="M82 446q-23 91 0 183h563q23 -90 0 -185z" />
<glyph unicode="." horiz-adv-x="448" d="M70 113q0 63 44 104t109 41q66 0 110 -41t44 -104q0 -62 -44 -103t-110 -41q-65 0 -109 41t-44 103z" />
<glyph unicode="/" horiz-adv-x="716" d="M70 0l350 1331q112 21 225 0l-350 -1331q-113 -21 -225 0z" />
<glyph unicode="0" horiz-adv-x="1333" d="M106 666q0 316 152 506t410 190q257 0 409 -190t152 -506q0 -317 -152 -507t-409 -190q-258 0 -410 190t-152 507zM377 666q0 -248 79 -361q80 -115 212 -115t212 115q78 112 78 361q0 248 -78 360q-80 115 -212 115t-212 -115q-79 -113 -79 -360z" />
<glyph unicode="1" horiz-adv-x="790" d="M68 954q0 104 12 131l344 246q105 21 209 0v-1331q-133 -24 -264 0v1036l-289 -207q-12 21 -12 125z" />
<glyph unicode="2" horiz-adv-x="1085" d="M74 0v20q384 439 507 624q117 176 117 290q0 96 -59 151q-61 56 -156 56q-154 0 -340 -144q-14 20 -13 122q2 103 13 132q57 48 153 79q99 32 208 32q220 0 342 -119q121 -118 121 -297q0 -152 -101 -309q-103 -161 -350 -416h467q21 -111 0 -221h-909z" />
<glyph unicode="3" horiz-adv-x="1122" d="M150 211q0 100 12 121q218 -144 379 -144q100 0 167 52q66 51 66 147q0 81 -51 131q-50 49 -154 49h-166q-21 106 0 211h162q81 0 131 49q52 50 52 131q0 84 -57 134q-56 49 -152 49q-155 0 -367 -144q-12 21 -12 122q0 102 12 132q159 111 379 111q212 0 336 -100 q125 -101 125 -261q0 -106 -53 -189t-140 -126q109 -44 167 -130t58 -202q0 -176 -137 -281q-138 -106 -344 -106q-113 0 -223 32q-107 31 -178 79q-12 33 -12 133z" />
<glyph unicode="4" horiz-adv-x="1187" d="M80 264q-21 106 0 217l653 850q105 21 209 0v-850h166q21 -111 0 -217h-166v-264q-133 -24 -266 0v264h-596zM311 481h367v477z" />
<glyph unicode="5" horiz-adv-x="1093" d="M115 211q0 100 12 121q217 -144 379 -144q107 0 173 60t66 158q0 105 -77 161q-79 58 -203 58q-117 0 -270 -68l110 774h643q21 -111 0 -221h-440l-45 -303q51 16 112 16q193 0 317 -111t124 -306q0 -202 -138 -320q-139 -119 -354 -119q-109 0 -219 32q-107 31 -178 79 q-12 33 -12 133z" />
<glyph unicode="6" horiz-adv-x="1189" d="M106 459q0 148 66 301t161 266q93 111 182 192q83 76 151 113q53 10 160 10q109 0 163 -10q-394 -311 -512 -543q94 66 217 64q177 -5 284 -125t107 -297q0 -194 -134 -328q-133 -133 -353 -133q-224 0 -358 137t-134 353zM377 422q0 -101 59 -166q60 -66 160 -66 q96 0 158 65q61 64 61 171q0 102 -59 161q-60 60 -158 60q-119 0 -207 -88q-14 -59 -14 -137z" />
<glyph unicode="7" horiz-adv-x="1126" d="M106 1110q-21 110 0 221h949v-20l-609 -1311q-143 -27 -286 0l520 1110h-574z" />
<glyph unicode="8" horiz-adv-x="1120" d="M78 352q0 116 59 203t166 131q-87 43 -140 126q-52 82 -52 189q0 157 121 259q122 102 327 102t327 -102t122 -259q0 -106 -53 -189t-140 -126q107 -44 166 -131t59 -203q0 -178 -135 -281q-136 -104 -346 -104t-346 104q-135 103 -135 281zM348 381q0 -90 60 -141 q61 -52 151 -52q91 0 152 52q59 50 59 141q0 86 -55 137t-146 51h-20q-88 0 -145 -51q-56 -50 -56 -137zM373 958q0 -77 50 -130q49 -52 126 -52h20q78 0 127 52t49 130t-51 131q-51 52 -135 52t-135 -52q-51 -53 -51 -131z" />
<glyph unicode="9" horiz-adv-x="1189" d="M106 901q0 193 135 328q133 133 353 133q224 0 358 -137q133 -136 133 -353q0 -150 -65 -301q-66 -153 -161 -266q-89 -106 -182 -191q-86 -78 -151 -114q-54 -10 -161 -10q-108 0 -162 10q183 142 315 276q126 127 195 267q-89 -66 -215 -64q-177 5 -284 125 q-108 122 -108 297zM377 905q0 -102 59 -161q60 -60 158 -60q119 0 207 88q14 74 14 137q0 99 -60 165q-61 67 -159 67q-96 0 -158 -65q-61 -64 -61 -171z" />
<glyph unicode=":" horiz-adv-x="448" d="M70 113q0 63 44 104t109 41q66 0 110 -41t44 -104q0 -62 -44 -103t-110 -41q-65 0 -109 41t-44 103zM70 705q0 63 44 104t109 41q66 0 110 -41t44 -104q0 -62 -44 -103t-110 -41q-65 0 -109 41t-44 103z" />
<glyph unicode=";" horiz-adv-x="462" d="M72 113q0 63 44 104t109 41q67 0 116 -46q51 -47 52 -138q2 -111 -56 -225q-58 -115 -110 -150q-66 -15 -133 0q111 102 166 274q-25 -4 -37 -4q-63 0 -107 41t-44 103zM72 705q0 63 44 104t109 41q66 0 110 -41t44 -104q0 -62 -44 -103t-110 -41q-65 0 -109 41t-44 103z " />
<glyph unicode="&#x3c;" horiz-adv-x="892" d="M82 502q-24 43 0 86l731 385q24 -105 0 -211l-428 -217l428 -219q24 -106 0 -211z" />
<glyph unicode="=" horiz-adv-x="866" d="M82 291q-23 90 0 182h704q22 -90 0 -184zM82 612q-23 92 0 183h704q23 -90 0 -185z" />
<glyph unicode="&#x3e;" horiz-adv-x="892" d="M82 115q-24 105 0 211l428 219l-428 217q-24 106 0 211l731 -385q24 -43 0 -86z" />
<glyph unicode="?" horiz-adv-x="993" d="M70 1119q0 102 12 132q166 111 399 111q211 0 327 -105t116 -251q0 -58 -15 -102q-16 -46 -54 -90q-42 -48 -73 -75q-51 -44 -104 -86q-70 -51 -93 -84q-22 -31 -22 -100q-133 -24 -266 0q0 101 33 153q33 53 133 132q99 74 116 88q28 24 51 59q23 36 23 80q0 72 -53 116 t-145 44q-154 0 -373 -144q-12 21 -12 122zM276 113q0 62 45 104q44 41 109 41q66 0 110 -41t44 -104q0 -62 -44 -103t-110 -41q-65 0 -109 41q-45 42 -45 103z" />
<glyph unicode="@" horiz-adv-x="1871" d="M106 420q0 351 242 585t619 234q374 0 587 -213t213 -534q0 -150 -33 -252q-35 -108 -90 -163q-57 -56 -118 -82q-63 -26 -127 -26q-83 0 -156 36q-74 36 -113 110q-57 -72 -121 -109t-163 -37q-174 0 -281 126q-106 125 -106 315q0 189 106 314q107 126 281 126 q169 0 274 -133l19 102q105 21 209 0v-530q0 -133 75 -133q70 0 115 83t45 253q0 274 -167 426q-166 151 -449 151q-293 0 -484 -175q-192 -176 -192 -476q0 -257 136 -406q136 -150 314 -190q15 -23 15 -82q0 -57 -13 -88q-264 34 -450 249q-187 216 -187 519zM700 410 q0 -104 59 -168t150 -64q109 0 197 88v287q-88 88 -197 88q-91 0 -150 -63q-59 -64 -59 -168z" />
<glyph unicode="A" d="M70 0l546 1331q56 10 111 11l111 -11l546 -1331q-68 -14 -137 -14l-137 14l-115 295h-536l-115 -295q-68 -14 -137 -14zM543 518h368l-184 471z" />
<glyph unicode="B" horiz-adv-x="1249" d="M158 0v1331h555q189 0 307 -96q119 -96 119 -248q0 -209 -189 -297q103 -40 163 -124q58 -82 58 -193q0 -173 -122 -273t-332 -100h-559zM422 221h278q96 0 149 48q52 48 52 134q0 85 -52 131t-153 46h-274v-359zM422 768h268q84 0 133 45t49 125q0 82 -50 127t-138 45 h-262v-342z" />
<glyph unicode="C" horiz-adv-x="1425" d="M106 666q0 294 204 495t536 201q244 0 418 -111q12 -27 12 -124q0 -96 -12 -117q-206 131 -404 131q-207 0 -345 -132t-138 -343t138 -343q139 -133 345 -133q196 0 404 132q12 -21 12 -118t-12 -124q-174 -111 -418 -111q-332 0 -536 201t-204 496z" />
<glyph unicode="D" d="M158 0v1331h483q321 0 513 -188q194 -189 194 -477q0 -289 -194 -478q-192 -188 -513 -188h-483zM422 221h219q193 0 314 119q120 119 120 326q0 206 -120 325q-121 119 -314 119h-219v-889z" />
<glyph unicode="E" horiz-adv-x="1161" d="M158 0v1331h915q10 -56 10.5 -111t-10.5 -110h-649v-324h584q10 -55 10 -110.5t-10 -110.5h-584v-344h649q10 -56 10.5 -111t-10.5 -110h-915z" />
<glyph unicode="F" horiz-adv-x="1161" d="M158 0v1331h915q10 -56 10.5 -111t-10.5 -110h-649v-338h584q10 -55 10 -110.5t-10 -110.5h-584v-551q-66 -12 -133 -12z" />
<glyph unicode="G" horiz-adv-x="1449" d="M106 666q0 294 204 495t536 201q244 0 418 -111q12 -27 12 -124q0 -96 -12 -117q-206 131 -404 131q-207 0 -345 -132t-138 -343q0 -216 138 -348t345 -132q94 0 180 33v426q66 12 131 12t129 -12v-565q-71 -48 -194 -79q-126 -32 -260 -32q-332 0 -536 201t-204 496z " />
<glyph unicode="H" horiz-adv-x="1488" d="M158 0v1331q66 12 133 12l133 -12v-545h645v545q66 12 132.5 12t131.5 -12v-1331q-66 -12 -132.5 -12t-131.5 12v565h-645v-565q-66 -12 -133 -12z" />
<glyph unicode="I" horiz-adv-x="579" d="M158 0v1331q66 12 133 12l133 -12v-1331q-66 -12 -133 -12z" />
<glyph unicode="J" horiz-adv-x="837" d="M68 146q0 85 12 106q90 -45 168 -45q168 0 168 192v932q65 12 131 12t133 -12v-956q0 -194 -95 -300t-263 -106q-137 0 -242 66q-12 27 -12 111z" />
<glyph unicode="K" horiz-adv-x="1345" d="M158 0v1331q66 12 133 12l133 -12v-608l514 608q54 10 159 10q104 0 158 -10l-548 -647l571 -684q-54 -10 -159 -10q-104 0 -158 10l-537 645v-645q-66 -12 -133 -12z" />
<glyph unicode="L" horiz-adv-x="1107" d="M158 0v1331q66 12 133 12l133 -12v-1110h604q12 -55 12 -110t-12 -111h-870z" />
<glyph unicode="M" horiz-adv-x="1871" d="M70 0l313 1331q56 10 111.5 10.5t111.5 -10.5l330 -915l330 915q56 10 112 10.5t111 -10.5l313 -1331q-64 -12 -129 -12l-129 12l-192 858l-310 -858q-52 -10 -105.5 -10t-107.5 10l-309 858l-190 -858q-64 -12 -129 -12t-131 12z" />
<glyph unicode="N" horiz-adv-x="1474" d="M150 0v1331q52 11 104 11l104 -11l701 -885v885q66 12 132.5 12.5t131.5 -12.5v-1331q-51 -10 -103 -10t-106 10l-698 885v-885q-66 -12 -133 -12z" />
<glyph unicode="O" horiz-adv-x="1617" d="M106 666q0 293 198 494q199 202 505 202q308 0 507 -202q197 -200 197 -494q0 -295 -197 -495q-199 -202 -507 -202q-306 0 -505 202q-198 201 -198 495zM377 666q0 -212 124 -343q125 -133 308 -133q184 0 309 133t125 343t-125 343q-124 132 -309 132q-183 0 -308 -132 q-124 -131 -124 -343z" />
<glyph unicode="P" horiz-adv-x="1263" d="M158 0v1331h506q225 0 360 -123t135 -317q0 -195 -135 -318q-134 -122 -360 -122h-240v-451q-66 -12 -133 -12zM422 672h240q104 0 165 58q62 59 62 161q0 100 -62 160q-60 59 -165 59h-240v-438z" />
<glyph unicode="Q" horiz-adv-x="1617" d="M106 666q0 293 198 494q199 202 505 202q308 0 507 -202q197 -200 197 -494q0 -223 -119 -399q-120 -177 -323 -249l250 -356q-69 -14 -138 -14t-139 14l-217 307h-32q-304 5 -496 206q-193 202 -193 491zM377 666q0 -212 124 -343q125 -133 308 -133q184 0 309 133 t125 343t-125 343q-124 132 -309 132q-183 0 -308 -132q-124 -131 -124 -343z" />
<glyph unicode="R" horiz-adv-x="1302" d="M158 0v1331h518q226 0 360 -121q135 -122 135 -313q0 -140 -73 -244q-72 -103 -209 -149l342 -504q-72 -14 -145 -14t-146 14l-317 465h-199v-465q-66 -12 -133 -12zM422 686h252q106 0 166 56q61 57 61 155q0 99 -61 156q-62 57 -166 57h-252v-424z" />
<glyph unicode="S" horiz-adv-x="1140" d="M106 954q0 171 125 290q124 118 342 118q207 0 373 -111q11 -29 13 -132v-13q0 -90 -13 -109q-219 144 -371 144q-91 0 -146 -44q-54 -43 -54 -116q0 -74 58 -111q55 -35 218 -86q78 -23 139 -50q55 -25 118 -71q63 -47 96 -118q32 -70 32 -168q0 -192 -135 -300 t-342 -108q-231 0 -405 111q-13 31 -13 132t13 124q224 -146 395 -146q102 0 160 47q57 47 57 119q0 78 -57 115q-55 36 -224 88q-81 28 -137 54q-56 27 -118 73q-60 45 -92 113q-32 69 -32 155z" />
<glyph unicode="T" horiz-adv-x="1202" d="M80 1110q-10 55 -10 110.5t10 110.5h1042q10 -56 10.5 -111t-10.5 -110h-389v-1110q-66 -12 -131.5 -12t-132.5 12v1110h-389z" />
<glyph unicode="U" horiz-adv-x="1419" d="M158 543v788q68 12 135 12l135 -12v-827q0 -144 76 -229t211 -85t210 85q74 84 74 229v827q68 12 135.5 12t135.5 -12v-788q0 -285 -145 -430q-144 -144 -410 -144q-267 0 -412 144t-145 430z" />
<glyph unicode="V" horiz-adv-x="1431" d="M70 1331q68 14 137 13l137 -13l373 -936l373 936q68 14 137 13l137 -13l-537 -1331q-56 -10 -111 -10t-110 10z" />
<glyph unicode="W" horiz-adv-x="2086" d="M70 1331q68 14 137 13l137 -13l295 -936l295 936q56 10 111 10.5t110 -10.5l295 -936l295 936q68 14 137 13l137 -13l-458 -1331q-56 -10 -111 -10l-111 10l-295 891l-294 -891q-56 -10 -111 -10l-111 10z" />
<glyph unicode="X" horiz-adv-x="1355" d="M70 0l430 684l-412 647q54 10 153 10q98 0 152 -10l293 -465l277 465q54 10 152 10q99 0 153 -10l-412 -647l430 -684q-54 -10 -152 -10t-151 10l-313 498l-295 -498q-54 -10 -153 -10q-98 0 -152 10z" />
<glyph unicode="Y" horiz-adv-x="1390" d="M70 1331q70 13 141 13t143 -13l342 -608l340 608q72 13 143 13t142 -13l-492 -856v-475q-67 -12 -133 -12l-133 12v475z" />
<glyph unicode="Z" horiz-adv-x="1144" d="M78 0v20l598 1090h-565q-10 55 -10.5 110.5t10.5 110.5h954v-20l-596 -1090h586q10 -56 10.5 -111t-10.5 -110h-977z" />
<glyph unicode="[" horiz-adv-x="593" d="M70 -229v1558l442 2q21 -105 0 -211h-201v-1140l201 2q21 -105 0 -211h-442z" />
<glyph unicode="\" horiz-adv-x="716" d="M70 1331q112 21 225 0l350 -1331q-113 -21 -225 0z" />
<glyph unicode="]" horiz-adv-x="593" d="M82 -18l201 -2v1140h-201q-21 106 0 211l442 -2v-1558h-442q-21 106 0 211z" />
<glyph unicode="^" horiz-adv-x="841" d="M70 855q0 103 12 136l338 340l338 -340q11 -32 13 -136t-13 -124l-338 342l-338 -342q-12 21 -12 124z" />
<glyph unicode="_" horiz-adv-x="966" d="M82 -66h805q22 -90 0 -184l-805 2q-23 92 0 182z" />
<glyph unicode="`" horiz-adv-x="530" d="M70 1759q16 33 69 74q55 43 88 49l232 -334q-16 -30 -55 -59q-43 -32 -72 -37z" />
<glyph unicode="a" horiz-adv-x="978" d="M84 233q0 121 83 193t214 72q145 0 235 -78v65q0 170 -192 170q-127 0 -260 -77q-13 18 -13 77v16q2 74 13 101q117 78 309 78q385 0 385 -385v-465q-52 -10 -104 -10t-105 10l-14 88q-105 -119 -262 -119q-123 0 -206 71t-83 193zM324 250q0 -44 30 -72q29 -28 88 -28 q98 0 174 61v78q-29 24 -75 41q-49 18 -97 18q-60 0 -90 -27t-30 -71z" />
<glyph unicode="b" horiz-adv-x="1101" d="M123 0v1331q60 11 121 11l121 -11v-596q100 115 260 115q173 0 280 -126q107 -127 107 -314q0 -188 -107 -315q-107 -126 -280 -126q-170 0 -275 133l-18 -102q-52 -10 -104.5 -10t-104.5 10zM365 266q84 -88 194 -88q94 0 153 64q58 62 58 168t-58 168q-58 63 -153 63 q-110 0 -194 -88v-287z" />
<glyph unicode="c" horiz-adv-x="964" d="M90 410q0 194 128 317t333 123q168 0 280 -88q13 -28 14 -103v-9q0 -66 -14 -87q-141 84 -256 84q-106 0 -174 -64q-69 -65 -69 -173t69 -173q70 -65 174 -65q115 0 256 84q14 -21 14 -87v-9q-1 -75 -14 -103q-112 -88 -280 -88q-205 0 -333 123t-128 318z" />
<glyph unicode="d" horiz-adv-x="1101" d="M90 410q0 187 107 314q107 126 280 126q160 0 260 -115v596q60 11 121 11l121 -11v-1331q-53 -10 -106 -10t-105 10l-16 102q-105 -133 -275 -133q-173 0 -280 126q-107 127 -107 315zM332 410q0 -106 58 -168q59 -64 151 -64q108 0 196 88v287q-88 88 -196 88 q-93 0 -151 -63q-58 -62 -58 -168z" />
<glyph unicode="e" horiz-adv-x="1015" d="M90 412q0 192 124 315t318 123q116 0 205 -47q88 -46 129 -119t59 -155q8 -34 8 -66q0 -45 -15 -86h-584q11 -97 77 -151t167 -54q129 0 270 84q12 -21 12 -96q0 -76 -12 -103q-116 -88 -297 -88q-209 0 -335 123t-126 320zM348 504h350q-1 76 -47 120t-116 44 q-74 0 -123 -43t-64 -121z" />
<glyph unicode="f" horiz-adv-x="778" d="M76 616q-12 50 -12 101t12 102h121v258q0 135 85 210q86 75 207 75q111 0 209 -43q13 -31 13 -110q0 -78 -13 -101q-94 51 -145 51q-115 0 -115 -131v-209h224q12 -51 12 -102t-12 -101h-224v-616q-60 -11 -120 -11t-121 11v616h-121z" />
<glyph unicode="g" horiz-adv-x="1101" d="M90 418q0 182 107 307t280 125q170 0 275 -133l16 102q52 11 105 11t106 -11v-784q0 -184 -116 -292t-316 -108q-207 0 -320 84q-12 27 -12 101q0 73 12 94q130 -80 271 -80q108 0 173 46q66 47 66 143v75q-100 -112 -260 -112q-173 0 -280 125t-107 307zM332 418 q0 -101 58 -162t151 -61q108 0 196 88v270q-88 88 -196 88q-93 0 -151 -61t-58 -162z" />
<glyph unicode="h" horiz-adv-x="1046" d="M127 0v1331q60 11 121 11l121 -11v-594q122 113 249 113q158 0 233 -93t75 -229v-528q-60 -11 -121 -11l-121 11v475q0 166 -147 166q-95 0 -168 -78v-563q-60 -11 -121 -11z" />
<glyph unicode="i" horiz-adv-x="559" d="M127 1167q0 64 44 105t110 41q65 0 109 -41t44 -105q0 -63 -44 -104t-109 -41q-66 0 -110 41t-44 104zM160 0v819q60 11 120.5 11t120.5 -11v-819q-60 -11 -120.5 -11t-120.5 11z" />
<glyph unicode="j" horiz-adv-x="614" d="M8 -220q0 76 12 97q84 -39 134 -39q36 0 50 24q13 23 13 79v878q61 11 121 11l121 -11v-913q0 -132 -64 -202q-63 -69 -176 -69q-112 0 -199 41q-12 27 -12 104zM186 1165q0 62 44 103t108 41q65 0 109 -41q45 -42 45 -103q0 -60 -45 -102q-44 -41 -109 -41 q-64 0 -108 41t-44 102z" />
<glyph unicode="k" horiz-adv-x="1015" d="M127 0v1331q60 11 121 11l121 -11v-868l295 356q68 14 137 13l137 -13l-330 -391l340 -428q-68 -14 -137 -14l-137 14l-305 391v-391q-60 -11 -121 -11z" />
<glyph unicode="l" horiz-adv-x="489" d="M127 0v1331q60 11 121 11l121 -11v-1331q-60 -11 -121 -11z" />
<glyph unicode="m" horiz-adv-x="1603" d="M123 0v819q52 10 104.5 10.5t104.5 -10.5l18 -106q122 137 271 137q198 0 270 -158q131 158 289 158q156 0 229 -93q74 -94 74 -229v-528q-60 -11 -121 -11l-121 11v475q0 166 -143 166q-90 0 -174 -84v-557q-60 -11 -121 -11l-121 11v475q0 166 -143 166q-95 0 -174 -84 v-557q-60 -11 -121 -11z" />
<glyph unicode="n" horiz-adv-x="1048" d="M123 0v819q52 10 104.5 10.5t104.5 -10.5l18 -106q122 137 273 137q157 0 232 -93t75 -229v-528q-60 -11 -121 -11l-121 11v475q0 166 -147 166q-97 0 -176 -84v-557q-60 -11 -121 -11z" />
<glyph unicode="o" horiz-adv-x="1083" d="M90 410q0 185 127 312q128 128 324 128q195 0 323 -128q127 -127 127 -312q0 -186 -127 -313q-128 -128 -323 -128q-196 0 -324 128q-127 127 -127 313zM332 410q0 -106 59 -168q61 -64 150 -64q88 0 149 64q60 63 60 168t-60 168t-149 63q-90 0 -150 -63 q-59 -62 -59 -168z" />
<glyph unicode="p" horiz-adv-x="1105" d="M127 -334v1153q53 11 105 11t104 -11l18 -102q105 133 275 133q174 0 280 -126q107 -127 107 -314q0 -188 -107 -315q-106 -126 -280 -126q-160 0 -260 115v-418q-61 -11 -121 -11zM369 266q84 -88 194 -88q94 0 153 64q58 62 58 168t-58 168q-58 63 -153 63 q-110 0 -194 -88v-287z" />
<glyph unicode="q" horiz-adv-x="1101" d="M90 410q0 187 107 314q107 126 280 126q170 0 275 -133l16 102q52 11 105 11t106 -11v-1153q-61 -11 -121 -11l-121 11v418q-100 -115 -260 -115q-173 0 -280 126q-107 127 -107 315zM332 410q0 -106 58 -168q59 -64 151 -64q108 0 196 88v287q-88 88 -196 88 q-93 0 -151 -63q-58 -62 -58 -168z" />
<glyph unicode="r" horiz-adv-x="835" d="M123 0v819q52 10 104.5 10.5t104.5 -10.5l26 -149q102 180 258 180q90 0 142 -37q12 -21 12 -120t-12 -128q-98 64 -178 64q-60 0 -121 -44q-59 -43 -94 -110v-475q-60 -11 -121 -11z" />
<glyph unicode="s" horiz-adv-x="829" d="M78 580q0 125 92 197q93 73 242 73q77 0 160 -20q80 -19 126 -50q13 -31 13 -96t-13 -88q-156 96 -266 96q-50 0 -82 -22q-33 -22 -33 -60q0 -8 2 -18q1 -5 9 -15t11 -13q6 -6 15 -11q3 -2 6.5 -3.5t7.5 -3.5l6 -3q9 -5 24 -9q5 -2 14 -5l12 -4l30 -9q24 -7 31 -10 q131 -44 199 -104t68 -164q0 -130 -101 -199q-102 -70 -245 -70q-78 0 -164 20q-82 19 -127 50q-13 30 -14 96v8q0 59 14 80q151 -96 278 -96q53 0 84 20q33 21 33 60q0 34 -30 52q-32 19 -105 42q-4 1 -10 3q-3 1 -11 3l-12 4q-126 43 -196 101q-68 56 -68 168z" />
<glyph unicode="t" horiz-adv-x="784" d="M76 616q-12 50 -12 101t12 102h121v266q60 11 120.5 11t120.5 -11v-266h230q12 -51 12 -102t-12 -101h-230v-342q0 -102 72 -102q68 0 162 82q13 -19 13 -86v-10q-2 -78 -13 -105q-76 -84 -226 -84q-117 0 -183 69t-66 202v376h-121z" />
<glyph unicode="u" horiz-adv-x="1044" d="M119 291v528q60 11 120.5 11t120.5 -11v-475q0 -166 148 -166q92 0 176 84v557q60 11 121 11l121 -11v-819q-54 -10 -106 -10t-103 10l-19 106q-122 -137 -272 -137q-159 0 -233 93q-74 94 -74 229z" />
<glyph unicode="v" horiz-adv-x="1060" d="M66 819q63 12 126.5 12t126.5 -12l211 -502l211 502q64 12 127 12l127 -12l-366 -819q-50 -12 -99 -12t-98 12z" />
<glyph unicode="w" horiz-adv-x="1538" d="M66 819q64 12 128 12t128 -12l161 -500l187 500q50 12 99.5 12t98.5 -12l187 -500l162 500q64 12 127.5 12t128.5 -12l-318 -819q-50 -12 -99 -12t-98 12l-188 516l-190 -516q-49 -12 -98.5 -12t-98.5 12z" />
<glyph unicode="x" horiz-adv-x="1038" d="M66 0l290 428l-274 391q68 14 136 13.5t136 -13.5l172 -246l164 246q66 12 132 12t134 -12l-274 -391l289 -428q-68 -12 -135.5 -12t-135.5 12l-188 270l-180 -270q-66 -12 -133 -12z" />
<glyph unicode="y" horiz-adv-x="1060" d="M66 819q63 12 126.5 12t126.5 -12l211 -489l211 489q63 12 127 12l127 -12l-524 -1153q-61 -11 -123 -11l-123 11l183 402z" />
<glyph unicode="z" horiz-adv-x="884" d="M76 0v18l375 592h-342q-10 52 -10.5 104t10.5 105h700v-18l-375 -592l365 2q10 -52 10.5 -105t-10.5 -106h-723z" />
<glyph unicode="{" horiz-adv-x="686" d="M70 535v32q73 33 99 62q25 28 26 71q23 349 186 631q117 22 233 0q-64 -132 -101 -246q-39 -123 -46 -169q-21 -149 -25 -177q-7 -65 -45 -107q-39 -44 -108 -81q69 -37 108 -81q37 -42 45 -108q4 -28 25 -177q7 -46 46 -169q36 -111 101 -245q-116 -22 -233 0 q-163 282 -186 630q-1 44 -26 72q-26 29 -99 62z" />
<glyph unicode="|" horiz-adv-x="294" d="M70 -123v1454q77 18 155 0v-1454q-77 -18 -155 0z" />
<glyph unicode="}" horiz-adv-x="686" d="M70 -229q65 134 101 245q39 123 46 169q21 149 25 177q8 66 45 108q39 44 108 81q-69 37 -108 81q-38 42 -45 107q-4 28 -25 177q-7 46 -46 169q-37 114 -101 246q117 22 233 0q163 -282 186 -631q1 -43 26 -71q26 -29 99 -62v-32q-73 -33 -99 -62q-25 -28 -26 -72 q-23 -348 -186 -630q-117 -22 -233 0z" />
<glyph unicode="~" horiz-adv-x="944" d="M82 360q-23 95 0 185q4 1 45 24q46 26 59 31q15 6 57 18q39 11 72 11q69 0 164 -50q97 -51 154 -51q18 0 52 6q23 4 54 17q38 16 44 19q26 13 46 24q29 16 35 18q22 -94 0 -184q-1 0 -6 -3t-17 -9.5t-22 -12.5q-39 -22 -59 -30q-22 -9 -57 -19q-36 -10 -72 -10 q-69 0 -164 50t-154 50q-24 0 -52 -5q-23 -4 -54 -17q-25 -11 -44 -20q-3 -1 -11 -5l-17 -8.5t-18 -9.5q-34 -19 -35 -19z" />
<glyph unicode="&#xa1;" horiz-adv-x="448" d="M70 868q0 62 44 103t109 41q66 0 110 -41t44 -103q0 -63 -44 -104t-110 -41q-65 0 -109 41t-44 104zM90 -119l55 631q78 21 154 0l57 -631v-231q-133 -24 -266 0v231z" />
<glyph unicode="&#xa2;" horiz-adv-x="962" d="M90 410q0 183 115 304q113 119 303 134v192q45 22 88 0v-192q140 -11 235 -86q13 -28 14 -103q1 -74 -14 -96q-141 84 -256 84q-106 0 -174 -64q-69 -65 -69 -173t69 -173q70 -65 174 -65q115 0 256 84q15 -22 14 -96q-1 -75 -14 -103q-95 -75 -235 -86v-192 q-43 -22 -88 0v192q-190 15 -303 134q-115 121 -115 305z" />
<glyph unicode="&#xa3;" horiz-adv-x="1177" d="M80 604q-22 43 0 88h135q-25 175 -25 254q0 179 121 297q122 119 342 119q229 0 363 -111q12 -30 12 -132q0 -101 -12 -122q-189 144 -342 144q-95 0 -156 -56q-59 -55 -59 -151q0 -89 30 -242h361q22 -45 0 -88h-342q30 -250 -55 -383h563q21 -111 0 -221h-875v20 q60 90 84 198q24 110 23 190q-1 74 -19 196h-149z" />
<glyph unicode="&#xa4;" horiz-adv-x="757" d="M70 381l88 88q-52 73 -52 160t52 157l-88 88q17 46 61 62l88 -88q73 53 160 53q88 0 158 -53l88 88q49 -16 61 -62l-88 -88q53 -70 53 -158t-53 -161l88 -86q-12 -48 -61 -64l-88 89q-71 -52 -159 -51q-89 2 -159 53l-88 -91q-44 16 -61 64zM245 630q2 -55 40 -95 q41 -41 94 -41q55 0 94 38q40 40 38 94q-2 55 -40 95q-40 38 -95 40q-54 1 -93 -38t-38 -93z" />
<glyph unicode="&#xa5;" horiz-adv-x="1390" d="M70 1331q141 27 284 0l342 -608l340 608q144 27 285 0l-459 -796h236q22 -43 0 -86h-269v-132h269q22 -43 0 -88h-269v-229q-133 -24 -266 0v229h-268q-22 45 0 88h268v132h-268q-22 43 0 86h235z" />
<glyph unicode="&#xa6;" horiz-adv-x="294" d="M70 -123v639q77 18 155 0v-639q-77 -18 -155 0zM70 692v639q77 18 155 0v-639q-77 -18 -155 0z" />
<glyph unicode="&#xa7;" horiz-adv-x="815" d="M70 463q0 123 108 196q-108 72 -108 195q0 126 92 198q91 72 241 72q82 0 161 -19q80 -19 126 -50q12 -28 12 -97q0 -67 -12 -88q-158 97 -266 97q-48 0 -82 -23q-33 -22 -33 -59q0 -9 2 -19q1 -7 8 -15q2 -2 4 -4.5t4.5 -4.5t3.5 -3q8 -8 15 -12l20 -10q9 -5 24 -9 q5 -1 13.5 -4t12.5 -4t14 -4.5t15 -4.5q15 -5 32 -11q136 -45 201 -106t65 -162q0 -126 -104 -197q104 -71 104 -194q0 -128 -93 -200q-94 -73 -244 -73q-75 0 -160 20q-80 19 -125 50q-11 29 -13 97q-2 67 13 87q151 -96 266 -96q48 0 83 23q34 22 34 61q0 36 -33 56 q-34 20 -106 42q-19 5 -29 9q-137 44 -201 104q-65 61 -65 162zM238 551q0 -21 6 -37q6 -18 23 -30q26 -19 30 -23q11 -10 42 -22q28 -11 44 -16t51 -16q38 -12 47 -16l54 -20q40 18 40 53q0 20 -6 37t-23 31q-4 3 -14 11.5t-15 12.5q-11 10 -42 22q-9 4 -17.5 7t-16 5.5 t-9.5 3.5q-19 7 -51 17q-11 3 -22 7t-17 6t-8 2l-49 16q-47 -17 -47 -51z" />
<glyph unicode="&#xa8;" horiz-adv-x="944" d="M70 1651q0 63 44 104t109 41q66 0 110 -41t44 -104q0 -64 -44 -105t-110 -41q-65 0 -109 41t-44 105zM567 1651q0 63 44 104t110 41q65 0 109 -41t44 -104q0 -64 -44 -105t-109 -41q-66 0 -110 41t-44 105z" />
<glyph unicode="&#xa9;" horiz-adv-x="1251" d="M70 881q0 230 161 391q162 162 394 162q231 0 393 -162t162 -391q0 -230 -162 -392q-161 -161 -393 -161q-233 0 -394 161t-161 392zM180 881q0 -185 129 -316t316 -131q188 0 317 130t129 317q0 183 -129 314q-129 130 -317 130q-187 0 -316 -130q-129 -131 -129 -314z M348 879q0 124 82 202t213 78q107 0 178 -55q7 -18 9 -66q2 -47 -9 -59q-86 53 -162 53q-67 0 -112 -42t-45 -111q0 -71 45 -111q46 -41 112 -41q79 0 162 53q11 -12 9 -60q-2 -49 -9 -65q-69 -57 -178 -57q-131 0 -213 79t-82 202z" />
<glyph unicode="&#xab;" horiz-adv-x="944" d="M70 444l245 320q92 18 187 0l-193 -320l193 -319q-95 -18 -187 0zM440 444l246 320q92 18 186 0l-192 -320l192 -319q-94 -18 -186 0z" />
<glyph unicode="&#xac;" horiz-adv-x="856" d="M82 446q-23 91 0 183h704l-2 -387q-96 -22 -192 0v202z" />
<glyph unicode="&#xad;" horiz-adv-x="724" d="M82 446q-23 91 0 183h563q23 -90 0 -185z" />
<glyph unicode="&#xae;" horiz-adv-x="1251" d="M70 881q0 230 161 391q162 162 394 162q231 0 393 -162t162 -391q0 -230 -162 -392q-161 -161 -393 -161q-233 0 -394 161t-161 392zM180 881q0 -185 129 -316t316 -131q188 0 317 130t129 317q0 183 -129 314q-129 130 -317 130q-187 0 -316 -130q-129 -131 -129 -314z M389 621v526h297q89 0 138 -46q50 -47 50 -136q0 -114 -104 -148l145 -196q-83 -22 -167 0l-132 174h-73v-174q-78 -21 -154 0zM543 905h102q78 0 78 66q0 65 -78 65h-102v-131z" />
<glyph unicode="&#xaf;" horiz-adv-x="692" d="M82 1507q-23 91 0 183h530q23 -90 0 -185z" />
<glyph unicode="&#xb0;" horiz-adv-x="659" d="M70 1243q0 109 75 183q77 75 183 75q108 0 184 -75t76 -183q0 -106 -76 -182t-184 -76q-107 0 -183 76q-75 75 -75 182zM223 1243q0 -44 31 -75q29 -29 74 -29q46 0 75 29q31 31 31 75t-31 75q-30 30 -75 30q-44 0 -74 -30q-31 -31 -31 -75z" />
<glyph unicode="&#xb1;" horiz-adv-x="866" d="M82 162q-23 92 0 182h704q22 -90 0 -184zM82 584q-23 92 0 182h264v160q88 21 178 0l-2 -160h264q22 -90 0 -184h-264v-158q-88 -21 -176 0v160h-264z" />
<glyph unicode="&#xb4;" horiz-adv-x="530" d="M70 1548l231 334q33 -6 88 -49q54 -43 70 -74l-262 -307q-31 6 -73 37q-38 28 -54 59z" />
<glyph unicode="&#xb6;" horiz-adv-x="1247" d="M70 922q0 203 127 306t297 103h671q18 -77 0 -153h-127v-1512q-77 -18 -153 0v1512h-236v-1512q-77 -18 -155 0v862q-108 0 -200 36t-158 128t-66 230z" />
<glyph unicode="&#xb7;" horiz-adv-x="448" d="M70 506q0 63 44 104t109 41q66 0 110 -41t44 -104q0 -62 -44 -103t-110 -41q-65 0 -109 41t-44 103z" />
<glyph unicode="&#xb8;" horiz-adv-x="497" d="M70 -334q0 42 10 62q80 -54 135 -54q90 4 90 76q0 50 -48 68q-50 19 -112 -8v190h117v-106q62 4 114 -39t52 -119q0 -78 -55 -127t-142 -49q-84 0 -151 43q-10 21 -10 63z" />
<glyph unicode="&#xbb;" horiz-adv-x="944" d="M70 125l192 319l-192 320q94 18 188 0l244 -320l-244 -319q-94 -18 -188 0zM440 125l193 319l-193 320q94 18 189 0l243 -320l-243 -319q-95 -18 -189 0z" />
<glyph unicode="&#xbc;" horiz-adv-x="1345" d="M72 1125q0 58 10 75l182 131q68 21 137 0v-635q-91 -21 -180 0v459l-139 -100q-10 14 -10 70zM264 0l631 1331q76 21 154 0l-631 -1331q-78 -21 -154 0zM743 111q-18 69 0 137l304 387q68 21 137 0v-387h80q18 -69 0 -137h-80v-111q-92 -21 -180 0v111h-261zM866 248h138 v176z" />
<glyph unicode="&#xbd;" horiz-adv-x="1409" d="M59 1125q0 56 11 75l182 131q68 21 137 0v-635q-91 -21 -180 0v459l-139 -100q-11 16 -11 70zM254 0l631 1331q77 21 153 0l-630 -1331q-76 -21 -154 0zM834 0v14q184 187 245 274q60 86 60 144q0 35 -28 61q-26 25 -77 25q-70 0 -164 -72q-6 8 -6 79q0 70 6 85 q73 56 193 56t187 -65t67 -155q0 -74 -46 -141q-47 -69 -159 -158h215q24 -73 0 -147h-493z" />
<glyph unicode="&#xbe;" horiz-adv-x="1423" d="M71 802q-1 60 7 72q111 -71 186 -71q45 0 75 20q32 21 32 60q0 75 -103 75h-71q-11 62 0 125h69q39 0 64 20q24 19 24 50q0 33 -25 52q-26 20 -67 20q-68 0 -180 -72q-6 11 -5 73q2 66 5 79q82 57 201 57q110 0 175 -53q64 -54 64 -131q0 -99 -92 -152q107 -44 107 -162 q0 -92 -69 -145q-70 -53 -179 -53q-135 0 -211 57q-5 15 -7 79zM344 0l631 1331q77 21 153 0l-630 -1331q-76 -21 -154 0zM823 111q-18 69 0 137l303 387q70 21 138 0v-387h79q18 -69 0 -137h-79v-111q-92 -21 -181 0v111h-260zM946 248h137v176z" />
<glyph unicode="&#xbf;" horiz-adv-x="993" d="M70 -20q0 60 14 101q16 46 54 90q42 48 73 75q51 44 104 86q75 58 94 85q21 30 21 99q133 24 266 0q0 -101 -32 -152q-33 -53 -136 -133q-126 -96 -159 -133q-31 -42 -31 -94q0 -73 54 -116q55 -44 147 -44q151 0 370 144q15 -22 14 -122q-1 -101 -14 -132 q-167 -111 -399 -111q-212 0 -326 105t-114 252zM410 872q0 62 44 103t109 41q66 0 110 -41t44 -103q0 -63 -44 -104t-110 -41q-65 0 -109 41t-44 104z" />
<glyph unicode="&#xc0;" d="M70 0l546 1331q111 21 222 0l546 -1331q-137 -27 -274 0l-115 295h-536l-115 -295q-137 -27 -274 0zM532 1759q16 31 70 74q55 43 88 49l232 -334q-16 -30 -55 -59q-43 -32 -72 -37zM543 518h368l-184 471z" />
<glyph unicode="&#xc1;" d="M70 0l546 1331q111 21 222 0l546 -1331q-137 -27 -274 0l-115 295h-536l-115 -295q-137 -27 -274 0zM532 1548l232 334q33 -6 88 -49q54 -43 70 -74l-263 -307q-29 5 -72 37q-39 29 -55 59zM543 518h368l-184 471z" />
<glyph unicode="&#xc2;" d="M70 0l546 1331q111 21 222 0l546 -1331q-137 -27 -274 0l-115 295h-536l-115 -295q-137 -27 -274 0zM403 1575l283 285q15 14 42 14q26 0 40 -14l285 -285q-11 -31 -58 -76q-45 -44 -77 -51l-191 194l-190 -194q-32 11 -76 52q-47 43 -58 75zM543 518h368l-184 471z" />
<glyph unicode="&#xc3;" d="M70 0l546 1331q111 21 222 0l546 -1331q-137 -27 -274 0l-115 295h-536l-115 -295q-137 -27 -274 0zM420 1507q-23 95 0 185l26 13q8 5 17.5 9.5t11.5 5.5q10 6 27 13q21 9 30 11q12 3 30 6t34 3q55 0 154 -45q58 -25 106 -25q57 0 176 62q22 -94 0 -184q-3 -1 -26 -14 q-8 -5 -17.5 -9.5t-11.5 -5.5q-4 -2 -27 -12q-27 -11 -30 -12q-12 -3 -30 -6t-34 -3q-55 0 -154 45q-58 25 -106 25q-57 0 -176 -62zM543 518h368l-184 471z" />
<glyph unicode="&#xc4;" d="M70 0l546 1331q111 21 222 0l546 -1331q-137 -27 -274 0l-115 295h-536l-115 -295q-137 -27 -274 0zM326 1651q0 63 44 104t109 41q66 0 110 -41t44 -104q0 -64 -44 -105t-110 -41q-65 0 -109 41t-44 105zM543 518h368l-184 471zM823 1651q0 63 44 104t110 41 q65 0 109 -41t44 -104q0 -64 -44 -105t-109 -41q-66 0 -110 41t-44 105z" />
<glyph unicode="&#xc5;" d="M70 0l546 1331q111 21 222 0l546 -1331q-137 -27 -274 0l-115 295h-536l-115 -295q-137 -27 -274 0zM528 1679q0 81 59 138t140 57q82 0 139 -57q58 -58 58 -138q0 -81 -58 -139q-57 -57 -139 -57q-81 0 -140 57t-59 139zM543 518h368l-184 471zM662 1679q0 -27 19 -46 t46 -19t45 19q19 21 19 46q0 26 -19 45t-45 19q-25 0 -46 -19q-19 -18 -19 -45z" />
<glyph unicode="&#xc6;" horiz-adv-x="1726" d="M70 0l546 1331h1022q21 -111 0 -221h-649l-2 -324h584q24 -111 0 -221h-584v-344h651q21 -111 0 -221h-915v295h-264l-115 -295q-137 -27 -274 0zM543 518h180v461z" />
<glyph unicode="&#xc7;" horiz-adv-x="1423" d="M106 666q0 294 204 495t536 201q244 0 418 -111q12 -27 12 -124q0 -96 -12 -117q-206 131 -404 131q-207 0 -345 -132t-138 -343t138 -343q139 -133 345 -133q196 0 404 132q12 -21 12 -118t-12 -124q-155 -98 -367 -109v-77q61 4 114 -39q52 -43 52 -119q0 -78 -55 -127 t-142 -49q-84 0 -151 43q-10 21 -10 63t10 62q80 -54 135 -54q90 4 90 76q0 50 -48 68q-50 19 -112 -8v161q-305 21 -489 218q-185 199 -185 477z" />
<glyph unicode="&#xc8;" horiz-adv-x="1161" d="M158 0v1331h915q21 -111 0 -221h-649v-324h584q21 -110 0 -221h-584v-344h649q21 -111 0 -221h-915zM410 1759q16 33 69 74q55 43 88 49l232 -334q-16 -30 -55 -59q-43 -32 -72 -37z" />
<glyph unicode="&#xc9;" horiz-adv-x="1161" d="M158 0v1331h915q21 -111 0 -221h-649v-324h584q21 -110 0 -221h-584v-344h649q21 -111 0 -221h-915zM410 1548l231 334q33 -6 88 -49q54 -43 70 -74l-262 -307q-31 6 -73 37q-38 28 -54 59z" />
<glyph unicode="&#xca;" horiz-adv-x="1161" d="M158 0v1331h915q21 -111 0 -221h-649v-324h584q21 -110 0 -221h-584v-344h649q21 -111 0 -221h-915zM279 1575l282 285q15 14 41 14t41 -14l285 -285q-11 -31 -58 -76q-45 -44 -77 -51l-191 194l-190 -194q-32 11 -76 52q-45 42 -57 75z" />
<glyph unicode="&#xcb;" horiz-adv-x="1161" d="M158 0v1331h915q21 -111 0 -221h-649v-324h584q21 -110 0 -221h-584v-344h649q21 -111 0 -221h-915zM211 1651q0 63 44 104t110 41q65 0 109 -41t44 -104q0 -64 -44 -105t-109 -41q-66 0 -110 41t-44 105zM707 1651q0 63 44 104t109 41q66 0 110 -41t44 -104 q0 -64 -44 -105t-110 -41q-65 0 -109 41t-44 105z" />
<glyph unicode="&#xcc;" horiz-adv-x="579" d="M94 1759q16 31 70 74q55 43 88 49l231 -334q-16 -31 -54 -59q-42 -31 -73 -37zM158 0v1331q133 24 266 0v-1331q-133 -24 -266 0z" />
<glyph unicode="&#xcd;" horiz-adv-x="579" d="M94 1548l232 334q33 -6 88 -49q53 -41 69 -74l-262 -307q-31 6 -73 37q-38 28 -54 59zM158 0v1331q133 24 266 0v-1331q-133 -24 -266 0z" />
<glyph unicode="&#xce;" horiz-adv-x="579" d="M-35 1575l283 285q15 14 42 14q26 0 40 -14l284 -285q-12 -33 -57 -75q-44 -41 -76 -52l-192 194l-191 -194q-31 11 -75 52q-47 43 -58 75zM158 0v1331q133 24 266 0v-1331q-133 -24 -266 0z" />
<glyph unicode="&#xcf;" horiz-adv-x="579" d="M-111 1651q0 63 44 104t110 41q64 0 109 -42t45 -103q0 -62 -45 -104t-109 -42q-66 0 -110 41t-44 105zM158 0v1331q133 24 266 0v-1331q-133 -24 -266 0zM385 1651q0 63 44 104t110 41q65 0 109 -41t44 -104q0 -64 -44 -105t-109 -41q-66 0 -110 41t-44 105z" />
<glyph unicode="&#xd0;" d="M61 578q-23 90 0 182h97v571h483q321 0 513 -188q194 -189 194 -477q0 -289 -194 -478q-192 -188 -513 -188h-483v578h-97zM422 221h219q193 0 314 119q120 119 120 326q0 206 -120 325q-121 119 -314 119h-219v-350h203q23 -90 0 -185h-203v-354z" />
<glyph unicode="&#xd1;" horiz-adv-x="1474" d="M150 0v1331q104 21 208 0l701 -885v885q133 24 264 0v-1331q-102 -21 -209 0l-698 885v-885q-133 -24 -266 0zM430 1507q-23 95 0 185q2 0 27 13q8 4 17 9t11 6q10 6 27 13q20 8 31 11q14 4 29 6q18 3 34 3q55 0 154 -45q58 -25 106 -25q57 0 176 62q22 -94 0 -184 q-3 -1 -26 -14q-8 -5 -17.5 -9.5t-11.5 -5.5q-6 -4 -26 -12q-26 -11 -31 -12q-12 -3 -30 -6t-34 -3q-54 0 -153 45q-58 25 -107 25q-57 0 -176 -62z" />
<glyph unicode="&#xd2;" horiz-adv-x="1617" d="M106 666q0 293 198 494q199 202 505 202q308 0 507 -202q197 -200 197 -494q0 -295 -197 -495q-199 -202 -507 -202q-306 0 -505 202q-198 201 -198 495zM377 666q0 -212 124 -343q125 -133 308 -133q184 0 309 133t125 343t-125 343q-124 132 -309 132q-183 0 -308 -132 q-124 -131 -124 -343zM614 1759q16 31 70 74q55 43 88 49l232 -334q-16 -30 -55 -59q-43 -32 -72 -37z" />
<glyph unicode="&#xd3;" horiz-adv-x="1617" d="M106 666q0 293 198 494q199 202 505 202q308 0 507 -202q197 -200 197 -494q0 -295 -197 -495q-199 -202 -507 -202q-306 0 -505 202q-198 201 -198 495zM377 666q0 -212 124 -343q125 -133 308 -133q184 0 309 133t125 343t-125 343q-124 132 -309 132q-183 0 -308 -132 q-124 -131 -124 -343zM614 1548l232 334q33 -6 88 -49q54 -43 70 -74l-263 -307q-29 5 -72 37q-39 29 -55 59z" />
<glyph unicode="&#xd4;" horiz-adv-x="1617" d="M106 666q0 293 198 494q199 202 505 202q308 0 507 -202q197 -200 197 -494q0 -295 -197 -495q-199 -202 -507 -202q-306 0 -505 202q-198 201 -198 495zM377 666q0 -212 124 -343q125 -133 308 -133q184 0 309 133t125 343t-125 343q-124 132 -309 132q-183 0 -308 -132 q-124 -131 -124 -343zM485 1575l283 285q15 14 42 14q26 0 40 -14l285 -285q-11 -31 -58 -76q-45 -43 -78 -51l-190 194l-191 -194q-31 11 -75 52q-47 43 -58 75z" />
<glyph unicode="&#xd5;" horiz-adv-x="1617" d="M106 666q0 293 198 494q199 202 505 202q308 0 507 -202q197 -200 197 -494q0 -295 -197 -495q-199 -202 -507 -202q-306 0 -505 202q-198 201 -198 495zM377 666q0 -212 124 -343q125 -133 308 -133q184 0 309 133t125 343t-125 343q-124 132 -309 132q-183 0 -308 -132 q-124 -131 -124 -343zM502 1507q-23 95 0 185l26 13q8 5 17.5 9.5t11.5 5.5q10 6 27 13q21 9 30 11q12 3 30 6t34 3q54 0 153 -45q58 -25 107 -25q57 0 176 62q22 -94 0 -184q-4 -1 -27 -14q-8 -4 -17 -9t-11 -6q-4 -2 -27 -12q-25 -11 -31 -12q-14 -4 -29 -6q-18 -3 -34 -3 q-55 0 -154 45q-58 25 -106 25q-57 0 -176 -62z" />
<glyph unicode="&#xd6;" horiz-adv-x="1617" d="M106 666q0 293 198 494q199 202 505 202q308 0 507 -202q197 -200 197 -494q0 -295 -197 -495q-199 -202 -507 -202q-306 0 -505 202q-198 201 -198 495zM377 666q0 -212 124 -343q125 -133 308 -133q184 0 309 133t125 343t-125 343q-124 132 -309 132q-183 0 -308 -132 q-124 -131 -124 -343zM408 1651q0 63 44 104t109 41q66 0 110 -41t44 -104q0 -64 -44 -105t-110 -41q-65 0 -109 41t-44 105zM905 1651q0 63 44 104t110 41q65 0 109 -41t44 -104q0 -64 -44 -105t-109 -41q-66 0 -110 41t-44 105z" />
<glyph unicode="&#xd7;" horiz-adv-x="770" d="M70 352l184 185l-184 184q49 82 131 131l184 -184l184 184q80 -51 131 -131l-186 -184l184 -185q-50 -80 -129 -131l-184 187l-184 -185q-80 50 -131 129z" />
<glyph unicode="&#xd8;" horiz-adv-x="1617" d="M106 0l177 193q-177 197 -177 473q0 293 198 494q199 202 505 202q239 0 424 -131l92 100q94 27 188 0l-176 -192q176 -196 176 -473q0 -295 -197 -495q-199 -202 -507 -202q-241 0 -422 131l-92 -100q-95 -27 -189 0zM377 666q0 -164 78 -285l616 672q-112 88 -262 88 q-183 0 -308 -132q-124 -131 -124 -343zM549 279q112 -89 260 -89q184 0 309 133t125 343q0 165 -80 284z" />
<glyph unicode="&#xd9;" horiz-adv-x="1419" d="M158 543v788q135 24 270 0v-827q0 -144 76 -229t211 -85t210 85q74 84 74 229v827q135 24 271 0v-788q0 -285 -145 -430q-144 -144 -410 -144q-267 0 -412 144t-145 430zM516 1759q16 31 70 74q55 43 88 49l231 -334q-16 -31 -54 -59q-42 -31 -73 -37z" />
<glyph unicode="&#xda;" horiz-adv-x="1419" d="M158 543v788q135 24 270 0v-827q0 -144 76 -229t211 -85t210 85q74 84 74 229v827q135 24 271 0v-788q0 -285 -145 -430q-144 -144 -410 -144q-267 0 -412 144t-145 430zM516 1548l232 334q33 -6 88 -49q53 -41 69 -74l-262 -307q-31 6 -73 37q-38 28 -54 59z" />
<glyph unicode="&#xdb;" horiz-adv-x="1419" d="M158 543v788q135 24 270 0v-827q0 -144 76 -229t211 -85t210 85q74 84 74 229v827q135 24 271 0v-788q0 -285 -145 -430q-144 -144 -410 -144q-267 0 -412 144t-145 430zM387 1575l283 285q15 14 41 14t41 -14l284 -285q-12 -32 -57 -76q-45 -43 -78 -51l-190 194 l-191 -194q-32 11 -76 52q-45 42 -57 75z" />
<glyph unicode="&#xdc;" horiz-adv-x="1419" d="M158 543v788q135 24 270 0v-827q0 -144 76 -229t211 -85t210 85q74 84 74 229v827q135 24 271 0v-788q0 -285 -145 -430q-144 -144 -410 -144q-267 0 -412 144t-145 430zM309 1651q0 63 44 104t110 41q65 0 109 -41t44 -104q0 -64 -44 -105t-109 -41q-66 0 -110 41 t-44 105zM807 1651q0 63 44 104t110 41q65 0 109 -41t44 -104q0 -64 -44 -105t-109 -41q-66 0 -110 41t-44 105z" />
<glyph unicode="&#xdd;" horiz-adv-x="1390" d="M70 1331q141 27 284 0l342 -608l340 608q144 27 285 0l-492 -856v-475q-133 -24 -266 0v475zM500 1548l231 334q33 -6 88 -49q54 -43 70 -74l-262 -307q-31 6 -73 37q-38 28 -54 59z" />
<glyph unicode="&#xde;" horiz-adv-x="1263" d="M158 0v1331q133 24 266 0v-182h240q225 0 360 -123t135 -317q0 -195 -135 -318t-360 -123h-240v-268q-133 -24 -266 0zM422 489h240q104 0 165 60q62 60 62 160q0 101 -62 160t-165 59h-240v-439z" />
<glyph unicode="&#xdf;" horiz-adv-x="1179" d="M119 0v852q0 240 139 375q140 135 358 135q198 0 321 -109q122 -108 122 -270q0 -99 -48 -179q-47 -79 -137 -118q226 -90 226 -338q0 -167 -112 -274t-304 -107q-140 0 -246 56q-12 33 -12 114q0 82 12 103q84 -64 201 -64q97 0 158 52t61 147q0 93 -63 142 q-64 50 -170 50h-105q-22 105 0 211h98q87 0 143 49t56 138q0 86 -55 137q-56 51 -150 51q-119 0 -185 -81q-67 -82 -67 -228v-844q-120 -22 -241 0z" />
<glyph unicode="&#xe0;" horiz-adv-x="978" d="M84 233q0 121 83 193t214 72q145 0 235 -78v65q0 170 -192 170q-127 0 -260 -77q-15 20 -13 93q2 74 13 101q117 78 309 78q385 0 385 -385v-465q-104 -21 -209 0l-14 88q-105 -119 -262 -119q-123 0 -206 71t-83 193zM295 1247q16 31 70 74q55 43 88 49l231 -334 q-16 -31 -54 -59q-42 -31 -73 -37zM324 250q0 -44 30 -72q29 -28 88 -28q98 0 174 61v78q-29 24 -75 41q-49 18 -97 18q-60 0 -90 -27t-30 -71z" />
<glyph unicode="&#xe1;" horiz-adv-x="978" d="M84 233q0 121 83 193t214 72q145 0 235 -78v65q0 170 -192 170q-127 0 -260 -77q-15 20 -13 93q2 74 13 101q117 78 309 78q385 0 385 -385v-465q-104 -21 -209 0l-14 88q-105 -119 -262 -119q-123 0 -206 71t-83 193zM295 1036l231 334q33 -6 88 -49q54 -43 70 -74 l-262 -307q-31 6 -73 37q-38 28 -54 59zM324 250q0 -44 30 -72q29 -28 88 -28q98 0 174 61v78q-29 24 -75 41q-49 18 -97 18q-60 0 -90 -27t-30 -71z" />
<glyph unicode="&#xe2;" horiz-adv-x="978" d="M84 233q0 121 83 193t214 72q145 0 235 -78v65q0 170 -192 170q-127 0 -260 -77q-15 20 -13 93q2 74 13 101q117 78 309 78q385 0 385 -385v-465q-104 -21 -209 0l-14 88q-105 -119 -262 -119q-123 0 -206 71t-83 193zM164 1063l282 285q15 14 42 14q26 0 40 -14 l285 -285q-12 -32 -57 -76q-45 -43 -78 -51l-191 194l-190 -194q-32 11 -76 52q-45 42 -57 75zM324 250q0 -44 30 -72q29 -28 88 -28q98 0 174 61v78q-29 24 -75 41q-49 18 -97 18q-60 0 -90 -27t-30 -71z" />
<glyph unicode="&#xe3;" horiz-adv-x="978" d="M84 233q0 121 83 193t214 72q145 0 235 -78v65q0 170 -192 170q-127 0 -260 -77q-15 20 -13 93q2 74 13 101q117 78 309 78q385 0 385 -385v-465q-104 -21 -209 0l-14 88q-105 -119 -262 -119q-123 0 -206 71t-83 193zM182 995q-23 95 0 185q2 0 27 13q8 5 17.5 9.5 t11.5 5.5q12 7 26 13q20 8 31 11q12 3 30 6t33 3q55 0 154 -45q58 -25 106 -25q58 0 177 62q22 -94 0 -184q-2 0 -5.5 -2t-9.5 -5.5t-12 -6.5q-8 -5 -17.5 -9.5t-11.5 -5.5q-6 -4 -26 -12q-26 -11 -31 -12q-12 -3 -30 -6t-34 -3q-54 0 -153 45q-58 25 -107 25 q-57 0 -176 -62zM324 250q0 -44 30 -72q29 -28 88 -28q98 0 174 61v78q-29 24 -75 41q-49 18 -97 18q-60 0 -90 -27t-30 -71z" />
<glyph unicode="&#xe4;" horiz-adv-x="978" d="M84 233q0 121 83 193t214 72q145 0 235 -78v65q0 170 -192 170q-127 0 -260 -77q-15 20 -13 93q2 74 13 101q117 78 309 78q385 0 385 -385v-465q-104 -21 -209 0l-14 88q-105 -119 -262 -119q-123 0 -206 71t-83 193zM88 1139q0 63 44 104t110 41q65 0 109 -41t44 -104 q0 -64 -44 -105t-109 -41q-66 0 -110 41t-44 105zM324 250q0 -44 30 -72q29 -28 88 -28q98 0 174 61v78q-29 24 -75 41q-49 18 -97 18q-60 0 -90 -27t-30 -71zM584 1139q0 63 44 104t109 41q66 0 110 -41t44 -104q0 -64 -44 -105t-110 -41q-65 0 -109 41t-44 105z" />
<glyph unicode="&#xe5;" horiz-adv-x="978" d="M84 233q0 121 83 193t214 72q145 0 235 -78v65q0 170 -192 170q-127 0 -260 -77q-15 20 -13 93q2 74 13 101q117 78 309 78q385 0 385 -385v-465q-104 -21 -209 0l-14 88q-105 -119 -262 -119q-123 0 -206 71t-83 193zM291 1167q0 81 58 138q59 57 140 57q83 0 140 -57 t57 -138q0 -82 -57 -139t-140 -57q-81 0 -140 57q-58 57 -58 139zM324 250q0 -44 30 -72q29 -28 88 -28q98 0 174 61v78q-29 24 -75 41q-49 18 -97 18q-60 0 -90 -27t-30 -71zM424 1167q0 -27 19 -46t46 -19q28 0 46 19t18 46t-18 45q-19 19 -46 19q-25 0 -46 -19 q-19 -18 -19 -45z" />
<glyph unicode="&#xe6;" horiz-adv-x="1540" d="M84 233q0 121 83 193t214 72q145 0 233 -76l2 63q0 170 -192 170q-127 0 -260 -77q-15 20 -13 93q2 74 13 101q117 78 309 78q203 0 291 -117q112 117 293 117q151 0 252 -80q100 -79 130 -186q30 -106 3 -207h-584q11 -97 77 -151t167 -54q132 0 268 84q14 -20 13 -96 q-2 -77 -13 -103q-112 -88 -295 -88q-170 0 -276 94l-8 -63q-69 -24 -142 0l-14 88q-105 -119 -262 -119q-123 0 -206 71t-83 193zM324 250q0 -44 30 -72q29 -28 88 -28q98 0 174 61v78q-29 24 -75 41q-49 18 -97 18q-60 0 -90 -27t-30 -71zM872 504h351q-1 76 -47 120 t-117 44q-74 0 -123 -43t-64 -121z" />
<glyph unicode="&#xe7;" horiz-adv-x="964" d="M90 410q0 194 128 317t333 123q168 0 280 -88q13 -28 14 -103q1 -74 -14 -96q-141 84 -256 84q-106 0 -174 -64q-69 -65 -69 -173t69 -173q70 -65 174 -65q115 0 256 84q15 -22 14 -96q-1 -75 -14 -103q-107 -81 -249 -88v-75q61 4 113 -39q53 -44 53 -119 q0 -77 -56 -127q-55 -49 -141 -49q-85 0 -152 43q-10 21 -10 63t10 62q80 -54 136 -54q90 4 90 76q0 50 -48 68q-50 19 -112 -8v165q-171 27 -272 145q-103 120 -103 290z" />
<glyph unicode="&#xe8;" horiz-adv-x="1015" d="M90 412q0 192 124 315t318 123q116 0 205 -47q88 -46 129 -119t59 -155q18 -81 -7 -152h-584q11 -97 77 -151t167 -54q129 0 270 84q12 -21 12 -96q0 -76 -12 -103q-116 -88 -297 -88q-209 0 -335 123t-126 320zM334 1247q16 33 69 74q55 43 89 49l231 -334 q-16 -31 -54 -59q-42 -31 -73 -37zM348 504h350q-1 76 -47 120t-116 44q-74 0 -123 -43t-64 -121z" />
<glyph unicode="&#xe9;" horiz-adv-x="1015" d="M90 412q0 192 124 315t318 123q116 0 205 -47q88 -46 129 -119t59 -155q18 -81 -7 -152h-584q11 -97 77 -151t167 -54q129 0 270 84q12 -21 12 -96q0 -76 -12 -103q-116 -88 -297 -88q-209 0 -335 123t-126 320zM334 1036l231 334q33 -6 88 -49q54 -43 70 -74l-262 -307 q-31 6 -73 37q-38 28 -54 59zM348 504h350q-1 76 -47 120t-116 44q-74 0 -123 -43t-64 -121z" />
<glyph unicode="&#xea;" horiz-adv-x="1015" d="M90 412q0 192 124 315t318 123q116 0 205 -47q88 -46 129 -119t59 -155q18 -81 -7 -152h-584q11 -97 77 -151t167 -54q129 0 270 84q12 -21 12 -96q0 -76 -12 -103q-116 -88 -297 -88q-209 0 -335 123t-126 320zM205 1063l282 285q15 14 42 14q26 0 40 -14l285 -285 q-12 -32 -57 -76q-45 -43 -78 -51l-191 194l-190 -194q-32 11 -76 52q-45 42 -57 75zM348 504h350q-1 76 -47 120t-116 44q-74 0 -123 -43t-64 -121z" />
<glyph unicode="&#xeb;" horiz-adv-x="1015" d="M90 412q0 192 124 315t318 123q116 0 205 -47q88 -46 129 -119t59 -155q18 -81 -7 -152h-584q11 -97 77 -151t167 -54q129 0 270 84q12 -21 12 -96q0 -76 -12 -103q-116 -88 -297 -88q-209 0 -335 123t-126 320zM127 1139q0 63 44 104t110 41q65 0 109 -41t44 -104 q0 -64 -44 -105t-109 -41q-66 0 -110 41t-44 105zM348 504h350q-1 76 -47 120t-116 44q-74 0 -123 -43t-64 -121zM625 1139q0 63 44 104t109 41q66 0 110 -41t44 -104q0 -64 -44 -105t-110 -41q-65 0 -109 41t-44 105z" />
<glyph unicode="&#xec;" horiz-adv-x="493" d="M55 1247q16 31 70 74q55 43 88 49l231 -334q-16 -31 -54 -59q-42 -31 -73 -37zM127 0v819q121 22 242 0v-819q-121 -22 -242 0z" />
<glyph unicode="&#xed;" horiz-adv-x="493" d="M55 1036l232 334q33 -6 88 -49q53 -41 69 -74l-262 -307q-29 5 -72 37q-39 29 -55 59zM127 0v819q121 22 242 0v-819q-121 -22 -242 0z" />
<glyph unicode="&#xee;" horiz-adv-x="493" d="M-74 1063l283 285q15 14 41 14t41 -14l284 -285q-12 -34 -58 -75q-45 -41 -77 -52l-190 194l-191 -194q-31 11 -75 52q-47 43 -58 75zM127 0v819q121 22 242 0v-819q-121 -22 -242 0z" />
<glyph unicode="&#xef;" horiz-adv-x="493" d="M-152 1139q0 63 44 104t110 41q64 0 108 -42t44 -103q0 -62 -44 -104q-43 -42 -108 -42q-66 0 -110 41t-44 105zM127 0v819q121 22 242 0v-819q-121 -22 -242 0zM344 1139q0 63 44 104t110 41q65 0 109 -41t44 -104q0 -64 -44 -105t-109 -41q-66 0 -110 41t-44 105z" />
<glyph unicode="&#xf0;" horiz-adv-x="1062" d="M84 414q0 176 105 298t280 122q149 0 256 -111q-45 156 -190 262l-232 -137q-23 70 0 139l109 66q-98 41 -203 59q-12 27 -12 113q0 85 12 106q244 -29 422 -149l198 118q23 -69 0 -141l-98 -57q242 -231 242 -592v-45q0 -228 -122 -362t-321 -134q-194 0 -320 127 q-126 128 -126 318zM326 405q0 -102 59 -164q60 -63 145 -63q90 0 147 60q56 59 56 178v45q0 42 -4 78q-91 86 -201 86q-82 0 -143 -59q-59 -58 -59 -161z" />
<glyph unicode="&#xf1;" horiz-adv-x="1048" d="M123 0v819q104 21 209 0l18 -106q122 137 273 137q157 0 232 -93t75 -229v-528q-121 -22 -242 0v475q0 166 -147 166q-97 0 -176 -84v-557q-121 -22 -242 0zM217 995q-23 95 0 185q2 0 27 13q8 4 17 9t11 6q10 6 27 13q20 8 31 11q14 4 29 6q18 3 34 3q55 0 154 -45 q58 -25 106 -25q57 0 176 62q22 -94 0 -184q-2 0 -5 -2t-9 -5.5t-12 -6.5q-8 -5 -17.5 -9.5t-11.5 -5.5q-6 -4 -26 -12q-26 -11 -31 -12q-12 -3 -30 -6t-34 -3q-54 0 -153 45q-58 25 -107 25q-57 0 -176 -62z" />
<glyph unicode="&#xf2;" horiz-adv-x="1083" d="M90 410q0 185 127 312q128 128 324 128q195 0 323 -128q127 -127 127 -312q0 -186 -127 -313q-128 -128 -323 -128q-196 0 -324 128q-127 127 -127 313zM332 410q0 -106 59 -168q61 -64 150 -64q88 0 149 64q60 63 60 168t-60 168t-149 63q-90 0 -150 -63 q-59 -62 -59 -168zM346 1247q16 31 70 74q55 43 88 49l231 -334q-16 -31 -54 -59q-42 -31 -73 -37z" />
<glyph unicode="&#xf3;" horiz-adv-x="1083" d="M90 410q0 185 127 312q128 128 324 128q195 0 323 -128q127 -127 127 -312q0 -186 -127 -313q-128 -128 -323 -128q-196 0 -324 128q-127 127 -127 313zM332 410q0 -106 59 -168q61 -64 150 -64q88 0 149 64q60 63 60 168t-60 168t-149 63q-90 0 -150 -63 q-59 -62 -59 -168zM346 1036l232 334q33 -6 88 -49q53 -41 69 -74l-262 -307q-31 6 -73 37q-38 28 -54 59z" />
<glyph unicode="&#xf4;" horiz-adv-x="1083" d="M90 410q0 185 127 312q128 128 324 128q195 0 323 -128q127 -127 127 -312q0 -186 -127 -313q-128 -128 -323 -128q-196 0 -324 128q-127 127 -127 313zM217 1063l283 285q15 14 41 14t41 -14l284 -285q-12 -32 -57 -76q-45 -43 -78 -51l-190 194l-191 -194 q-32 11 -76 52q-45 42 -57 75zM332 410q0 -106 59 -168q61 -64 150 -64q88 0 149 64q60 63 60 168t-60 168t-149 63q-90 0 -150 -63q-59 -62 -59 -168z" />
<glyph unicode="&#xf5;" horiz-adv-x="1083" d="M90 410q0 185 127 312q128 128 324 128q195 0 323 -128q127 -127 127 -312q0 -186 -127 -313q-128 -128 -323 -128q-196 0 -324 128q-127 127 -127 313zM233 995q-23 95 0 185q2 0 27 13q8 5 17.5 9.5t11.5 5.5q12 7 26 13q20 8 31 11q12 3 30 6t34 3q54 0 153 -45 q58 -25 107 -25q57 0 176 62q22 -94 0 -184q-2 0 -5.5 -2t-9.5 -5.5t-12 -6.5q-8 -4 -17 -9t-11 -6q-4 -2 -27 -12q-26 -11 -31 -12q-12 -3 -30 -6t-33 -3q-55 0 -154 45q-58 25 -106 25q-58 0 -177 -62zM332 410q0 -106 59 -168q61 -64 150 -64q88 0 149 64q60 63 60 168 t-60 168t-149 63q-90 0 -150 -63q-59 -62 -59 -168z" />
<glyph unicode="&#xf6;" horiz-adv-x="1083" d="M90 410q0 185 127 312q128 128 324 128q195 0 323 -128q127 -127 127 -312q0 -186 -127 -313q-128 -128 -323 -128q-196 0 -324 128q-127 127 -127 313zM139 1139q0 63 44 104t110 41q65 0 109 -41t44 -104q0 -64 -44 -105t-109 -41q-66 0 -110 41t-44 105zM332 410 q0 -106 59 -168q61 -64 150 -64q88 0 149 64q60 63 60 168t-60 168t-149 63q-90 0 -150 -63q-59 -62 -59 -168zM637 1139q0 63 44 104t110 41q65 0 109 -41t44 -104q0 -64 -44 -105t-109 -41q-66 0 -110 41t-44 105z" />
<glyph unicode="&#xf7;" horiz-adv-x="866" d="M82 446q-23 91 0 183h704q23 -90 0 -185zM281 221q0 64 44 105t109 41q66 0 110 -41t44 -105q0 -61 -44 -102t-110 -41q-65 0 -109 41t-44 102zM281 850q0 63 44 104t109 41q66 0 110 -41t44 -104q0 -61 -44 -102t-110 -41q-65 0 -109 41t-44 102z" />
<glyph unicode="&#xf8;" horiz-adv-x="1083" d="M90 0l107 121q-107 119 -107 289q0 185 127 312q128 128 324 128q132 0 239 -64l29 33q92 24 182 0l-106 -121q106 -118 106 -288q0 -186 -127 -313q-128 -128 -323 -128q-133 0 -240 64l-29 -33q-92 -24 -182 0zM332 410q0 -61 22 -111l281 322q-44 20 -94 20 q-90 0 -150 -63q-59 -62 -59 -168zM446 199q46 -21 95 -21q88 0 149 64q60 63 60 168q0 58 -23 110z" />
<glyph unicode="&#xf9;" horiz-adv-x="1044" d="M119 291v528q121 22 241 0v-475q0 -166 148 -166q92 0 176 84v557q121 22 242 0v-819q-107 -21 -209 0l-19 106q-122 -137 -272 -137q-159 0 -233 93q-74 94 -74 229zM328 1247q16 33 69 74q55 43 88 49l232 -334q-16 -31 -54 -59q-42 -31 -73 -37z" />
<glyph unicode="&#xfa;" horiz-adv-x="1044" d="M119 291v528q121 22 241 0v-475q0 -166 148 -166q92 0 176 84v557q121 22 242 0v-819q-107 -21 -209 0l-19 106q-122 -137 -272 -137q-159 0 -233 93q-74 94 -74 229zM328 1036l231 334q33 -6 88 -49q54 -43 70 -74l-262 -307q-31 6 -73 37q-38 28 -54 59z" />
<glyph unicode="&#xfb;" horiz-adv-x="1044" d="M119 291v528q121 22 241 0v-475q0 -166 148 -166q92 0 176 84v557q121 22 242 0v-819q-107 -21 -209 0l-19 106q-122 -137 -272 -137q-159 0 -233 93q-74 94 -74 229zM199 1063l282 285q15 14 42 14q26 0 40 -14l285 -285q-12 -32 -57 -76q-45 -43 -78 -51l-191 194 l-190 -194q-32 11 -76 52q-45 42 -57 75z" />
<glyph unicode="&#xfc;" horiz-adv-x="1044" d="M119 291v528q121 22 241 0v-475q0 -166 148 -166q92 0 176 84v557q121 22 242 0v-819q-107 -21 -209 0l-19 106q-122 -137 -272 -137q-159 0 -233 93q-74 94 -74 229zM121 1139q0 63 44 104t109 41q66 0 110 -41t44 -104q0 -64 -44 -105t-110 -41q-65 0 -109 41t-44 105z M618 1139q0 62 45 104q44 41 109 41q66 0 110 -41t44 -104q0 -64 -44 -105t-110 -41q-65 0 -109 41q-45 42 -45 105z" />
<glyph unicode="&#xfd;" horiz-adv-x="1060" d="M66 819q126 24 253 0l211 -489l211 489q127 24 254 0l-524 -1153q-123 -22 -246 0l183 402zM336 1036l231 334q33 -6 88 -49q54 -43 70 -74l-262 -307q-31 6 -73 37q-38 28 -54 59z" />
<glyph unicode="&#xfe;" horiz-adv-x="1105" d="M127 -334v1665q121 22 242 0v-596q101 115 260 115q174 0 280 -126q107 -127 107 -314q0 -188 -107 -315q-106 -126 -280 -126q-160 0 -260 115v-418q-121 -22 -242 0zM369 266q84 -88 194 -88q94 0 153 64q58 62 58 168t-58 168q-58 63 -153 63q-110 0 -194 -88v-287z " />
<glyph unicode="&#xff;" horiz-adv-x="1060" d="M66 819q126 24 253 0l211 -489l211 489q127 24 254 0l-524 -1153q-123 -22 -246 0l183 402zM129 1139q0 63 44 104t110 41q65 0 109 -41t44 -104q0 -64 -44 -105t-109 -41q-66 0 -110 41t-44 105zM627 1139q0 63 44 104t109 41q66 0 110 -41t44 -104q0 -64 -44 -105 t-110 -41q-65 0 -109 41t-44 105z" />
<glyph unicode="&#x152;" horiz-adv-x="2252" d="M106 666q0 293 198 494q199 202 505 202q268 0 438 -176v145h918q21 -111 0 -221h-652v-324h584q21 -111 0 -221h-584v-344h652q21 -111 0 -221h-918v147q-168 -178 -438 -178q-306 0 -505 202q-198 201 -198 495zM377 666q0 -212 124 -343q125 -133 308 -133 q184 0 309 133t125 343q0 213 -125 344t-309 131q-183 0 -308 -131q-124 -130 -124 -344z" />
<glyph unicode="&#x153;" horiz-adv-x="1675" d="M90 410q0 185 127 312q128 128 324 128q205 0 327 -148q118 148 324 148q116 0 205 -47q88 -46 129 -119q40 -70 58 -155q18 -81 -7 -152h-582q7 -96 75 -151q66 -54 167 -54q129 0 270 84q13 -23 13 -96q0 -74 -13 -103q-112 -88 -295 -88q-225 0 -344 148 q-122 -148 -327 -148q-196 0 -324 128q-127 127 -127 313zM332 410q0 -106 59 -168q61 -64 150 -64q88 0 149 64q60 63 60 168t-60 168t-149 63q-90 0 -150 -63q-59 -62 -59 -168zM1008 504h350q-1 76 -47 120t-117 44q-74 0 -123 -43q-48 -42 -63 -121z" />
<glyph unicode="&#x178;" horiz-adv-x="1390" d="M70 1331q141 27 284 0l342 -608l340 608q144 27 285 0l-492 -856v-475q-133 -24 -266 0v475zM295 1651q0 63 44 104t110 41q65 0 109 -41t44 -104q0 -64 -44 -105t-109 -41q-66 0 -110 41t-44 105zM791 1651q0 63 44 104t109 41q66 0 110 -41t44 -104q0 -64 -44 -105 t-110 -41q-65 0 -109 41t-44 105z" />
<glyph unicode="&#x2c6;" horiz-adv-x="788" d="M70 1575l282 285q15 14 41 14t41 -14l285 -285q-12 -32 -57 -76q-45 -43 -78 -51l-191 194l-190 -194q-32 11 -76 52q-45 42 -57 75z" />
<glyph unicode="&#x2dc;" horiz-adv-x="774" d="M82 1507q-23 95 0 185q2 0 27 13q8 4 17 9t11 6q10 6 27 13q20 8 31 11q14 4 29 6q18 3 34 3q55 0 154 -45q58 -25 106 -25q57 0 176 62q22 -94 0 -184q-3 -1 -26 -14q-8 -5 -17.5 -9.5t-11.5 -5.5q-4 -2 -27 -12q-27 -11 -30 -12q-12 -3 -30 -6t-34 -3q-54 0 -153 45 q-58 25 -107 25q-57 0 -176 -62z" />
<glyph unicode="&#x2000;" horiz-adv-x="941" />
<glyph unicode="&#x2001;" horiz-adv-x="1882" />
<glyph unicode="&#x2002;" horiz-adv-x="941" />
<glyph unicode="&#x2003;" horiz-adv-x="1882" />
<glyph unicode="&#x2004;" horiz-adv-x="627" />
<glyph unicode="&#x2005;" horiz-adv-x="470" />
<glyph unicode="&#x2006;" horiz-adv-x="313" />
<glyph unicode="&#x2007;" horiz-adv-x="313" />
<glyph unicode="&#x2008;" horiz-adv-x="235" />
<glyph unicode="&#x2009;" horiz-adv-x="376" />
<glyph unicode="&#x200a;" horiz-adv-x="104" />
<glyph unicode="&#x2010;" horiz-adv-x="724" d="M82 446q-23 91 0 183h563q23 -90 0 -185z" />
<glyph unicode="&#x2011;" horiz-adv-x="724" d="M82 446q-23 91 0 183h563q23 -90 0 -185z" />
<glyph unicode="&#x2012;" horiz-adv-x="724" d="M82 446q-23 91 0 183h563q23 -90 0 -185z" />
<glyph unicode="&#x2013;" horiz-adv-x="1017" d="M82 446q-23 91 0 183h856q23 -90 0 -185z" />
<glyph unicode="&#x2014;" horiz-adv-x="1247" d="M82 446q-23 91 0 183h1085q23 -90 0 -185z" />
<glyph unicode="&#x2018;" horiz-adv-x="462" d="M72 956q-2 110 55 225q56 114 109 150q66 15 133 0q-115 -112 -164 -274q21 4 35 4q63 0 107 -41t44 -102q0 -64 -44 -105t-109 -41q-67 0 -116 46q-50 47 -50 138z" />
<glyph unicode="&#x2019;" horiz-adv-x="462" d="M72 1217q0 63 44 104t109 41q67 0 116 -46q51 -47 52 -140q2 -109 -56 -223q-58 -115 -110 -150q-66 -15 -133 0q111 102 166 274q-25 -4 -37 -4q-63 0 -107 41t-44 103z" />
<glyph unicode="&#x201a;" horiz-adv-x="462" d="M72 113q0 63 44 104t109 41q67 0 116 -46q51 -47 52 -138q2 -111 -56 -225q-58 -115 -110 -150q-66 -15 -133 0q111 102 166 274q-25 -4 -37 -4q-63 0 -107 41t-44 103z" />
<glyph unicode="&#x201c;" horiz-adv-x="854" d="M72 956q-2 110 55 225q56 114 109 150q66 15 133 0q-115 -112 -164 -274q21 4 35 4q63 0 107 -41t44 -102q0 -64 -44 -105t-109 -41q-67 0 -116 46q-50 47 -50 138zM463 956q-2 110 55 225q56 114 109 150q66 15 133 0q-115 -112 -164 -274q21 4 35 4q63 0 107 -41 t44 -102q0 -64 -44 -105t-109 -41q-67 0 -116 46q-50 47 -50 138z" />
<glyph unicode="&#x201d;" horiz-adv-x="854" d="M72 1217q0 63 44 104t109 41q67 0 116 -46q51 -47 52 -140q2 -109 -56 -223q-58 -115 -110 -150q-66 -15 -133 0q111 102 166 274q-25 -4 -37 -4q-63 0 -107 41t-44 103zM463 1217q0 63 44 104t109 41q67 0 116 -46q51 -47 52 -140q2 -109 -56 -223q-58 -115 -110 -150 q-66 -15 -133 0q111 102 166 274q-25 -4 -37 -4q-63 0 -107 41t-44 103z" />
<glyph unicode="&#x201e;" horiz-adv-x="854" d="M72 113q0 63 44 104t109 41q67 0 116 -46q51 -47 52 -138q2 -111 -56 -225q-58 -115 -110 -150q-66 -15 -133 0q111 102 166 274q-25 -4 -37 -4q-63 0 -107 41t-44 103zM463 113q0 63 44 104t109 41q67 0 116 -46q51 -47 52 -138q2 -111 -56 -225q-58 -115 -110 -150 q-66 -15 -133 0q111 102 166 274q-25 -4 -37 -4q-63 0 -107 41t-44 103z" />
<glyph unicode="&#x2022;" horiz-adv-x="724" d="M70 586q0 121 86 207t206 86t206 -86q85 -85 85 -207t-85 -207q-86 -86 -206 -86t-206 86t-86 207z" />
<glyph unicode="&#x2026;" horiz-adv-x="1351" d="M70 113q0 63 44 104t109 41q66 0 110 -41t44 -104q0 -62 -44 -103t-110 -41q-65 0 -109 41t-44 103zM522 113q0 63 44 104t110 41q65 0 109 -41t44 -104q0 -62 -44 -103t-109 -41q-66 0 -110 41t-44 103zM973 113q0 63 44 104t109 41q66 0 110 -41t44 -104 q0 -62 -44 -103t-110 -41q-65 0 -109 41t-44 103z" />
<glyph unicode="&#x202f;" horiz-adv-x="376" />
<glyph unicode="&#x2039;" horiz-adv-x="573" d="M70 444l245 320q92 18 187 0l-193 -320l193 -319q-95 -18 -187 0z" />
<glyph unicode="&#x203a;" horiz-adv-x="573" d="M70 125l192 319l-192 320q94 18 188 0l244 -320l-244 -319q-94 -18 -188 0z" />
<glyph unicode="&#x205f;" horiz-adv-x="470" />
<glyph unicode="&#x20ac;" horiz-adv-x="1560" d="M82 512q-22 43 0 86h164q-4 40 -4 68q0 27 4 67h-164q-22 43 0 86h176q51 239 245 391t478 152q249 0 418 -111q12 -27 12 -124q0 -96 -12 -117q-206 131 -404 131q-163 0 -287 -87t-171 -235h520q22 -43 0 -86h-541q-4 -40 -4 -67q0 -28 4 -68h459q22 -43 0 -86h-438 q47 -147 171 -234q126 -88 287 -88q196 0 404 132q12 -21 12 -118t-12 -124q-169 -111 -418 -111q-284 0 -478 152t-245 391h-176z" />
<glyph unicode="&#x2122;" horiz-adv-x="1185" d="M76 1223q-12 53 0 108h411q12 -53 0 -110l-143 2v-305q-63 -15 -127 0v305h-141zM477 918l117 411q50 11 96 0l107 -248l102 248q49 10 100 0l115 -411q-60 -12 -123 0l-55 225l-90 -225q-49 -10 -98 0l-93 225l-57 -225q-61 -12 -121 0z" />
<glyph unicode="&#x25fc;" horiz-adv-x="829" d="M0 0v829h829v-829h-829z" />
</font>
</defs>
</svg>
